<?xml version='1.0' encoding='utf-8'?>
<svg xmlns="http://www.w3.org/2000/svg" width="134" height="111" viewBox="0 0 134 111" fill="none"> <circle cx="67.3937" cy="56.5008" r="53.5185" fill="#FBBC05"/> <path d="M116.907 34.2306C116.435 34.1614 115.957 34.1173 115.479 34.0858C120.912 46.6159 121.289 60.7641 116.53 73.5658C117.008 73.5092 117.479 73.4337 117.951 73.3455C122.559 72.4523 126.7 69.9518 129.637 66.2893C132.575 62.6268 134.118 58.0398 133.993 53.3451C133.868 48.6504 132.082 44.1526 128.953 40.6523C125.824 37.152 121.555 34.8764 116.907 34.2306Z" fill="black"/> <path d="M18.5209 34.0858C18.0426 34.1173 17.5647 34.1614 17.0928 34.2306C12.4445 34.8765 8.17602 37.1521 5.04725 40.6524C1.91847 44.1527 0.132429 48.6505 0.00707636 53.3452C-0.118276 58.0398 1.42521 62.6267 4.36273 66.2892C7.30026 69.9517 11.4412 72.4522 16.0484 73.3455C16.5203 73.4337 16.9921 73.5092 17.4701 73.5658C12.7115 60.764 13.088 46.616 18.5209 34.0858Z" fill="black"/> <path d="M116.907 34.2306C111.724 21.8419 102.125 11.8233 89.9737 6.12129C77.8225 0.41924 63.9871 -0.559173 51.1553 3.37614C38.3235 7.31145 27.4116 15.8795 20.5395 27.4158C13.6673 38.952 11.3256 52.6327 13.9692 65.8002C16.6128 78.9676 24.053 90.6815 34.8444 98.6663C45.6358 106.651 59.0079 110.337 72.3627 109.007C85.7176 107.677 98.1018 101.427 107.109 91.4705C116.117 81.5143 121.104 68.5628 121.103 55.1322C121.101 47.9557 119.674 40.8512 116.907 34.2306ZM116.53 73.5658C111.928 85.945 102.862 96.1522 91.1176 102.178C79.3728 108.204 65.7995 109.613 53.0691 106.126C40.3387 102.64 29.3733 94.5116 22.3312 83.3407C15.2891 72.1697 12.6802 58.7656 15.0182 45.7664C17.3562 32.7672 24.4717 21.1146 34.9641 13.1019C45.4565 5.08931 58.5659 1.29707 71.7121 2.47162C84.8583 3.64617 97.089 9.70243 105.997 19.4484C114.905 29.1944 119.845 41.9241 119.845 55.1322C119.843 61.4251 118.721 67.6672 116.53 73.5658Z" fill="black" stroke="black"/> <path d="M94.6809 42.8556H39.3193C36.3994 42.8556 33.5991 44.0164 31.5345 46.0825C29.4698 48.1487 28.3099 50.951 28.3099 53.873C28.3099 56.795 29.4698 59.5973 31.5345 61.6635C33.5991 63.7296 36.3994 64.8904 39.3193 64.8904H94.6809C97.6008 64.8904 100.401 63.7296 102.466 61.6635C104.53 59.5973 105.69 56.795 105.69 53.873C105.69 50.951 104.53 48.1487 102.466 46.0825C100.401 44.0164 97.6008 42.8556 94.6809 42.8556Z" fill="black"/> <path d="M51.5364 53.5275C51.5364 57.359 48.4303 60.465 44.5988 60.465C40.7673 60.465 37.6612 57.359 37.6612 53.5275C37.6612 49.6959 40.7673 46.5899 44.5988 46.5899C48.4303 46.5899 51.5364 49.6959 51.5364 53.5275Z" fill="#00B0FF"/> <path d="M99.1083 53.5275C99.1083 57.359 96.0023 60.465 92.1707 60.465C88.3392 60.465 85.2331 57.359 85.2331 53.5275C85.2331 49.6959 88.3392 46.5899 92.1707 46.5899C96.0023 46.5899 99.1083 49.6959 99.1083 53.5275Z" fill="#00B0FF"/> </svg>