<svg version="1.1" xmlns="http://www.w3.org/2000/svg" viewBox="0 0 1148.8524926967584 773.8868103088575" width="1148.8524926967584" height="773.8868103088575">
  <!-- svg-source:excalidraw -->
  
  <defs>
    <style>
      @font-face {
        font-family: "Virgil";
        src: url("https://excalidraw.com/Virgil.woff2");
      }
      @font-face {
        font-family: "Cascadia";
        src: url("https://excalidraw.com/Cascadia.woff2");
      }
    </style>
  </defs>
  <rect x="0" y="0" width="1148.8524926967584" height="773.8868103088575" fill="#ffffff"></rect><g stroke-linecap="round" transform="translate(10 10) rotate(0 108.72447094018844 279.7433504536865)"><path d="M13.81 13.33 C13.81 13.33, 13.81 13.33, 13.81 13.33 M13.81 13.33 C13.81 13.33, 13.81 13.33, 13.81 13.33 M6.99 27.28 C17.16 22.07, 22.81 10.53, 24.71 6.9 M6.99 27.28 C13.95 18.96, 18.08 13.47, 24.71 6.9 M5.42 35.19 C18.92 26.28, 23.2 13.64, 31.66 5 M5.42 35.19 C12.96 26.72, 21.01 16.11, 31.66 5 M3.19 43.85 C16.33 29.83, 29.43 13.55, 37.96 3.85 M3.19 43.85 C15.34 31.66, 26.16 20.19, 37.96 3.85 M2.93 50.25 C17.34 37.6, 26.87 26.47, 44.26 2.7 M2.93 50.25 C16.32 36.13, 30.51 20.4, 44.26 2.7 M2.67 56.64 C20.92 34.58, 34.2 18.72, 49.9 2.3 M2.67 56.64 C13.68 46.5, 23.56 35.58, 49.9 2.3 M3.06 62.29 C16.62 48.58, 27.01 35.41, 56.2 1.15 M3.06 62.29 C19.97 44.45, 34.99 24.16, 56.2 1.15 M2.8 68.68 C24.86 38.95, 52.77 18.63, 61.19 1.51 M2.8 68.68 C19.24 49.8, 33.08 33.86, 61.19 1.51 M3.19 74.33 C20.22 55.26, 43.21 30.35, 66.83 1.12 M3.19 74.33 C19.02 54.93, 34.91 36.12, 66.83 1.12 M2.93 80.72 C23.2 57.52, 47.76 32.62, 71.82 1.48 M2.93 80.72 C26.41 57.06, 44.86 29.98, 71.82 1.48 M2.67 87.12 C21.34 63.94, 39.3 45.07, 77.46 1.09 M2.67 87.12 C26.36 58.95, 49.51 33.74, 77.46 1.09 M3.07 92.77 C15.25 78.42, 37.85 56.88, 82.45 1.45 M3.07 92.77 C27.4 65.25, 49.74 37.12, 82.45 1.45 M2.8 99.16 C38.82 61.29, 69.1 23.02, 88.09 1.05 M2.8 99.16 C24.37 74.18, 46.18 50.68, 88.09 1.05 M3.2 104.81 C30.76 80.51, 50.4 49.05, 93.08 1.41 M3.2 104.81 C39.19 62.21, 73.41 22.74, 93.08 1.41 M2.94 111.2 C22.88 84.59, 42.85 58.93, 98.07 1.77 M2.94 111.2 C29.03 83.66, 52.96 57.79, 98.07 1.77 M2.68 117.6 C37.15 85.22, 66.01 47.59, 103.71 1.38 M2.68 117.6 C29.58 87.15, 55.69 56.59, 103.71 1.38 M3.07 123.25 C45.54 75.46, 83.17 31.42, 108.7 1.74 M3.07 123.25 C33.62 89.1, 64.2 49.99, 108.7 1.74 M2.81 129.64 C28.43 95.66, 62.43 60.1, 114.34 1.34 M2.81 129.64 C27.83 101.51, 52.89 75.48, 114.34 1.34 M3.2 135.29 C48.45 84.85, 83.05 42.32, 119.33 1.7 M3.2 135.29 C26.95 105.93, 53.44 74.87, 119.33 1.7 M2.94 141.68 C34.28 108.84, 56.04 83.27, 124.97 1.31 M2.94 141.68 C35.19 108.95, 64.59 70.52, 124.97 1.31 M2.68 148.08 C53.18 98.89, 94.2 40.08, 129.96 1.67 M2.68 148.08 C31.63 111.9, 64.61 75.79, 129.96 1.67 M3.08 153.72 C44.75 110.13, 82.12 66.9, 135.6 1.27 M3.08 153.72 C58.48 92.42, 110.85 32.72, 135.6 1.27 M2.81 160.12 C55.52 103.61, 107.28 44.12, 140.59 1.63 M2.81 160.12 C32.94 125.76, 63.26 91.76, 140.59 1.63 M3.21 165.77 C41.5 127.29, 72.71 88, 146.23 1.24 M3.21 165.77 C54.57 105.36, 110.4 41.36, 146.23 1.24 M2.95 172.16 C62.59 103.94, 122.28 37.26, 151.22 1.6 M2.95 172.16 C56.41 105.92, 112.68 41.16, 151.22 1.6 M2.69 178.56 C49.72 122.45, 101.7 65.4, 156.86 1.2 M2.69 178.56 C58.55 119.58, 111.26 55.25, 156.86 1.2 M3.08 184.2 C67.45 114.26, 127.77 36.62, 163.16 0.05 M3.08 184.2 C33.85 146.99, 65.26 107.66, 163.16 0.05 M2.82 190.6 C37.36 145.95, 70.48 104.83, 168.15 0.42 M2.82 190.6 C65.69 121.59, 127.81 48.97, 168.15 0.42 M3.21 196.24 C42.59 150.26, 83.08 104.8, 173.13 0.78 M3.21 196.24 C67.67 127.5, 130.08 53.17, 173.13 0.78 M2.95 202.64 C56.29 140.24, 111.54 82.75, 177.46 1.89 M2.95 202.64 C60.43 135.7, 120.18 69.12, 177.46 1.89 M2.69 209.04 C61.57 138.51, 117.04 72.78, 182.45 2.25 M2.69 209.04 C73.14 127.79, 143.83 49.39, 182.45 2.25 M3.08 214.68 C39.09 171.62, 77.45 125.32, 186.13 4.12 M3.08 214.68 C44.79 170.53, 81.87 128.85, 186.13 4.12 M2.82 221.08 C59.94 147.57, 125.07 79.62, 190.46 5.23 M2.82 221.08 C69.64 149.97, 135.17 73.62, 190.46 5.23 M3.22 226.72 C78.51 137.93, 154.17 52.52, 194.13 7.1 M3.22 226.72 C45.96 178.4, 85.22 131.67, 194.13 7.1 M2.96 233.12 C54.41 181.01, 99.27 125.37, 197.15 9.73 M2.96 233.12 C79.61 145.87, 156.53 57.66, 197.15 9.73 M2.69 239.52 C43.16 190.23, 87.47 140.32, 200.82 11.6 M2.69 239.52 C55.15 179, 107.38 117.94, 200.82 11.6 M3.09 245.16 C77.79 158.13, 154.59 71.32, 203.84 14.22 M3.09 245.16 C53.32 189.26, 105.44 128.86, 203.84 14.22 M2.83 251.56 C64.79 184.16, 120.97 118.6, 206.86 16.85 M2.83 251.56 C62.4 184.06, 122.41 115.89, 206.86 16.85 M2.57 257.96 C77.13 168.5, 156.96 83.07, 209.23 20.23 M2.57 257.96 C60.43 190.25, 120.32 119.15, 209.23 20.23 M2.96 263.6 C55.2 205.91, 105.04 146.6, 212.24 22.85 M2.96 263.6 C78.73 177.01, 151.65 93.04, 212.24 22.85 M2.7 270 C73.31 185.96, 146.25 98.2, 213.95 26.98 M2.7 270 C57.43 207.79, 112.68 144.59, 213.95 26.98 M3.09 275.64 C50.18 220.73, 98.84 165.59, 215 31.87 M3.09 275.64 C65.17 200.37, 127.55 126.66, 215 31.87 M2.83 282.04 C80.1 195.85, 153.18 108, 216.05 36.76 M2.83 282.04 C80.33 196.63, 154.57 107.8, 216.05 36.76 M2.57 288.44 C59.69 226.42, 112.26 164.2, 217.1 41.65 M2.57 288.44 C70.58 212.53, 138.49 134.3, 217.1 41.65 M2.97 294.08 C74.11 215.74, 147.13 130.52, 217.5 47.29 M2.97 294.08 C79.43 204.12, 156 116.33, 217.5 47.29 M2.7 300.48 C72.33 218.69, 144.66 140.19, 217.89 52.93 M2.7 300.48 C84.76 203.36, 168.86 107.57, 217.89 52.93 M3.1 306.12 C84.4 214.37, 166.35 119.17, 220.25 56.31 M3.1 306.12 C67.75 233.04, 132.25 160.05, 220.25 56.31 M2.84 312.52 C82.66 217.5, 165.71 120.79, 219.99 62.71 M2.84 312.52 C51.02 259.62, 96.87 206.63, 219.99 62.71 M2.58 318.92 C49.26 260.54, 103.6 204.42, 219.73 69.11 M2.58 318.92 C81.65 224.71, 159.5 133.02, 219.73 69.11 M2.97 324.56 C83.19 237.79, 163.66 146.07, 220.13 74.75 M2.97 324.56 C71.4 246.17, 139.57 166.18, 220.13 74.75 M2.71 330.96 C52.03 279.48, 97.37 226.57, 219.86 81.15 M2.71 330.96 C57.78 269.4, 109.05 211.46, 219.86 81.15 M3.1 336.6 C79.83 254.76, 148.23 171.45, 220.26 86.79 M3.1 336.6 C73.94 251.34, 147.7 167.99, 220.26 86.79 M2.84 343 C68.76 269.17, 130.28 196.66, 220 93.19 M2.84 343 C77.52 261.01, 151.73 179.27, 220 93.19 M2.58 349.4 C81.1 259.92, 154.04 168.02, 219.74 99.59 M2.58 349.4 C68.77 269.7, 135.82 194.08, 219.74 99.59 M2.98 355.04 C47.34 304.7, 92.57 252.99, 220.13 105.23 M2.98 355.04 C75.51 270.12, 149.68 185.68, 220.13 105.23 M2.71 361.44 C52.04 306.21, 97.14 252.82, 219.87 111.63 M2.71 361.44 C91.2 260.66, 174.54 164.85, 219.87 111.63 M3.11 367.08 C78.37 280.36, 153.97 189.31, 220.26 117.27 M3.11 367.08 C71.64 288.47, 141.02 206.7, 220.26 117.27 M2.85 373.48 C65.46 302.44, 132.68 225.64, 220 123.67 M2.85 373.48 C78.96 282.18, 159.22 192.26, 220 123.67 M2.59 379.88 C65.45 308.02, 124.46 233.41, 219.74 130.07 M2.59 379.88 C88.32 285.7, 172.76 187.73, 219.74 130.07 M2.98 385.52 C63.83 313.39, 123.55 237.59, 220.14 135.71 M2.98 385.52 C73.84 305.39, 144.52 225.02, 220.14 135.71 M2.72 391.92 C54.13 339.71, 103.66 278.54, 219.87 142.11 M2.72 391.92 C53.32 336.06, 103.29 278.84, 219.87 142.11 M3.11 397.56 C72.28 319.75, 141.36 238, 220.27 147.75 M3.11 397.56 C81.61 306.44, 158.29 218.14, 220.27 147.75 M2.85 403.96 C79.45 311.65, 154.41 229.65, 220.01 154.15 M2.85 403.96 C85.63 310.21, 170.55 212.69, 220.01 154.15 M2.59 410.36 C85.99 315.24, 168.88 218.36, 219.75 160.55 M2.59 410.36 C66.89 341.08, 131.25 268.79, 219.75 160.55 M2.99 416 C67.41 341.52, 133.97 271.01, 220.14 166.19 M2.99 416 C83.49 320.7, 164.72 227.41, 220.14 166.19 M2.72 422.4 C80.36 333.89, 159.41 248.07, 219.88 172.59 M2.72 422.4 C77.08 332.37, 151.18 245.5, 219.88 172.59 M3.12 428.04 C57.58 362.24, 111.74 296.08, 220.27 178.23 M3.12 428.04 C83.98 338.77, 165.17 247.76, 220.27 178.23 M2.86 434.44 C79.55 347.59, 153.91 263.6, 220.01 184.63 M2.86 434.44 C62.79 363.58, 123.26 295, 220.01 184.63 M2.6 440.84 C64.69 361.57, 133.46 289.23, 219.75 191.03 M2.6 440.84 C67.67 367.38, 133.26 291.24, 219.75 191.03 M2.99 446.48 C74.39 370.02, 139.39 291.77, 220.15 196.67 M2.99 446.48 C56.1 384.54, 108.4 323.73, 220.15 196.67 M2.73 452.88 C61.61 385.12, 117.04 321.08, 219.88 203.07 M2.73 452.88 C88.15 354.44, 172.34 259.08, 219.88 203.07 M2.47 459.27 C77.35 378.9, 147.21 297.11, 219.62 209.47 M2.47 459.27 C68.21 382.89, 134.12 304.93, 219.62 209.47 M2.86 464.92 C51.97 412.15, 93.68 359.34, 220.02 215.11 M2.86 464.92 C82.76 368.38, 164.62 273.08, 220.02 215.11 M2.6 471.32 C59.31 408.12, 119.31 343.44, 219.76 221.51 M2.6 471.32 C80.51 381.7, 158.41 290.28, 219.76 221.51 M3 476.96 C84.44 376.41, 173.23 281.91, 220.15 227.15 M3 476.96 C71.46 398.6, 141.13 320.28, 220.15 227.15 M2.73 483.36 C67.19 407.64, 134.35 328.89, 219.89 233.55 M2.73 483.36 C50.85 428.81, 95.02 377.02, 219.89 233.55 M2.47 489.75 C70.29 409.49, 139 334.16, 219.63 239.94 M2.47 489.75 C89.58 388.62, 176.35 289.25, 219.63 239.94 M2.87 495.4 C64.31 424.61, 123.36 358.25, 220.02 245.59 M2.87 495.4 C57.89 432.33, 115.28 368.62, 220.02 245.59 M2.61 501.79 C48.41 446.97, 98.52 387.63, 219.76 251.99 M2.61 501.79 C60.82 433.12, 120.25 363.83, 219.76 251.99 M3 507.44 C53.82 447.25, 106.99 390.16, 220.16 257.63 M3 507.44 C57.01 446.85, 110.75 385.63, 220.16 257.63 M3.39 513.08 C63.35 444.73, 127.79 370.46, 219.89 264.03 M3.39 513.08 C83.63 417.92, 166.53 325.03, 219.89 264.03 M3.79 518.72 C78.49 433.4, 156.96 346.57, 219.63 270.42 M3.79 518.72 C66.95 443.57, 134.77 367.1, 219.63 270.42 M3.53 525.12 C79.58 432.42, 159.07 345.12, 220.03 276.07 M3.53 525.12 C92.08 429.74, 178.02 331.59, 220.03 276.07 M5.23 529.26 C51.89 475.66, 104.06 417.22, 219.77 282.47 M5.23 529.26 C71.56 454.15, 136.96 379.56, 219.77 282.47 M6.94 533.39 C47.12 482.05, 93.98 431.77, 220.16 288.11 M6.94 533.39 C81.62 443.92, 162.17 352.36, 220.16 288.11 M7.99 538.28 C77.51 455.43, 141.55 381.87, 219.9 294.51 M7.99 538.28 C74.18 462.81, 141.02 386.15, 219.9 294.51 M10.35 541.66 C76.75 462.58, 147.8 380.58, 219.64 300.9 M10.35 541.66 C54.11 484.45, 102.03 431.41, 219.64 300.9 M12.72 545.04 C88.14 460.54, 164.47 371.02, 220.03 306.55 M12.72 545.04 C75.88 473.2, 142.46 398.17, 220.03 306.55 M15.74 547.66 C77.75 482.32, 142.39 409.13, 219.77 312.94 M15.74 547.66 C62.55 489.18, 110.25 434.05, 219.77 312.94 M18.75 550.28 C84.48 470.54, 153.49 393.47, 220.17 318.59 M18.75 550.28 C79.3 483.49, 136.84 413.91, 220.17 318.59 M21.77 552.91 C72.55 492.41, 120.17 435.42, 219.9 324.99 M21.77 552.91 C88.78 476.31, 156.87 396.65, 219.9 324.99 M26.1 554.02 C84.4 480.01, 144.11 409.09, 219.64 331.38 M26.1 554.02 C100.69 467.01, 175.76 381.14, 219.64 331.38 M29.78 555.89 C100.37 473.95, 170.12 393.58, 220.04 337.03 M29.78 555.89 C79.48 495.68, 129.71 438.43, 220.04 337.03 M34.11 557.01 C104.31 478.99, 176.03 396.3, 219.78 343.42 M34.11 557.01 C90.16 489.29, 148.16 424.62, 219.78 343.42 M37.79 558.88 C80.22 513.36, 120.62 464.16, 220.17 349.07 M37.79 558.88 C109.57 484.09, 176.73 404.93, 220.17 349.07 M42.77 559.24 C97.26 492.17, 157.25 427.62, 219.91 355.47 M42.77 559.24 C97.1 496.12, 150.56 434.44, 219.91 355.47 M47.1 560.35 C82.78 517.02, 119.15 473.68, 219.65 361.86 M47.1 560.35 C114.33 482.75, 183.12 402.9, 219.65 361.86 M52.09 560.71 C110.83 493.63, 170.69 426.22, 220.04 367.51 M52.09 560.71 C92.06 520.09, 128.73 476.63, 220.04 367.51 M56.42 561.83 C108.19 507.37, 161.76 446.44, 219.78 373.9 M56.42 561.83 C111.11 498.37, 164.88 435.52, 219.78 373.9 M62.06 561.43 C125.12 490.9, 189.73 417.59, 220.17 379.55 M62.06 561.43 C97.02 517.56, 135.88 473.93, 220.17 379.55 M67.05 561.79 C123.15 494.21, 181.15 426.89, 219.91 385.94 M67.05 561.79 C123.78 499.85, 178.61 436.73, 219.91 385.94 M72.69 561.4 C128.7 496.95, 179.48 436.16, 219.65 392.34 M72.69 561.4 C122.05 503.37, 169.68 446.36, 219.65 392.34 M77.68 561.76 C132.95 499.45, 190.65 438.4, 220.05 397.99 M77.68 561.76 C113.23 518.14, 155.72 469.48, 220.05 397.99 M83.32 561.36 C133.54 503.99, 179.74 455.07, 219.78 404.38 M83.32 561.36 C117.68 527.72, 144.64 491.68, 219.78 404.38 M88.31 561.72 C118.91 535.93, 145.68 504.47, 219.52 410.78 M88.31 561.72 C129.53 516.33, 168 469.05, 219.52 410.78 M93.95 561.33 C130.92 514.63, 172.56 467.22, 219.92 416.42 M93.95 561.33 C140.47 504.66, 190.57 445.6, 219.92 416.42 M98.94 561.69 C132.58 530.56, 157.75 492.61, 219.66 422.82 M98.94 561.69 C134.17 520.58, 169.97 477.86, 219.66 422.82 M104.58 561.29 C138.65 521.95, 172.32 487.52, 220.05 428.46 M104.58 561.29 C134.56 524.88, 163.68 489.78, 220.05 428.46 M109.57 561.65 C155.41 509.39, 198.09 462.47, 219.79 434.86 M109.57 561.65 C137.1 526.42, 166.65 494.11, 219.79 434.86 M115.21 561.26 C143.09 536.6, 163.8 508.65, 219.53 441.26 M115.21 561.26 C146.07 521.99, 180.38 484.94, 219.53 441.26 M120.2 561.62 C153.83 529.6, 177.88 495.82, 219.92 446.9 M120.2 561.62 C148.56 528.8, 177.64 496.27, 219.92 446.9 M125.85 561.22 C141.95 535.18, 161.05 516.96, 219.66 453.3 M125.85 561.22 C151.51 533.53, 174.22 502.03, 219.66 453.3 M130.83 561.58 C151.4 535.49, 177.57 510.38, 220.06 458.94 M130.83 561.58 C151.79 538.07, 171.95 513.49, 220.06 458.94 M136.48 561.19 C162.55 532.06, 194.6 494.18, 219.79 465.34 M136.48 561.19 C158.46 532.35, 183.18 503.21, 219.79 465.34 M141.46 561.55 C170.32 538.01, 194.46 504.98, 219.53 471.74 M141.46 561.55 C171.89 526.15, 204.09 490.44, 219.53 471.74 M147.11 561.16 C162.35 544.25, 183.65 528.04, 219.93 477.38 M147.11 561.16 C166.79 537.53, 190.87 511.77, 219.93 477.38 M152.09 561.52 C168.62 549.06, 182.64 526.27, 219.67 483.78 M152.09 561.52 C166.74 540.05, 185.07 521.61, 219.67 483.78 M157.08 561.88 C175.83 540.38, 189.75 518.53, 220.06 489.42 M157.08 561.88 C179.92 539.74, 199.92 512.24, 220.06 489.42 M164.03 559.97 C174.79 548.14, 191.5 533.22, 219.8 495.82 M164.03 559.97 C185.4 538.08, 203.88 513.66, 219.8 495.82 M169.68 559.58 C183.94 545.17, 188.57 534.15, 219.54 502.22 M169.68 559.58 C182.76 543.45, 191.26 529.28, 219.54 502.22 M175.32 559.18 C189.88 541.06, 205.98 528.14, 219.93 507.86 M175.32 559.18 C186.65 546.24, 194.92 535.66, 219.93 507.86 M181.62 558.03 C193.51 543.41, 209.79 521.67, 219.67 514.26 M181.62 558.03 C190.25 545.55, 200.38 535.26, 219.67 514.26 M189.89 554.62 C199.25 544.59, 208.18 527.65, 218.75 521.41 M189.89 554.62 C200.64 542.85, 212.26 528.44, 218.75 521.41 M196.84 552.72 C202.31 551.69, 205.59 542.46, 215.87 530.83 M196.84 552.72 C201.62 547.94, 205.98 539.95, 215.87 530.83" stroke="#12b886" stroke-width="0.5" fill="none"></path><path d="M54.36 0 M54.36 0 C95.68 -2.38, 138.8 -0.25, 163.09 0 M54.36 0 C97.75 -3.21, 139.33 -0.09, 163.09 0 M163.09 0 C195.56 -1.12, 221.38 19.37, 217.45 54.36 M163.09 0 C195.78 4.01, 221.3 17.79, 217.45 54.36 M217.45 54.36 C220.07 215.04, 219.18 371.01, 217.45 505.12 M217.45 54.36 C218.14 171.17, 218.75 286.5, 217.45 505.12 M217.45 505.12 C218.8 537.66, 197.73 556.28, 163.09 559.49 M217.45 505.12 C213.21 540.87, 199.73 560.66, 163.09 559.49 M163.09 559.49 C142.16 559.17, 117.59 559.49, 54.36 559.49 M163.09 559.49 C132.71 559.04, 102.34 559.86, 54.36 559.49 M54.36 559.49 C18.5 563.14, -3.96 544.79, 0 505.12 M54.36 559.49 C16.23 559.66, -0.29 541.79, 0 505.12 M0 505.12 C-2.72 369.77, -1.99 232.71, 0 54.36 M0 505.12 C4.36 374.75, 3.9 243.58, 0 54.36 M0 54.36 C1.99 21.13, 20.55 3.12, 54.36 0 M0 54.36 C0.99 15.54, 16.98 -0.64, 54.36 0" stroke="#000000" stroke-width="1" fill="none"></path></g><g transform="translate(34.09344327633971 257.2091874597627) rotate(0 75 35)"><text x="75" y="28" font-family="Cascadia, Segoe UI Emoji" font-size="28px" fill="#000000" text-anchor="middle" style="white-space: pre;" direction="ltr">USER </text><text x="75" y="63" font-family="Cascadia, Segoe UI Emoji" font-size="28px" fill="#000000" text-anchor="middle" style="white-space: pre;" direction="ltr">INTERFACE</text></g><g stroke-linecap="round" transform="translate(383.528818273714 14.110980566522812) rotate(0 130.7539237781798 117.30814935434921)"><path d="M58.65 0 M58.65 0 C97.88 1.11, 128.41 6.35, 202.85 0 M58.65 0 C115.47 2.03, 173.55 1.23, 202.85 0 M202.85 0 C240.16 0.26, 264.3 16.2, 261.51 58.65 M202.85 0 C245.34 3.24, 261.14 21.33, 261.51 58.65 M261.51 58.65 C262.4 88.41, 260.72 118.21, 261.51 175.96 M261.51 58.65 C259.17 101.65, 262.36 140.2, 261.51 175.96 M261.51 175.96 C261.51 218.64, 240.44 236.88, 202.85 234.62 M261.51 175.96 C261.98 212.05, 240.65 233.41, 202.85 234.62 M202.85 234.62 C168.68 231.2, 135.12 230.02, 58.65 234.62 M202.85 234.62 C168.24 231.84, 132.64 233.18, 58.65 234.62 M58.65 234.62 C19.82 234.46, -1.98 218.46, 0 175.96 M58.65 234.62 C22.16 236.07, 0.32 213.49, 0 175.96 M0 175.96 C1.81 139.89, 2.45 110.12, 0 58.65 M0 175.96 C-0.66 139.65, -0.05 101.43, 0 58.65 M0 58.65 C-0.29 19.15, 17.52 3.49, 58.65 0 M0 58.65 C-4.19 16.65, 17.75 2, 58.65 0" stroke="#000000" stroke-width="1" fill="none"></path></g><g transform="translate(245.72779758158686 32.15280077340526) rotate(0 57.5 10)"><text x="57.5" y="16" font-family="Cascadia, Segoe UI Emoji" font-size="16px" fill="#000000" text-anchor="middle" style="white-space: pre;" direction="ltr">User message</text></g><g stroke-linecap="round" transform="translate(439.78249250063527 41.64186704249232) rotate(0 73.46132716498141 29.684431924569253)"><path d="M14.84 0 M14.84 0 C42.76 -0.25, 68.43 -0.06, 132.08 0 M14.84 0 C52.91 -0.68, 89.08 -2.94, 132.08 0 M132.08 0 C142.79 -2.8, 147.06 1.25, 146.92 14.84 M132.08 0 C138.69 2.37, 148.95 1.04, 146.92 14.84 M146.92 14.84 C143.84 25.62, 143.8 30.06, 146.92 44.53 M146.92 14.84 C147.24 23.83, 148.41 30.24, 146.92 44.53 M146.92 44.53 C150.61 51.66, 140.78 58.78, 132.08 59.37 M146.92 44.53 C148.98 58.25, 138.65 63.84, 132.08 59.37 M132.08 59.37 C97.95 59.73, 68.74 62.58, 14.84 59.37 M132.08 59.37 C85.87 59.94, 43.69 59.43, 14.84 59.37 M14.84 59.37 C5.68 58.46, 3.77 52.81, 0 44.53 M14.84 59.37 C9.02 57.37, 1.36 52.42, 0 44.53 M0 44.53 C1.25 35.45, 1.57 33.8, 0 14.84 M0 44.53 C-1.52 38.04, -1.24 31.28, 0 14.84 M0 14.84 C-0.43 8.06, 2 -0.01, 14.84 0 M0 14.84 C2.51 8.02, 3.69 3.7, 14.84 0" stroke="#000000" stroke-width="1" fill="none"></path></g><g stroke-linecap="round" transform="translate(447.39124373116283 154.84913457203857) rotate(0 72.11589512805631 37.66071062652395)"><path d="M5.01 4.36 C5.01 4.36, 5.01 4.36, 5.01 4.36 M5.01 4.36 C5.01 4.36, 5.01 4.36, 5.01 4.36 M0.81 15.28 C7.08 14.19, 6.88 6.75, 11.97 2.45 M0.81 15.28 C3.93 12.02, 6.57 8.25, 11.97 2.45 M1.21 20.93 C8.51 10.69, 14.71 2.8, 18.92 0.55 M1.21 20.93 C7.94 14.93, 12.26 7.61, 18.92 0.55 M0.95 27.32 C5.81 18.16, 11.05 15.83, 24.57 0.15 M0.95 27.32 C9.54 19.82, 16.59 9.94, 24.57 0.15 M1.34 32.97 C10.88 23.47, 24.45 11.87, 29.55 0.51 M1.34 32.97 C9.37 19.37, 21.77 11.38, 29.55 0.51 M1.08 39.36 C11.87 26.77, 17.6 14.83, 35.2 0.12 M1.08 39.36 C12.7 26.19, 25 11.01, 35.2 0.12 M0.82 45.76 C16.72 34.97, 27.56 19.28, 40.18 0.48 M0.82 45.76 C15.72 29.11, 29.14 14.17, 40.18 0.48 M1.21 51.41 C15.36 29.91, 29.97 14.24, 45.83 0.09 M1.21 51.41 C8.54 39.2, 19.41 30.08, 45.83 0.09 M0.95 57.8 C13.52 41.9, 23.91 36.67, 50.81 0.45 M0.95 57.8 C19.65 36.31, 39.45 13.73, 50.81 0.45 M2 62.69 C21.78 43.4, 39.86 24.35, 56.46 0.05 M2 62.69 C24.05 38.83, 42.69 14.39, 56.46 0.05 M2.4 68.33 C18.91 49.46, 31.35 31.43, 61.44 0.41 M2.4 68.33 C20.74 47.06, 41.91 25.66, 61.44 0.41 M5.42 70.96 C30.04 42.2, 54.29 14.28, 67.09 0.02 M5.42 70.96 C20.33 54.74, 34.19 38.7, 67.09 0.02 M8.44 73.58 C22.5 53.73, 37.71 38.2, 72.07 0.38 M8.44 73.58 C33.69 45.19, 54.23 19.52, 72.07 0.38 M12.77 74.7 C33.68 50.99, 63.77 16.6, 77.72 -0.02 M12.77 74.7 C36.37 46.27, 65.63 17.95, 77.72 -0.02 M17.1 75.81 C30.53 57.56, 49.06 47.12, 82.7 0.34 M17.1 75.81 C41.84 45.97, 67.48 18.6, 82.7 0.34 M21.43 76.93 C40.9 57.39, 57.58 33.16, 88.35 -0.05 M21.43 76.93 C41.44 56.44, 57.62 35.92, 88.35 -0.05 M26.42 77.29 C48.66 47.46, 76.95 24.63, 93.33 0.31 M26.42 77.29 C42.73 58.5, 57.68 40.4, 93.33 0.31 M31.4 77.65 C52.06 57.16, 66.99 39.59, 98.98 -0.09 M31.4 77.65 C57.92 48.31, 82.16 19.13, 98.98 -0.09 M37.05 77.25 C50.16 56.32, 66.55 39.61, 103.96 0.27 M37.05 77.25 C57.47 53.76, 76.62 28.03, 103.96 0.27 M42.03 77.61 C56.79 59.9, 76.21 46.03, 108.95 0.63 M42.03 77.61 C61.86 54.52, 80.19 29.69, 108.95 0.63 M47.68 77.22 C65.49 52.56, 87.55 35.9, 114.59 0.24 M47.68 77.22 C66.72 56.4, 83.51 37.21, 114.59 0.24 M52.66 77.58 C80.03 51.24, 98.97 19.76, 119.58 0.6 M52.66 77.58 C65.87 61.92, 80.7 46.67, 119.58 0.6 M58.31 77.18 C72.3 59.7, 85.71 43.53, 125.22 0.2 M58.31 77.18 C83.07 52.3, 107.05 25.18, 125.22 0.2 M63.29 77.54 C83.07 53.57, 100.8 34.01, 128.24 2.83 M63.29 77.54 C85.86 55.26, 103.61 30.98, 128.24 2.83 M68.94 77.15 C81.18 58.51, 103.17 45.35, 132.57 3.94 M68.94 77.15 C94.8 48.32, 118.84 20.05, 132.57 3.94 M73.92 77.51 C97.78 49.41, 121.64 23.43, 138.22 3.55 M73.92 77.51 C97.44 48.03, 122.1 18.85, 138.22 3.55 M79.57 77.12 C102.52 51.73, 128.43 29.31, 141.24 6.17 M79.57 77.12 C103.86 52.35, 122.68 25.78, 141.24 6.17 M84.55 77.48 C102.07 64.2, 117.04 42.66, 143.6 9.55 M84.55 77.48 C103.2 55.53, 123.62 36.68, 143.6 9.55 M90.2 77.08 C111.91 58.62, 124.91 41.2, 144.65 14.44 M90.2 77.08 C109.78 51.84, 131.73 29.73, 144.65 14.44 M95.18 77.44 C105.57 63.97, 124.25 46.34, 144.39 20.84 M95.18 77.44 C110.25 64.07, 122.93 47.25, 144.39 20.84 M100.83 77.05 C114.9 65.36, 121.75 53.54, 144.13 27.24 M100.83 77.05 C116.49 59, 135.71 37.17, 144.13 27.24 M105.81 77.41 C119.92 67.06, 128.39 51.82, 144.52 32.88 M105.81 77.41 C119.07 63.08, 130.23 47.94, 144.52 32.88 M111.46 77.01 C125.47 66.06, 131.01 56.18, 144.26 39.28 M111.46 77.01 C120.85 66.26, 127.29 59.42, 144.26 39.28 M116.44 77.37 C130.65 69.06, 138.78 58.74, 144.65 44.92 M116.44 77.37 C127.31 67.77, 134.6 58, 144.65 44.92 M122.09 76.98 C129.29 71.09, 133.31 62.15, 144.39 51.32 M122.09 76.98 C128.56 68.68, 139.26 56.38, 144.39 51.32 M127.07 77.34 C131.49 74.92, 139.68 61.21, 144.79 56.96 M127.07 77.34 C134.64 71.14, 139.33 60.55, 144.79 56.96 M134.03 75.43 C136.52 72.14, 143.56 67.27, 142.56 65.62 M134.03 75.43 C137.35 70.91, 139.36 67.66, 142.56 65.62" stroke="#be4bdb" stroke-width="0.5" fill="none"></path><path d="M18.83 0 M18.83 0 C42.01 -3.42, 63.59 -0.21, 125.4 0 M18.83 0 C58.53 -1.41, 97.5 0.12, 125.4 0 M125.4 0 C139.56 -3.66, 147.46 4.26, 144.23 18.83 M125.4 0 C138.39 4.2, 139.68 10.21, 144.23 18.83 M144.23 18.83 C144.63 28.61, 145.38 39.87, 144.23 56.49 M144.23 18.83 C142.82 27, 142.55 33.77, 144.23 56.49 M144.23 56.49 C146.61 70.77, 138.44 75.47, 125.4 75.32 M144.23 56.49 C146.52 72.5, 140.75 78.91, 125.4 75.32 M125.4 75.32 C90.58 71.16, 59.74 72.12, 18.83 75.32 M125.4 75.32 C84.85 73.81, 41.87 74.39, 18.83 75.32 M18.83 75.32 C6.07 73.24, 3.08 68.65, 0 56.49 M18.83 75.32 C8.95 79.78, 4.27 66.99, 0 56.49 M0 56.49 C1.63 44.26, 1.73 26.86, 0 18.83 M0 56.49 C-0.74 44.28, -0.73 35.28, 0 18.83 M0 18.83 C-2.34 6.35, 5.5 -0.07, 18.83 0 M0 18.83 C1.54 7.31, 9.74 -3.46, 18.83 0" stroke="#000000" stroke-width="1" fill="none"></path></g><g transform="translate(459.4473382789838 180.82691261321702) rotate(0 62 10)"><text x="62" y="16" font-family="Cascadia, Segoe UI Emoji" font-size="16px" fill="#000000" text-anchor="middle" style="white-space: pre;" direction="ltr">User's Intent</text></g><g transform="translate(465.6918203973337 60.75406959161069) rotate(0 43 10)"><text x="43" y="16" font-family="Cascadia, Segoe UI Emoji" font-size="16px" fill="#000000" text-anchor="middle" style="white-space: pre;" direction="ltr">NLU Model</text></g><g stroke-linecap="round"><g transform="translate(227.15212961463385 64.95154324695068) rotate(0 105.38911770306686 1.5366892303898112)"><path d="M-2.32 -1.22 C33.66 -0.92, 177.22 3.38, 213.1 3.38 M1.62 4.29 C37.62 3.74, 176.69 0.42, 211.75 -0.16" stroke="#000000" stroke-width="1" fill="none"></path></g><g transform="translate(227.15212961463385 64.95154324695068) rotate(0 105.38911770306686 1.5366892303898112)"><path d="M182.03 13.02 C193.17 11.1, 192.2 3.62, 215.75 1.61 M182.5 8.95 C188.29 6.85, 197.1 4.03, 211.35 -1.91" stroke="#000000" stroke-width="1" fill="none"></path></g><g transform="translate(227.15212961463385 64.95154324695068) rotate(0 105.38911770306686 1.5366892303898112)"><path d="M181.61 -7.49 C193.07 -5.28, 192.18 -8.62, 215.75 1.61 M182.08 -11.56 C187.71 -9.49, 196.6 -8.13, 211.35 -1.91" stroke="#000000" stroke-width="1" fill="none"></path></g></g><g stroke-linecap="round"><g transform="translate(514.6296090747956 102.0107308916306) rotate(0 1.9066409381571248 27.48952406499984)"><path d="M2.24 1.39 C2.87 10.29, 4 43.28, 3.77 51.73 M0.01 -0.32 C0.4 9.21, 2.6 46.03, 2.32 55.3" stroke="#000000" stroke-width="1" fill="none"></path></g><g transform="translate(514.6296090747956 102.0107308916306) rotate(0 1.9066409381571248 27.48952406499984)"><path d="M-5.07 33.17 C-4.7 36.16, -1.43 46.96, 1.49 55.03 M-6.45 31.39 C-6.52 35.4, -3.81 44.49, 2.14 55.15" stroke="#000000" stroke-width="1" fill="none"></path></g><g transform="translate(514.6296090747956 102.0107308916306) rotate(0 1.9066409381571248 27.48952406499984)"><path d="M12.67 32.8 C7.72 36.19, 5.67 47.1, 1.49 55.03 M11.29 31.01 C6.88 35.29, 5.25 44.47, 2.14 55.15" stroke="#000000" stroke-width="1" fill="none"></path></g></g><g stroke-linecap="round" transform="translate(396.6362713545268 357.27798813541494) rotate(0 324.28618583410525 103.11255969554247)"><path d="M16.15 10.06 C16.15 10.06, 16.15 10.06, 16.15 10.06 M16.15 10.06 C16.15 10.06, 16.15 10.06, 16.15 10.06 M7.36 26.27 C13.42 23.4, 21.59 15.95, 25.07 5.89 M7.36 26.27 C12.28 19.72, 18.54 12.43, 25.07 5.89 M1.19 39.46 C10.42 30.51, 19.24 13.58, 33.99 1.72 M1.19 39.46 C11.4 27.65, 21.52 14.74, 33.99 1.72 M0.93 45.86 C8.06 33.56, 23.16 23.63, 37.01 4.35 M0.93 45.86 C15.81 32.54, 27.93 15.86, 37.01 4.35 M1.32 51.5 C21.27 29.24, 31.91 15.39, 42.65 3.95 M1.32 51.5 C15.42 33.75, 32.59 19.48, 42.65 3.95 M1.06 57.9 C8.85 43.49, 18.21 32.52, 48.95 2.8 M1.06 57.9 C15.9 40.93, 30.9 19.56, 48.95 2.8 M0.8 64.3 C13.75 49.82, 24.22 40.69, 54.6 2.41 M0.8 64.3 C18.45 43.48, 35.22 21.44, 54.6 2.41 M1.19 69.94 C16.28 49.12, 31.89 32.09, 59.58 2.77 M1.19 69.94 C17.15 49.95, 36.99 29.19, 59.58 2.77 M0.93 76.34 C22.37 55.77, 39.43 27.88, 65.23 2.38 M0.93 76.34 C14.27 58.59, 30.5 38.18, 65.23 2.38 M1.33 81.98 C14.97 60.68, 35.79 42.74, 70.21 2.74 M1.33 81.98 C24.97 52.4, 50.45 24.16, 70.21 2.74 M1.07 88.38 C21.2 58.27, 51.24 35.23, 75.86 2.34 M1.07 88.38 C21.73 65.6, 39.21 42.69, 75.86 2.34 M0.8 94.78 C16.04 77.38, 37.36 53.63, 80.84 2.7 M0.8 94.78 C15.08 72.78, 34.6 54.39, 80.84 2.7 M1.2 100.42 C25.14 75.06, 41.2 52.74, 86.49 2.31 M1.2 100.42 C23.37 73.63, 45.55 45.46, 86.49 2.31 M0.94 106.82 C21.78 76.67, 50.33 49.97, 91.47 2.67 M0.94 106.82 C38.22 63.94, 73.88 23.51, 91.47 2.67 M1.33 112.46 C27.21 84.25, 59.67 51.47, 97.12 2.27 M1.33 112.46 C18.86 89.82, 41.06 65.17, 97.12 2.27 M1.07 118.86 C32.55 79.52, 65.24 42.4, 102.1 2.63 M1.07 118.86 C24.25 91.26, 47.61 61.94, 102.1 2.63 M0.81 125.25 C42.49 75.51, 83.95 29.84, 107.75 2.24 M0.81 125.25 C35.65 86.55, 68.07 50.26, 107.75 2.24 M1.2 130.9 C26.85 103.06, 47.62 75.31, 112.73 2.6 M1.2 130.9 C29.75 96.37, 57.53 65.19, 112.73 2.6 M0.94 137.3 C41.42 85.71, 86.27 37.33, 118.38 2.2 M0.94 137.3 C46.16 82.01, 90.88 31.4, 118.38 2.2 M1.34 142.94 C44.36 91.09, 83.42 43.4, 123.36 2.56 M1.34 142.94 C35.71 105.64, 66.97 66.55, 123.36 2.56 M1.08 149.34 C51.1 89.44, 102.31 33.41, 129.01 2.17 M1.08 149.34 C31.99 116.07, 62.73 79.73, 129.01 2.17 M0.81 155.73 C46.75 102.9, 89.54 45.07, 133.99 2.53 M0.81 155.73 C27.52 125.45, 53.81 91.58, 133.99 2.53 M1.21 161.38 C57.3 99.58, 111.2 34.62, 138.98 2.89 M1.21 161.38 C58.36 100.91, 111.73 36.49, 138.98 2.89 M1.6 167.02 C39.47 128.3, 67.73 91.48, 144.62 2.49 M1.6 167.02 C43.28 119.63, 87.65 69.39, 144.62 2.49 M2.65 171.91 C60.39 109.16, 119.17 38, 149.61 2.85 M2.65 171.91 C58.4 108.53, 112.85 46.81, 149.61 2.85 M3.7 176.8 C44.72 125.3, 90.48 80.14, 155.25 2.46 M3.7 176.8 C48.86 122.93, 95.68 72.81, 155.25 2.46 M5.41 180.93 C48.51 130.77, 90.99 78.24, 160.24 2.82 M5.41 180.93 C44.41 138.54, 82.81 92.53, 160.24 2.82 M7.77 184.31 C61.95 124.05, 110.17 67.75, 165.88 2.42 M7.77 184.31 C51.22 130.35, 95.27 81.03, 165.88 2.42 M10.14 187.69 C43.94 146.12, 83.82 107.68, 170.87 2.78 M10.14 187.69 C51.22 140.4, 88.11 95.38, 170.87 2.78 M11.84 191.82 C47.1 150.41, 80.74 108.3, 176.51 2.39 M11.84 191.82 C50.19 147.36, 86.84 104.13, 176.51 2.39 M14.86 194.45 C50.39 151.13, 88.27 105.38, 181.5 2.75 M14.86 194.45 C79.39 119.18, 146.39 43.94, 181.5 2.75 M17.88 197.07 C60.43 145.91, 109.21 92.95, 187.14 2.36 M17.88 197.07 C56.35 152.24, 95.84 105.6, 187.14 2.36 M20.9 199.7 C77.9 132.51, 137.17 61.96, 192.13 2.72 M20.9 199.7 C61.11 155.4, 100.56 108.39, 192.13 2.72 M24.58 201.56 C85.93 131.54, 152.31 61.64, 197.77 2.32 M24.58 201.56 C81.41 135.9, 135.75 72.03, 197.77 2.32 M28.25 203.43 C86.41 135.96, 144.73 72.38, 202.76 2.68 M28.25 203.43 C78.58 141.48, 134.05 80.55, 202.76 2.68 M31.93 205.3 C104.27 127.56, 172.43 46.43, 208.4 2.29 M31.93 205.3 C99.93 124.42, 169.31 45.6, 208.4 2.29 M36.26 206.42 C101.49 132.62, 169.84 52.67, 213.39 2.65 M36.26 206.42 C94.78 142.79, 149.65 80.32, 213.39 2.65 M41.24 206.78 C92.3 153.64, 135.49 101.56, 219.03 2.25 M41.24 206.78 C98.54 142.05, 154.38 78.56, 219.03 2.25 M46.23 207.14 C100.26 140.57, 159.82 76.92, 224.02 2.61 M46.23 207.14 C100.88 143.81, 155.39 81.34, 224.02 2.61 M51.87 206.74 C107.9 141.47, 158.56 81.65, 229.67 2.22 M51.87 206.74 C85.48 164.83, 122.14 122.39, 229.67 2.22 M57.52 206.35 C111.8 141.95, 161.8 83.16, 234.65 2.58 M57.52 206.35 C108.94 145.34, 160.62 85.75, 234.65 2.58 M62.5 206.71 C104.87 158.16, 151.35 107.04, 240.3 2.18 M62.5 206.71 C129.98 130.05, 195.26 54.8, 240.3 2.18 M68.15 206.32 C110.3 159.58, 158.31 102.31, 245.28 2.54 M68.15 206.32 C117.56 147.41, 171.13 87.78, 245.28 2.54 M73.13 206.68 C112.89 156.18, 155.16 105.63, 250.27 2.9 M73.13 206.68 C137.16 135.03, 201.52 64.1, 250.27 2.9 M78.78 206.28 C121.43 152.06, 169.39 99.73, 255.91 2.51 M78.78 206.28 C120.33 156.98, 159.92 112.42, 255.91 2.51 M83.76 206.64 C123.13 158.83, 165.73 105.65, 260.9 2.87 M83.76 206.64 C135.4 148.29, 187.5 86.58, 260.9 2.87 M89.41 206.25 C158.08 124.59, 227.85 42.69, 266.54 2.47 M89.41 206.25 C133.08 155.58, 173.7 108.43, 266.54 2.47 M94.39 206.61 C130.56 169.63, 161.11 125.59, 271.53 2.83 M94.39 206.61 C158.64 138.14, 222.89 64.19, 271.53 2.83 M100.04 206.21 C138.61 154.26, 183.83 109.14, 277.17 2.44 M100.04 206.21 C164.95 128.94, 228.61 54.81, 277.17 2.44 M105.02 206.57 C162.24 146.96, 215.08 80.77, 282.16 2.8 M105.02 206.57 C157.24 145.74, 211.36 86.98, 282.16 2.8 M110.01 206.93 C171.17 131.82, 242.44 54.62, 287.8 2.41 M110.01 206.93 C163.34 144.71, 214.84 83.9, 287.8 2.41 M115.65 206.54 C178.42 133.3, 242.73 61.6, 292.79 2.77 M115.65 206.54 C177.95 139.67, 235.95 70.81, 292.79 2.77 M120.64 206.9 C176.82 140.76, 232.79 76.89, 298.43 2.37 M120.64 206.9 C157.4 165.15, 192.35 124.1, 298.43 2.37 M126.28 206.5 C184.18 137.28, 242.36 66.81, 303.42 2.73 M126.28 206.5 C167.91 157.07, 209.92 110.1, 303.42 2.73 M131.27 206.86 C198.76 130.86, 267.8 50.22, 309.06 2.34 M131.27 206.86 C178.34 148.19, 230.4 91.78, 309.06 2.34 M136.91 206.47 C182.26 153.46, 226.5 103.1, 314.05 2.7 M136.91 206.47 C180.08 154.54, 222.78 107.68, 314.05 2.7 M141.9 206.83 C211.05 124.28, 283.83 41.79, 319.69 2.3 M141.9 206.83 C186.25 157.8, 228.8 108.21, 319.69 2.3 M147.54 206.43 C207.43 137.03, 265.61 73.66, 324.68 2.66 M147.54 206.43 C209.49 134.58, 274.55 59.61, 324.68 2.66 M152.53 206.79 C188.26 164.94, 224.41 121.15, 330.32 2.27 M152.53 206.79 C190.05 164.23, 229.29 118.61, 330.32 2.27 M158.17 206.4 C227.9 121.69, 303.01 44.96, 335.31 2.63 M158.17 206.4 C205.98 152.25, 251.88 97.82, 335.31 2.63 M163.16 206.76 C223.1 135.45, 288.53 65.14, 340.95 2.23 M163.16 206.76 C204.62 159.32, 246.36 112.83, 340.95 2.23 M168.8 206.36 C220.8 142.54, 275.11 80.29, 345.94 2.59 M168.8 206.36 C232.12 130.79, 299.71 53.44, 345.94 2.59 M173.79 206.72 C250.23 123.12, 314.7 46.71, 351.58 2.2 M173.79 206.72 C232.2 137.91, 294.49 67.57, 351.58 2.2 M179.43 206.33 C232.24 143.9, 287.26 80.18, 356.57 2.56 M179.43 206.33 C214.78 163.45, 252.87 120.63, 356.57 2.56 M184.42 206.69 C219.71 158.18, 260.48 119.81, 361.56 2.92 M184.42 206.69 C241.96 140.23, 298.59 75.36, 361.56 2.92 M190.06 206.3 C240.26 153.7, 283.8 93.16, 367.2 2.52 M190.06 206.3 C226.1 160.77, 263.01 119.93, 367.2 2.52 M195.05 206.66 C245.97 147.21, 292.6 90.93, 372.19 2.88 M195.05 206.66 C258.89 138.12, 320.66 64.76, 372.19 2.88 M200.69 206.26 C243.43 155.43, 287.86 104.61, 377.83 2.49 M200.69 206.26 C257.21 143, 309.76 80.57, 377.83 2.49 M205.68 206.62 C274.7 127.75, 347.3 46.71, 382.82 2.85 M205.68 206.62 C261.95 143.61, 316.65 78.56, 382.82 2.85 M211.32 206.23 C268.53 129.11, 334.94 60.54, 388.46 2.46 M211.32 206.23 C277.04 123.01, 348.08 43.51, 388.46 2.46 M216.31 206.59 C283.97 136.62, 349.91 59.58, 393.45 2.82 M216.31 206.59 C272.09 136.33, 329.72 69.92, 393.45 2.82 M221.95 206.19 C269.37 156.21, 314.51 99.45, 399.09 2.42 M221.95 206.19 C260.26 163.34, 299.73 119.99, 399.09 2.42 M226.94 206.55 C279.77 142.42, 332.3 84.46, 404.08 2.78 M226.94 206.55 C264.98 163.71, 304.7 120.45, 404.08 2.78 M231.93 206.91 C289.44 145.01, 340.23 84.62, 409.72 2.39 M231.93 206.91 C284.55 146.99, 338.33 85.04, 409.72 2.39 M237.57 206.52 C294 136.94, 352.61 73.76, 414.71 2.75 M237.57 206.52 C274.33 166.28, 312.38 122.79, 414.71 2.75 M242.56 206.88 C313.35 133.54, 380.67 56.91, 420.35 2.35 M242.56 206.88 C280.43 161.14, 318.44 114.81, 420.35 2.35 M248.2 206.48 C293.02 148.67, 344.39 89.58, 425.34 2.71 M248.2 206.48 C294.97 154.77, 341.03 100.45, 425.34 2.71 M253.19 206.84 C291.42 157.21, 331.84 115.33, 430.98 2.32 M253.19 206.84 C312.56 142.72, 368.79 77.75, 430.98 2.32 M258.83 206.45 C298.03 164.18, 338.1 123.24, 435.97 2.68 M258.83 206.45 C318.53 137.42, 379 67.63, 435.97 2.68 M263.82 206.81 C333.64 125.33, 401.66 47.67, 441.61 2.28 M263.82 206.81 C297.36 163.37, 336.56 120.7, 441.61 2.28 M269.46 206.41 C316.45 149.6, 368.53 93.2, 446.6 2.64 M269.46 206.41 C326.68 140.84, 380.87 76.78, 446.6 2.64 M274.45 206.77 C314.11 164.08, 351.88 124.36, 452.24 2.25 M274.45 206.77 C325.24 147.44, 373.32 92.38, 452.24 2.25 M280.09 206.38 C329.72 151.37, 373.98 97.93, 457.23 2.61 M280.09 206.38 C333.48 145.27, 387.93 86.42, 457.23 2.61 M285.08 206.74 C330.83 152.65, 372.98 101.73, 462.87 2.21 M285.08 206.74 C341.88 136.58, 403.87 70.8, 462.87 2.21 M290.72 206.35 C328.41 165.85, 367.93 117.72, 467.86 2.57 M290.72 206.35 C339.74 149.29, 388.75 93.31, 467.86 2.57 M295.71 206.71 C348.88 144.9, 408.32 82.23, 473.5 2.18 M295.71 206.71 C333.96 163.41, 369.65 122.1, 473.5 2.18 M301.35 206.31 C347.82 153.49, 396.41 102.56, 478.49 2.54 M301.35 206.31 C349.48 149, 397.18 94.32, 478.49 2.54 M306.34 206.67 C366.16 135.82, 423.36 72.11, 483.48 2.9 M306.34 206.67 C369.45 134.46, 430.81 65.65, 483.48 2.9 M311.98 206.28 C380.32 129.75, 445.23 52.12, 489.12 2.5 M311.98 206.28 C350.63 161.3, 393.39 114.45, 489.12 2.5 M316.97 206.64 C384.66 136.97, 447.65 63.73, 494.11 2.86 M316.97 206.64 C383.84 125.7, 452.14 47.15, 494.11 2.86 M322.61 206.24 C396.15 119.81, 468.02 40.94, 499.75 2.47 M322.61 206.24 C375.86 145.58, 428.49 86.19, 499.75 2.47 M327.6 206.6 C390.48 129.17, 454.42 60.33, 504.74 2.83 M327.6 206.6 C367.08 160.41, 403.29 114.84, 504.74 2.83 M333.24 206.21 C370.82 152.73, 416.73 107.59, 510.38 2.44 M333.24 206.21 C390.44 135.33, 451.93 64.21, 510.38 2.44 M338.23 206.57 C404.51 129.11, 467.36 58.6, 515.37 2.8 M338.23 206.57 C389.83 142.24, 444.84 78.25, 515.37 2.8 M343.87 206.17 C382.76 162.35, 423.72 113.27, 521.01 2.4 M343.87 206.17 C388.11 156.94, 426.19 111.25, 521.01 2.4 M348.86 206.53 C384.89 162.81, 416.05 121.1, 526 2.76 M348.86 206.53 C415.97 131.76, 482.23 56.19, 526 2.76 M354.5 206.14 C390.51 160.71, 432.04 111.09, 531.64 2.37 M354.5 206.14 C420.99 134.38, 485.83 63.26, 531.64 2.37 M359.49 206.5 C417.9 139.51, 473.71 79.3, 536.63 2.73 M359.49 206.5 C412.93 148.44, 463.67 89, 536.63 2.73 M364.48 206.86 C419.47 147.64, 468.83 94.11, 542.27 2.33 M364.48 206.86 C424.32 137.66, 485.27 67.66, 542.27 2.33 M370.12 206.46 C432.95 131.35, 493.97 62.51, 547.26 2.69 M370.12 206.46 C405.87 160.82, 445.79 114.63, 547.26 2.69 M375.11 206.82 C441.37 136.01, 502.2 57.39, 552.9 2.3 M375.11 206.82 C424.74 153.67, 474.05 96.5, 552.9 2.3 M380.75 206.43 C446.36 133.75, 516.24 56.02, 557.89 2.66 M380.75 206.43 C426.12 149.14, 476.44 89.28, 557.89 2.66 M385.74 206.79 C429.02 155.87, 472.89 109.19, 563.53 2.26 M385.74 206.79 C441.33 140.36, 498.17 75.81, 563.53 2.26 M391.38 206.4 C436.41 151.43, 479.18 104.72, 568.52 2.62 M391.38 206.4 C434.16 159.44, 477 112.02, 568.52 2.62 M396.37 206.76 C438.88 158.62, 481.89 107.61, 574.16 2.23 M396.37 206.76 C448.12 142.31, 502.04 82.5, 574.16 2.23 M402.01 206.36 C455.38 150.68, 500.62 91.37, 579.15 2.59 M402.01 206.36 C448.5 155.85, 492.17 106.25, 579.15 2.59 M407 206.72 C443.63 163.13, 481.94 121.83, 584.79 2.19 M407 206.72 C461.03 144.02, 513.96 82.56, 584.79 2.19 M412.64 206.33 C469.7 140.18, 526.89 76.02, 589.78 2.55 M412.64 206.33 C461.71 145.21, 514.27 86.9, 589.78 2.55 M417.63 206.69 C453.93 163.01, 494.81 117.94, 597.39 -0.1 M417.63 206.69 C470.59 150.24, 519.73 94.03, 597.39 -0.1 M423.27 206.29 C480.91 141.99, 536.6 70.65, 601.72 1.01 M423.27 206.29 C485.83 131.67, 553.12 56.56, 601.72 1.01 M428.26 206.65 C472.71 156.03, 514.75 104.7, 606.71 1.37 M428.26 206.65 C468.69 162.38, 507.76 114.68, 606.71 1.37 M433.9 206.26 C503.05 130.19, 564.84 53.77, 611.04 2.49 M433.9 206.26 C486.02 141.43, 540.18 81.52, 611.04 2.49 M438.89 206.62 C474.44 159.58, 516.77 115.85, 616.02 2.85 M438.89 206.62 C484.72 154.1, 530.67 103.14, 616.02 2.85 M444.53 206.22 C478.03 170.87, 515.31 126.41, 620.35 3.96 M444.53 206.22 C497.36 150.56, 547.75 93.82, 620.35 3.96 M449.52 206.58 C512.91 138.62, 571.17 73.77, 624.03 5.83 M449.52 206.58 C498.27 150.36, 551.23 92.74, 624.03 5.83 M455.16 206.19 C510.53 137.44, 572.9 71.12, 627.7 7.7 M455.16 206.19 C517.57 129.7, 585.27 52.64, 627.7 7.7 M460.15 206.55 C498.13 163.8, 530.4 118.24, 631.38 9.57 M460.15 206.55 C518.19 138.13, 576.57 73.04, 631.38 9.57 M465.79 206.15 C526.66 136.27, 590.52 68.81, 634.4 12.19 M465.79 206.15 C505.03 161.61, 543.46 116.61, 634.4 12.19 M470.78 206.51 C523 143.59, 574.92 86.45, 637.42 14.82 M470.78 206.51 C515.64 156.43, 560.88 105.77, 637.42 14.82 M476.42 206.12 C509.77 169.48, 548.59 128.57, 640.44 17.44 M476.42 206.12 C526.11 150.8, 579.15 92.24, 640.44 17.44 M481.41 206.48 C520.99 159.9, 559.51 114.09, 642.14 21.58 M481.41 206.48 C521.24 165.66, 560 123.78, 642.14 21.58 M487.05 206.08 C529.72 159.38, 567.51 115.09, 644.5 24.95 M487.05 206.08 C527.04 158.9, 571.3 109.34, 644.5 24.95 M492.04 206.44 C546.04 144.8, 599.05 78.33, 646.21 29.09 M492.04 206.44 C528.04 171.3, 557.48 134.58, 646.21 29.09 M497.02 206.8 C540.31 161.38, 583.85 109.96, 647.26 33.98 M497.02 206.8 C533.19 162.21, 570.77 120.75, 647.26 33.98 M502.67 206.41 C562.76 143.88, 618.18 75.08, 647.66 39.62 M502.67 206.41 C544.42 161.61, 582.99 115.13, 647.66 39.62 M507.65 206.77 C547.23 165.83, 587.55 115.1, 648.05 45.26 M507.65 206.77 C550.43 154.03, 597.41 102.72, 648.05 45.26 M513.3 206.38 C543.32 175.69, 574.24 135.45, 647.79 51.66 M513.3 206.38 C558.28 153.33, 605.28 99.05, 647.79 51.66 M518.28 206.74 C546.8 166.28, 579.7 129.94, 648.18 57.3 M518.28 206.74 C543.89 173.05, 570.83 143.23, 648.18 57.3 M523.93 206.34 C558.24 165.33, 595.52 121, 647.92 63.7 M523.93 206.34 C554.79 173.96, 580.26 145.04, 647.92 63.7 M528.92 206.7 C557.11 174.63, 582.36 142.66, 647.66 70.1 M528.92 206.7 C559.42 170.82, 591.21 134.8, 647.66 70.1 M534.56 206.31 C561.45 181.66, 583.35 149.06, 648.06 75.74 M534.56 206.31 C576.13 158.66, 614.09 110.11, 648.06 75.74 M539.55 206.67 C563.05 179.63, 584.68 156.56, 647.79 82.14 M539.55 206.67 C565.04 179.95, 588.43 151.06, 647.79 82.14 M545.19 206.27 C580.01 160.65, 615.53 117.85, 648.19 87.78 M545.19 206.27 C572.27 175.27, 600.91 140.37, 648.19 87.78 M550.18 206.63 C576.85 181.05, 598.54 150.4, 647.93 94.18 M550.18 206.63 C573.47 176.46, 602.36 144.74, 647.93 94.18 M555.82 206.24 C580.29 174.81, 603.59 149.38, 648.32 99.82 M555.82 206.24 C591.27 166.96, 624.31 131.73, 648.32 99.82 M560.81 206.6 C595.01 170.52, 628.31 127.48, 648.06 106.22 M560.81 206.6 C591.52 168.09, 622.4 131.49, 648.06 106.22 M566.45 206.2 C600.57 165.19, 630.4 128.75, 648.46 111.86 M566.45 206.2 C586.09 179.62, 606.48 159.85, 648.46 111.86 M571.44 206.56 C597.29 182.9, 616.63 159.33, 648.19 118.26 M571.44 206.56 C596.69 182.02, 619.39 154.4, 648.19 118.26 M577.08 206.17 C594.03 189.06, 609.49 171.1, 648.59 123.91 M577.08 206.17 C593.82 185.62, 612.35 167.56, 648.59 123.91 M582.07 206.53 C610.61 178.3, 631.04 147.45, 648.33 130.3 M582.07 206.53 C600.62 185.94, 623.82 161.46, 648.33 130.3 M587.71 206.13 C608.13 176.63, 628.41 155.26, 648.72 135.95 M587.71 206.13 C609.56 182.14, 632.45 155.41, 648.72 135.95 M592.7 206.49 C601.95 190.68, 622.12 174.86, 648.46 142.34 M592.7 206.49 C613.02 185.74, 630.44 160.12, 648.46 142.34 M598.34 206.1 C615.3 186.52, 639.11 160.27, 648.86 147.99 M598.34 206.1 C618.41 184.33, 638.82 159.75, 648.86 147.99 M603.33 206.46 C617.44 190.3, 625.87 180.94, 648.59 154.38 M603.33 206.46 C617.42 187.87, 634.78 172.3, 648.59 154.38 M610.28 204.56 C628.94 189.12, 638.29 167.45, 651.61 157.01 M610.28 204.56 C623.96 189.17, 635.71 179.17, 651.61 157.01 M617.24 202.65 C631.5 187.38, 645.77 175.7, 650.7 164.16 M617.24 202.65 C625.18 193.79, 632.55 184.91, 650.7 164.16 M624.85 199.99 C634.07 188.68, 642.49 185.87, 649.12 172.07 M624.85 199.99 C633.52 189.15, 643.89 177.2, 649.12 172.07" stroke="#fa5252" stroke-width="0.5" fill="none"></path><path d="M51.56 0 M51.56 0 C231.01 -1.84, 409.75 -3.06, 597.02 0 M51.56 0 C260.41 1.77, 470.51 0.94, 597.02 0 M597.02 0 C635.16 2.02, 646.45 13.69, 648.57 51.56 M597.02 0 C629.01 2.76, 646.22 17.64, 648.57 51.56 M648.57 51.56 C647.45 95.93, 644.41 129.98, 648.57 154.67 M648.57 51.56 C645.16 86.9, 646.23 122.43, 648.57 154.67 M648.57 154.67 C652.5 191.94, 633.44 206.29, 597.02 206.23 M648.57 154.67 C647.03 191.64, 629.77 209.28, 597.02 206.23 M597.02 206.23 C419.5 205.72, 244.83 204.88, 51.56 206.23 M597.02 206.23 C485.41 205.5, 373.09 205.98, 51.56 206.23 M51.56 206.23 C13.33 204.36, 2.2 190.92, 0 154.67 M51.56 206.23 C18.02 203.07, 1.7 186.53, 0 154.67 M0 154.67 C-1.11 115.51, 3.64 76.3, 0 51.56 M0 154.67 C1.09 123.12, -1.93 90.04, 0 51.56 M0 51.56 C-3.02 18.22, 16.72 -0.59, 51.56 0 M0 51.56 C1.54 21.37, 16.28 4.1, 51.56 0" stroke="#000000" stroke-width="1" fill="none"></path></g><g transform="translate(521.8633072768253 432.6680726427992) rotate(0 197.5 19.5)"><text x="197.5" y="31" font-family="Cascadia, Segoe UI Emoji" font-size="31.94637602649266px" fill="#000000" text-anchor="middle" style="white-space: pre;" direction="ltr">Dialog/State Manager </text></g><g stroke-linecap="round"><g transform="translate(395.6362713545277 440.7486719380204) rotate(0 -84.38453005588462 1.8862841940024282)"><path d="M-0.33 2.42 C-28.6 2.93, -139.23 0.34, -167.53 0.8 M-3.95 1.26 C-32.57 2.22, -140.44 3.12, -168.44 3.02" stroke="#000000" stroke-width="1" fill="none"></path></g><g transform="translate(395.6362713545277 440.7486719380204) rotate(0 -84.38453005588462 1.8862841940024282)"><path d="M-136.83 -3.86 C-154.72 -3.7, -159 -1.36, -170.6 3.27 M-140.34 -6.02 C-151.09 -4.24, -160.33 -2.02, -167.31 2.33" stroke="#000000" stroke-width="1" fill="none"></path></g><g transform="translate(395.6362713545277 440.7486719380204) rotate(0 -84.38453005588462 1.8862841940024282)"><path d="M-136.76 16.66 C-154.34 9.12, -158.66 3.76, -170.6 3.27 M-140.27 14.51 C-151.21 9.6, -160.47 5.16, -167.31 2.33" stroke="#000000" stroke-width="1" fill="none"></path></g></g><g stroke-linecap="round"><g transform="translate(517.6244390997008 249.40770520702245) rotate(0 -2.9823442124607027 53.280379917954065)"><path d="M-0.27 1.66 C-0.85 18.78, -5.55 85.83, -5.7 103.14 M-3.86 0.1 C-3.43 17.6, -1.1 89.65, -0.79 106.47" stroke="#000000" stroke-width="1" fill="none"></path></g><g transform="translate(517.6244390997008 249.40770520702245) rotate(0 -2.9823442124607027 53.280379917954065)"><path d="M-9.42 74.63 C-10.05 87.35, -4.21 89.17, 0.35 110.4 M-10.79 78.29 C-8.86 89.73, -4.83 99.1, -1.76 107.91" stroke="#000000" stroke-width="1" fill="none"></path></g><g transform="translate(517.6244390997008 249.40770520702245) rotate(0 -2.9823442124607027 53.280379917954065)"><path d="M11.09 74.08 C5.91 86.88, 7.19 88.83, 0.35 110.4 M9.73 77.74 C3.71 89.1, -0.18 98.68, -1.76 107.91" stroke="#000000" stroke-width="1" fill="none"></path></g></g><g stroke-linecap="round" transform="translate(747.4334052642962 21.64656723861117) rotate(0 170.02242902297803 134.5348815322002)"><path d="M9.21 26.56 C9.21 26.56, 9.21 26.56, 9.21 26.56 M9.21 26.56 C9.21 26.56, 9.21 26.56, 9.21 26.56 M5.02 37.49 C17.56 25.2, 19.27 19.12, 27.98 11.07 M5.02 37.49 C12.88 27.42, 20.94 16.33, 27.98 11.07 M3.44 45.39 C16.76 33.9, 31.43 14.89, 36.25 7.66 M3.44 45.39 C12.1 36.62, 16.61 28, 36.25 7.66 M2.52 52.55 C19.6 35.71, 32.23 13.82, 45.17 3.49 M2.52 52.55 C13.63 37.28, 29.63 21.36, 45.17 3.49 M2.26 58.94 C14.56 43.16, 26.41 29.76, 51.47 2.34 M2.26 58.94 C14.87 46.39, 27.13 29.08, 51.47 2.34 M0.03 67.6 C14.44 47.24, 35.48 29.3, 57.11 1.95 M0.03 67.6 C17.76 45.95, 38.08 22.33, 57.11 1.95 M0.43 73.25 C21.9 46.08, 34.58 28.54, 62.75 1.55 M0.43 73.25 C21 47.45, 38.46 26.25, 62.75 1.55 M0.17 79.65 C16.66 57.29, 43.45 35.05, 68.4 1.16 M0.17 79.65 C21.17 55.14, 38.97 30.69, 68.4 1.16 M-0.09 86.04 C22.62 56.97, 53.22 25.66, 74.04 0.76 M-0.09 86.04 C15.98 66.61, 32.61 49.51, 74.04 0.76 M0.3 91.69 C26.12 64.23, 45.81 36.07, 79.03 1.12 M0.3 91.69 C26.21 61.63, 52.9 33.35, 79.03 1.12 M0.04 98.08 C28.57 68.91, 57.3 32.06, 84.67 0.73 M0.04 98.08 C31.64 61.93, 64.14 27.36, 84.67 0.73 M0.43 103.73 C29.71 71.32, 52.69 40.95, 89.66 1.09 M0.43 103.73 C29.99 69.44, 61.74 36.39, 89.66 1.09 M0.17 110.13 C23.61 80.42, 57.11 48.1, 94.64 1.45 M0.17 110.13 C33.13 77.45, 61.61 43.61, 94.64 1.45 M0.57 115.77 C25.02 86.53, 45.69 63.59, 100.29 1.05 M0.57 115.77 C24.44 88.18, 50.5 58.97, 100.29 1.05 M0.3 122.17 C30.94 88.73, 54.13 57.24, 105.27 1.41 M0.3 122.17 C40.29 78.27, 81.49 31.96, 105.27 1.41 M0.04 128.56 C41.48 83.58, 82.1 41.46, 110.92 1.02 M0.04 128.56 C42.24 77.93, 85.97 28.01, 110.92 1.02 M0.44 134.21 C31.03 101.76, 55.8 67.96, 115.9 1.38 M0.44 134.21 C31.59 97.99, 59.97 67.4, 115.9 1.38 M0.18 140.6 C43.16 88.87, 85.7 43.46, 121.55 0.98 M0.18 140.6 C41.21 93.95, 82.16 43.02, 121.55 0.98 M0.57 146.25 C43.12 101.22, 84.65 54.48, 126.53 1.34 M0.57 146.25 C49.33 95.59, 92.02 42.18, 126.53 1.34 M0.31 152.65 C35.99 120.27, 64.05 82.62, 132.18 0.95 M0.31 152.65 C31.56 118.31, 61.1 86.07, 132.18 0.95 M0.05 159.04 C54.03 103.58, 100 43.92, 137.16 1.31 M0.05 159.04 C43.28 105.68, 85.76 57.55, 137.16 1.31 M0.44 164.69 C57.26 99.35, 118.27 35.45, 142.81 0.91 M0.44 164.69 C37.68 123.74, 71.99 83.62, 142.81 0.91 M0.18 171.08 C28.82 133.85, 60.82 103.87, 147.79 1.27 M0.18 171.08 C48.51 122.07, 92.26 70.38, 147.79 1.27 M0.58 176.73 C61.73 108.32, 121.11 42.82, 153.44 0.88 M0.58 176.73 C58.24 112.75, 112.84 48.38, 153.44 0.88 M0.31 183.12 C61.84 113.03, 120.97 39.53, 158.42 1.24 M0.31 183.12 C62.45 111.86, 123.91 39.34, 158.42 1.24 M0.71 188.77 C50.04 131.62, 101.29 71.1, 164.07 0.85 M0.71 188.77 C64.15 114.71, 128.29 44.66, 164.07 0.85 M0.45 195.17 C62.61 123.29, 132.28 46.86, 169.05 1.21 M0.45 195.17 C54.78 129.37, 109.28 64.62, 169.05 1.21 M0.19 201.56 C43.77 153.43, 82.43 103.87, 174.7 0.81 M0.19 201.56 C49.12 143.99, 99.03 85.78, 174.7 0.81 M0.58 207.21 C65.95 133.28, 124.68 60.52, 179.68 1.17 M0.58 207.21 C61.01 141.42, 117.76 72.24, 179.68 1.17 M2.29 211.34 C51.55 156.62, 90.17 109.76, 184.67 1.53 M2.29 211.34 C59.55 141.95, 116.63 76.5, 184.67 1.53 M3.34 216.23 C39.75 173.96, 75.01 128.27, 190.31 1.14 M3.34 216.23 C78.51 128.14, 152.31 43.21, 190.31 1.14 M4.39 221.12 C63.53 152.38, 124.88 85.54, 195.3 1.5 M4.39 221.12 C59.49 164.26, 109.92 101.64, 195.3 1.5 M5.44 226.01 C69.2 159.66, 124.51 88.62, 200.94 1.1 M5.44 226.01 C62.41 159.54, 122.3 92.37, 200.94 1.1 M6.49 230.89 C87.61 138.41, 165.14 51.03, 205.93 1.46 M6.49 230.89 C46.64 183.61, 90.41 134.84, 205.93 1.46 M7.54 235.78 C82.32 147.64, 159.07 57.12, 211.57 1.07 M7.54 235.78 C86.34 145.55, 166.53 52.84, 211.57 1.07 M9.25 239.92 C62.71 185.77, 111.92 126.49, 216.56 1.43 M9.25 239.92 C85.81 151.88, 162.63 64.82, 216.56 1.43 M11.61 243.29 C64.28 180.87, 115.91 116.92, 222.21 1.03 M11.61 243.29 C84.49 159.65, 154.64 79.81, 222.21 1.03 M13.97 246.67 C88.21 160.84, 167.07 70.18, 227.19 1.39 M13.97 246.67 C59.93 194.24, 108.02 141.45, 227.19 1.39 M16.34 250.05 C74.89 174.43, 143.79 102.66, 232.84 1 M16.34 250.05 C103.43 147.63, 189.49 49.69, 232.84 1 M18.7 253.43 C65 200.75, 109.92 148.74, 237.82 1.36 M18.7 253.43 C107.1 152.48, 193.87 52.55, 237.82 1.36 M21.72 256.06 C95.36 172.74, 165 87.65, 243.47 0.96 M21.72 256.06 C106.07 161.13, 189.88 66.24, 243.47 0.96 M25.39 257.93 C116.32 158.71, 202.89 59.8, 248.45 1.32 M25.39 257.93 C76.32 198.83, 124.57 141.65, 248.45 1.32 M28.41 260.55 C106.09 174.87, 184.61 82.24, 254.1 0.93 M28.41 260.55 C90.85 195.62, 149.95 128.04, 254.1 0.93 M32.09 262.42 C107.83 174.87, 183.09 89, 259.08 1.29 M32.09 262.42 C114.14 170.76, 193.94 77.9, 259.08 1.29 M36.42 263.53 C81.98 208.55, 129.34 153.97, 264.07 1.65 M36.42 263.53 C121.3 163.02, 205.23 65.69, 264.07 1.65 M40.75 264.65 C125.97 171.8, 205.06 82.89, 269.71 1.26 M40.75 264.65 C115.79 182.49, 190.22 96.91, 269.71 1.26 M45.08 265.76 C122.24 175.47, 202.31 83.75, 274.7 1.62 M45.08 265.76 C93.14 204.06, 144.85 146.56, 274.7 1.62 M49.41 266.88 C144.16 164.75, 232.91 60.32, 281 0.47 M49.41 266.88 C100.4 209.56, 151.15 151.21, 281 0.47 M53.74 267.99 C106.74 210.28, 158.84 146.18, 285.33 1.58 M53.74 267.99 C110.72 202.8, 164.55 139.24, 285.33 1.58 M58.73 268.35 C133.61 179.25, 207.05 96.06, 290.32 1.94 M58.73 268.35 C146.55 168.16, 233.24 68.16, 290.32 1.94 M61.75 270.98 C140.48 180.6, 222.33 93.26, 294.65 3.06 M61.75 270.98 C125.23 200.05, 190.06 126.95, 294.65 3.06 M66.73 271.34 C155.64 169.55, 247.57 63.33, 299.63 3.42 M66.73 271.34 C141.43 185.17, 216.55 102.34, 299.63 3.42 M72.38 270.94 C151.42 172.56, 233.75 80.15, 303.31 5.29 M72.38 270.94 C131.34 195.09, 193.64 123.95, 303.31 5.29 M77.36 271.3 C131.06 216.94, 178.21 158.08, 306.98 7.15 M77.36 271.3 C125.17 214.49, 173.28 158.22, 306.98 7.15 M83.01 270.91 C166.98 168.55, 256.55 68.7, 310.66 9.02 M83.01 270.91 C176.28 167.21, 267.2 62.82, 310.66 9.02 M87.99 271.27 C169.77 175.96, 250.58 80.31, 313.68 11.65 M87.99 271.27 C176.38 169.49, 265.47 68.1, 313.68 11.65 M93.64 270.87 C178.88 176.62, 262.59 86.5, 317.35 13.52 M93.64 270.87 C165.63 186.08, 240.62 103.93, 317.35 13.52 M98.62 271.23 C183.73 177.83, 263.65 83.56, 321.03 15.39 M98.62 271.23 C154.27 210.57, 210.14 148.72, 321.03 15.39 M104.27 270.84 C192.37 171.21, 280.62 67.74, 324.05 18.01 M104.27 270.84 C179.82 180.48, 257.23 93.91, 324.05 18.01 M109.25 271.2 C182.95 181.82, 261.07 92.13, 326.41 21.39 M109.25 271.2 C182.75 192.83, 254.8 108.7, 326.41 21.39 M114.9 270.81 C170.55 207.98, 229.11 144.86, 328.77 24.77 M114.9 270.81 C170.27 208.48, 222.54 147.27, 328.77 24.77 M119.88 271.17 C191.49 190.1, 266.52 104.82, 330.48 28.9 M119.88 271.17 C174.13 210.68, 228.9 147.35, 330.48 28.9 M125.53 270.77 C183.69 202.18, 248.15 133.71, 332.84 32.28 M125.53 270.77 C176.9 211.18, 226.51 154.94, 332.84 32.28 M130.51 271.13 C178.17 218.77, 227.46 166.67, 335.2 35.66 M130.51 271.13 C170.78 221.62, 212.71 174.2, 335.2 35.66 M135.5 271.49 C192.43 203.23, 247.34 138.33, 337.57 39.04 M135.5 271.49 C189.79 210.52, 239.92 150.89, 337.57 39.04 M141.14 271.1 C208.78 191.85, 277 114.87, 337.96 44.68 M141.14 271.1 C182.73 226.39, 223.22 177.56, 337.96 44.68 M146.13 271.46 C222.69 183.58, 299.64 94.07, 339.01 49.57 M146.13 271.46 C186.12 226.07, 225.11 181.65, 339.01 49.57 M151.77 271.06 C207 209.22, 266.02 143.71, 339.41 55.21 M151.77 271.06 C199.93 214.95, 248.66 156.31, 339.41 55.21 M156.76 271.42 C210.21 215.53, 258.93 157.54, 340.46 60.1 M156.76 271.42 C218.36 201.08, 281.01 129.59, 340.46 60.1 M162.4 271.03 C226.04 193.55, 288.96 117.16, 340.85 65.75 M162.4 271.03 C202.96 222.29, 245.47 175.2, 340.85 65.75 M167.39 271.39 C220.9 213.7, 274.46 152.12, 342.56 69.88 M167.39 271.39 C219.99 209.65, 271.12 152.96, 342.56 69.88 M173.03 270.99 C224.34 216.62, 266.95 161.68, 342.95 75.52 M173.03 270.99 C226.49 210.75, 280.25 147.63, 342.95 75.52 M178.02 271.35 C230.48 209.99, 284.44 148.9, 342.69 81.92 M178.02 271.35 C216.36 222.92, 255.61 175.31, 342.69 81.92 M183.66 270.96 C221.3 225.66, 257.48 177.83, 342.43 88.32 M183.66 270.96 C223.63 228.53, 257.28 186.43, 342.43 88.32 M188.65 271.32 C248.1 208.99, 306.59 140.36, 342.83 93.96 M188.65 271.32 C244.72 208.69, 303.09 143.29, 342.83 93.96 M194.29 270.92 C247.25 216.11, 295.77 159.48, 342.56 100.36 M194.29 270.92 C252 203.34, 310.08 137.6, 342.56 100.36 M199.28 271.28 C245.49 216.87, 295.81 155.71, 342.96 106 M199.28 271.28 C246.91 214.98, 297.74 162.06, 342.96 106 M204.92 270.89 C242.5 228.6, 272.26 185.99, 342.7 112.4 M204.92 270.89 C244.04 223.72, 286.84 176.89, 342.7 112.4 M209.91 271.25 C245.93 227.74, 279.74 194.57, 342.44 118.8 M209.91 271.25 C242.11 233.11, 277.89 192.04, 342.44 118.8 M215.55 270.85 C241.26 237.9, 271.36 210.81, 342.83 124.44 M215.55 270.85 C240.71 236.8, 271.5 203.83, 342.83 124.44 M220.54 271.21 C251.88 237.95, 280 199.61, 342.57 130.84 M220.54 271.21 C259.89 226.21, 297.83 183.14, 342.57 130.84 M225.53 271.57 C259.1 235.82, 293.64 190.73, 342.96 136.48 M225.53 271.57 C260.87 234.35, 293.55 194.44, 342.96 136.48 M231.17 271.18 C268.34 222.49, 314.66 173.81, 342.7 142.88 M231.17 271.18 C274.56 223.53, 314.61 176.24, 342.7 142.88 M236.16 271.54 C273.87 230.4, 308.69 187.82, 342.44 149.28 M236.16 271.54 C277.16 223.14, 316.58 177.2, 342.44 149.28 M241.8 271.15 C265.58 250.14, 287.43 225.36, 342.84 154.92 M241.8 271.15 C269.23 236.74, 300.74 204.34, 342.84 154.92 M246.79 271.51 C265.27 240.95, 288 220.76, 342.57 161.32 M246.79 271.51 C269 240.56, 294.42 216.51, 342.57 161.32 M252.43 271.11 C271.9 248.46, 292.5 220.09, 342.31 167.72 M252.43 271.11 C279.63 242.91, 302.09 213.75, 342.31 167.72 M257.42 271.47 C289.47 231.45, 317.16 198.31, 342.71 173.36 M257.42 271.47 C287.14 232.56, 322.08 196.28, 342.71 173.36 M263.06 271.08 C274.95 250.32, 297.82 234.72, 342.45 179.76 M263.06 271.08 C288.49 242.86, 314.05 213.9, 342.45 179.76 M268.05 271.44 C285.52 249.3, 306.75 223.17, 342.84 185.4 M268.05 271.44 C295.33 239.23, 323.21 208.6, 342.84 185.4 M274.35 270.29 C292.49 250.23, 313.71 226.19, 342.58 191.8 M274.35 270.29 C296.71 247.9, 317.37 219.92, 342.58 191.8 M280.65 269.14 C293.1 247.55, 316.96 228.01, 342.32 198.2 M280.65 269.14 C302.62 243.99, 323.15 224.51, 342.32 198.2 M286.29 268.74 C297.53 251.36, 314.98 234.6, 342.71 203.84 M286.29 268.74 C298.37 253.36, 313.82 241.13, 342.71 203.84 M292.59 267.59 C309.12 248.15, 319.63 233.94, 341.14 211.75 M292.59 267.59 C304.33 256.63, 317.79 242.75, 341.14 211.75 M298.23 267.2 C308.71 255.46, 317.09 243.82, 339.56 219.65 M298.23 267.2 C306.84 256.3, 317.8 245.75, 339.56 219.65 M303.88 266.81 C315.51 249.43, 326.53 237.62, 337.33 228.32 M303.88 266.81 C311.04 257.58, 321.95 244.29, 337.33 228.32 M315.42 259.62 C318.77 250.41, 329.99 245.52, 334.45 237.73 M315.42 259.62 C318.4 253.81, 323.05 248.36, 334.45 237.73" stroke="#15aabf" stroke-width="0.5" fill="none"></path><path d="M67.27 0 M67.27 0 C139.23 -1.4, 213.04 0.09, 272.78 0 M67.27 0 C115.96 2.77, 161.44 3.75, 272.78 0 M272.78 0 C318.33 -0.79, 340.09 25.43, 340.04 67.27 M272.78 0 C317.93 2.16, 344.17 24.55, 340.04 67.27 M340.04 67.27 C339.81 96.67, 341.56 131.45, 340.04 201.8 M340.04 67.27 C340.3 94.34, 341.72 122.86, 340.04 201.8 M340.04 201.8 C341.2 248.75, 319.35 272.68, 272.78 269.07 M340.04 201.8 C336.55 243.47, 322.04 268.99, 272.78 269.07 M272.78 269.07 C213.1 269.56, 154.33 264.56, 67.27 269.07 M272.78 269.07 C217.16 269.43, 162.72 268.1, 67.27 269.07 M67.27 269.07 C23.48 272.69, -3.53 249.74, 0 201.8 M67.27 269.07 C20.22 267.38, -2.86 246.58, 0 201.8 M0 201.8 C-2.01 163.31, -0.87 130.9, 0 67.27 M0 201.8 C-1.32 152.85, -0.26 105.22, 0 67.27 M0 67.27 C-2.05 22.02, 20.65 -2.96, 67.27 0 M0 67.27 C-3.87 23, 26.18 -1.01, 67.27 0" stroke="#000000" stroke-width="1" fill="none"></path></g><g stroke-linecap="round"><g transform="translate(802.8099249459947 359.7620398613444) rotate(0 -0.28729198697146785 -32.68564266824944)"><path d="M1.2 0.54 C1.23 -10.45, 0.44 -54.68, 0.66 -65.91 M-1.59 -1.63 C-1.92 -12.15, -1.83 -51.88, -1.22 -62.32" stroke="#000000" stroke-width="1" fill="none"></path></g><g transform="translate(802.8099249459947 359.7620398613444) rotate(0 -0.28729198697146785 -32.68564266824944)"><path d="M9.07 -32.92 C5.17 -39.24, 0.78 -54.36, -0.1 -65.96 M7.7 -32.79 C7.41 -41.62, 2.75 -46.58, 0.16 -64.12" stroke="#000000" stroke-width="1" fill="none"></path></g><g transform="translate(802.8099249459947 359.7620398613444) rotate(0 -0.28729198697146785 -32.68564266824944)"><path d="M-11.44 -33.46 C-8.82 -39.78, -6.67 -54.74, -0.1 -65.96 M-12.81 -33.33 C-7.88 -42.17, -7.32 -46.99, 0.16 -64.12" stroke="#000000" stroke-width="1" fill="none"></path></g></g><g transform="translate(840.3525574472505 65.16462996949895) rotate(0 73.5 14)"><text x="73.5" y="22" font-family="Cascadia, Segoe UI Emoji" font-size="22.536270429563416px" fill="#000000" text-anchor="middle" style="white-space: pre;" direction="ltr">FLOW/DIALOG</text></g><g transform="translate(781.8412746759113 121.24807856500979) rotate(0 135.5 50)"><text x="135.5" y="20" font-family="Cascadia, Segoe UI Emoji" font-size="20px" fill="#000000" text-anchor="middle" style="white-space: pre;" direction="ltr">Contains Information </text><text x="135.5" y="45" font-family="Cascadia, Segoe UI Emoji" font-size="20px" fill="#000000" text-anchor="middle" style="white-space: pre;" direction="ltr">on </text><text x="135.5" y="70" font-family="Cascadia, Segoe UI Emoji" font-size="20px" fill="#000000" text-anchor="middle" style="white-space: pre;" direction="ltr">How to respond </text><text x="135.5" y="95" font-family="Cascadia, Segoe UI Emoji" font-size="20px" fill="#000000" text-anchor="middle" style="white-space: pre;" direction="ltr">to a particular intent </text></g><g stroke-linecap="round"><g transform="translate(960.7539693166582 287.3240033831262) rotate(0 1.0754787030127773 35.27681877375892)"><path d="M-2.06 0.81 C-2.27 11.97, -1.03 57.12, -0.75 69.4 M2.02 -1.22 C2.6 11.43, 3.7 59.83, 4.23 71.77" stroke="#000000" stroke-width="1" fill="none"></path></g><g transform="translate(960.7539693166582 287.3240033831262) rotate(0 1.0754787030127773 35.27681877375892)"><path d="M-5.78 40.2 C-6.21 49.71, 4.59 60.43, 2.39 70.26 M-7.64 44.86 C-4.02 50.76, -2.23 59.39, 4.77 70" stroke="#000000" stroke-width="1" fill="none"></path></g><g transform="translate(960.7539693166582 287.3240033831262) rotate(0 1.0754787030127773 35.27681877375892)"><path d="M14.73 39.54 C7.79 48.96, 12.07 59.88, 2.39 70.26 M12.87 44.2 C10.77 50.1, 6.85 58.92, 4.77 70" stroke="#000000" stroke-width="1" fill="none"></path></g></g><g transform="translate(266.0791514119801 395.3705235185748) rotate(0 48 12.5)"><text x="48" y="20" font-family="Cascadia, Segoe UI Emoji" font-size="20px" fill="#000000" text-anchor="middle" style="white-space: pre;" direction="ltr">response</text></g><g stroke-linecap="round" transform="translate(32.74247231483969 616.9398269247861) rotate(0 553.0550101909594 73.47349169203574)"><path d="M9.12 9.26 C9.12 9.26, 9.12 9.26, 9.12 9.26 M9.12 9.26 C9.12 9.26, 9.12 9.26, 9.12 9.26 M3.61 21.69 C5.04 19, 12.9 8.48, 20.01 2.82 M3.61 21.69 C7.66 14.27, 15.74 8.98, 20.01 2.82 M2.7 28.84 C4.23 21.84, 9.35 15.75, 23.69 4.69 M2.7 28.84 C9.93 20.63, 18.22 12.98, 23.69 4.69 M0.47 37.5 C10.16 29.74, 12.22 24.25, 29.33 4.3 M0.47 37.5 C11.27 27.08, 19.88 18.19, 29.33 4.3 M0.86 43.15 C13.34 30.68, 26.1 17.79, 37.6 0.88 M0.86 43.15 C15.6 27.11, 29.6 11.93, 37.6 0.88 M0.6 49.55 C14.09 38.84, 21.38 18.61, 43.24 0.49 M0.6 49.55 C19.14 28.82, 34.72 12.42, 43.24 0.49 M0.34 55.94 C14.35 35.47, 32.66 19.83, 48.23 0.85 M0.34 55.94 C13.41 40.95, 24.42 28.79, 48.23 0.85 M0.73 61.59 C13.87 43.83, 28.72 26.27, 53.87 0.46 M0.73 61.59 C13.83 48.63, 22.24 34.31, 53.87 0.46 M0.47 67.98 C16.9 45.96, 35.15 22.73, 58.86 0.82 M0.47 67.98 C12.46 52.49, 24.25 37.48, 58.86 0.82 M0.86 73.63 C26.22 48.57, 49.59 22.39, 63.85 1.18 M0.86 73.63 C14.87 55.58, 31.45 38.22, 63.85 1.18 M0.6 80.03 C22.72 49.83, 45.96 29.83, 69.49 0.78 M0.6 80.03 C28.23 50.63, 55.41 21.06, 69.49 0.78 M0.34 86.42 C14.1 62.75, 35.95 42.3, 74.48 1.14 M0.34 86.42 C27.27 57.28, 50.48 31.5, 74.48 1.14 M0.74 92.07 C29.62 54.88, 62.1 21.5, 80.12 0.75 M0.74 92.07 C16.83 74.07, 33.26 54.78, 80.12 0.75 M0.48 98.46 C24.35 61.4, 54.12 32.91, 85.11 1.11 M0.48 98.46 C19.77 76.98, 37.27 57.94, 85.11 1.11 M0.87 104.11 C28.68 73.23, 53.67 44.16, 90.75 0.71 M0.87 104.11 C24.6 75.67, 50 49.65, 90.75 0.71 M0.61 110.5 C25.7 79.93, 54.43 47.18, 95.74 1.07 M0.61 110.5 C30.61 75.29, 61.34 39.39, 95.74 1.07 M1 116.15 C35.85 67.41, 80.94 23.98, 101.38 0.68 M1 116.15 C36 74.05, 70.43 36.27, 101.38 0.68 M2.05 121.04 C35.17 84.04, 70.52 42.63, 106.37 1.04 M2.05 121.04 C22.26 93.96, 46.04 69.21, 106.37 1.04 M2.45 126.68 C26.1 106.22, 47.9 78.56, 112.01 0.64 M2.45 126.68 C42.33 82.69, 82.6 35.09, 112.01 0.64 M4.81 130.06 C30.77 103.27, 51.36 77.96, 117 1 M4.81 130.06 C50.19 77.29, 92.82 24.33, 117 1 M7.17 133.44 C45.71 89.28, 87.96 46.52, 122.64 0.61 M7.17 133.44 C33.14 106.97, 60.24 75.32, 122.64 0.61 M8.88 137.57 C49.08 88.39, 92.08 49.3, 127.63 0.97 M8.88 137.57 C36.8 106.84, 63.01 76.03, 127.63 0.97 M11.9 140.2 C48.43 92.39, 84.54 53.56, 133.27 0.57 M11.9 140.2 C58.79 87.69, 101.83 36.18, 133.27 0.57 M15.57 142.06 C50.25 109.85, 79.77 71.93, 138.26 0.93 M15.57 142.06 C44.55 109.27, 75.52 75.93, 138.26 0.93 M18.59 144.69 C49.28 111.98, 68.59 81.97, 143.9 0.54 M18.59 144.69 C48.32 102.25, 84.65 66.9, 143.9 0.54 M22.27 146.56 C50.97 110.22, 84.78 73.2, 148.89 0.9 M22.27 146.56 C51.68 113.67, 79.87 83.49, 148.89 0.9 M27.25 146.92 C62 105.41, 101.28 64.94, 154.53 0.5 M27.25 146.92 C59.08 107.97, 92.6 69.94, 154.53 0.5 M30.93 148.79 C63.17 106.25, 97.83 71.65, 159.52 0.86 M30.93 148.79 C74.31 96.23, 119.1 43.31, 159.52 0.86 M35.92 149.15 C81.82 100.55, 126.9 47.76, 164.5 1.23 M35.92 149.15 C80.32 98.99, 124.89 48, 164.5 1.23 M41.56 148.75 C91.41 90.04, 136.81 39.53, 170.15 0.83 M41.56 148.75 C73.51 117.2, 101.98 85.47, 170.15 0.83 M46.55 149.11 C93.03 99.73, 137.41 45.7, 175.13 1.19 M46.55 149.11 C96.88 93.62, 145 37.1, 175.13 1.19 M52.19 148.72 C100.27 93.69, 150.45 32.78, 180.78 0.8 M52.19 148.72 C81.53 114.42, 112.13 79.19, 180.78 0.8 M57.18 149.08 C91.85 105.09, 128.87 65.31, 185.76 1.16 M57.18 149.08 C96.46 104.35, 134.6 59.82, 185.76 1.16 M62.82 148.68 C110.42 95.83, 163.53 35, 191.41 0.76 M62.82 148.68 C96.47 111.85, 126.61 78.57, 191.41 0.76 M67.81 149.04 C114.72 93.49, 167.19 36.28, 196.39 1.12 M67.81 149.04 C104.93 100.88, 142.55 56.84, 196.39 1.12 M73.45 148.65 C127.68 88.92, 174.06 34.22, 202.04 0.73 M73.45 148.65 C100.17 113.23, 132.35 76.29, 202.04 0.73 M78.44 149.01 C119.94 96.93, 162.43 48.61, 207.02 1.09 M78.44 149.01 C107.23 115.47, 140.17 75.54, 207.02 1.09 M84.08 148.62 C129.08 96.83, 168.26 49.63, 212.67 0.69 M84.08 148.62 C123.76 100.91, 166.78 53.11, 212.67 0.69 M89.07 148.98 C124.31 103.01, 170.78 58.26, 217.65 1.05 M89.07 148.98 C122.72 109.13, 158.58 72.55, 217.65 1.05 M94.71 148.58 C126.48 119.67, 157.03 85.67, 223.3 0.66 M94.71 148.58 C138.68 97.34, 182.33 43.79, 223.3 0.66 M99.7 148.94 C145.72 98.15, 183.27 42.04, 228.28 1.02 M99.7 148.94 C139.76 105.02, 182.96 57.18, 228.28 1.02 M105.34 148.55 C132.87 117.06, 163.04 84.48, 233.93 0.62 M105.34 148.55 C157.63 92.24, 207.63 34.32, 233.93 0.62 M110.33 148.91 C151.41 98.82, 190.8 53.94, 238.92 0.98 M110.33 148.91 C145.5 107.34, 183.28 63.5, 238.92 0.98 M115.97 148.51 C164.11 88.79, 216.01 34.91, 244.56 0.59 M115.97 148.51 C157.48 97.18, 198.13 50.44, 244.56 0.59 M120.96 148.87 C173.34 88.58, 218.11 29.86, 249.55 0.95 M120.96 148.87 C159.33 108.99, 190.25 69.58, 249.55 0.95 M126.6 148.48 C162.07 109.15, 197.18 67.32, 255.19 0.55 M126.6 148.48 C168.15 104.12, 205.32 58.22, 255.19 0.55 M131.59 148.84 C178.89 91.78, 226.2 39.24, 260.18 0.91 M131.59 148.84 C165.89 116.5, 197.76 78.87, 260.18 0.91 M136.57 149.2 C179.63 100.88, 223.51 43.1, 265.16 1.27 M136.57 149.2 C163.26 114.49, 195.01 83.09, 265.16 1.27 M142.22 148.8 C180.36 105, 222.12 54.55, 270.81 0.88 M142.22 148.8 C172.16 111.82, 204.9 71.13, 270.81 0.88 M147.2 149.16 C171.97 118.13, 204.36 81.22, 275.79 1.24 M147.2 149.16 C175.63 117.02, 203.19 81.7, 275.79 1.24 M152.85 148.77 C198.81 98.97, 241.93 40.01, 281.44 0.85 M152.85 148.77 C182.03 113.93, 209.56 82.88, 281.44 0.85 M157.83 149.13 C208.1 93.56, 255.64 37.78, 286.42 1.21 M157.83 149.13 C188.11 112.5, 222.53 72.72, 286.42 1.21 M163.48 148.73 C202.9 102.03, 233.27 60.97, 292.07 0.81 M163.48 148.73 C199.97 103.09, 234.78 59.25, 292.07 0.81 M168.46 149.09 C204.16 109.79, 236.77 74.54, 297.05 1.17 M168.46 149.09 C203.9 107.58, 243.31 62.15, 297.05 1.17 M174.11 148.7 C225.67 87.22, 271.86 37.93, 302.7 0.78 M174.11 148.7 C215.35 101.64, 256.73 52.74, 302.7 0.78 M179.09 149.06 C218.12 98.38, 267.44 47.25, 307.68 1.14 M179.09 149.06 C219.91 100.56, 261.86 51.98, 307.68 1.14 M184.74 148.67 C226.18 98.7, 265.69 51.65, 313.33 0.74 M184.74 148.67 C240.08 89.14, 290.61 32.42, 313.33 0.74 M189.73 149.03 C227.82 109.14, 261.29 64.08, 318.31 1.1 M189.73 149.03 C230.83 102.62, 269.57 54.59, 318.31 1.1 M195.37 148.63 C231.7 109.41, 270.67 62.06, 323.96 0.71 M195.37 148.63 C235.3 104.41, 273.1 63.91, 323.96 0.71 M200.36 148.99 C227.78 119.3, 253.94 86.39, 328.94 1.07 M200.36 148.99 C240.89 105.18, 275.72 62.91, 328.94 1.07 M206 148.6 C248.76 99.06, 287.64 49.86, 334.59 0.67 M206 148.6 C234.04 115.05, 263.04 83.36, 334.59 0.67 M210.99 148.96 C259.23 95.3, 314.38 34.94, 339.57 1.03 M210.99 148.96 C246.21 107.36, 282.72 67.14, 339.57 1.03 M216.63 148.56 C259.23 99.18, 303.34 46.72, 345.22 0.64 M216.63 148.56 C256.3 106.3, 296.15 64.27, 345.22 0.64 M221.62 148.92 C269.6 94.75, 320.79 41.04, 350.2 1 M221.62 148.92 C260.41 102.83, 298.88 60.3, 350.2 1 M226.6 149.28 C257.29 106.12, 292.25 65.53, 355.19 1.36 M226.6 149.28 C254.77 113.04, 288.24 77.86, 355.19 1.36 M232.25 148.89 C266.53 110.48, 297.7 74.16, 360.83 0.96 M232.25 148.89 C259.28 119.72, 286.17 88.97, 360.83 0.96 M237.23 149.25 C283.66 95.73, 329.32 46.65, 365.82 1.32 M237.23 149.25 C275.92 101.88, 315.98 58.06, 365.82 1.32 M242.88 148.85 C296.33 89.41, 347.82 29.33, 371.46 0.93 M242.88 148.85 C277.51 111.2, 313.3 69.96, 371.46 0.93 M247.86 149.21 C281.22 117.81, 305.95 77.59, 376.45 1.29 M247.86 149.21 C293.57 95.71, 338.8 43.16, 376.45 1.29 M253.51 148.82 C297.62 102.48, 332.33 51.68, 382.09 0.9 M253.51 148.82 C304.3 93.36, 349.27 39.66, 382.09 0.9 M258.49 149.18 C299.26 101.72, 333.36 62.2, 387.08 1.26 M258.49 149.18 C308.84 95.58, 355.05 43.72, 387.08 1.26 M264.14 148.78 C291.13 120.7, 317.47 82.67, 392.72 0.86 M264.14 148.78 C316.45 91.09, 363.08 35.6, 392.72 0.86 M269.12 149.14 C307.17 101.1, 349.14 53.76, 397.71 1.22 M269.12 149.14 C307.59 103.65, 346.66 60.38, 397.71 1.22 M274.77 148.75 C302.54 120.19, 327.44 84.62, 403.35 0.83 M274.77 148.75 C304.42 109.57, 338.62 73.1, 403.35 0.83 M279.75 149.11 C324.88 95.87, 371.36 43.85, 408.34 1.19 M279.75 149.11 C317.99 107.86, 353.53 65.62, 408.34 1.19 M285.4 148.71 C331.19 98.92, 372.16 48.29, 413.98 0.79 M285.4 148.71 C319.77 111.65, 348.69 74.31, 413.98 0.79 M290.38 149.07 C333.74 94.54, 369.25 50.59, 418.97 1.15 M290.38 149.07 C313.52 120, 341.94 90.3, 418.97 1.15 M296.03 148.68 C335.46 99.8, 379.93 54.75, 424.61 0.76 M296.03 148.68 C338.51 97.9, 384.35 47.78, 424.61 0.76 M301.01 149.04 C335.74 111.2, 368.92 75.27, 429.6 1.12 M301.01 149.04 C341.54 100.58, 385.48 50.58, 429.6 1.12 M306.66 148.65 C338.49 112.47, 367.29 79.16, 435.24 0.72 M306.66 148.65 C342.41 111.86, 373.05 74.96, 435.24 0.72 M311.64 149.01 C360.03 97.33, 400.74 51.38, 440.23 1.08 M311.64 149.01 C347.33 108.59, 381.28 70.74, 440.23 1.08 M317.29 148.61 C346.43 110.04, 376.54 82.38, 445.87 0.69 M317.29 148.61 C364.3 92.06, 415.75 33.03, 445.87 0.69 M322.27 148.97 C357.28 105.05, 399.75 55.38, 450.86 1.05 M322.27 148.97 C371.74 89.73, 422.85 31.13, 450.86 1.05 M327.26 149.33 C377.74 92.81, 426.37 43.04, 455.85 1.41 M327.26 149.33 C360.97 108.93, 394.83 65.74, 455.85 1.41 M332.9 148.94 C374.54 101.69, 416.21 44.18, 461.49 1.01 M332.9 148.94 C369.37 109.18, 405.43 70.87, 461.49 1.01 M337.89 149.3 C370.87 102.51, 405.02 64.11, 466.48 1.37 M337.89 149.3 C383.82 96.58, 427.41 47.68, 466.48 1.37 M343.53 148.9 C376.54 117.11, 402.87 81.93, 472.12 0.98 M343.53 148.9 C394.38 87.52, 442.33 32.24, 472.12 0.98 M348.52 149.26 C376.07 117.51, 403.51 89.47, 477.11 1.34 M348.52 149.26 C395.02 92.95, 440.59 42.4, 477.11 1.34 M354.16 148.87 C394.47 102.63, 429.79 63.51, 482.75 0.94 M354.16 148.87 C386.87 112.67, 419.03 77.74, 482.75 0.94 M359.15 149.23 C407.78 91.95, 454.03 30.51, 487.74 1.31 M359.15 149.23 C408.53 91.1, 456.23 36.43, 487.74 1.31 M364.79 148.83 C401.21 111.97, 435.84 68.5, 493.38 0.91 M364.79 148.83 C396.61 112.56, 429.19 73.62, 493.38 0.91 M369.78 149.19 C406.18 100.28, 449.49 54.28, 498.37 1.27 M369.78 149.19 C400.43 117.33, 424.96 87.5, 498.37 1.27 M375.42 148.8 C426.03 93.47, 475.11 36.33, 504.01 0.88 M375.42 148.8 C406.73 111.26, 437.52 75.99, 504.01 0.88 M380.41 149.16 C417.51 112.27, 444.69 72.59, 509 1.24 M380.41 149.16 C421.68 104.91, 462.7 57.05, 509 1.24 M386.05 148.76 C422.16 108.72, 460.75 62.02, 514.64 0.84 M386.05 148.76 C434.59 97.04, 476.33 45.68, 514.64 0.84 M391.04 149.12 C433.52 100.14, 468.05 54.27, 519.63 1.2 M391.04 149.12 C432.05 97.68, 475.65 47.76, 519.63 1.2 M396.68 148.73 C432.9 100.35, 472.58 57.26, 525.27 0.81 M396.68 148.73 C439.09 98.44, 478.85 51.89, 525.27 0.81 M401.67 149.09 C447.07 97.63, 492.4 51.01, 530.26 1.17 M401.67 149.09 C454.23 94.33, 501.65 39.52, 530.26 1.17 M407.31 148.7 C443.27 108.22, 475.23 73.31, 535.9 0.77 M407.31 148.7 C441.02 107.07, 477.58 67.4, 535.9 0.77 M412.3 149.06 C458.08 103.9, 495.42 56.93, 540.89 1.13 M412.3 149.06 C449.34 108.54, 487.61 65.06, 540.89 1.13 M417.94 148.66 C468.91 90.83, 514.79 37.31, 546.53 0.74 M417.94 148.66 C448.22 113.91, 478.87 81.34, 546.53 0.74 M422.93 149.02 C463.39 101.6, 510.41 51.83, 551.52 1.1 M422.93 149.02 C451.43 118.94, 480.31 86.09, 551.52 1.1 M427.92 149.38 C454.73 118.26, 483.99 91.85, 556.51 1.46 M427.92 149.38 C452.59 115.78, 483.09 84.33, 556.51 1.46 M433.56 148.99 C476.96 104.97, 519.94 53.67, 562.15 1.06 M433.56 148.99 C466.64 117.01, 499.02 77.39, 562.15 1.06 M438.55 149.35 C477.27 109.34, 511.23 64.79, 567.14 1.42 M438.55 149.35 C470.51 114.65, 501.91 77.1, 567.14 1.42 M444.19 148.95 C470.05 123.61, 496.84 91.54, 572.78 1.03 M444.19 148.95 C484.87 98.95, 526.28 49.64, 572.78 1.03 M449.18 149.31 C479.47 107.28, 514.96 65.85, 577.77 1.39 M449.18 149.31 C479.57 115.79, 510.12 79.37, 577.77 1.39 M454.82 148.92 C506.14 96.8, 555.42 42.04, 583.41 0.99 M454.82 148.92 C505.71 89.21, 554.71 34.05, 583.41 0.99 M459.81 149.28 C491.22 107.47, 527.45 66.15, 588.4 1.35 M459.81 149.28 C504.16 101.57, 545.87 51.32, 588.4 1.35 M465.45 148.88 C511.12 95.27, 562.51 39.32, 594.04 0.96 M465.45 148.88 C492.84 120.96, 520.51 89.67, 594.04 0.96 M470.44 149.24 C495.88 114.2, 528.93 76.88, 599.03 1.32 M470.44 149.24 C521.93 90.13, 568.8 34.16, 599.03 1.32 M476.08 148.85 C528.8 92.66, 577.87 32.69, 604.67 0.93 M476.08 148.85 C516.57 99.58, 561.81 49.72, 604.67 0.93 M481.07 149.21 C529.39 98.3, 569.4 46.56, 609.66 1.29 M481.07 149.21 C513.22 109.88, 548.04 72.33, 609.66 1.29 M486.71 148.81 C510.94 114.32, 542.73 90.1, 615.3 0.89 M486.71 148.81 C538 91.24, 588.13 33.68, 615.3 0.89 M491.7 149.17 C539.47 99.22, 585.71 42.71, 620.29 1.25 M491.7 149.17 C538.19 97.54, 583.64 41.52, 620.29 1.25 M497.34 148.78 C527.23 111.98, 559.24 78.12, 625.93 0.86 M497.34 148.78 C537.79 98.57, 584.41 50.64, 625.93 0.86 M502.33 149.14 C548.3 95.65, 600.03 45.26, 630.92 1.22 M502.33 149.14 C531.21 112.73, 565.8 75.56, 630.92 1.22 M507.97 148.75 C541.4 107.76, 579.42 70.26, 636.56 0.82 M507.97 148.75 C535.99 115.41, 564.15 78.4, 636.56 0.82 M512.96 149.11 C559.38 94.04, 610.37 37.1, 641.55 1.18 M512.96 149.11 C547.86 108.63, 582.76 71.24, 641.55 1.18 M518.6 148.71 C557.93 93.93, 603.59 49.55, 647.19 0.79 M518.6 148.71 C554.11 109.08, 588.49 70.97, 647.19 0.79 M523.59 149.07 C555.41 110.53, 591.69 80.76, 652.18 1.15 M523.59 149.07 C563.47 102.16, 601.85 57.18, 652.18 1.15 M528.58 149.43 C565.79 114.16, 591.84 71.8, 657.16 1.51 M528.58 149.43 C565.47 103.12, 604.13 55.3, 657.16 1.51 M534.22 149.04 C575.48 97.97, 622.97 53.93, 662.81 1.11 M534.22 149.04 C567.83 115.28, 598.87 78.74, 662.81 1.11 M539.21 149.4 C574.73 105.27, 614.28 67.78, 667.79 1.47 M539.21 149.4 C560.81 119.62, 587.57 89.2, 667.79 1.47 M544.85 149 C588.56 93.53, 643.37 31.71, 673.44 1.08 M544.85 149 C583.14 105.09, 620.22 62.16, 673.44 1.08 M549.84 149.36 C581.88 111.15, 621.94 70.29, 678.42 1.44 M549.84 149.36 C578.11 116.06, 611.24 84.21, 678.42 1.44 M555.48 148.97 C590.46 103.38, 623.13 67.83, 684.07 1.04 M555.48 148.97 C590.8 115.15, 622.01 79.05, 684.07 1.04 M560.47 149.33 C603.83 104.5, 640.91 60.32, 689.05 1.4 M560.47 149.33 C596.38 109.17, 629.54 70.59, 689.05 1.4 M566.11 148.93 C599.63 110.65, 637.98 62.18, 694.7 1.01 M566.11 148.93 C602.49 109.88, 636.93 67.61, 694.7 1.01 M571.1 149.29 C620.41 87.66, 677.44 32.31, 699.68 1.37 M571.1 149.29 C600.22 114.22, 631.69 78.72, 699.68 1.37 M576.74 148.9 C598.11 116.25, 630.37 86.76, 705.33 0.98 M576.74 148.9 C612.92 108.9, 644.87 70.53, 705.33 0.98 M581.73 149.26 C624.76 111.02, 657.52 64.87, 710.31 1.34 M581.73 149.26 C609.68 116.6, 636.45 83.77, 710.31 1.34 M587.37 148.86 C620.53 111.18, 654.16 72.9, 715.96 0.94 M587.37 148.86 C633.2 97.06, 678.7 43.1, 715.96 0.94 M592.36 149.22 C628.49 112.69, 667.74 67.38, 720.94 1.3 M592.36 149.22 C642.4 95.12, 689.45 39.89, 720.94 1.3 M598 148.83 C644.91 100.91, 691.42 51.13, 726.59 0.91 M598 148.83 C639.72 99.61, 684.74 54.27, 726.59 0.91 M602.99 149.19 C636.68 113.12, 662.56 75.69, 731.57 1.27 M602.99 149.19 C632.78 117.01, 660.25 82.71, 731.57 1.27 M608.63 148.79 C660.48 92.75, 710.86 30.23, 737.22 0.87 M608.63 148.79 C641.08 112.75, 674.12 75.28, 737.22 0.87 M613.62 149.15 C653.13 100.79, 693.84 55.91, 742.2 1.23 M613.62 149.15 C657.38 101.32, 698.42 53.27, 742.2 1.23 M619.26 148.76 C647.49 116.06, 674.77 80.17, 747.85 0.84 M619.26 148.76 C654.62 109.86, 686.3 68.71, 747.85 0.84 M624.25 149.12 C651.43 112.25, 681.66 82.34, 752.83 1.2 M624.25 149.12 C657.91 111.23, 690.49 73.02, 752.83 1.2 M629.23 149.48 C675.68 103.14, 711.45 61.52, 757.82 1.56 M629.23 149.48 C673.81 99.81, 718.01 51.1, 757.82 1.56 M634.88 149.09 C675.15 100.9, 718.18 49.18, 763.46 1.16 M634.88 149.09 C664.75 120.37, 690.02 90.56, 763.46 1.16 M639.86 149.45 C667.32 117, 693.42 91.07, 768.45 1.52 M639.86 149.45 C687.13 103.39, 726.95 54.62, 768.45 1.52 M645.51 149.05 C687.97 94.93, 736.35 39.14, 774.09 1.13 M645.51 149.05 C694.33 92.28, 737 40.77, 774.09 1.13 M650.49 149.41 C688.45 108.13, 723.27 71.11, 779.08 1.49 M650.49 149.41 C695.47 99.19, 739.7 44.61, 779.08 1.49 M656.14 149.02 C690.16 103.72, 732.44 62.32, 784.72 1.09 M656.14 149.02 C695.37 99.56, 739.83 49.87, 784.72 1.09 M661.12 149.38 C709.56 89.73, 759.13 33, 789.71 1.45 M661.12 149.38 C689.27 119.13, 716.67 85.01, 789.71 1.45 M666.77 148.98 C708.8 109.63, 745.06 65.21, 795.35 1.06 M666.77 148.98 C713.38 96.02, 761.19 44.82, 795.35 1.06 M671.75 149.34 C712.37 108.14, 744.05 71.22, 800.34 1.42 M671.75 149.34 C715.15 98.37, 758.4 51.16, 800.34 1.42 M677.4 148.95 C724.49 100.55, 765.6 53.19, 805.98 1.02 M677.4 148.95 C710.45 103.51, 746.16 65.33, 805.98 1.02 M682.38 149.31 C718.93 103.7, 758.82 63.06, 810.97 1.39 M682.38 149.31 C713.42 116.01, 746.2 80.42, 810.97 1.39 M688.03 148.91 C716.86 114.81, 748.59 80.63, 816.61 0.99 M688.03 148.91 C729.48 102.65, 772.45 51.02, 816.61 0.99 M693.01 149.27 C730.9 111.89, 762.14 70.1, 821.6 1.35 M693.01 149.27 C728.24 106.54, 766.89 64.08, 821.6 1.35 M698.66 148.88 C745.92 91.64, 799.09 37.85, 827.24 0.96 M698.66 148.88 C730.03 119.68, 754.5 85.42, 827.24 0.96 M703.64 149.24 C750.71 96.79, 791.41 46.51, 832.23 1.32 M703.64 149.24 C748.86 98.37, 794.91 46.27, 832.23 1.32 M709.29 148.84 C740.01 115.02, 767.73 84.84, 837.87 0.92 M709.29 148.84 C760.35 94.77, 806.71 39.95, 837.87 0.92 M714.27 149.2 C744.37 107.45, 771.59 75, 842.86 1.28 M714.27 149.2 C747.56 111.9, 782.55 72.02, 842.86 1.28 M719.92 148.81 C769 96.54, 809.95 47.43, 848.51 0.89 M719.92 148.81 C763.69 99.13, 807.11 50.54, 848.51 0.89 M724.9 149.17 C748.16 120.51, 777.63 84.31, 853.49 1.25 M724.9 149.17 C762.54 106.56, 797.38 69.92, 853.49 1.25 M729.89 149.53 C754.82 118.32, 784.77 84.5, 858.48 1.61 M729.89 149.53 C781.11 88.36, 834.8 31.47, 858.48 1.61 M735.53 149.14 C775.87 101.75, 811.67 54.22, 864.12 1.21 M735.53 149.14 C781.33 98.8, 825.4 48.08, 864.12 1.21 M740.52 149.5 C774.74 109.36, 812.13 69.65, 869.11 1.57 M740.52 149.5 C782.35 106, 821.64 63.22, 869.11 1.57 M746.16 149.1 C788.51 105.71, 823.91 58.09, 874.75 1.18 M746.16 149.1 C772.36 115.68, 801.75 82.54, 874.75 1.18 M751.15 149.46 C776.55 118.99, 809.46 84.17, 879.74 1.54 M751.15 149.46 C798.05 99.59, 841.93 45.89, 879.74 1.54 M756.79 149.07 C805.91 97.56, 850.18 37.11, 885.38 1.14 M756.79 149.07 C783.91 116.08, 813.39 85.32, 885.38 1.14 M761.78 149.43 C798.82 112.11, 823.08 75.88, 890.37 1.5 M761.78 149.43 C805.89 95.29, 849.07 44.41, 890.37 1.5 M767.42 149.03 C789.25 118.58, 818.81 90.9, 896.01 1.11 M767.42 149.03 C797.74 116.81, 823.22 85.25, 896.01 1.11 M772.41 149.39 C811.68 102.21, 849.29 61.41, 901 1.47 M772.41 149.39 C801.05 115.6, 828.09 86.83, 901 1.47 M778.05 149 C817.95 103.8, 854.62 54.9, 906.64 1.07 M778.05 149 C804.18 114.82, 835.3 82.6, 906.64 1.07 M783.04 149.36 C814.24 110.7, 842.33 73.08, 911.63 1.43 M783.04 149.36 C831.92 95.02, 877.89 39.54, 911.63 1.43 M788.69 148.96 C825.54 110.35, 860.23 68.15, 917.27 1.04 M788.69 148.96 C824.02 106.95, 858.08 69.3, 917.27 1.04 M793.67 149.32 C824.43 118.3, 854.84 81.86, 922.26 1.4 M793.67 149.32 C835.67 96.35, 883.65 43.86, 922.26 1.4 M799.32 148.93 C843.96 94.73, 897.23 40.69, 927.9 1.01 M799.32 148.93 C843.01 102.59, 879.77 58.73, 927.9 1.01 M804.3 149.29 C841.46 103.35, 881.68 56.18, 932.89 1.37 M804.3 149.29 C836.42 110.35, 866.18 75.47, 932.89 1.37 M809.95 148.89 C850.7 105.48, 883.87 64.95, 938.53 0.97 M809.95 148.89 C843.81 107.08, 875.43 67.91, 938.53 0.97 M814.93 149.25 C847.66 113.36, 879.25 77.79, 943.52 1.33 M814.93 149.25 C842.04 118.45, 868.14 87.42, 943.52 1.33 M820.58 148.86 C871.57 96.25, 919.28 34.08, 949.16 0.94 M820.58 148.86 C855.21 112.7, 886.8 76.14, 949.16 0.94 M825.56 149.22 C876.08 91.6, 916.82 43.19, 954.15 1.3 M825.56 149.22 C870.07 100.53, 913.36 50.32, 954.15 1.3 M830.55 149.58 C869.67 103.06, 917.26 59.57, 959.14 1.66 M830.55 149.58 C864.52 104.41, 904.06 63.15, 959.14 1.66 M836.19 149.19 C869.57 114.82, 900.38 77.73, 964.78 1.26 M836.19 149.19 C864.65 115.88, 893.24 81.68, 964.78 1.26 M841.18 149.55 C890.37 96.2, 934.47 42.74, 969.77 1.62 M841.18 149.55 C867.72 116.19, 899.2 84.15, 969.77 1.62 M846.82 149.15 C896.82 93.5, 951.36 32.29, 975.41 1.23 M846.82 149.15 C896.13 92.61, 945.49 35.03, 975.41 1.23 M851.81 149.51 C892.72 111.14, 924.33 72.5, 980.4 1.59 M851.81 149.51 C883.17 114.75, 915.91 75.64, 980.4 1.59 M857.45 149.12 C885.16 118.18, 917.36 84.35, 986.04 1.19 M857.45 149.12 C894.1 107.56, 926.85 68.83, 986.04 1.19 M862.44 149.48 C899.04 109.23, 930.39 72.83, 991.03 1.55 M862.44 149.48 C899.02 106.46, 936.82 64.28, 991.03 1.55 M868.08 149.08 C909.35 104.13, 948.67 58.39, 996.67 1.16 M868.08 149.08 C914.67 92.22, 966.39 33.84, 996.67 1.16 M873.07 149.44 C904.99 111.49, 930.37 80.11, 1001.66 1.52 M873.07 149.44 C910.07 105.61, 945.11 68.38, 1001.66 1.52 M878.71 149.05 C906.6 111.96, 935.29 81.11, 1007.3 1.12 M878.71 149.05 C908.66 113.69, 939.71 80.62, 1007.3 1.12 M883.7 149.41 C917.06 113.43, 953.95 68.04, 1012.29 1.48 M883.7 149.41 C919.7 108.32, 957.1 67.4, 1012.29 1.48 M889.34 149.01 C935.84 89.04, 984.8 39.41, 1017.93 1.09 M889.34 149.01 C931.49 100.56, 976.81 50.88, 1017.93 1.09 M894.33 149.37 C925.15 122.77, 951.02 91.3, 1022.92 1.45 M894.33 149.37 C937.92 99.77, 981.68 49.57, 1022.92 1.45 M899.97 148.98 C926.79 117.21, 952.79 87.6, 1028.56 1.06 M899.97 148.98 C931.56 113.04, 956.48 82.12, 1028.56 1.06 M904.96 149.34 C941.8 108.18, 976.99 66.7, 1033.55 1.42 M904.96 149.34 C943.91 108.99, 978 69.48, 1033.55 1.42 M910.6 148.94 C956.25 100.74, 997.25 56.67, 1039.19 1.02 M910.6 148.94 C941.9 107.57, 974.23 71.31, 1039.19 1.02 M915.59 149.3 C949.08 111.53, 975.89 82.61, 1044.18 1.38 M915.59 149.3 C941.16 114.34, 970.9 79.58, 1044.18 1.38 M920.58 149.66 C961.07 100.3, 1013.43 50.92, 1049.16 1.74 M920.58 149.66 C969.01 93.31, 1020.01 35.61, 1049.16 1.74 M926.22 149.27 C953.78 117.37, 983.31 87.29, 1054.81 1.35 M926.22 149.27 C971.53 94.14, 1018.4 41.22, 1054.81 1.35 M931.21 149.63 C972.28 101.92, 1019.19 48.62, 1059.79 1.71 M931.21 149.63 C957.79 118.37, 987.92 83.79, 1059.79 1.71 M936.85 149.23 C973.55 111.12, 1016.26 61.05, 1065.44 1.31 M936.85 149.23 C982.66 98.39, 1026.83 46.31, 1065.44 1.31 M941.84 149.6 C990.12 90.74, 1039.44 36.14, 1070.42 1.67 M941.84 149.6 C983.35 102.56, 1023.31 56.77, 1070.42 1.67 M947.48 149.2 C993.81 98.77, 1041.19 42.72, 1076.07 1.28 M947.48 149.2 C984.18 108.75, 1018.72 64.15, 1076.07 1.28 M952.47 149.56 C990.73 104.89, 1026.04 66.43, 1080.4 2.39 M952.47 149.56 C992.41 107.09, 1031.53 62.49, 1080.4 2.39 M958.11 149.17 C1003.61 95.84, 1047.54 43.36, 1084.07 4.26 M958.11 149.17 C1001.3 101.1, 1046.96 49.47, 1084.07 4.26 M963.1 149.53 C986.95 118.21, 1015.23 91.42, 1088.4 5.38 M963.1 149.53 C1008.19 93.8, 1055.54 37.66, 1088.4 5.38 M968.74 149.13 C1011.37 101.2, 1045.74 55.14, 1092.74 6.49 M968.74 149.13 C1014.56 94.1, 1061.07 41.6, 1092.74 6.49 M973.73 149.49 C1017.24 97.18, 1062.65 42.89, 1095.75 9.12 M973.73 149.49 C998.7 122.01, 1021.59 91.92, 1095.75 9.12 M979.37 149.1 C1019.43 101.23, 1065.46 46.77, 1098.77 11.74 M979.37 149.1 C1011.91 108.77, 1044.42 69.82, 1098.77 11.74 M984.36 149.46 C1023.76 107.12, 1057.35 67.69, 1101.14 15.12 M984.36 149.46 C1010.69 117.89, 1034.22 91.98, 1101.14 15.12 M990 149.06 C1032.23 95.84, 1074.43 43.82, 1103.5 18.5 M990 149.06 C1015.56 119.14, 1039.63 87.2, 1103.5 18.5 M994.99 149.42 C1034.83 106.15, 1067.35 66.35, 1105.86 21.88 M994.99 149.42 C1027.3 111.45, 1056.14 76.76, 1105.86 21.88 M1000.63 149.03 C1028.65 118.16, 1052.49 92.66, 1106.26 27.52 M1000.63 149.03 C1025.32 122.09, 1054.9 91.61, 1106.26 27.52 M1005.62 149.39 C1045.46 105.88, 1082.08 68.69, 1107.31 32.41 M1005.62 149.39 C1030.26 120.74, 1055.01 91.24, 1107.31 32.41 M1011.26 148.99 C1046.09 111.23, 1077.81 75.88, 1107.7 38.05 M1011.26 148.99 C1035.28 123.32, 1057.76 99.72, 1107.7 38.05 M1016.25 149.35 C1045.41 121.04, 1075.05 86.43, 1107.44 44.45 M1016.25 149.35 C1043.06 123.33, 1064.05 95.47, 1107.44 44.45 M1021.23 149.71 C1042.25 128.69, 1061.22 96.38, 1107.83 50.09 M1021.23 149.71 C1051.2 113.39, 1080.19 79.52, 1107.83 50.09 M1026.88 149.32 C1060.55 111.01, 1086.53 81.57, 1107.57 56.49 M1026.88 149.32 C1056.87 116.9, 1085.62 81.29, 1107.57 56.49 M1031.86 149.68 C1056.34 117.64, 1080.1 93.61, 1107.31 62.89 M1031.86 149.68 C1049.82 130.11, 1065.64 113.61, 1107.31 62.89 M1037.51 149.28 C1060.53 128.62, 1076.22 107.69, 1107.71 68.53 M1037.51 149.28 C1060.94 122.49, 1085.86 94.34, 1107.71 68.53 M1042.5 149.64 C1061.11 129.57, 1075.95 109.72, 1107.44 74.93 M1042.5 149.64 C1064.53 126.07, 1084.48 101.49, 1107.44 74.93 M1048.14 149.25 C1074.36 123.78, 1095.62 99.44, 1107.18 81.33 M1048.14 149.25 C1062.76 131.89, 1078.48 116.78, 1107.18 81.33 M1053.13 149.61 C1069.67 129.1, 1090.97 104.75, 1107.58 86.97 M1053.13 149.61 C1064.45 135.81, 1079.64 123.26, 1107.58 86.97 M1058.77 149.22 C1072.14 131.42, 1086.37 119.97, 1107.32 93.37 M1058.77 149.22 C1072.15 129.94, 1087.59 115.9, 1107.32 93.37 M1063.76 149.58 C1080.02 129.97, 1092.67 112.44, 1107.06 99.76 M1063.76 149.58 C1078.79 134.15, 1091.19 117.22, 1107.06 99.76 M1070.71 147.67 C1086.91 137.58, 1093.67 119.32, 1107.45 105.41 M1070.71 147.67 C1081.05 138.51, 1087.74 127.44, 1107.45 105.41 M1077.01 146.52 C1085.41 139.05, 1097.36 127.78, 1107.19 111.81 M1077.01 146.52 C1086.96 136.51, 1097.34 121.09, 1107.19 111.81 M1083.96 144.62 C1094.34 137.1, 1100.28 122.68, 1106.27 118.96 M1083.96 144.62 C1087.67 140.95, 1092.84 135.85, 1106.27 118.96 M1090.26 143.47 C1097.36 142.22, 1099.31 133.19, 1102.73 129.13 M1090.26 143.47 C1094.33 138.13, 1100.54 134.13, 1102.73 129.13" stroke="#868e96" stroke-width="0.5" fill="none"></path><path d="M36.74 0 M36.74 0 C277.87 9.1, 518 7, 1069.37 0 M36.74 0 C271.58 -1.64, 507.58 -1.78, 1069.37 0 M1069.37 0 C1093.65 -1.13, 1104.41 13.28, 1106.11 36.74 M1069.37 0 C1089.54 0.95, 1109.22 9.9, 1106.11 36.74 M1106.11 36.74 C1105.71 56.04, 1102.41 67.03, 1106.11 110.21 M1106.11 36.74 C1109.55 61.66, 1108.26 83.32, 1106.11 110.21 M1106.11 110.21 C1108.16 138.61, 1092.37 147.18, 1069.37 146.95 M1106.11 110.21 C1102.6 131.42, 1094.49 151.1, 1069.37 146.95 M1069.37 146.95 C852.33 153.54, 631.65 154.77, 36.74 146.95 M1069.37 146.95 C813.94 147.8, 559.34 147.71, 36.74 146.95 M36.74 146.95 C9.3 146.55, 0.37 132.8, 0 110.21 M36.74 146.95 C13.89 143.93, -0.49 134.2, 0 110.21 M0 110.21 C-3.19 91.03, -1.88 77.99, 0 36.74 M0 110.21 C0.07 88.53, 1.2 65.43, 0 36.74 M0 36.74 C2.68 10.54, 15.92 -2.13, 36.74 0 M0 36.74 C3.14 10.32, 13.94 -1.41, 36.74 0" stroke="#000000" stroke-width="1" fill="none"></path></g><g stroke-linecap="round"><g transform="translate(706.8874905062439 563.1038749579961) rotate(0 1.0416638518440777 27.977811147601756)"><path d="M2.01 0.99 C2.16 10.53, 2.77 47.65, 2.17 56.9 M-0.34 -0.95 C-0.49 7.79, 1.76 43.86, 1.11 52.6" stroke="#000000" stroke-width="1" fill="none"></path></g><g transform="translate(706.8874905062439 563.1038749579961) rotate(0 1.0416638518440777 27.977811147601756)"><path d="M-7.09 29.61 C-3.37 33.12, -0.59 43.28, -0.51 50.95 M-8.33 28.12 C-5.85 33.5, -2.56 45.1, 2.8 52.25" stroke="#000000" stroke-width="1" fill="none"></path></g><g transform="translate(706.8874905062439 563.1038749579961) rotate(0 1.0416638518440777 27.977811147601756)"><path d="M11.93 29.54 C9.06 33.35, 5.25 43.53, -0.51 50.95 M10.68 28.05 C7.01 33.58, 4.15 45.19, 2.8 52.25" stroke="#000000" stroke-width="1" fill="none"></path></g></g><g transform="translate(416.5276514364541 631.7185062046401) rotate(0 191.84369695577607 57.09633837969534)"><text x="191.84369695577627" y="92.19267675939065" font-family="Cascadia, Segoe UI Emoji" font-size="91.35414140751256px" fill="#000000" text-anchor="middle" style="white-space: pre;" direction="ltr">webhook</text></g></svg>