<svg version="1.1" xmlns="http://www.w3.org/2000/svg" viewBox="0 0 848.66619545515 385.5652940352645" width="848.66619545515" height="385.5652940352645">
  <!-- svg-source:excalidraw -->
  
  <defs>
    <style>
      @font-face {
        font-family: "Virgil";
        src: url("https://excalidraw.com/Virgil.woff2");
      }
      @font-face {
        font-family: "Cascadia";
        src: url("https://excalidraw.com/Cascadia.woff2");
      }
    </style>
  </defs>
  <rect x="0" y="0" width="848.66619545515" height="385.5652940352645" fill="#ffffff"></rect><g stroke-linecap="round" transform="translate(20.139124477778296 10) rotate(0 139.14566929133866 59.5)"><path d="M7.26 7.64 C7.26 7.64, 7.26 7.64, 7.26 7.64 M7.26 7.64 C7.26 7.64, 7.26 7.64, 7.26 7.64 M1.75 20.07 C9.26 10.3, 13.03 4.3, 17.5 1.96 M1.75 20.07 C5.38 15.81, 10.49 11.72, 17.5 1.96 M2.8 24.96 C10.64 15.68, 15.68 11.87, 23.14 1.57 M2.8 24.96 C7.03 19.86, 10.38 12.84, 23.14 1.57 M3.2 30.61 C10.29 22.3, 21.56 10.82, 30.1 -0.34 M3.2 30.61 C9.12 22.2, 19.04 12.56, 30.1 -0.34 M2.94 37 C16.13 27.1, 28.28 13.72, 35.08 0.02 M2.94 37 C13.7 23.35, 25.07 11.43, 35.08 0.02 M2.68 43.4 C14.37 31.37, 24.51 21.85, 40.07 0.38 M2.68 43.4 C14.54 29.4, 25.27 16.17, 40.07 0.38 M3.07 49.04 C17 36.45, 27.47 22.58, 45.71 -0.01 M3.07 49.04 C10.34 36.78, 22.55 27.49, 45.71 -0.01 M2.81 55.44 C21.06 40.77, 32.79 23.01, 50.7 0.35 M2.81 55.44 C19.71 36.62, 35.08 20.3, 50.7 0.35 M3.2 61.08 C24.35 39.61, 37.47 15.61, 56.34 -0.05 M3.2 61.08 C20.52 42.08, 37.63 19.23, 56.34 -0.05 M2.94 67.48 C27.21 38.74, 49.27 17, 61.33 0.31 M2.94 67.48 C21.46 46.12, 37.67 25.33, 61.33 0.31 M2.68 73.88 C14.21 54.7, 32.89 41.89, 66.97 -0.08 M2.68 73.88 C16 57.71, 30.25 38.56, 66.97 -0.08 M3.07 79.52 C19.95 55.49, 39.38 36.58, 71.96 0.28 M3.07 79.52 C26.83 47.99, 52.74 22.03, 71.96 0.28 M2.81 85.92 C25.28 57.66, 46.98 34.63, 77.6 -0.12 M2.81 85.92 C31.68 53.58, 63.88 20.61, 77.6 -0.12 M2.55 92.32 C29.98 63.41, 54.18 34.34, 82.59 0.24 M2.55 92.32 C18.72 74.6, 34.57 52.72, 82.59 0.24 M2.95 97.96 C17.24 74.09, 42.01 56.69, 88.23 -0.15 M2.95 97.96 C35.15 59.42, 69.43 22.42, 88.23 -0.15 M4.65 102.1 C31.87 70.89, 61.92 38.52, 93.22 0.21 M4.65 102.1 C24.45 76.06, 46.23 49.33, 93.22 0.21 M6.36 106.23 C37.35 68.05, 72.79 31.09, 98.86 -0.18 M6.36 106.23 C35.9 71.88, 62.98 39.5, 98.86 -0.18 M8.07 110.36 C43.1 74.44, 70.32 34.66, 103.85 0.18 M8.07 110.36 C39.63 72.63, 71.76 31.36, 103.85 0.18 M10.43 113.74 C44.63 83.86, 74.98 42.29, 109.49 -0.22 M10.43 113.74 C49.27 69.06, 88.76 24.48, 109.49 -0.22 M13.45 116.37 C37.43 90.72, 64.57 56.64, 114.48 0.14 M13.45 116.37 C36.34 86.26, 61.93 55.96, 114.48 0.14 M17.78 117.48 C48.43 83.22, 89.68 44.51, 120.12 -0.25 M17.78 117.48 C52.48 74.3, 90.82 31.83, 120.12 -0.25 M22.11 118.6 C51.96 87.52, 72.37 67.1, 125.11 0.11 M22.11 118.6 C56.09 76.25, 93.82 35.68, 125.11 0.11 M27.1 118.96 C51.94 88.44, 77.29 61.12, 130.75 -0.29 M27.1 118.96 C51.29 89.29, 76.35 63.86, 130.75 -0.29 M31.43 120.07 C67.43 81.8, 104.2 39.75, 135.74 0.07 M31.43 120.07 C61.81 82.2, 96.1 43.34, 135.74 0.07 M36.42 120.43 C69.58 88.86, 94.74 54.19, 141.38 -0.32 M36.42 120.43 C71.98 74.43, 113.15 27.67, 141.38 -0.32 M42.06 120.04 C80.91 70.45, 123.78 26.47, 146.37 0.04 M42.06 120.04 C67.15 92.18, 89.98 60.19, 146.37 0.04 M47.05 120.4 C82.05 85.28, 108.79 44.62, 151.36 0.4 M47.05 120.4 C74.38 91.23, 100.81 60.04, 151.36 0.4 M52.69 120 C90.58 67.92, 137.93 20.93, 157 0 M52.69 120 C87.65 80.61, 120.49 38.02, 157 0 M57.68 120.36 C97.15 73.64, 139.54 26.03, 161.99 0.36 M57.68 120.36 C86.36 85.24, 113.89 55.54, 161.99 0.36 M63.32 119.97 C102.19 77.55, 135.85 38.74, 167.63 -0.03 M63.32 119.97 C89.94 89.93, 115.15 58.47, 167.63 -0.03 M68.31 120.33 C86.69 100.1, 106.47 73.87, 172.62 0.33 M68.31 120.33 C100.45 86.02, 131.59 49.38, 172.62 0.33 M73.95 119.93 C108.06 82.26, 142.89 39.78, 178.26 -0.07 M73.95 119.93 C106.1 80.2, 142.43 42.09, 178.26 -0.07 M78.94 120.29 C105.92 91.27, 132.43 58.55, 183.25 0.29 M78.94 120.29 C117.71 77.53, 155.98 34.2, 183.25 0.29 M83.92 120.65 C109.73 95.94, 132.05 63.41, 188.89 -0.1 M83.92 120.65 C112.4 85.48, 143.03 48.58, 188.89 -0.1 M89.57 120.26 C119.19 89.14, 143.89 60.55, 193.88 0.26 M89.57 120.26 C125.36 75.4, 166.12 33.58, 193.88 0.26 M94.55 120.62 C125.74 82.08, 155.36 47.74, 199.52 -0.13 M94.55 120.62 C116.56 91.25, 142.29 63.01, 199.52 -0.13 M100.2 120.22 C127.53 88.37, 158.07 59.71, 204.51 0.23 M100.2 120.22 C139.7 74.27, 180.24 29.48, 204.51 0.23 M105.18 120.58 C145.86 76.44, 177.85 35.45, 210.15 -0.17 M105.18 120.58 C131.46 89.92, 153.85 61.95, 210.15 -0.17 M110.83 120.19 C138.9 86.31, 164.18 61.24, 215.14 0.19 M110.83 120.19 C149.58 80.27, 184 38.63, 215.14 0.19 M115.81 120.55 C151.81 81.53, 189.92 40.8, 220.78 -0.2 M115.81 120.55 C145.11 86.94, 174.23 52.61, 220.78 -0.2 M121.46 120.16 C154.67 81.68, 186.04 42.4, 225.77 0.16 M121.46 120.16 C152.95 82.91, 186.21 44.45, 225.77 0.16 M126.44 120.52 C146.21 94.52, 170.05 73.37, 231.41 -0.24 M126.44 120.52 C149.46 96.64, 173.38 68.55, 231.41 -0.24 M132.09 120.12 C154.25 91.88, 177.75 61.85, 236.4 0.12 M132.09 120.12 C161.93 86.83, 192.69 48.82, 236.4 0.12 M137.07 120.48 C157.01 99.47, 176.65 70.11, 242.04 -0.27 M137.07 120.48 C172.45 83.01, 204.21 41.89, 242.04 -0.27 M142.72 120.09 C177.81 83.16, 213.1 41.74, 247.03 0.09 M142.72 120.09 C184.1 76.07, 222.85 32.32, 247.03 0.09 M147.7 120.45 C168.37 99.44, 189.11 68.45, 250.7 1.96 M147.7 120.45 C187.25 76.07, 223.62 33.38, 250.7 1.96 M153.35 120.05 C175.83 96.93, 194.24 74.57, 255.69 2.32 M153.35 120.05 C188.48 82.97, 222.84 43.89, 255.69 2.32 M158.33 120.41 C183.85 92.35, 200.82 72.15, 260.02 3.43 M158.33 120.41 C176.97 96.8, 197.67 73.39, 260.02 3.43 M163.98 120.02 C189.18 99.16, 210.3 75.17, 264.35 4.55 M163.98 120.02 C197.09 85.09, 228.08 47.51, 264.35 4.55 M168.96 120.38 C195.37 98.96, 215.73 69.53, 268.03 6.42 M168.96 120.38 C199.44 86.83, 225.18 49.71, 268.03 6.42 M174.61 119.98 C206.4 80.05, 240.87 46.98, 271.7 8.29 M174.61 119.98 C210.01 77.53, 245.44 37.65, 271.7 8.29 M179.59 120.34 C206.14 84.96, 233.78 55.64, 273.41 12.42 M179.59 120.34 C203.37 97.86, 223.21 74.31, 273.41 12.42 M185.24 119.95 C221.76 77.88, 255.29 43.49, 275.12 16.55 M185.24 119.95 C208.64 95.93, 229.58 70.27, 275.12 16.55 M190.22 120.31 C208.77 100.52, 230.22 73.45, 277.48 19.93 M190.22 120.31 C222.42 84.68, 254.87 45.1, 277.48 19.93 M195.21 120.67 C228.44 86.78, 256.17 52.73, 279.19 24.07 M195.21 120.67 C230.79 82.8, 260.54 45.58, 279.19 24.07 M200.85 120.27 C230.52 84.43, 261 54.87, 279.58 29.71 M200.85 120.27 C221.91 91.65, 246.01 66.86, 279.58 29.71 M205.84 120.63 C227.18 93.07, 245.42 70.84, 279.32 36.11 M205.84 120.63 C219.47 104.54, 233.95 87.52, 279.32 36.11 M211.48 120.24 C241.88 89.11, 269.62 55.63, 279.06 42.5 M211.48 120.24 C229.21 100.07, 246.85 79.86, 279.06 42.5 M216.47 120.6 C229.9 106.66, 242.18 95.53, 279.45 48.15 M216.47 120.6 C241.34 93.49, 260.33 66.78, 279.45 48.15 M222.11 120.2 C240.14 105.41, 250.26 88.91, 279.19 54.54 M222.11 120.2 C239.93 99.76, 260.89 76.15, 279.19 54.54 M227.1 120.56 C248.24 101.1, 259 76.71, 279.59 60.19 M227.1 120.56 C244.05 103.53, 258.07 86.81, 279.59 60.19 M232.74 120.17 C250.04 103.31, 258.53 86.01, 279.32 66.59 M232.74 120.17 C249.58 101.83, 265.04 81.23, 279.32 66.59 M237.73 120.53 C252.58 100.76, 267.04 84.92, 279.72 72.23 M237.73 120.53 C250.51 106.23, 261.98 90.64, 279.72 72.23 M243.37 120.14 C252.76 112.41, 256.75 101.59, 279.46 78.63 M243.37 120.14 C254.03 107.61, 268.03 93.8, 279.46 78.63 M249.02 119.74 C258.92 104.11, 271.04 92.41, 279.85 84.27 M249.02 119.74 C255.81 110.19, 261.62 103.59, 279.85 84.27 M255.97 117.84 C266.7 113.54, 271.32 102.29, 279.59 90.67 M255.97 117.84 C265.89 108.48, 274.5 98.53, 279.59 90.67 M262.27 116.69 C268.08 113.31, 269.33 107.07, 278.67 97.82 M262.27 116.69 C266.24 113.98, 269.82 107.35, 278.67 97.82" stroke="#fd7e14" stroke-width="0.5" fill="none"></path><path d="M29.75 0 M29.75 0 C85.68 1.14, 146.89 2.47, 248.54 0 M29.75 0 C81.69 0.54, 134.13 1.5, 248.54 0 M248.54 0 C265.65 1.95, 275.71 11.15, 278.29 29.75 M248.54 0 C272.47 1.5, 275.25 11.95, 278.29 29.75 M278.29 29.75 C279.74 44.59, 274.93 62.18, 278.29 89.25 M278.29 29.75 C278.66 48.05, 279.05 67.85, 278.29 89.25 M278.29 89.25 C278.47 109.33, 272.23 116.25, 248.54 119 M278.29 89.25 C277.29 106.55, 269.6 120.57, 248.54 119 M248.54 119 C164.67 119.16, 88.14 123.8, 29.75 119 M248.54 119 C179.93 119.65, 114.45 120.72, 29.75 119 M29.75 119 C6.29 117.12, 3.36 108.03, 0 89.25 M29.75 119 C12.02 119.22, -1.82 105.74, 0 89.25 M0 89.25 C-1.3 72.83, -1.47 51.36, 0 29.75 M0 89.25 C1.83 67.02, 1.4 47.33, 0 29.75 M0 29.75 C-3.13 13.01, 11.11 -1.61, 29.75 0 M0 29.75 C2.97 9.6, 11.46 -2.31, 29.75 0" stroke="#000000" stroke-width="1" fill="none"></path></g><g transform="translate(57.1509355014 57.31889763779509) rotate(0 105.5 12)"><text x="105.5" y="19" font-family="Cascadia, Segoe UI Emoji" font-size="18.74015748031496px" fill="#000000" text-anchor="middle" style="white-space: pre;" direction="ltr">Create Your Chatbot</text></g><g stroke-linecap="round" transform="translate(407.1391244777783 10) rotate(0 199.00000000000023 60.5)"><path d="M7.4 7.75 C7.4 7.75, 7.4 7.75, 7.4 7.75 M7.4 7.75 C7.4 7.75, 7.4 7.75, 7.4 7.75 M1.89 20.19 C6.94 11.77, 8.46 12.02, 17.63 2.08 M1.89 20.19 C6.94 16.11, 9.94 11.82, 17.63 2.08 M2.94 25.08 C7.37 21.5, 8.17 18.87, 23.27 1.68 M2.94 25.08 C7.23 17.03, 15.62 10.74, 23.27 1.68 M2.68 31.48 C6.8 27.34, 14.7 19.29, 29.57 0.53 M2.68 31.48 C12.92 20.75, 21.23 13.16, 29.57 0.53 M3.07 37.12 C14.44 29.49, 21.04 20.43, 33.25 2.4 M3.07 37.12 C10.68 28.73, 15.16 21.09, 33.25 2.4 M2.81 43.52 C15.37 31.78, 24.31 18.6, 38.24 2.76 M2.81 43.52 C14.32 29.32, 27.94 14.48, 38.24 2.76 M2.55 49.91 C12.73 38.86, 22.09 26.59, 43.88 2.37 M2.55 49.91 C15.93 37.49, 25.52 24.06, 43.88 2.37 M2.94 55.56 C10.95 45.63, 23.94 34.8, 48.87 2.73 M2.94 55.56 C19.54 38.83, 35.1 18.35, 48.87 2.73 M2.68 61.96 C19.87 35.87, 41.82 21.36, 54.51 2.33 M2.68 61.96 C16.44 43.91, 32.68 26.57, 54.51 2.33 M3.07 67.6 C27.23 42.77, 46.05 19.94, 59.5 2.69 M3.07 67.6 C16.57 49.9, 31.95 31, 59.5 2.69 M2.81 74 C28.58 48.84, 43.51 27.54, 65.14 2.3 M2.81 74 C22.96 48.28, 45.31 24.69, 65.14 2.3 M2.55 80.39 C26.47 53.95, 50.61 29.96, 70.13 2.66 M2.55 80.39 C26.35 55.94, 50.57 26.98, 70.13 2.66 M2.95 86.04 C21.86 64.13, 48.04 36.68, 75.77 2.26 M2.95 86.04 C23.05 66.82, 40.23 45.59, 75.77 2.26 M2.68 92.43 C26.17 66.01, 42.37 42.51, 80.76 2.62 M2.68 92.43 C30.38 57.39, 55.67 27.64, 80.76 2.62 M1.77 99.59 C31.76 72.39, 56.58 40.61, 86.4 2.23 M1.77 99.59 C36.96 61.56, 71.04 23.8, 86.4 2.23 M4.13 102.97 C23.56 83.17, 40.11 60.16, 91.39 2.59 M4.13 102.97 C35.26 65.48, 68.54 31.36, 91.39 2.59 M5.84 107.1 C44.64 65.92, 80 26.36, 97.03 2.2 M5.84 107.1 C32.66 74.89, 63.16 40.39, 97.03 2.2 M7.54 111.23 C37.59 71.13, 74.26 37.35, 102.02 2.56 M7.54 111.23 C41.05 68.4, 75.68 29.97, 102.02 2.56 M9.25 115.37 C32.29 85.48, 53.92 63.38, 107.66 2.16 M9.25 115.37 C45 75.2, 79.18 33.79, 107.66 2.16 M12.93 117.24 C42.52 81.46, 70.27 51.52, 112.65 2.52 M12.93 117.24 C39.07 86.46, 66.96 57.27, 112.65 2.52 M16.6 119.11 C52.01 87.16, 79.64 51.84, 117.63 2.88 M16.6 119.11 C54.17 77.61, 86.78 36.12, 117.63 2.88 M19.62 121.73 C47.11 93.19, 78.58 55.97, 123.28 2.49 M19.62 121.73 C52.4 87.23, 81.05 51.81, 123.28 2.49 M24.61 122.09 C64.35 77.29, 96.37 34.27, 128.26 2.85 M24.61 122.09 C65.25 78.89, 102.71 33.6, 128.26 2.85 M30.91 120.94 C70.66 76.49, 103.68 38.96, 133.91 2.45 M30.91 120.94 C71.39 74.98, 107.18 30.63, 133.91 2.45 M35.89 121.3 C64.12 84.94, 97.96 54.61, 138.89 2.81 M35.89 121.3 C78.93 72.65, 121.09 25.14, 138.89 2.81 M40.88 121.66 C81.01 78.84, 116.46 34.08, 144.54 2.42 M40.88 121.66 C77.07 74.16, 116.29 32.24, 144.54 2.42 M46.52 121.27 C80.8 74.54, 115.95 34.39, 149.52 2.78 M46.52 121.27 C69.03 94.59, 93.57 69.82, 149.52 2.78 M51.51 121.63 C94.96 76.14, 132.94 37.03, 155.17 2.38 M51.51 121.63 C70.79 94.38, 96.81 70.52, 155.17 2.38 M57.15 121.23 C92.34 81.98, 124.41 44.24, 160.15 2.74 M57.15 121.23 C91.88 82.97, 127.26 41.61, 160.15 2.74 M62.14 121.59 C89.06 91.2, 113.35 59.97, 165.8 2.35 M62.14 121.59 C83.56 94.49, 106.5 71.06, 165.8 2.35 M67.78 121.2 C85.89 97.79, 110.65 70.22, 170.78 2.71 M67.78 121.2 C98.8 84.41, 127.91 50.34, 170.78 2.71 M72.77 121.56 C106.23 81.55, 135.52 48.98, 176.43 2.31 M72.77 121.56 C112.34 80.05, 147.02 37.51, 176.43 2.31 M78.41 121.16 C105.19 89.03, 140.54 48.04, 181.41 2.67 M78.41 121.16 C111.27 84.24, 141.99 46.95, 181.41 2.67 M83.4 121.52 C103.02 93.29, 125.02 72.97, 187.06 2.28 M83.4 121.52 C118.4 79.84, 152.91 39.85, 187.06 2.28 M89.04 121.13 C117.95 87.75, 149.26 58.23, 192.04 2.64 M89.04 121.13 C115.21 96.29, 137.67 67.62, 192.04 2.64 M94.03 121.49 C117.93 91.8, 145.5 63.32, 197.69 2.24 M94.03 121.49 C133.03 78.28, 169.79 35.38, 197.69 2.24 M99.67 121.09 C124.45 98.15, 150.6 70.59, 202.67 2.6 M99.67 121.09 C122.98 96.02, 146.88 67.95, 202.67 2.6 M104.66 121.45 C120.64 98.78, 141.92 73.93, 208.32 2.21 M104.66 121.45 C143.06 74.82, 183.41 27.58, 208.32 2.21 M110.3 121.06 C145.88 82.99, 182.97 38.5, 213.3 2.57 M110.3 121.06 C136.75 88.18, 165.23 53.86, 213.3 2.57 M115.29 121.42 C151.49 83.37, 186.07 41.28, 218.95 2.18 M115.29 121.42 C139.95 92.15, 167 62.35, 218.95 2.18 M120.93 121.03 C158.34 75.84, 203.32 30.12, 223.93 2.54 M120.93 121.03 C147.15 90.68, 172.93 57.59, 223.93 2.54 M125.92 121.39 C151.78 95.41, 172.04 64.7, 229.58 2.14 M125.92 121.39 C160.8 80.74, 190.97 45.1, 229.58 2.14 M131.56 120.99 C163.55 80.96, 197.98 45.27, 234.56 2.5 M131.56 120.99 C162.36 82.94, 190.79 50.58, 234.56 2.5 M136.55 121.35 C157.29 91.68, 181.19 69.85, 239.55 2.86 M136.55 121.35 C159.46 90.14, 186.97 63.32, 239.55 2.86 M142.19 120.96 C162.49 98.21, 185.9 68.26, 245.19 2.47 M142.19 120.96 C183.74 73.68, 220.96 26.68, 245.19 2.47 M147.18 121.32 C173.66 85.77, 203.93 57.2, 250.18 2.83 M147.18 121.32 C171 92.83, 195.86 62.55, 250.18 2.83 M152.82 120.92 C183.24 86, 216.92 42.95, 255.82 2.43 M152.82 120.92 C174.65 96.34, 192.82 73.24, 255.82 2.43 M157.81 121.28 C187.57 86.41, 221.35 45.45, 260.81 2.79 M157.81 121.28 C179.62 96.91, 201.34 71.57, 260.81 2.79 M162.8 121.64 C189.47 93.98, 211.61 63.87, 266.45 2.4 M162.8 121.64 C187.17 91.35, 211.79 59.1, 266.45 2.4 M168.44 121.25 C192.14 90.57, 212.76 67.81, 271.44 2.76 M168.44 121.25 C202.49 74.14, 242.8 30.41, 271.44 2.76 M173.43 121.61 C216.17 77.3, 259.04 29.43, 277.08 2.36 M173.43 121.61 C205.17 86.05, 238.69 48.64, 277.08 2.36 M179.07 121.21 C209.25 87.4, 242.04 45.25, 282.07 2.72 M179.07 121.21 C201.12 94.71, 225.15 67.76, 282.07 2.72 M184.06 121.57 C213.59 91.58, 238.06 53.73, 287.71 2.33 M184.06 121.57 C209.69 90.56, 236.57 58.12, 287.71 2.33 M189.7 121.18 C215.02 89.46, 241.16 67.68, 292.7 2.69 M189.7 121.18 C215.59 89.16, 244.2 57.41, 292.7 2.69 M194.69 121.54 C217 94.52, 242.38 66.48, 298.34 2.29 M194.69 121.54 C230.95 76.47, 273.46 31.06, 298.34 2.29 M200.33 121.14 C239.66 81.7, 272.57 37.25, 303.33 2.65 M200.33 121.14 C243.19 74.99, 282.74 30.6, 303.33 2.65 M205.32 121.5 C229.2 91.7, 253.31 65.74, 308.97 2.26 M205.32 121.5 C234.16 87.97, 266.29 52.35, 308.97 2.26 M210.96 121.11 C249.84 76.56, 281.09 37.18, 313.96 2.62 M210.96 121.11 C246.43 80.12, 277.47 39.99, 313.96 2.62 M215.95 121.47 C238.82 98.12, 264.35 67.54, 319.6 2.23 M215.95 121.47 C251.59 75.21, 292.41 30.78, 319.6 2.23 M221.59 121.08 C242.94 94.14, 269.35 61.58, 324.59 2.59 M221.59 121.08 C250.23 88.94, 276.34 62.68, 324.59 2.59 M226.58 121.44 C249.75 85.25, 282.51 49.29, 330.23 2.19 M226.58 121.44 C247.29 96.93, 270.15 72.39, 330.23 2.19 M232.22 121.04 C255.76 87.8, 288.36 56.89, 335.22 2.55 M232.22 121.04 C257.63 88.94, 286.69 58.15, 335.22 2.55 M237.21 121.4 C256.49 98.11, 279.12 78.37, 340.87 2.16 M237.21 121.4 C269.12 81.97, 299.72 47.38, 340.87 2.16 M242.85 121.01 C270.15 85.02, 302.88 49.71, 345.85 2.52 M242.85 121.01 C281.78 78.67, 316.96 36.04, 345.85 2.52 M247.84 121.37 C275.1 89.95, 297.78 63.63, 350.84 2.88 M247.84 121.37 C283.71 80.2, 321.09 35.89, 350.84 2.88 M253.48 120.97 C274.07 94.43, 296.13 74.57, 356.48 2.48 M253.48 120.97 C282.07 87.71, 310.55 51.98, 356.48 2.48 M258.47 121.33 C288.7 83.26, 323.35 39.03, 361.47 2.84 M258.47 121.33 C280.14 93.79, 300.6 70.91, 361.47 2.84 M264.11 120.94 C292.73 91.74, 316.02 59.9, 368.42 0.94 M264.11 120.94 C293.42 89.23, 319.53 56.8, 368.42 0.94 M269.1 121.3 C294.23 88.54, 319.26 63.16, 373.41 1.3 M269.1 121.3 C294.15 87.72, 320.91 58.75, 373.41 1.3 M274.08 121.66 C308.22 78.86, 345.39 35.81, 377.74 2.41 M274.08 121.66 C303.09 85.47, 335.8 50.74, 377.74 2.41 M279.73 121.26 C315.88 72.21, 360.03 33.4, 382.73 2.77 M279.73 121.26 C312.97 84.56, 347.63 49.05, 382.73 2.77 M284.72 121.62 C305.91 97.43, 328.3 69.68, 385.75 5.4 M284.72 121.62 C306.64 94.43, 331.42 67.92, 385.75 5.4 M290.36 121.23 C313.23 94.49, 338.63 63.52, 388.77 8.02 M290.36 121.23 C320.08 87.43, 348.13 56.63, 388.77 8.02 M295.35 121.59 C331.72 86.1, 363.66 50.47, 391.79 10.65 M295.35 121.59 C317.68 92.56, 342.97 64.81, 391.79 10.65 M300.99 121.19 C321.45 97.16, 346.51 69.22, 394.8 13.27 M300.99 121.19 C328.29 91.84, 355.24 57.09, 394.8 13.27 M305.98 121.55 C331.03 96.66, 351.49 70.19, 396.51 17.4 M305.98 121.55 C327.25 97.65, 351.19 69.65, 396.51 17.4 M311.62 121.16 C340.16 89.83, 371.95 50.69, 398.22 21.54 M311.62 121.16 C330.54 102.36, 345.59 79.82, 398.22 21.54 M316.61 121.52 C345.08 97.65, 361.45 67.32, 399.92 25.67 M316.61 121.52 C338.41 96.17, 358.11 71.6, 399.92 25.67 M322.25 121.12 C343.18 98.18, 359.81 70.57, 400.32 31.31 M322.25 121.12 C345.48 97.85, 364.86 75.41, 400.32 31.31 M327.24 121.48 C353.62 89.36, 379.51 56.86, 400.06 37.71 M327.24 121.48 C354.52 89.12, 382.02 58.01, 400.06 37.71 M332.88 121.09 C356.38 99.12, 373.5 75.13, 400.45 43.36 M332.88 121.09 C351.22 102.78, 368.15 84.56, 400.45 43.36 M337.87 121.45 C354.79 99.19, 379.15 72.62, 400.19 49.75 M337.87 121.45 C354.48 101.2, 371.46 81.74, 400.19 49.75 M343.51 121.06 C362.85 103.29, 376.26 84.92, 400.59 55.4 M343.51 121.06 C363.59 100.28, 382.52 75.39, 400.59 55.4 M348.5 121.42 C363.72 107.32, 375.81 88.07, 400.32 61.79 M348.5 121.42 C364.07 103.86, 378.43 86.65, 400.32 61.79 M354.14 121.02 C364.82 103.4, 379.61 93.86, 400.72 67.44 M354.14 121.02 C366.57 106.93, 377.29 96.01, 400.72 67.44 M359.13 121.38 C375.9 106.36, 391.8 87.17, 400.46 73.83 M359.13 121.38 C374.42 102.96, 389.38 86.73, 400.46 73.83 M364.77 120.99 C376.26 107.78, 393.33 85.56, 400.2 80.23 M364.77 120.99 C372.78 110.89, 385.99 101.34, 400.2 80.23 M369.1 122.1 C380.08 113.35, 388.55 104.71, 400.59 85.88 M369.1 122.1 C381.78 110.05, 391.47 97.08, 400.59 85.88 M375.4 120.95 C383.72 111.55, 382.02 106.57, 400.33 92.27 M375.4 120.95 C380.89 113.37, 388.07 107.28, 400.33 92.27 M382.35 119.05 C387.03 115.26, 397.15 108.66, 398.76 100.18 M382.35 119.05 C386.53 116.39, 392.05 108.59, 398.76 100.18" stroke="#fa5252" stroke-width="0.5" fill="none"></path><path d="M30.25 0 M30.25 0 C158.64 4.03, 287.88 0.61, 367.75 0 M30.25 0 C110.54 3.22, 192.12 1.71, 367.75 0 M367.75 0 C391.66 2.08, 400.75 13.75, 398 30.25 M367.75 0 C388.23 -3.12, 401.46 7.04, 398 30.25 M398 30.25 C395.8 46.81, 395.2 62.68, 398 90.75 M398 30.25 C398.7 50.77, 398.31 73.32, 398 90.75 M398 90.75 C400.95 109.72, 384.32 122.62, 367.75 121 M398 90.75 C399.51 109.18, 386.27 124.42, 367.75 121 M367.75 121 C256.69 122.77, 139.49 121.69, 30.25 121 M367.75 121 C283.26 123.72, 196.34 123.86, 30.25 121 M30.25 121 C9.64 118.96, -2.65 109.78, 0 90.75 M30.25 121 C7.89 118.38, 3.41 114.48, 0 90.75 M0 90.75 C1.34 69.33, 3.63 40.93, 0 30.25 M0 90.75 C1.73 69.63, 0.79 47.61, 0 30.25 M0 30.25 C-2.39 13.76, 12.71 -2.68, 30.25 0 M0 30.25 C-4.56 11.6, 11.74 3.59, 30.25 0" stroke="#000000" stroke-width="1" fill="none"></path></g><g transform="translate(452.63912447777875 32) rotate(0 177 37.5)"><text x="177" y="20" font-family="Cascadia, Segoe UI Emoji" font-size="20px" fill="#000000" text-anchor="middle" style="white-space: pre;" direction="ltr">Add intents </text><text x="177" y="45" font-family="Cascadia, Segoe UI Emoji" font-size="20px" fill="#000000" text-anchor="middle" style="white-space: pre;" direction="ltr">and </text><text x="177" y="70" font-family="Cascadia, Segoe UI Emoji" font-size="20px" fill="#000000" text-anchor="middle" style="white-space: pre;" direction="ltr">intent phrases to your chatbot</text></g><g stroke-linecap="round" transform="translate(425.1923994854351 237.03240778695545) rotate(0 206.73689798485748 58.865859335095934)"><path d="M4.11 11.53 C4.11 11.53, 4.11 11.53, 4.11 11.53 M4.11 11.53 C4.11 11.53, 4.11 11.53, 4.11 11.53 M0.57 21.7 C6.83 14.97, 9.04 12.27, 13.69 6.6 M0.57 21.7 C5.83 14.44, 10.68 9.74, 13.69 6.6 M2.93 25.08 C11.55 17.88, 13.85 12.81, 20.65 4.7 M2.93 25.08 C5.89 18.54, 9.88 16.65, 20.65 4.7 M3.33 30.72 C11.43 24.53, 12.81 17.25, 29.57 0.53 M3.33 30.72 C14.66 19.06, 23.96 9.89, 29.57 0.53 M3.07 37.12 C18.2 19.51, 28.4 5.04, 35.21 0.14 M3.07 37.12 C13.78 24.09, 27.52 10.22, 35.21 0.14 M2.81 43.52 C15.41 30.26, 29.33 12.61, 40.2 0.5 M2.81 43.52 C11.76 32.55, 21.66 23.32, 40.2 0.5 M3.2 49.16 C17.84 35.16, 23.61 19.36, 45.84 0.1 M3.2 49.16 C18.92 28.11, 38.05 11.56, 45.84 0.1 M2.94 55.56 C17.91 43.03, 31.01 26.46, 50.83 0.46 M2.94 55.56 C19.59 36.46, 38.8 14.62, 50.83 0.46 M3.33 61.2 C22.8 43.27, 34.43 30.44, 56.48 0.07 M3.33 61.2 C17.06 45.42, 34.03 25.24, 56.48 0.07 M3.07 67.6 C26.8 40.65, 49.09 14.94, 61.46 0.43 M3.07 67.6 C14.31 55.51, 26.54 38.66, 61.46 0.43 M2.81 73.99 C30.11 47.43, 51.63 19.99, 67.11 0.03 M2.81 73.99 C16.63 60.2, 28.87 42.97, 67.11 0.03 M3.21 79.64 C26.92 54.59, 46.38 23.08, 72.09 0.39 M3.21 79.64 C19.81 58.14, 38.35 36.28, 72.09 0.39 M2.94 86.04 C18.33 60.7, 36.35 42.77, 77.74 0 M2.94 86.04 C27.64 56.49, 53.74 27.43, 77.74 0 M3.34 91.68 C33.93 62.72, 62.53 30.98, 82.72 0.36 M3.34 91.68 C32.22 62.15, 56.92 29.81, 82.72 0.36 M3.08 98.08 C32.97 62.73, 65.22 22.13, 88.37 -0.04 M3.08 98.08 C29.6 66.28, 53.45 38.87, 88.37 -0.04 M4.78 102.21 C31.93 74.25, 55.18 40.74, 93.35 0.32 M4.78 102.21 C27.63 78.94, 48.23 53, 93.35 0.32 M5.84 107.1 C40.44 70.9, 72.78 33.15, 99 -0.07 M5.84 107.1 C30.47 78.11, 57.22 48.69, 99 -0.07 M8.85 109.72 C38.22 82.68, 60.77 54.24, 103.98 0.29 M8.85 109.72 C38.27 75.72, 68.62 46.69, 103.98 0.29 M11.87 112.35 C50.35 69.57, 87.74 26.35, 108.97 0.65 M11.87 112.35 C39.61 79.67, 67.61 48.46, 108.97 0.65 M14.89 114.97 C46.94 81.35, 70.44 47.35, 114.61 0.26 M14.89 114.97 C40.04 86.67, 63.03 61.3, 114.61 0.26 M17.91 117.6 C58.07 72.2, 95.42 23.19, 119.6 0.62 M17.91 117.6 C55.89 74.41, 97.89 28.62, 119.6 0.62 M22.9 117.96 C52.27 81.17, 79.65 43.26, 125.24 0.22 M22.9 117.96 C55.7 82.84, 89.73 42.52, 125.24 0.22 M27.88 118.32 C63.88 80.27, 102.58 31.6, 130.23 0.58 M27.88 118.32 C65.7 74.45, 106.11 29.7, 130.23 0.58 M31.56 120.19 C76.17 75.76, 114.15 26.96, 135.87 0.19 M31.56 120.19 C72.94 73.05, 117.32 26.05, 135.87 0.19 M37.2 119.79 C71.3 87.83, 94.47 52.11, 140.86 0.55 M37.2 119.79 C70.19 81.01, 103.24 40.24, 140.86 0.55 M42.19 120.15 C73.95 87.1, 107.2 50.93, 146.5 0.15 M42.19 120.15 C68.77 93.3, 95.33 64.87, 146.5 0.15 M47.83 119.76 C79.17 82.28, 111.2 49.53, 151.49 0.51 M47.83 119.76 C80.15 83.7, 109.28 45.19, 151.49 0.51 M52.82 120.12 C95.52 72.11, 132.62 31.69, 157.13 0.12 M52.82 120.12 C77.18 93.34, 98.42 67.74, 157.13 0.12 M58.46 119.72 C92.88 84.33, 127.3 40.95, 162.12 0.48 M58.46 119.72 C94.46 76.1, 132.46 33.7, 162.12 0.48 M63.45 120.08 C99.28 77.26, 134.19 38.28, 167.76 0.08 M63.45 120.08 C90 93.39, 110.47 70.34, 167.76 0.08 M69.09 119.69 C87.83 95.66, 111.91 73.15, 172.75 0.44 M69.09 119.69 C111.25 72.35, 152.41 25.61, 172.75 0.44 M74.08 120.05 C114.96 76.97, 151.01 30.05, 178.39 0.05 M74.08 120.05 C111.4 76.66, 148.67 34.99, 178.39 0.05 M79.72 119.65 C95.76 93.7, 119.42 69.35, 183.38 0.41 M79.72 119.65 C109.27 84.4, 140.25 52.25, 183.38 0.41 M84.71 120.01 C116.25 88.78, 141.1 55.75, 189.02 0.01 M84.71 120.01 C110.9 90.72, 139.56 60.1, 189.02 0.01 M90.35 119.62 C127.33 77.4, 155.52 38.32, 194.01 0.37 M90.35 119.62 C127.88 73.99, 166.58 28.76, 194.01 0.37 M95.34 119.98 C119.38 98.56, 136.97 70.76, 199.65 -0.02 M95.34 119.98 C127.33 82.46, 158.6 47.05, 199.65 -0.02 M100.98 119.58 C134.54 77.01, 165.96 40.36, 204.64 0.34 M100.98 119.58 C134.4 76.36, 170.66 37.01, 204.64 0.34 M105.97 119.94 C127.77 98.75, 154.19 67.38, 210.28 -0.06 M105.97 119.94 C132.8 90.67, 161.61 56.82, 210.28 -0.06 M111.61 119.55 C140.85 80.72, 178.5 46.22, 215.27 0.3 M111.61 119.55 C143.25 80.71, 177.64 42.84, 215.27 0.3 M116.6 119.91 C147.1 82.67, 176.59 49.3, 220.26 0.66 M116.6 119.91 C143.66 89.79, 170.39 57.92, 220.26 0.66 M122.24 119.51 C146.28 92.06, 164.21 70.18, 225.9 0.27 M122.24 119.51 C146.25 89.72, 172.29 59.08, 225.9 0.27 M127.23 119.87 C156.35 85.75, 189.73 51.98, 230.89 0.63 M127.23 119.87 C167.75 77.79, 204.34 33.57, 230.89 0.63 M132.87 119.48 C161.53 88.47, 187.36 61, 236.53 0.24 M132.87 119.48 C167.14 83.74, 197.35 50.14, 236.53 0.24 M137.86 119.84 C168.53 84.21, 199.76 54.6, 241.52 0.6 M137.86 119.84 C165.66 88.08, 189.83 62.39, 241.52 0.6 M142.85 120.2 C168.69 87.13, 205.81 50.92, 247.16 0.2 M142.85 120.2 C184.33 73.39, 224.72 27.85, 247.16 0.2 M148.49 119.81 C180.78 81.2, 213.76 45.47, 252.15 0.56 M148.49 119.81 C175.38 90.72, 203.5 59.66, 252.15 0.56 M153.48 120.17 C177.94 81.56, 210.74 49.65, 257.79 0.17 M153.48 120.17 C190.21 81.41, 228.03 38.76, 257.79 0.17 M159.12 119.77 C181.56 92.21, 199.66 67.36, 262.78 0.53 M159.12 119.77 C181.75 94.4, 206.76 70.52, 262.78 0.53 M164.11 120.13 C204.96 70.22, 247.74 27.52, 268.42 0.13 M164.11 120.13 C191.66 85.82, 224.68 53.62, 268.42 0.13 M169.75 119.74 C210.34 79.2, 250.49 36.21, 273.41 0.49 M169.75 119.74 C191.84 96.01, 214.47 68.28, 273.41 0.49 M174.74 120.1 C207.83 80.73, 239.88 40.51, 279.05 0.1 M174.74 120.1 C200.87 89.69, 225.67 58.15, 279.05 0.1 M180.38 119.7 C199.06 92.76, 227.12 70.23, 284.04 0.46 M180.38 119.7 C216.19 76.29, 253.13 33.74, 284.04 0.46 M185.37 120.06 C218.83 76.5, 258.51 36.72, 289.68 0.06 M185.37 120.06 C206.48 94.1, 229.38 69.8, 289.68 0.06 M191.01 119.67 C227.95 78.28, 259.01 45.58, 294.67 0.42 M191.01 119.67 C215.72 87.14, 243.9 58.23, 294.67 0.42 M196 120.03 C228.14 81.95, 268.21 41.57, 300.31 0.03 M196 120.03 C218.82 93.23, 241.25 64.77, 300.31 0.03 M201.64 119.63 C240.97 77.74, 278.68 24.67, 305.3 0.39 M201.64 119.63 C241.04 76.74, 276.69 33.62, 305.3 0.39 M206.63 119.99 C237.64 90, 261.57 61.29, 310.94 -0.01 M206.63 119.99 C231.92 87.6, 261.32 55.31, 310.94 -0.01 M212.27 119.6 C255.42 75.36, 297.38 26.65, 315.93 0.35 M212.27 119.6 C254.03 72.45, 296.28 26.14, 315.93 0.35 M217.26 119.96 C245.69 86.07, 281.54 46.93, 321.57 -0.04 M217.26 119.96 C239.82 95.17, 262.16 72.77, 321.57 -0.04 M222.9 119.56 C248.01 84.1, 276.04 53.73, 326.56 0.32 M222.9 119.56 C262.39 77.3, 298.09 37.55, 326.56 0.32 M227.89 119.92 C246.14 92.24, 272.34 70.49, 332.2 -0.07 M227.89 119.92 C256.38 87.23, 284.77 55.55, 332.2 -0.07 M233.53 119.53 C259.3 87.85, 284.79 61.55, 337.19 0.29 M233.53 119.53 C259.28 86.55, 285.53 57.58, 337.19 0.29 M238.52 119.89 C267.72 91.63, 292.51 61.52, 342.18 0.65 M238.52 119.89 C276.77 81.59, 310.93 42.49, 342.18 0.65 M244.16 119.5 C270.03 90.85, 295.52 60.21, 347.82 0.25 M244.16 119.5 C283.64 70.97, 324.67 23.35, 347.82 0.25 M249.15 119.86 C283.87 86.81, 315.5 44.83, 352.81 0.61 M249.15 119.86 C273.42 88.42, 303.27 61.69, 352.81 0.61 M254.14 120.22 C294.09 76.31, 330.12 36.9, 358.45 0.22 M254.14 120.22 C289.32 77, 328.24 34.54, 358.45 0.22 M259.78 119.82 C277.04 94.06, 300.48 75.59, 363.44 0.58 M259.78 119.82 C295.61 80.99, 327.51 42.97, 363.44 0.58 M264.77 120.18 C296.36 82.78, 330.3 45.1, 369.08 0.18 M264.77 120.18 C301.89 77.93, 338.37 38.61, 369.08 0.18 M270.41 119.79 C306.69 77.6, 341.47 41.49, 374.07 0.54 M270.41 119.79 C295.21 97.37, 316.88 70.02, 374.07 0.54 M275.4 120.15 C297.99 96.57, 324.1 67.77, 379.71 0.15 M275.4 120.15 C306.42 87.65, 334.38 54.39, 379.71 0.15 M281.04 119.75 C309.19 90.8, 327.52 63.08, 384.7 0.51 M281.04 119.75 C308.68 85.62, 332.69 58.68, 384.7 0.51 M286.03 120.11 C311.72 84.48, 341.94 55.07, 389.68 0.87 M286.03 120.11 C312.56 87.99, 340.72 56.74, 389.68 0.87 M291.67 119.72 C316.69 91.5, 337.56 66.62, 394.01 1.98 M291.67 119.72 C326.24 80.24, 359.12 41.08, 394.01 1.98 M296.66 120.08 C337.16 72.4, 375.78 30.87, 398.34 3.1 M296.66 120.08 C328.8 80.32, 362.27 44, 398.34 3.1 M302.3 119.68 C324.54 94.17, 349.58 66.67, 401.36 5.72 M302.3 119.68 C337.52 72.98, 376.99 28.4, 401.36 5.72 M307.29 120.04 C341.17 74.49, 383.21 33.44, 404.38 8.35 M307.29 120.04 C333.82 85.68, 365.5 49.67, 404.38 8.35 M312.93 119.65 C335.06 89.31, 356.84 66.18, 408.06 10.22 M312.93 119.65 C342.76 83.42, 374.29 47.42, 408.06 10.22 M317.92 120.01 C351.89 77.66, 390.02 38.61, 411.08 12.84 M317.92 120.01 C351.59 80.13, 385.92 41.59, 411.08 12.84 M323.56 119.61 C345.88 89.5, 372.24 59.29, 412.78 16.97 M323.56 119.61 C356.43 84.35, 388.83 46.92, 412.78 16.97 M328.55 119.97 C352.67 95.12, 377.61 59.91, 413.18 22.62 M328.55 119.97 C351.87 94.52, 376.34 68.85, 413.18 22.62 M334.19 119.58 C364.87 84.59, 389.45 54.84, 412.92 29.01 M334.19 119.58 C364.11 85.07, 392.39 52.91, 412.92 29.01 M339.18 119.94 C354.42 98.76, 376.37 75.96, 413.31 34.66 M339.18 119.94 C361.76 95.89, 383.11 73.11, 413.31 34.66 M344.82 119.54 C372.59 91.48, 397 59.07, 413.05 41.05 M344.82 119.54 C367.55 88.8, 392.89 60, 413.05 41.05 M349.81 119.9 C366.88 97.17, 393.1 69.85, 413.44 46.7 M349.81 119.9 C371.15 97.78, 390.39 76.93, 413.44 46.7 M355.45 119.51 C374.48 100.53, 381.62 85.89, 413.18 53.1 M355.45 119.51 C375.16 100.47, 392.41 77.56, 413.18 53.1 M360.44 119.87 C378.73 102.09, 392.37 84.44, 413.58 58.74 M360.44 119.87 C377.99 100.75, 395.37 79.41, 413.58 58.74 M366.08 119.48 C372.82 105.49, 386.76 90.02, 413.32 65.14 M366.08 119.48 C377.82 106.41, 387.31 95.82, 413.32 65.14 M371.07 119.84 C389.05 103.25, 400.23 85.69, 413.71 70.78 M371.07 119.84 C386.76 100.8, 401.41 83.37, 413.71 70.78 M376.05 120.2 C388.53 102.97, 403.81 86.28, 413.45 77.18 M376.05 120.2 C386.22 110.67, 394.24 97.4, 413.45 77.18 M381.7 119.8 C392.39 107.3, 399.72 97.48, 413.84 82.82 M381.7 119.8 C389.75 109.73, 399.49 96.07, 413.84 82.82 M386.68 120.16 C391.66 110.08, 399.53 102.08, 414.24 88.46 M386.68 120.16 C391.75 114.34, 400.97 106.07, 414.24 88.46 M393.64 118.26 C404.07 107.3, 408.22 97.58, 412.66 96.37 M393.64 118.26 C398.76 110.15, 406.28 104.36, 412.66 96.37" stroke="#228be6" stroke-width="0.5" fill="none"></path><path d="M29.43 0 M29.43 0 C117 2.55, 204.76 -0.24, 384.04 0 M29.43 0 C103.46 -1.96, 179.41 -1.04, 384.04 0 M384.04 0 C405.81 2.76, 416.99 7.8, 413.47 29.43 M384.04 0 C401.21 -4.18, 411.34 5.27, 413.47 29.43 M413.47 29.43 C413.6 51.22, 413.98 69.53, 413.47 88.3 M413.47 29.43 C412 44.67, 414.69 58.92, 413.47 88.3 M413.47 88.3 C410.2 106.82, 404.01 120.44, 384.04 117.73 M413.47 88.3 C416.51 106.1, 406.04 113.55, 384.04 117.73 M384.04 117.73 C297.28 117.34, 209.79 120.45, 29.43 117.73 M384.04 117.73 C254.76 113.68, 125.63 114.38, 29.43 117.73 M29.43 117.73 C8.78 117.29, 0.76 105.69, 0 88.3 M29.43 117.73 C8.57 114.51, 1.5 110.76, 0 88.3 M0 88.3 C-4.84 74.17, -2.9 60.86, 0 29.43 M0 88.3 C-2.41 67.52, 0.43 42.38, 0 29.43 M0 29.43 C-0.45 7.92, 10.39 -0.44, 29.43 0 M0 29.43 C-1.93 9.2, 7.35 -1.28, 29.43 0" stroke="#000000" stroke-width="1" fill="none"></path></g><g transform="translate(469.15612560327463 264.7647040120555) rotate(0 171 25)"><text x="171" y="20" font-family="Cascadia, Segoe UI Emoji" font-size="20px" fill="#000000" text-anchor="middle" style="white-space: pre;" direction="ltr"> Add flow telling the bot </text><text x="171" y="45" font-family="Cascadia, Segoe UI Emoji" font-size="20px" fill="#000000" text-anchor="middle" style="white-space: pre;" direction="ltr">how to respond to the intents</text></g><g stroke-linecap="round" transform="translate(10 215.3559482144708) rotate(0 149.52954548879347 80.10467291039686)"><path d="M5.71 15.56 C5.71 15.56, 5.71 15.56, 5.71 15.56 M5.71 15.56 C5.71 15.56, 5.71 15.56, 5.71 15.56 M2.16 25.73 C7.88 21.72, 14.09 13.65, 17.91 7.62 M2.16 25.73 C6.54 19.78, 13.5 12.05, 17.91 7.62 M1.9 32.13 C11.18 19.31, 16.68 14.71, 25.52 4.96 M1.9 32.13 C9.04 25.26, 14.39 20.14, 25.52 4.96 M2.3 37.77 C13.87 27.91, 22.9 14.54, 33.13 2.3 M2.3 37.77 C15.5 25.72, 26.89 11.44, 33.13 2.3 M2.04 44.17 C13.76 29.58, 29.26 8.56, 40.09 0.4 M2.04 44.17 C10.33 34.82, 19.87 23.8, 40.09 0.4 M1.77 50.57 C13.56 34.1, 26.61 21.89, 45.73 0 M1.77 50.57 C15.82 34.91, 29.11 18.97, 45.73 0 M2.17 56.21 C17.78 38.57, 39.52 13.83, 50.72 0.36 M2.17 56.21 C15.59 41.81, 26.96 30.14, 50.72 0.36 M1.91 62.61 C21.74 40.63, 46.22 15.62, 56.36 -0.03 M1.91 62.61 C17.53 41.91, 32.42 24.02, 56.36 -0.03 M2.3 68.25 C28.87 40.27, 47.9 17.03, 61.35 0.33 M2.3 68.25 C13.62 52.9, 29.07 35.2, 61.35 0.33 M2.04 74.65 C22.57 46.56, 44.43 21.96, 66.99 -0.07 M2.04 74.65 C15.63 58.63, 32.77 36.88, 66.99 -0.07 M1.78 81.05 C27.81 51.02, 47.49 26.26, 71.98 0.29 M1.78 81.05 C22.75 55.26, 46.59 29.52, 71.98 0.29 M2.17 86.69 C21.36 59.15, 51.2 33.54, 77.62 -0.1 M2.17 86.69 C21.43 62.91, 43.12 42.63, 77.62 -0.1 M1.91 93.09 C22.39 75.52, 42.26 53.79, 82.61 0.26 M1.91 93.09 C29.45 61.37, 56.78 26.58, 82.61 0.26 M2.31 98.73 C34.16 65.28, 56.99 26.11, 88.25 -0.14 M2.31 98.73 C28.56 69.94, 57.99 37.94, 88.25 -0.14 M2.05 105.13 C21.86 82.82, 43.49 60.06, 93.24 0.22 M2.05 105.13 C39.29 65.24, 74.96 23.81, 93.24 0.22 M1.78 111.53 C32.79 73.11, 61.68 40.3, 98.88 -0.17 M1.78 111.53 C28.44 80.35, 56.99 47.12, 98.88 -0.17 M2.18 117.17 C40.2 69.72, 81.86 27.63, 103.87 0.19 M2.18 117.17 C35.22 76.42, 67.08 39.8, 103.87 0.19 M1.92 123.57 C45.97 73.39, 82.09 24.62, 108.86 0.55 M1.92 123.57 C34.1 90.69, 59.23 57.94, 108.86 0.55 M1.66 129.97 C33.06 95.45, 63.9 58.53, 114.5 0.16 M1.66 129.97 C38.36 91.01, 70.71 50.65, 114.5 0.16 M2.71 134.85 C45.44 82.82, 88.28 35.42, 119.49 0.52 M2.71 134.85 C34.04 105.67, 62.97 71.42, 119.49 0.52 M4.41 138.99 C44.8 93.82, 85.91 39.23, 125.13 0.12 M4.41 138.99 C29.36 106.41, 59.38 76.98, 125.13 0.12 M6.12 143.12 C42.81 100.91, 83.13 52.12, 130.12 0.48 M6.12 143.12 C34.95 107.5, 66.51 68.16, 130.12 0.48 M8.48 146.5 C32.96 115.81, 65.04 79.26, 135.76 0.09 M8.48 146.5 C36.63 114.7, 63.89 79.73, 135.76 0.09 M10.85 149.88 C57.27 99.54, 100.86 40.02, 140.75 0.45 M10.85 149.88 C40.32 114.69, 68.15 83.3, 140.75 0.45 M13.86 152.5 C65.65 94.92, 115.07 37.09, 146.39 0.05 M13.86 152.5 C45.41 114.57, 80.74 73.77, 146.39 0.05 M16.88 155.13 C57.8 106.75, 90.71 63.42, 151.38 0.41 M16.88 155.13 C55.12 107.69, 91.93 61.96, 151.38 0.41 M20.56 157 C58.28 115.31, 93.15 77.2, 157.02 0.02 M20.56 157 C58.68 112.45, 100.45 64.32, 157.02 0.02 M24.89 158.11 C79.57 93.37, 129.35 39.51, 162.01 0.38 M24.89 158.11 C68.9 107.8, 113.07 55.83, 162.01 0.38 M29.22 159.23 C72.12 104.52, 124.2 49.56, 167.65 -0.02 M29.22 159.23 C73.23 107.16, 118.17 55.18, 167.65 -0.02 M32.9 161.1 C77.92 107.47, 121.09 56.41, 172.64 0.34 M32.9 161.1 C92.32 96.69, 147.31 34.68, 172.64 0.34 M37.88 161.46 C79.14 117.31, 116.36 68.77, 178.28 -0.05 M37.88 161.46 C82.7 110.59, 125.46 58.37, 178.28 -0.05 M42.21 162.57 C82.31 118.71, 124.84 67.58, 183.27 0.31 M42.21 162.57 C85.58 114.32, 127.04 69.23, 183.27 0.31 M47.86 162.18 C77.73 129.52, 106.52 93.93, 188.91 -0.09 M47.86 162.18 C91.78 114.33, 130.48 67.89, 188.91 -0.09 M52.84 162.54 C99.64 108.43, 143.13 54.49, 193.9 0.27 M52.84 162.54 C83.73 125.82, 115.41 90.83, 193.9 0.27 M58.49 162.14 C111.97 102.5, 171.32 36.93, 199.54 -0.12 M58.49 162.14 C97.26 116.79, 137.05 72.58, 199.54 -0.12 M63.47 162.5 C110.47 108.07, 158.95 50.8, 204.53 0.24 M63.47 162.5 C106.75 115.95, 150.01 69.53, 204.53 0.24 M69.12 162.11 C121.84 102.49, 177.19 43.35, 210.17 -0.15 M69.12 162.11 C111.57 112.14, 153.48 65.42, 210.17 -0.15 M74.1 162.47 C108.45 115.68, 146.77 71.27, 215.16 0.21 M74.1 162.47 C105.55 122.75, 141.75 84.01, 215.16 0.21 M79.75 162.07 C116.8 120.24, 151.05 80.42, 220.14 0.57 M79.75 162.07 C109.07 130.04, 138.36 96.51, 220.14 0.57 M84.73 162.43 C135.45 104.1, 185.37 49.7, 225.79 0.17 M84.73 162.43 C127.24 110.8, 171.18 62.23, 225.79 0.17 M90.38 162.04 C148.17 97.48, 204.15 32.34, 230.77 0.53 M90.38 162.04 C128.25 120.7, 166.97 76.09, 230.77 0.53 M95.36 162.4 C131.23 127.25, 159.59 84.33, 236.42 0.14 M95.36 162.4 C145.57 103.82, 195.41 46.03, 236.42 0.14 M101.01 162 C148.43 111.35, 187.61 56.75, 241.4 0.5 M101.01 162 C155.96 101.6, 205.61 42.76, 241.4 0.5 M105.99 162.36 C150.21 111.03, 188.47 66.77, 247.05 0.1 M105.99 162.36 C160.55 103.63, 211.25 46.45, 247.05 0.1 M111.64 161.97 C140.78 130.66, 169.58 90.75, 252.03 0.46 M111.64 161.97 C168.25 99.07, 219.8 38.15, 252.03 0.46 M116.62 162.33 C158.71 110.18, 204.1 58.79, 257.68 0.07 M116.62 162.33 C158.76 112.65, 201.45 65, 257.68 0.07 M122.27 161.94 C152.29 130.66, 179.56 93.18, 261.35 1.94 M122.27 161.94 C154.64 120.06, 191.1 80.66, 261.35 1.94 M127.25 162.3 C176.2 105.16, 226.15 48.97, 266.34 2.3 M127.25 162.3 C168.18 117.6, 206.6 72.2, 266.34 2.3 M132.24 162.66 C181.01 109.09, 225.44 54.91, 271.33 2.66 M132.24 162.66 C168.95 122.61, 200.71 82.49, 271.33 2.66 M137.88 162.26 C183.8 105.05, 222.89 57.33, 275 4.53 M137.88 162.26 C163.04 131.03, 193.04 99.17, 275 4.53 M142.87 162.62 C185 111.04, 231.61 62.82, 279.33 5.64 M142.87 162.62 C188.14 108.88, 236.41 55.68, 279.33 5.64 M148.51 162.23 C184.9 122.24, 219.8 84.07, 284.32 6 M148.51 162.23 C191.52 111.07, 237.52 58.64, 284.32 6 M153.5 162.59 C186.11 125.53, 215.97 91.02, 286.68 9.38 M153.5 162.59 C190.23 124.33, 222.32 85.94, 286.68 9.38 M159.14 162.19 C208.22 109.76, 249.59 63.04, 289.7 12 M159.14 162.19 C195.39 121.15, 229.85 82.7, 289.7 12 M164.13 162.55 C193.27 123.98, 223.38 96.32, 292.72 14.63 M164.13 162.55 C211.14 106, 262.6 46.98, 292.72 14.63 M169.77 162.16 C204 119.17, 245.64 70.47, 295.74 17.25 M169.77 162.16 C218.19 104.11, 268.29 46.69, 295.74 17.25 M174.76 162.52 C222.76 108.8, 268.94 61.85, 296.79 22.14 M174.76 162.52 C206.77 124.27, 238.84 83.14, 296.79 22.14 M180.4 162.12 C218.62 119.06, 256.78 65.59, 298.49 26.28 M180.4 162.12 C213.88 125.61, 247.14 90.52, 298.49 26.28 M185.39 162.48 C214.69 120.51, 244.87 86.68, 299.55 31.16 M185.39 162.48 C226.25 115.63, 264.98 72.33, 299.55 31.16 M191.03 162.09 C218.94 135.59, 240.39 106.03, 299.28 37.56 M191.03 162.09 C233.96 110.11, 274.07 63.85, 299.28 37.56 M196.02 162.45 C218.06 136.59, 240.49 114.32, 299.68 43.2 M196.02 162.45 C233.44 116.83, 270.11 76.53, 299.68 43.2 M201.66 162.05 C232.51 126.4, 258.67 97.83, 299.42 49.6 M201.66 162.05 C226.2 134.27, 250.88 107.93, 299.42 49.6 M206.65 162.41 C241.56 121.59, 273.95 76.1, 299.16 56 M206.65 162.41 C242.37 120.35, 276.44 81.35, 299.16 56 M212.29 162.02 C237.57 138.18, 260.57 108.08, 299.55 61.64 M212.29 162.02 C233.29 137.47, 255.49 110.48, 299.55 61.64 M217.28 162.38 C239.54 130.48, 268.08 101.48, 299.29 68.04 M217.28 162.38 C237.32 142.4, 252.27 123.58, 299.29 68.04 M222.92 161.99 C253.75 129.94, 283.25 95.31, 299.68 73.68 M222.92 161.99 C242.2 138.78, 260.57 117.8, 299.68 73.68 M227.91 162.35 C249.4 142.25, 262.15 119.17, 299.42 80.08 M227.91 162.35 C250.7 137.86, 273.85 110.56, 299.42 80.08 M233.55 161.95 C251.65 142.35, 272.61 115.93, 299.82 85.72 M233.55 161.95 C259.43 135.61, 279.43 109.26, 299.82 85.72 M238.54 162.31 C259.71 137.3, 273.57 115.21, 299.56 92.12 M238.54 162.31 C257.8 137.01, 278.7 113.22, 299.56 92.12 M243.53 162.67 C257.88 140.95, 275.6 123.13, 299.95 97.77 M243.53 162.67 C263.02 139.85, 278.67 121.04, 299.95 97.77 M249.17 162.28 C267.28 140.97, 285.13 125.95, 299.69 104.16 M249.17 162.28 C270.84 140.45, 289.01 119.29, 299.69 104.16 M254.16 162.64 C267.2 147.04, 277.64 136.9, 300.08 109.81 M254.16 162.64 C265.27 147.06, 279.88 132.65, 300.08 109.81 M260.46 161.49 C276.62 148.49, 284.78 135.08, 299.82 116.2 M260.46 161.49 C272.03 150.16, 284.15 136.77, 299.82 116.2 M266.76 160.34 C280.67 145.47, 290.62 133.28, 300.87 121.09 M266.76 160.34 C274.51 150.04, 283.78 142.06, 300.87 121.09 M272.4 159.94 C279.11 153.08, 292.54 141.96, 298.64 129.75 M272.4 159.94 C276.93 155.04, 283.37 148, 298.64 129.75 M278.04 159.55 C280.63 155.48, 287.11 155.28, 295.1 139.93 M278.04 159.55 C280.38 154.19, 286.97 150.24, 295.1 139.93" stroke="#12b886" stroke-width="0.5" fill="none"></path><path d="M40.05 0 M40.05 0 C108.91 2.61, 179.93 -1.59, 259.01 0 M40.05 0 C94.49 5.3, 148.95 2.43, 259.01 0 M259.01 0 C285.04 -1.91, 300.15 14.24, 299.06 40.05 M259.01 0 C288.7 -1.82, 299.01 10.65, 299.06 40.05 M299.06 40.05 C298.19 61.27, 294.45 77.99, 299.06 120.16 M299.06 40.05 C298.67 60.52, 297.68 82.4, 299.06 120.16 M299.06 120.16 C302.15 149.02, 287.3 160.01, 259.01 160.21 M299.06 120.16 C299.13 144.81, 284.77 163.8, 259.01 160.21 M259.01 160.21 C194.7 157.93, 134.69 159.46, 40.05 160.21 M259.01 160.21 C191.03 162.2, 121.94 161.77, 40.05 160.21 M40.05 160.21 C12.11 161.43, 2.8 148.93, 0 120.16 M40.05 160.21 C17.65 164.22, 1.07 148.94, 0 120.16 M0 120.16 C2.67 87.55, 0.55 60.78, 0 40.05 M0 120.16 C-1.01 103.09, -0.03 85.3, 0 40.05 M0 40.05 C3.5 16.42, 15.64 -0.1, 40.05 0 M0 40.05 C3.42 15.04, 15.29 -1.59, 40.05 0" stroke="#000000" stroke-width="1" fill="none"></path></g><g transform="translate(54.40242140726741 266.7127063988155) rotate(0 106 25)"><text x="106" y="20" font-family="Cascadia, Segoe UI Emoji" font-size="20px" fill="#000000" text-anchor="middle" style="white-space: pre;" direction="ltr">Test your chatbot </text><text x="106" y="45" font-family="Cascadia, Segoe UI Emoji" font-size="20px" fill="#000000" text-anchor="middle" style="white-space: pre;" direction="ltr">on the playground</text></g><g stroke-linecap="round"><g transform="translate(424.1504594783755 296.85187708401236) rotate(0 -56.300387248980996 0.03614217217159421)"><path d="M-1.43 -0.16 C-20.84 0.51, -94.92 2.25, -113.93 2.79 M3 -2.72 C-16.93 -2.78, -95.51 -1.69, -115.6 -1.49" stroke="#000000" stroke-width="1" fill="none"></path></g><g transform="translate(424.1504594783755 296.85187708401236) rotate(0 -56.300387248980996 0.03614217217159421)"><path d="M-87.76 -10.58 C-96.69 -8.92, -107.22 -7.8, -114.77 -5.08 M-87.64 -12.03 C-93.27 -9.3, -101.13 -6.47, -117.47 -0.64" stroke="#000000" stroke-width="1" fill="none"></path></g><g transform="translate(424.1504594783755 296.85187708401236) rotate(0 -56.300387248980996 0.03614217217159421)"><path d="M-87.52 9.94 C-96.36 3.57, -106.99 -3.34, -114.77 -5.08 M-87.39 8.49 C-93.27 6.14, -101.19 3.9, -117.47 -0.64" stroke="#000000" stroke-width="1" fill="none"></path></g></g><g stroke-linecap="round"><g transform="translate(628.5699668073548 132.0958462055887) rotate(0 -0.627394791588813 54.08617569156695)"><path d="M0.85 1.26 C1.09 19.5, 0.16 91.26, -0.35 108.7 M-2.14 -0.52 C-1.86 16.98, -0.87 86.45, -1.11 104.61" stroke="#000000" stroke-width="1" fill="none"></path></g><g transform="translate(628.5699668073548 132.0958462055887) rotate(0 -0.627394791588813 54.08617569156695)"><path d="M-9.64 80.35 C-6.73 84.26, -8.28 87.11, -5.1 100.8 M-10.33 75.03 C-5.76 84.91, -5.29 93.49, -2.7 103.09" stroke="#000000" stroke-width="1" fill="none"></path></g><g transform="translate(628.5699668073548 132.0958462055887) rotate(0 -0.627394791588813 54.08617569156695)"><path d="M10.89 80.3 C8.95 84.34, 2.56 87.21, -5.1 100.8 M10.19 74.98 C8.12 84.65, 1.96 93.25, -2.7 103.09" stroke="#000000" stroke-width="1" fill="none"></path></g></g><g stroke-linecap="round"><g transform="translate(297.9964737013461 62.71533269231486) rotate(0 57.11243661264325 -0.6098490106119243)"><path d="M-0.85 0.95 C18.52 1, 96.1 1.46, 115.08 1.67 M3.88 -1 C23.06 -1.95, 95.51 -2.63, 113.28 -2.89" stroke="#000000" stroke-width="1" fill="none"></path></g><g transform="translate(297.9964737013461 62.71533269231486) rotate(0 57.11243661264325 -0.6098490106119243)"><path d="M86.58 8.88 C93.56 3.35, 101.58 0.7, 112.94 -6.54 M85.26 6.77 C92.57 3.34, 95.99 2.59, 112.65 -4.18" stroke="#000000" stroke-width="1" fill="none"></path></g><g transform="translate(297.9964737013461 62.71533269231486) rotate(0 57.11243661264325 -0.6098490106119243)"><path d="M86.32 -11.64 C93.57 -11.87, 101.66 -9.24, 112.94 -6.54 M85 -13.75 C92.04 -12.72, 95.51 -9.01, 112.65 -4.18" stroke="#000000" stroke-width="1" fill="none"></path></g></g></svg>