<?xml version='1.0' encoding='utf-8'?>
<svg xmlns="http://www.w3.org/2000/svg" viewBox="0 0 841.9 595.3"><path d="m404.6 134.5-.4 97.8h34.7l3.3-95.6z" fill="#a1dba3"/><path d="m298.2 104.3-7.5 132.4 17.5-1.9 1.7 21.3 37.5-24.8 56.8 1 .4-97.8 37.6 2.2-4.2-32.4z" fill="#e5e723"/><path d="m442.2 136.7-3.3 95.6h-34.7l-1.7 20.7 44.3 2.8 23.7 16.9 3.1-21.2 59.8.9 3.3-116.3z" fill="#9dd3cc"/><g fill="#181715" fill-rule="evenodd"><path d="m217.1 392.4h.1c0-.7-.1-1.3-.1-2 .2-3.7-2.8-5.4-5-7.5-.1-.1-.8 0-.8.1-.1 1.7-.3 3.4-.3 5.2 0 2.2 0 4.3.1 6.5 0 4.1.1 8.2.2 12.4.1 3.7.1 7.5.2 11.2.1 4.2.1 8.3.2 12.5 0 1.7.1 3.5.2 5.2.1 2.6.4 5.2.4 7.8 0 1.4.6 2.5 1.7 3.2 1.2.7 2.1 2.3 3.9 1.9.1 0 1-.4 1-1.2 0-.4-.1-.7-.1-1.1-.2-4-.4-7.9-.6-11.9-.1-2.2-.1-4.5-.2-6.7-.1-2.7-.1-5.4-.3-8.2-.2-5.3-.7-10.5-.8-15.8-.3-3.9 0-7.7.2-11.6zm-5.7-16c0 .5.1 1.1.4 1.5 1.2 1.2 2.6 2.4 3.9 3.5.9.7 1.4.8 1.5-.6.2-4.5.4-9.1.6-13.6.2-3 1.4-21.8 1.7-28.3.3-5.8.3-11.6.5-17.4.1-1.8.3-3.5.4-5.2.1-1.2-.5-1.9-1.7-2.3-1.5-.5-3-1.2-4.4-2-1-.6-1.1-.2-1.1.7 0 1.5 0 2.9-.1 4.4-.3 5.3-.6 10.6-1 16-.2 4.1-.7 39.2-.7 43.3zm12.6-64.8c2.8-.4 6.2-.7 9.5-1.5 4.9-1.2 9.7-2.6 14.5-4.1 3-.9 6.1-1.7 8.9-3.1 2.4-1.2 5-1.9 7.5-2.7 5-1.5 10-2.7 15-4.1 3.3-.9 6.6-2 9.9-2.9 3.6-1 7.1-1.9 10.7-2.8 3.2-.8 6.4-1.7 9.7-2.5 2.7-.7 5.5-1.1 8.2-1.8 1.6-.4 3.1-1.1 4.6-1.5 4.3-1.1 8.7-2.1 13-3.2 1.4-.4 2.7-1 4.1-1.5.9-.3 1-.8.1-1.3-2.3-1.3-4.7-2.5-7.1-3.7-.5-.2-1.2-.2-1.7-.1-1.3.3-2.5.8-3.8 1.2-5.1 1.4-10.1 2.9-15.2 4.3-3.6 1-7.3 1.8-10.9 2.7-4.4 1.1-8.7 2.3-13.1 3.5-2.4.6-4.9 1-7.2 1.6-3.9 1.1-7.7 2.4-11.6 3.6-6.5 2-13.1 4-19.6 6-5.5 1.7-11 3.6-16.5 5.4-2.5.8-5 1.5-7.5 2.2-3.2.9-6.5 1.8-9.7 2.8-.1 0-.2.7-.1.8 2.4 1.3 4.8 2.5 8.3 2.7zm.9 139c.2 0 .5-.1.7-.1 4.1-1.1 8.3-2.4 12.4-3.4 6.5-1.6 13.1-3 19.6-4.7 6.3-1.7 12.5-3.6 18.8-5.5 1.5-.4 3-.9 4.5-1.3 5.4-1.5 10.9-2.9 16.3-4.4 4-1.1 8-2.3 12-3.3 3.5-.9 7-1.7 10.5-2.7 5.5-1.5 10.9-3.2 16.3-4.8 2-.6 2.1-.5 2.1-2.7-.1-5.9-.3-11.8-.3-17.6-.1-4.4 0-8.9 0-13.3-.1-5.8-.3-11.6-.3-17.4 0-4.8.1-9.7.2-14.5.2-4.7.4-9.3.7-14 .2-4.4.5-8.8.8-13.2.2-3 .3-6.1.6-9.1.5-5.7 1.1-11.3 1.6-17 .3-3.2.7-6.4 1.1-9.6.3-3 .7-6 1.1-9 .1-1.1-.3-1.3-1.2-.9-.8.3-1.5.8-2.3 1-4.2 1.2-8.4 2.3-12.6 3.4-5.5 1.4-11.1 2.6-16.6 4-3.7.9-7.5 2-11.2 3-4.3 1.2-8.5 2.3-12.7 3.5-2.7.8-5.3 1.7-8 2.4-2.4.7-4.8 1.1-7.1 1.9-4.3 1.3-8.5 2.8-12.8 4.2-1.4.4-2.7 1-4.1 1.4-3.2.9-6.6 1.5-9.7 2.8-5.6 2.4-11.6 3.2-17.5 4.5-2 .4-4.5 2.7-4.6 4.5-.2 6.6-.3 13.2-.5 19.8-.1 4.2-.2 8.5-.5 12.7-.4 6.2-.9 12.4-1.3 18.7-.3 4.1-.4 8.2-.6 12.4 0 1.4-.4 3 .9 4.1 1.2 1 2.3 2.2 3.6 3 1.9 1.2 4.1 1.9 5.8 3.3 3.8 3 8.3 4.2 12.6 5.8 2.8 1 5.8 1.6 8.8 2.3 2.8.7 5.6 1.4 8.5 1.8 4.6.6 9.3 1 13.9 1.3 4.2.2 19.5-1.2 18.8 1.4s-4.8 1.3-11 1.3c-8.6.1-19.8-1-23.2-1.5-3.7-.6-7.4-1.4-11-2.2-6.9-1.6-13.6-3.3-19.5-7.5-2.1-1.5-4.4-2.7-6.7-4-1.3-.7-1.5-.5-1.6 1 0 4.5-.1 9 0 13.4.1 8.1 1.6 44.9 4.7 44.8zm116.6-30.7c.1 1.1 0 2-1.4 2.5-5.3 1.8-10.8 3-16.1 4.6-4.2 1.3-8.4 2.6-12.7 3.6-2.7.6-5.4 1.4-8.1 2.1-.9.2-1.3.6-1.3 1.6-.1 3.5-.3 7-.4 10.5-.2 4.8-.6 9.7-.5 14.5.1 4.6.6 9.2.9 13.7.1 2.2.2 4.4.4 6.5.2 2.5.5 5 .9 7.5.1.6.6 1.2 1.1 1.6 2.4 2.2 4.9 4.3 7.3 6.5.6.5 4.4 5.6-1.3 3.1s-11.5-6.1-11.4-10.5.1-8.8-.1-13.2c-.2-5.4-.7-10.9-.7-16.3-.1-4.9.7-19.3.8-21.6.1-2.5-.3-2.7-2.6-2-5.1 1.4-10.2 2.7-15.2 4.2-6.3 1.8-12.6 3.7-19 5.6-1.2.4-2.5.8-3.7.9s-1.3.7-1.1 1.7c.3 1.9.6 3.8.7 5.8.2 4.3.4 8.7.6 13 .1 3.4.1 6.8.1 10.2-.1 4.9-.3 9.8-.4 14.7-.1 2.8 1.3 5 3 7 1.8 2.2 3.6 4.2 5.4 6.4.3.4.7.8.8 1.2 0 .4-.2 1-.6 1.3-.2.2-.9 0-1.2-.2-3.4-3.2-6.8-6.3-10-9.7-.7-.7-1-2.2-.7-3.2 1.1-3.8.7-7.7.6-11.5 0-4.2.1-8.3 0-12.5-.1-4.9-.4-9.8-.7-14.7-.1-2.2-.4-4.5-.7-6.7-.2-1.8-.6-1.8-2.3-1.4-3.7 1-7.5 1.9-11.3 2.9-4.3 1.2-8.5 2.5-12.7 3.7-1.6.4-3.2.8-4.7 1.2-.3.1-.6.2-.9.1-3.2-1.1-12.4-6.7-12.5-8.4-.5-4.9-1-9.7-1.2-14.6-.3-6.6-.3-13.2-.3-19.9-.1-9.8-.2-19.5-.2-29.3 0-2.6.3-5.2.3-7.8 0-3.1-.1-6.2-.2-9.2-.1-3.5.7-28.2.7-28.5.4-6 .8-24.3.8-27.3s.8-4.1 4.2-4.8c3.1-.6 7.6-1.7 10.1-2.4 3.5-1 7.1-1.8 10.7-3 7-2.3 13.9-4.7 20.8-7 3.6-1.2 7.2-2.1 10.8-3.1 5.8-1.7 11.6-3.6 17.5-5.3 3-.9 6.2-1.3 9.2-2 6.6-1.6 13.3-3.3 19.9-5 4.2-1.1 8.4-2.3 12.6-3.5 1.6-.5 3.1-1 4.5-1.8 1.5-.9 2.9-.7 4.3 0 3.6 2 7.1 4.1 10.7 6.1 2.2 1.2 2.2 3.1 2 5.2-.3 3.7-2.3 27.6-2.5 30.2-.1 1.4-1.6 12.9-1.9 17.3-.1 1 .2 10.2 2.3 13.4 1.3 2.1 2.6 4.3 3.5 6.6 2.2 5.6 4.5 11.3 6.2 17.1 1.7 6 2.8 12.1 4.1 18.2.8 3.9 1.7 7.8 2.4 11.7.8 4.5 3.1 21.4 3 23.5 0 2-3.2 3.5-3.4.3s-.5-10.9-1.4-15.9c-.7-3.8-4.5-22.4-8.2-36.7-2.5-9.4-5.2-16-6-18.3-.6-1.5-1.3-2.8-2.5-3.9-.2-.2-.4-.2-.6-.4 0 .2-.1.5-.1.7-.8 5-.7 68.9-.4 73.1z"/><path d="m504.6 270.8c-.9.1-1.5.2-2.2.4-2.4.5-4.7 1-7.1 1.5-.3.1-.6.4-.8.6.3.2.5.6.9.7 1 .5 2.1 1 3.1 1.4 3.8 1.4 7.7 2.8 11.6 4.3 2 .8 3.8 1.9 5.7 2.6 3.8 1.5 7.7 2.8 11.6 4.1 2.9 1 5.7 1.9 8.6 2.9 3.9 1.3 7.8 2.7 11.6 4.1 2.5.9 4.9 2 7.4 3.1 1.5.6 3 1.3 4.5 1.9 3.3 1.3 6.6 2.7 10 3.9 1.9.7 4 1.1 5.9 1.8 2.7 1.1 5.4 2.4 8.1 3.6 3.9 1.8 10.4 5.5 14.3 7.3 1.2.5 3.6-1.3 4.8-1.4.5-.1 1-.2 1.4-.4.2-.1.4-.3.6-.4-.2-.2-.3-.4-.5-.5-2.7-1.2-5.4-2.5-8.1-3.5-4.9-1.9-9.4-4.5-13.9-7.1-2.5-1.4-5-2.7-7.5-3.9-2.4-1.2-4.9-2.3-7.4-3.5-5.4-2.6-10.8-5.1-16.5-7-6.6-2.1-13.2-4.2-19.6-7-7.4-3.2-14.9-6.3-22.7-8.6-1.5-.4-2.8-.7-3.8-.9zm106.8 51.6c0-1.8 0-3.5 0-5.3 0-1.6-.9-2.3-2.5-1.8-1.8.5-3.5 1.3-5.4 1.7-2.1.5-3 1.8-3.3 3.8-.3 1.8-3.3 52.4-3.6 58.1-.2 2.8-.5 5.6-.7 8.5 0 .4.2.8.3 1.1.4-.2.8-.3 1.1-.5 1.4-1.2 2.8-2.5 4.3-3.7 1-.8 2-.6 2.7.3.8 1.1.1 1.7-.7 2.4-2.4 2.1-4.8 4.2-7.1 6.5-.5.5-.7 1.3-.8 2-.2 1.7-.2 3.5-.3 5.2-.2 3.8-1 43.3-1.1 46.9 0 3.8.3 14 .3 15.3 0 1 .6 1.3 1.4 1.3h8c1.9 0 1.8-.1 1.8-2-.1-3.6.8-20 1-24.6.4-7.1.6-14.2.7-21.2 0-4.6.4-30.6 1.5-53.8.6-19.8 2.3-37.1 2.4-40.2zm-125.1 88.9h.3c0 1.4-.1 2.8 0 4.2.1.7.3 1.6.8 1.9 2.9 2 5.7 4 8.7 5.8 3.2 1.9 6.6 3.5 9.9 5.4 2.8 1.7 5.5 3.6 8.3 5.3 1.7 1 24 11.1 26.4 11.9 2.3.8 21.7 7.6 24.8 8.7 4.1 1.4 8.5 2.3 12.6 3.8 3.6 1.3 7.1 3 10.6 4.6.4.2 1.1.3 1.1.2.5-.9 1.3-1.8 1.3-2.8.1-6.4 0-12.7 0-19.1 0-2.8-.2-5.7-.2-8.5 0-4.1.1-8.1.2-12.2.1-4 .1-8 .3-11.9.1-3.3.4-6.7.5-10 0-.3-.1-.6-.2-1-.2.2-.5.3-.7.5-2.4 2.5-5.4 4.1-8.4 5.5-2.6 1.2-8.2 3.6-8.2 3.6-2 .9-21.9 8.1-23 8.8-.8.5-1.6.7-2-.1-.3-.5-.1-1.5.2-2.1.2-.4 1-.7 1.5-.9 2.2-.8 4.3-1.6 6.5-2.3 2.2-.8 17.9-7.3 22-9.3.1 0 .2-.1.2-.1 1-.5 9.2-6.1 9.2-6.1.3-.5 3.4-2.7 3.5-4.4.3-5.2 1-10.4.9-15.6-.1-8.5 1-16.8 1.5-25.2.4-5.4.5-10.9.8-16.3.3-4.5.7-8.9.9-13.4 0-.7-.3-1.8-.8-2.2-1.4-1.1-3-2.1-4.7-2.9-3.4-1.7-6.9-3.3-10.3-4.9-3.1-1.4-6.1-2.9-9.3-4.1-5.1-1.9-10.3-3.5-15.4-5.4-6.6-2.5-13.2-5.1-19.8-7.7-2.8-1.1-5.5-2.2-8.3-3.1-3.9-1.3-7.9-2.3-11.8-3.5-1.3-.4-2.6-.9-3.8-1.5-2.1-.9-4.1-2.1-6.2-2.9-4.3-1.7-8.7-3.2-13.1-4.8-1.6-.6-1.5-.6-1.5 1.1 0 3.5-.1 7-.3 10.5-.2 4.7-.6 9.3-.8 14-.2 5.5-.2 11-.3 16.5-.1 3.1-.3 6.3-.4 9.4-.1 4.1 0 8.2-.1 12.3-.1 6.5-.1 13-.4 19.4-.2 5.8-.7 11.5-1 17.2-.3 4.8-.5 9.7-.8 14.5-.3 6.5-.8 12.9-1.2 19.2zm126.9-70.8c-.5 5-.8 10-1.1 15-.3 3.9-.5 7.8-.7 11.8-.3 7-.6 13.9-.8 20.9-.1 3.9.1 7.7.1 11.6 0 4.1-.2 8.1-.3 12.2-.1 3-.4 6-.5 9.1-.2 4.3-.2 8.7-.4 13-.2 3.8-.5 7.6-.8 11.4-.2 3.1-.6 6.3-.6 9.4s.4 6.1.7 9.2c.2 2.5-.8 3.3-3.3 3-2.1-.2-4.2-.1-6.3 0-2.6.1-5 .6-7.6-.4-3.2-1.2-6.6-1.9-9.9-3-5-1.7-9.8-3.7-14.8-5.5-3.1-1.1-6.3-1.9-9.4-2.9-1.1-.4-1.4.3-1.5 1.2-.1 1.6-.1 3.2-.1 4.7-.1 6.5-.3 13-.3 19.5 0 4.5.2 9 .4 13.4.1 2.3.3 4.7.3 7 0 .5-.3 1.2-.6 1.6-1.6 2.2-3.2 4.4-4.8 6.6-.4.5-.8 1.1-1.3 1.5-.4.3-1.2.7-1.4.5-.6-.4-1.1-1.1-.6-2 .6-1 1.2-2.1 1.8-3.1 1-1.6 2.3-3.1 3.2-4.8.5-.9.6-2.1.6-3.1 0-4-.2-8.1-.3-12.1-.1-2.4-.3-4.8-.3-7.3 0-2.9.2-5.8.3-8.7.1-4.9.2-9.8.4-14.7.1-1.4-.4-1.9-1.7-2.2-1.9-.5-3.8-1.2-5.6-2.1-4.5-2-9.2-3.4-13.8-5-4.5-1.6-8.9-3.7-13.3-5.6-1.5-.7-1.6-.7-1.8.9-.3 2.5-.7 5.1-.7 7.6-.2 9.2-.2 18.4-.4 27.6 0 1.4-.4 2.9-.4 4.3 0 1.9.2 3.7.4 5.6.1.9-.3 1.5-.9 2.2-2.4 2.6-5.3 4.5-8.6 6-.7.3-1.3.7-1.9-.1-.7-.8-.3-1.6.3-2.1.9-.8 1.8-1.7 2.9-2 3.5-1.2 4.4-4 4.7-7.2.2-2.4.5-4.7.6-7.1.1-1.8 0-3.6 0-5.4 0-7.9 0-15.7.2-23.6.1-2.5.6-5 .9-7.6.2-1.2-.1-1.9-1.3-2.6-2.4-1.3-4.5-3.1-6.8-4.5-3.5-2.2-7-4.2-10.6-6.3-3.3-1.9-6.5-3.9-9.9-5.6-2.1-1-2.2-2.5-2.2-4.4.2-6.5.3-13 .5-19.5.2-4.6.6-9.2.8-13.8.1-3.1 0-6.1.1-9.2.1-2.1.5-4.2.7-6.2.2-1.2-.2-1.4-1.4-1.2-5.3.9-10.6-.1-15.9-.9-1.9-.3-3.8-1.2-5.7-1.9-1.6-.7-9.3-4.3-15.3-8.5-5.8-4.1-9.9-8.9-10.9-10-2-2.3-.7-3.4-.3-3.6.5-.2 1.8-.2 2.5 1.2.7 1.3 3.8 4.1 6.2 6.5 1.3 1.2 2.9 2.3 4.1 3.5 3.4 3.5 20.1 10 24.2 10.8 3.1.6 6.3.7 9.4.1 1-.2 2-.7 2.9-1.3.3-.2.4-.9.5-1.4 0-1.9.5-36.5.6-39.5.2-5.3.5-10.6.7-15.9.2-4.7 1.1-24.1.9-27.9-.2-4.3-.3-4.4 3.6-6.1 3.7-1.6 7.5-3.1 11.3-4.5.9-.3 2-.2 2.9.1 4 1.3 8.1 2.6 12 4 3.5 1.3 7 2.7 10.4 4.1 5.1 2 10.2 4.1 15.3 6 4 1.5 8.1 2.9 12.1 4.4 2.3.9 4.5 2 6.8 3 4.1 1.8 8.3 3.6 12.4 5.5 1.7.8 3.4 1.8 5.1 2.7 2.3 1.2 4.6 2.3 6.9 3.5 2.5 1.3 5 2.7 7.5 4 2.7 1.4 5.3 2.8 8 4.1 2.2 1 4.7 1.8 6.9 2.8 1.6.8 3 1.8 4.4 2.9.5.4.8 1.3.9 2.1.3 2.2-.7 18.4-1.3 24.3z"/><path d="m292 228.3c-.1 1.4-.1 2.8-.1 4.2 0 .3.5.9.7 1 2.9.2 5.9.5 8.8.5 2.7 0 5.4-.3 8.1-.4 1.9-.1 1.9 3.9 1.9 4.4.4 4.6.9 9.3 1.4 13.9 0 .2.6.5.7.4 2.3-1.5 4.5-3 6.8-4.5 2.4-1.6 4.8-3 7.1-4.6 3.7-2.6 7.3-5.2 10.9-7.9.5-.3 7-3.7 9-3.9 3.2-.3 6.4-.4 9.5-.5 3.2-.1 6.5-.3 9.7-.3 2.8 0 5.7.2 8.5.3 3.1 0 6.1-.2 9.2-.2 4 .1 8 .5 12 .6 3.1.1 6.2 0 9.2-.1 1.2 0 2.3.6 2.2 1.6s0 2.2-1.3 2.4c-2.2.3-2.8.7-2.8 2.9 0 3 .4 6 .3 9 0 1.7.8 2.3 2.1 2.7.6.2 1.3.5 1.9.5 3.7.3 7.3.5 11 .7 2.3.1 4.6 0 6.9.1 4.4.2 8.8.5 13.2.6 1.8 0 8.6-.1 11.6 2.5 3.1 2.6 5.3 4.2 7.5 5.6 3.5 2.2 7.1 4.4 10.6 6.6.3.2.7.3 1.1.5 0-.4.1-.8.1-1.2-.1-1.2-.3-2.4-.3-3.6 0-1.6-1.2-8 1.2-9.8.7-.4 1.6-.7 2.4-.7 2.5 0 4.9.1 7.4.1 8.1 0 16.1 0 24.2.1 3.7 0 7.5.1 11.2.2 5.7.1 11.3.3 17 .4 2.8.1 3.3-.5 3.3-3.4 0-.5-.1-1.1-.2-1.6-.2-5.3-.5-10.7-.4-16 .1-5.6.6-11.2.9-16.9l1.5-22.5c0-.5.1-1.1.1-1.6.2-3.7.4-7.5.6-11.2.1-2.4 1.5-37.4 1.6-41.1 0-1.2-.3-1.9-1.7-1.9-2 0-4-.2-6-.3-4.4-.1-8.9-.4-13.3-.3-5 0-9.9.4-14.9.4-4.8 0-9.7-.2-14.5-.3-2 0-4.1.1-6.1.1-2.7 0-5.5-.1-8.2 0-3.9.1-7.7.5-11.6.6-2.7.1-5.4-.1-8.1-.1-4.7.1-9.3.4-14 .5-2.2 0-3.2-1.7-2.6-3.8.1-.5.2-1.1.2-1.6 0-2.9 0-5.8.1-8.7.2-5 .6-9.9.8-14.9.1-2.6-.1-2.8-2.7-3.3-.2 0-.5-.1-.7-.1-4.3-.3-8.6-.5-12.9-.7-3.1-.2-6.3-.2-9.4-.3-2 0-4.1 0-6.1 0-2.4 0-4.7.2-7.1.1-3.9-.1-7.7-.5-11.6-.5-4-.1-8 0-12 0-9 .1-18.1.1-27.1.2-5.2.1-10.4.3-15.6.2-7.2 0-14.4-.4-21.6-.4-6.1 0-12.1.5-18.1.6-1.5 0-1.5.9-1.5 1.9-.2 4.8-.3 9.7-.4 14.5-.1 4.2.1 8.3-.1 12.5-.1 5.9-.4 11.7-.7 17.6-.3 7.2-.5 14.4-.8 21.6-.2 4.6-.5 9.2-.7 13.8-.1 3.5 0 6.9-.1 10.4-.1 5-.3 10.1-.2 15.1.4 5.7.8 11.5 1 17.3zm187.2 26.2c-1.8 0-3.6.2-5.4.4-.3 0-.7.4-.7.7 0 1.4 0 2.9.1 4.3.1 1.5.4 3 .5 4.5.1 2.2.1 4.5.1 6.7 0 .6-.3 1.6-.7 1.7-.8.2-1.8.2-2.6-.1-.7-.2-1.2-1-1.8-1.5-1.5-1.2-3-2.4-4.6-3.5-3.3-2.3-6.7-4.5-10-6.8-2.4-1.7-4.7-3.6-7.2-5.1-1.2-.7-2.7-1-4.1-1.1-3.7-.2-7.5.2-11.2-.2-4.9-.5-9.9-.4-14.8-.6-4.7-.2-9.4-.7-14.1-.9-1.4-.1-1.7-.7-1.8-1.9-.1-2.5-.2-5-.3-7.4s-.3-4.8-.4-7.3c0-1.2-.6-1.6-1.7-1.6-5-.4-10.1-.8-15.2-1.1-2.6-.1-5.3.2-8 .2-3.7 0-7.4-.4-11.1-.3-4 .1-8.1.7-12.1.9-1.8.1-3.6 0-5.5.1-.7.1-1.5.4-2.1.7-1 .5-2.1.9-3.1 1.5-2 1.3-3.9 2.8-5.9 4.2-2.2 1.5-4.3 3-6.5 4.5-1.2.9-2.4 1.8-3.6 2.7-2 1.4-4.2 2.7-6.2 4.2-.7.5-1.2 1.3-1.9 1.9-1.7 1.2-3.3 2.3-5.1 3.3-.8.4-2.4-1.2-2.5-2.5-.3-4.2-.7-8.4-1-12.7 0-.3 0-.6-.1-.9-.4-4.1-1.6-4.9-5.7-4.5-2.6.2-5.2.1-7.8.2-.7 0-1.3.2-2 .2-2.8-.1-4.5-2.6-4.4-5.4.2-3.7.2-7.5.1-11.3-.2-7.1-.5-14.2-.7-21.2-.1-3.7.2-7.4.3-11.1 0-1.3-.1-2.5 0-3.8.4-8.5.8-17.1 1.1-25.6.2-5.5 0-11 .1-16.6 0-1.6.3-3.2.4-4.9.1-2.9.2-5.8.3-8.7.1-2.5 0-5.1 0-7.6.1-1.8.4-3.6.5-5.4.1-1.5 0-3 0-4.5 0-1.6 0-3.1 0-4.7 0-1.8.1-3.5 0-5.3-.1-1.5 21.9-1.7 25.9-1.7 6.2-.1 12.4 0 18.5 0h14.8c5.5 0 11-.1 16.6-.1 5.9 0 11.7.2 17.6.3 3.7 0 7.5-.2 11.2-.2 3.6 0 7.2.3 10.9.5 1.5.1 3 0 4.5 0 6.2.1 12.3.2 18.5.4 4.2.2 8.4.6 12.7.8 1.3.1 1.9.6 1.8 1.8-.2 3.3-.4 6.6-.6 10-.1 1.8-.1 3.6-.1 5.4-.1 2-.2 4-.2 6 0 2.1.2 8.5.2 8.5s54.2-.6 62.2-.6c5.3 0 10.6-.4 16-.3s10.9.5 16.3.8c1.3.1 2.7.1 4 0 2.8-.3 3.9.9 3.1 3.6-.3.9-.2 2-.3 3-.1 2.6-.1 5.2-.3 7.8-.2 3.3-.4 6.5-.6 9.8-.1 2.4-.2 4.7-.2 7.1 0 2.8.2 5.6.1 8.3-.5 7.2-1.2 14.4-1.7 21.5-.4 5.6-.8 11.1-1.2 16.7-.2 3.2-.5 6.4-.7 9.6-.2 2.5-.3 4.9-.4 7.4-.1 5.5-.1 10.9 0 16.4 0 2.4.5 4.8.7 7.2.1.8 0 1.6-.1 2.4-.3 1.7-.9 2.2-2.7 2.1-1.2 0-2.4 0-3.6 0-.1-.1-52-1.3-54.5-1.3z"/><path d="m288.6 368.1c-3.5-1.2-8.9-3.5-12-5-4.6-2.2-8.3-4.6-9-4.6s-1.7 1.1-2.1 1.2c.2.3 1.2 1.1 1.4 1.3 2 1.2 3.9 2.6 6 3.6 2.7 1.3 5.6 2.3 8.4 3.3 2.1.8 4.2 1.4 6.4 1.9.5.1 1.2-1.6.9-1.7zm-21.5-11.9c2.2-.7 11.1 5 13.2 5.8 1.6.6 3.1 1.3 4.7 1.9 1.7.6 3.5 1.1 5.2 1.6.6.2 1.1.4 1.7.7 1.6.9 1.7 1.3.6 2.8-.4.6-.8 1.2-1.2 1.8-1.6 2.3-1.6 2.3-4.3 1.6-2.1-.5-4.2-.9-6.3-1.5-1-.3-1.9-.8-2.8-1.2-3.4-1.2-16.7-8.5-16.2-10.4.2-1.9 3.2-2.4 5.4-3.1z"/><path d="m260.7 331.4c1.2 0 2 .7 2.1 1.8.1.9-1 2.2-1.8 2.2-1 0-2.2-1.1-2.2-2 0-1.2.7-2 1.9-2z"/><path d="m304.2 327.5c0-1.1.5-1.7 1.6-1.8.7-.1 1.4-.1 2.2 1.4.7 1.5.3 2.8-1.9 3-2.2 0-1.9-1.6-1.9-2.6z"/><path d="m554.7 360.2c-1.6.3-2.9.7-4.3.9-1.9.4-3.7.8-5.6 1.1-1.6.3-3.3.5-4.9.9-.6.2-1.7.2-1.5 1.4.2 1 1.7 2.2 2.4 2 3.1-.6 6.3-1.2 9.3-2 1.7-.4 3.3-1.2 4.8-2 .4-.2.6-1.2.6-1.8.1 0-.6-.3-.8-.5zm-14.7 9.3c-1.8-.2-2.4-1-3.1-1.8-.9-1-1.7-2.2-2.3-3.5-.3-.7-.5-1.7-.2-2.3.2-.5 1.2-.8 1.9-1 1.5-.3 3-.5 4.5-.7 5-.9 10.1-1.7 15.1-2.6 1-.2 1.6.1 2 1.1.2.8.6 1.6.9 2.4.7 2.3.6 2.2-1.4 3.5-2.7 1.9-5.9 2.4-8.9 3.2-3 .6-6.8 1.9-8.5 1.7z"/><path d="m517.9 321.4c.1 1-.9 1.7-2 1.8-1.1 0-1.5-.7-1.7-1.6-.2-.8 1-2.1 2-1.9.7.2 1.5.7 1.7 1.7z"/><path d="m560.1 335.7c-1.2-.3-1.1-.7-1.4-1.6-.3-1 .7-2.1 2.1-1.8s1.3.5 1.4 1.8c.1 1.2-.8 1.9-2.1 1.6z"/><path d="m366.8 141.6c1.1.1 2.5.2 3.9.3 1.3.1 1.8.8 1.8 2 0 2.2.1 4.5.1 6.7 0 3.6 0 3.6 3.5 3.7 2.7.1 3-.2 3.1-2.9.1-3.7.1-7.4.2-11.1 0-1.3.2-2.6.2-4 0-1.5-.6-2.2-2.1-2.2-4.3 0-8.6.1-12.8.3-1.6.1-2.4.8-2.5 2.3-.1 1-.1 2-.2 3.1-.1 1 .5 1.6 1.5 1.7.9.1 2 .1 3.3.1zm2.7 12.9h.2c0-2.4 0-4.8 0-7.3 0-1-.3-1.8-1.5-1.8-1.6-.1-3.1-.1-4.6-.3-2-.3-4-.6-6.1-.4-7.2.5-14.4.7-21.5.9-1.2 0-1.7.4-1.7 1.5 0 3.3 0 6.7.1 10 .1 2.7.4 5.3.5 8 .2 3.9.4 7.7.6 11.6.1 1 .4 1.5 1.6 1.6 3.7.1 7.3.2 11 .2 3.9 0 7.9.1 11.8 0 2.8 0 5.7-.2 8.5-.3 1 0 1.7-.5 1.8-1.5.2-1.9.4-3.7.3-5.6-.3-5.6-.7-11.1-1-16.6zm3.3 5.8c.2 3 .5 5.9.7 8.8.2 2.4.3 4.8.5 7.2 0 .5 0 1.1.1 1.6.5 2.9-.2 3.6-3 3.5-3.4-.2-6.8-.3-10.1-.3-7.2 0-14.4.2-21.6.3-1.9 0-3.9.2-5.8.5-1.1.1-1.3-4.5-1.3-5.1-.2-4-.4-8-.7-11.9-.3-4.3-.8-8.7-1.1-13-.2-2.7 0-5.4 0-8.2 0-1.3 1-1.6 2-1.6 2.1-.1 4.1-.1 6.2-.2 6.2-.2 12.5-.4 18.7-.6 1.7-.1 1.7-1.3 1.8-2.4.3-1.9.5-3.8.7-5.8.1-1.2.6-1.7 1.8-1.8 5.1-.2 10.2-.5 15.2-.7 1.6-.1 3.1.2 4.7.3.9 0 1.1.6 1.1 1.3-.2 3.5-.5 7-.7 10.5-.1 2.8-.1 5.6-.2 8.3 0 .4 0 .7-.1 1.1-.3 3.8-.4 4-3.9 5-.6.2-1.4-.2-2.1-.2-2.7.2-2.9.5-2.9 3.4z"/><path d="m475.1 219.9h1.3c2.4-.3 4.9-.4 6.7-2.2.9-.9 1.2-2.3 1.8-3.4-.4-.2-4.5-1.5-7-3.2-2.7-1.9-3.9-4.2-4.1-4.2-1.7.7-3.6.9-4.8 2.6-.9 1.4-.5 7.3.8 8.5 1.4 1.2 3.2 2.1 5.3 1.9zm30.9-23.3c0-1.4-.1-7.7-3.7-11.3-3.1-3.1-9.6-3.7-12.1-3.7-3 0-5.6 1.1-8.1 2.4-2.3 1.2-4.4 3-5.5 5.4-2.1 4.7-2.8 9.7 0 14.4 1 1.7 2.3 3.4 3.9 4.4 3.4 2 7.3 3.1 11.4 2.7 2.1-.2 7.4-2 10.4-5.1 3.2-3.4 3.9-8.2 3.7-9.2zm-40.7 12.5c3-7.3 6.7-7.4 6.7-7.4s-.4-4.3-.2-6.4c.1-1.1.2-2.1.4-3.2.5-3.7 2.9-6.4 5.2-9 1.6-1.8 3.9-3.2 6.5-3.7.3 0 5.4-1.9 10.5-1.3 3.1.4 6.3 2.5 8.3 4 4.8 3.4 6.4 8.3 6.7 13.8.2 4.6-1.9 8.4-4.7 11.9-1.3 1.5-2.8 3-4.4 4.2-2.3 1.8-5.2 1.9-7.9 2.2-2 .3-3.7.4-4.9 2.6-2.5 4.7-6.9 7-12.1 7s-7-2.1-8.8-4.2c-2.4-2.9-2.9-6.7-1.3-10.5z"/><path d="m422.2 175.1c-.2-1 .2-2.3-1.3-2.6-1.7-.3-3.4-.7-5.1-1.1-1.8-.4-2.2-.1-2.2 1.7 0 1.7.2 3.5.4 5.2 0 .2.5.5.7.6 1.2.1 2.4.3 3.6.3 2.4.1 3 .7 2.4 3-.1.5-.4.9-.4 1.4s.1 1.1.4 1.4c1.5 1.3 5 1.6 6.7.6 1.3-.7 1.6-1.8 1-3.2-.7-1.8-2.1-2.1-3.8-2.2s-2.1-.5-2.2-2.2c-.1-.9-.1-1.9-.2-2.9zm-12.6-5.4c-.1-2.3 1.1-3.2 3.3-2.6 2.1.5 11 .8 11.7 1.6.7.9 1.7 1.6 1.2 3-.2.7-.2 1.5-.1 2.3.2 1.2.7 2.1 2 2.9 2.2 1.3 4.3 2.9 4.8 5.7.2 2-.5 5.6-2.8 6.8-2.7 1.5-7.3.5-9.2-.3-2.4-1-4-2.5-4-5.4 0-1.8-1.8-1.6-2.9-1.9-3.1-.9-3.1-.7-3.3-3.8 0-1.4-.6-6.9-.7-8.3z"/><path d="m489.8 155.6c-.1-.4-.2-.9-.5-1.4-1.1-2.1-3.5-3.2-5.6-2.7-1.9.4-4.4 3.2-4.3 5.1 0 .8.1 1.7.6 2.2 1.3 1.6 3.4 2.6 6.4 1.7 2-.6 3.3-2.6 3.4-4.9zm3.3.9c.4 3.7-3.8 7.5-7.4 8.1-3 .5-7-.5-9-4-1.5-2.7-1-5.2.6-7.5 1.8-2.5 4.1-4.4 7.1-5.4 2.6-.8 4.5-.1 6.1 1.9 1.5 2 2.9 4 2.6 6.9z"/><path d="m332.4 202.3c.7 0 1.4-.1 2.2-.1 1.2 0 1.8-.5 1.7-1.7s-.1-2.4-.1-3.6c0-1-.4-1.3-1.3-1.2-2.2.1-4.5.3-6.7.3-1 0-1.2.5-1.2 1.4.1 3.3 2 5.1 5.2 4.9zm-1.1 3.2c-1.1 0-2.3 0-3.4 0-2.1-.1-2.9-1.2-3-3.3-.1-1.6-.6-3.2-.8-4.8-.2-1.4-.8-2.8.2-4.2.5-.8 1-1.1 1.9-1 2.8.2 12.8 0 13.5.8.5.5.1 1.7.1 2.6 0 1.4-.2 2.9.1 4.3.4 1.7.1 3.1-1 4.4-.4.4-1 .7-1.5.8-2 .3-4 .4-5.9.7-.2-.2-.2-.2-.2-.3z"/><path d="m406.6 134.2c-2.6-.2-3.7.9-2.9 4.4.2 1 .6 1.9-.2 2.7-.7.7-1.5 1.1-2 0-.5-.9-.8-1.8-.9-2.8-.2-1.5 0-3.1-.3-4.7-.3-1.9 1.5-3.8 3.5-3.5 2.4.4 4.9.6 7.3 1.1.9.2 1.9.7 2.5 1.4.8.8.3 2.2-.9 2.3-.9.1-1.9-.1-2.8-.2-1.1-.2-2.2-.4-3.3-.7z"/><path d="m439.1 225c-.2-1.1.7-2.4 1.6-2.5 1.1-.1 1.8.6 1.8 2 0 2.2.2 4.3 1 6.4.7 1.6-.2 2.9-1.9 3-2 .1-4 .1-5.9.1-1.9-.1-2.7-1.2-2.2-3 .3-1.2 1-1.4 2-1.2.7.1 1.4.3 2.1.4 1.5.2 1.7 0 1.8-1.5 0-.4 0-.8-.1-1.3 0-.1-.1-1.6-.2-2.4z"/><path d="m426.5 131.3c2.3 0 4.7-.1 7 0 .6 0 1.5.3 1.8.8.4.6.6 1.8.3 2.1-.5.6-1.7 1.2-2.3.9-2.9-1-5.8-.3-8.7-.4-.2 0-.4 0-.5 0-1.7 0-2.7-.6-2.7-1.7 0-1.3.7-1.8 2.6-1.9.8.2 1.7.2 2.5.2z"/><path d="m398.8 191.3c.1-.7.2-1.5.5-2.1.3-.5 1-1 1.4-.9.4 0 1 .7 1.2 1.2.3.7.2 1.4.3 2.1.3 2.9.6 5.9.9 8.9.1 1.3-.4 1.9-1.7 1.9-1.1 0-1.8-.3-1.9-1.7-.1-3.1-.3-6.3-.5-9.4 0 0-.1 0-.2 0z"/><path d="m439.1 152.2c.2-3 .4-5.9.7-8.9.1-.7.6-1.5 1.2-2 .3-.2 1.4-.1 1.6.3.4.6.7 1.5.5 2.1-1 3-.7 5.9-.3 8.9.2 1.3-.4 2.6-1.5 2.7-1.2.1-1.9-.6-2.1-1.7-.1-.5-.2-.9-.2-1.4z"/><path d="m439.5 195.1c-.2-1.4-.3-2.8-.5-4.1 0-.5-.2-1.1.1-1.4.5-.6 1.2-1.1 2-1.2.3-.1.8.8 1.2 1.2.1.1.1.3.1.5.3 3 .5 6 .7 9 0 .4.1.8-.1 1.1-.4.5-.9 1.3-1.5 1.4-.8.1-1.4-.4-1.5-1.4-.2-1.8-.6-5.1-.5-5.1z"/><path d="m443.6 173.2c0 1 .1 2.2 0 3.3-.1.6-.3 1.2-.7 1.6s-1.2.8-1.7.7-1-.9-1-1.5c-.1-1.1.1-2.3.1-3.4 0-2.1-.2-4.1-.2-6.2 0-.8.1-1.7.5-2.4.5-1 1.4-1 1.9 0 .2.3.3.7.3 1 .2 2.3.5 4.6.8 6.9z"/><path d="m423.5 232.8c0 1.8-.8 2.2-2.5 1.9-2.2-.5-4.4-.7-6.6-1.1-1.7-.3-2.3-.9-2.1-2.2s1.2-1.9 2.7-1.7c2 .3 4.1.5 6.1.6 1.6.2 2.4 1 2.4 2.5z"/><path d="m404.6 225.2c-.2.3-.5 1-1.1 1.3-1 .5-1.6-.3-1.9-1.1-.4-1.2-.7-2.5-.9-3.8-.3-2.1-.5-4.3-.8-6.5-.2-1.1.2-1.8 1.3-2 1.1-.1 1.4.6 1.6 1.6.5 3.4 1.1 6.7 1.8 10.5z"/><path d="m404.2 152.9v3.8c0 1.1-.9 2.3-1.8 2.3-.8 0-1.7-1-1.7-2.2 0-2.7.1-5.3.2-8 .1-.9.2-2 1.7-2 1.1 0 1.6.4 1.6 1.5z"/><path d="m402.8 171.7v3.6c-.1 1.4-.8 2.3-1.8 2.3-.8 0-1.6-1.2-1.5-2.5 0-2.2.1-4.3.1-6.5 0-.4.1-.8 0-1.3-.1-.9.3-1.6 1.2-1.7s1.7.4 1.8 1.4c.1 1.6.2 3.1.2 4.7z"/><path d="m439.6 212.4c0-.7 0-1.3 0-2 .1-1 .3-1.8 1.5-1.9 1.1 0 1.7.7 1.7 1.7.1 2.2.2 4.4.3 6.6.1 1.2-.8 1.6-1.7 1.8-1.1.2-1.6-.5-1.7-1.4-.1-1.5-.1-4.8-.1-4.8z"/></g></svg>