<svg version="1.1" xmlns="http://www.w3.org/2000/svg" viewBox="0 0 926.1203292269229 490.7629496273014" width="926.1203292269229" height="490.7629496273014">
  <!-- svg-source:excalidraw -->
  
  <defs>
    <style>
      @font-face {
        font-family: "Virgil";
        src: url("https://excalidraw.com/Virgil.woff2");
      }
      @font-face {
        font-family: "Cascadia";
        src: url("https://excalidraw.com/Cascadia.woff2");
      }
    </style>
  </defs>
  <rect x="0" y="0" width="926.1203292269229" height="490.7629496273014" fill="#ffffff"></rect><g stroke-linecap="round" transform="translate(47.3463639625852 59.11313407735429) rotate(0 139.14566929133866 59.5)"><path d="M7.26 7.64 C7.26 7.64, 7.26 7.64, 7.26 7.64 M7.26 7.64 C7.26 7.64, 7.26 7.64, 7.26 7.64 M1.75 20.07 C8.41 19.4, 13.44 7.78, 17.5 1.96 M1.75 20.07 C6.17 13.87, 11.36 7.58, 17.5 1.96 M2.8 24.96 C11.49 20.35, 10.53 13.08, 23.14 1.57 M2.8 24.96 C10.41 17.44, 17.42 10.74, 23.14 1.57 M3.2 30.61 C14.78 19.21, 20.94 9.69, 30.1 -0.34 M3.2 30.61 C8.4 24.13, 15.11 16.65, 30.1 -0.34 M2.94 37 C14.15 24.5, 20.95 23, 35.08 0.02 M2.94 37 C10.2 25.6, 17.77 19.67, 35.08 0.02 M2.68 43.4 C18.97 24.84, 30.97 15.49, 40.07 0.38 M2.68 43.4 C16.89 26.19, 32.52 8.83, 40.07 0.38 M3.07 49.04 C12.12 38.96, 21.7 28.96, 45.71 -0.01 M3.07 49.04 C15.96 34.36, 29.15 16.36, 45.71 -0.01 M2.81 55.44 C14.28 36.98, 33.65 25.51, 50.7 0.35 M2.81 55.44 C21.27 36.7, 36.52 17.41, 50.7 0.35 M3.2 61.08 C11.41 51.64, 28.11 37.14, 56.34 -0.05 M3.2 61.08 C19.79 41.85, 37.57 24.06, 56.34 -0.05 M2.94 67.48 C25.29 45.39, 42.12 18.67, 61.33 0.31 M2.94 67.48 C25.56 41.56, 47.68 16.71, 61.33 0.31 M2.68 73.88 C22.05 46, 42.58 24.9, 66.97 -0.08 M2.68 73.88 C23.55 48.82, 45.19 24.9, 66.97 -0.08 M3.07 79.52 C23.75 50.08, 48.25 20, 71.96 0.28 M3.07 79.52 C17.05 60.43, 35.65 44.4, 71.96 0.28 M2.81 85.92 C27.62 56.23, 50.95 29.4, 77.6 -0.12 M2.81 85.92 C20.48 65.42, 36.08 45.97, 77.6 -0.12 M2.55 92.32 C20.87 66.23, 40.9 47.03, 82.59 0.24 M2.55 92.32 C25.11 67.34, 48.07 38.84, 82.59 0.24 M2.95 97.96 C23.35 74.78, 46.27 49.71, 88.23 -0.15 M2.95 97.96 C30.77 66.27, 60.4 30.66, 88.23 -0.15 M4.65 102.1 C39.14 66.19, 68.61 30.12, 93.22 0.21 M4.65 102.1 C22.12 79.3, 45.56 54.43, 93.22 0.21 M6.36 106.23 C29.1 84.31, 50.51 59.44, 98.86 -0.18 M6.36 106.23 C37.27 70.21, 67.12 33.68, 98.86 -0.18 M8.07 110.36 C43.19 72.05, 82.58 27.61, 103.85 0.18 M8.07 110.36 C41.85 68.97, 76.33 27.61, 103.85 0.18 M10.43 113.74 C40.48 81.47, 68.02 49.91, 109.49 -0.22 M10.43 113.74 C42.52 74.67, 79.72 35.88, 109.49 -0.22 M13.45 116.37 C45.2 72.78, 78.03 40.95, 114.48 0.14 M13.45 116.37 C46.99 77.48, 80.24 37.97, 114.48 0.14 M17.78 117.48 C46.36 89.13, 69.36 52.22, 120.12 -0.25 M17.78 117.48 C50.09 80.75, 85.44 42.39, 120.12 -0.25 M22.11 118.6 C50.42 88.49, 75.49 54.1, 125.11 0.11 M22.11 118.6 C52.9 83.33, 83.35 44.4, 125.11 0.11 M27.1 118.96 C62.21 82.78, 94.32 41.99, 130.75 -0.29 M27.1 118.96 C70.34 72.29, 111.12 24.07, 130.75 -0.29 M31.43 120.07 C64.99 85.56, 99.96 47.72, 135.74 0.07 M31.43 120.07 C65.6 85.63, 93.87 50.74, 135.74 0.07 M36.42 120.43 C78.13 73.56, 121.43 23.47, 141.38 -0.32 M36.42 120.43 C71.17 80.27, 105.69 41.04, 141.38 -0.32 M42.06 120.04 C68.56 89.45, 90.46 63.21, 146.37 0.04 M42.06 120.04 C63 94.87, 85 71.14, 146.37 0.04 M47.05 120.4 C73.39 90.27, 102.43 59.42, 151.36 0.4 M47.05 120.4 C79.79 81.15, 113.03 40.32, 151.36 0.4 M52.69 120 C84.98 87.7, 113.84 52.43, 157 0 M52.69 120 C88.4 80.27, 125.67 39.09, 157 0 M57.68 120.36 C98.61 79.36, 137.31 34.67, 161.99 0.36 M57.68 120.36 C93.76 75.86, 129.46 34.69, 161.99 0.36 M63.32 119.97 C95.91 80.41, 135.81 36.87, 167.63 -0.03 M63.32 119.97 C105.88 71.35, 145.04 26.2, 167.63 -0.03 M68.31 120.33 C92.62 97.76, 110.65 72.7, 172.62 0.33 M68.31 120.33 C89.87 92.39, 112.18 64.64, 172.62 0.33 M73.95 119.93 C96.78 99.8, 116.54 74.83, 178.26 -0.07 M73.95 119.93 C106.43 79.24, 140.94 42.98, 178.26 -0.07 M78.94 120.29 C106.65 87.28, 136.3 48.23, 183.25 0.29 M78.94 120.29 C113.48 77.88, 151.09 36.85, 183.25 0.29 M83.92 120.65 C111.64 84.15, 138.76 59.16, 188.89 -0.1 M83.92 120.65 C121.49 76.54, 163.27 30.44, 188.89 -0.1 M89.57 120.26 C117 88.79, 139.72 61.74, 193.88 0.26 M89.57 120.26 C129.54 70.41, 171.88 24.25, 193.88 0.26 M94.55 120.62 C112.37 90.57, 134.58 70.85, 199.52 -0.13 M94.55 120.62 C124.81 83.54, 153.67 51.54, 199.52 -0.13 M100.2 120.22 C127.11 87.78, 151.53 65.05, 204.51 0.23 M100.2 120.22 C137.77 75.99, 173.95 31.02, 204.51 0.23 M105.18 120.58 C148.32 75.11, 184.04 25.69, 210.15 -0.17 M105.18 120.58 C145.27 75.82, 183.03 28.66, 210.15 -0.17 M110.83 120.19 C147.34 80.84, 179.24 43.7, 215.14 0.19 M110.83 120.19 C151.28 79.38, 189.83 31.41, 215.14 0.19 M115.81 120.55 C141.45 98.01, 160.31 69.19, 220.78 -0.2 M115.81 120.55 C151.24 81.57, 186.48 42.91, 220.78 -0.2 M121.46 120.16 C150.91 85.34, 179.85 54.75, 225.77 0.16 M121.46 120.16 C149.75 88.76, 174.98 58.38, 225.77 0.16 M126.44 120.52 C163.89 76.05, 203.87 35.16, 231.41 -0.24 M126.44 120.52 C166.02 73.91, 207.53 25.14, 231.41 -0.24 M132.09 120.12 C167.81 77.56, 207.59 24.86, 236.4 0.12 M132.09 120.12 C166.43 84.1, 199.84 44.02, 236.4 0.12 M137.07 120.48 C175.64 79.38, 210.74 36.3, 242.04 -0.27 M137.07 120.48 C173.75 79.94, 212.55 33.89, 242.04 -0.27 M142.72 120.09 C171.52 90.78, 189.16 60.33, 247.03 0.09 M142.72 120.09 C169.77 87.91, 196.72 58.25, 247.03 0.09 M147.7 120.45 C181.59 84.28, 223.26 36.44, 250.7 1.96 M147.7 120.45 C171.09 92.1, 191.46 66.67, 250.7 1.96 M153.35 120.05 C186.92 77.95, 224.16 34.64, 255.69 2.32 M153.35 120.05 C173.41 99.3, 196.11 71.37, 255.69 2.32 M158.33 120.41 C181.33 92.26, 200.11 67.29, 260.02 3.43 M158.33 120.41 C187.37 87.39, 221.52 49.78, 260.02 3.43 M163.98 120.02 C193.47 83.17, 228.31 41.43, 264.35 4.55 M163.98 120.02 C188.53 87.36, 215.83 58.39, 264.35 4.55 M168.96 120.38 C192.98 90.33, 220.89 53.6, 268.03 6.42 M168.96 120.38 C201.3 80.81, 232.35 41.92, 268.03 6.42 M174.61 119.98 C205.25 82.99, 231.16 50.93, 271.7 8.29 M174.61 119.98 C196.56 92.67, 218.08 68.88, 271.7 8.29 M179.59 120.34 C207.6 87.69, 238.25 49.69, 273.41 12.42 M179.59 120.34 C210.38 81.09, 242.03 44.91, 273.41 12.42 M185.24 119.95 C217.46 83.44, 242.27 50.25, 275.12 16.55 M185.24 119.95 C204.3 96.7, 228.08 70.21, 275.12 16.55 M190.22 120.31 C219.54 90.95, 244.82 59.18, 277.48 19.93 M190.22 120.31 C226.28 77.96, 261.43 38.73, 277.48 19.93 M195.21 120.67 C221.1 83.55, 255.68 55.04, 279.19 24.07 M195.21 120.67 C218.41 95.05, 239.54 69.02, 279.19 24.07 M200.85 120.27 C219.81 103.74, 236.4 85.38, 279.58 29.71 M200.85 120.27 C220.65 96.53, 241.5 74.34, 279.58 29.71 M205.84 120.63 C216.96 102.61, 235.9 86.49, 279.32 36.11 M205.84 120.63 C226.84 96.96, 250.72 75.24, 279.32 36.11 M211.48 120.24 C235.95 94.98, 258.98 62.39, 279.06 42.5 M211.48 120.24 C233.43 98.33, 253.57 71.38, 279.06 42.5 M216.47 120.6 C238.49 96.58, 255.94 75.77, 279.45 48.15 M216.47 120.6 C237.69 98.87, 257.07 75.77, 279.45 48.15 M222.11 120.2 C238.6 101.73, 263.42 78.57, 279.19 54.54 M222.11 120.2 C238.79 102.99, 254.28 84.62, 279.19 54.54 M227.1 120.56 C241.51 102.7, 260.15 78.88, 279.59 60.19 M227.1 120.56 C246.33 97.71, 266.1 73.78, 279.59 60.19 M232.74 120.17 C242.19 104.29, 251.62 97.3, 279.32 66.59 M232.74 120.17 C241.97 108.23, 251.1 98.56, 279.32 66.59 M237.73 120.53 C248.96 112.7, 255.56 98.37, 279.72 72.23 M237.73 120.53 C250.25 106.66, 263.1 89.91, 279.72 72.23 M243.37 120.14 C251.88 113.63, 256.18 104.33, 279.46 78.63 M243.37 120.14 C256.17 103.13, 272.02 88.47, 279.46 78.63 M249.02 119.74 C255.87 104.53, 266.45 92.74, 279.85 84.27 M249.02 119.74 C259.7 109.6, 268.4 98.55, 279.85 84.27 M255.97 117.84 C264.28 114.07, 271.01 106.7, 279.59 90.67 M255.97 117.84 C263.18 111.08, 268.61 105.56, 279.59 90.67 M262.27 116.69 C264.83 114.24, 273.17 109.93, 278.67 97.82 M262.27 116.69 C266.98 112.12, 272.49 106.3, 278.67 97.82" stroke="#fd7e14" stroke-width="0.5" fill="none"></path><path d="M29.75 0 M29.75 0 C81.49 2.35, 134.29 3.62, 248.54 0 M29.75 0 C99.32 -0.38, 165.58 0.8, 248.54 0 M248.54 0 C269.87 2.36, 274.88 13.74, 278.29 29.75 M248.54 0 C266.59 1.63, 281.92 11.13, 278.29 29.75 M278.29 29.75 C280.37 45.21, 276.69 65.92, 278.29 89.25 M278.29 29.75 C279.1 43.95, 281.01 58.34, 278.29 89.25 M278.29 89.25 C282.02 112.25, 268.9 117.57, 248.54 119 M278.29 89.25 C275.77 105.59, 264.45 119.74, 248.54 119 M248.54 119 C171.21 116.62, 88.86 118.99, 29.75 119 M248.54 119 C183.82 118.95, 117.82 118.81, 29.75 119 M29.75 119 C6.09 121.43, -3.53 111.66, 0 89.25 M29.75 119 C14.28 119.22, -2.07 106.6, 0 89.25 M0 89.25 C-1.91 63.92, -1.22 48.64, 0 29.75 M0 89.25 C-0.55 75.34, 0.23 64.95, 0 29.75 M0 29.75 C1.84 7.83, 11.13 -1.36, 29.75 0 M0 29.75 C2.69 11.74, 8.14 1.65, 29.75 0" stroke="#000000" stroke-width="1" fill="none"></path></g><g transform="translate(84.35817498620736 106.4320317151496) rotate(0 98.85433070866134 12.181102362204683)"><text x="98.85433070866142" y="17.362204724409448" font-family="Virgil, Segoe UI Emoji" font-size="18.74015748031496px" fill="#000000" text-anchor="middle" style="white-space: pre;" direction="ltr">Create Your Chatbot</text></g><g stroke-linecap="round" transform="translate(434.3463639625852 59.11313407735429) rotate(0 199 60.5)"><path d="M7.4 7.75 C7.4 7.75, 7.4 7.75, 7.4 7.75 M7.4 7.75 C7.4 7.75, 7.4 7.75, 7.4 7.75 M1.89 20.19 C11.04 11.87, 15.97 8.04, 17.63 2.08 M1.89 20.19 C8.77 13.39, 12.06 10.15, 17.63 2.08 M2.94 25.08 C9.92 17.44, 12.83 18.32, 23.27 1.68 M2.94 25.08 C6.48 19.25, 13.43 14.18, 23.27 1.68 M2.68 31.48 C10.65 16.73, 21.86 10.49, 29.57 0.53 M2.68 31.48 C9.75 20.2, 22.13 10.41, 29.57 0.53 M3.07 37.12 C7.6 27.48, 17.55 18.67, 33.25 2.4 M3.07 37.12 C13.12 27.21, 22.05 17.09, 33.25 2.4 M2.81 43.52 C14.26 27.58, 31.41 9.05, 38.24 2.76 M2.81 43.52 C13.93 31.85, 22.52 21.19, 38.24 2.76 M2.55 49.91 C15.07 35.87, 30.98 17.65, 43.88 2.37 M2.55 49.91 C20.18 32.29, 35.28 13.74, 43.88 2.37 M2.94 55.56 C18.92 38.92, 36.37 23.47, 48.87 2.73 M2.94 55.56 C18.3 34.98, 34.27 17.68, 48.87 2.73 M2.68 61.96 C15.21 40.35, 33.99 27.53, 54.51 2.33 M2.68 61.96 C20.74 43.32, 38.34 20.45, 54.51 2.33 M3.07 67.6 C28.65 43.92, 46.27 19.47, 59.5 2.69 M3.07 67.6 C21.5 44.67, 44.12 18.68, 59.5 2.69 M2.81 74 C21.87 49.3, 43.09 32.42, 65.14 2.3 M2.81 74 C18.25 60.24, 31.53 42.29, 65.14 2.3 M2.55 80.39 C26.3 58.12, 46.3 40.12, 70.13 2.66 M2.55 80.39 C27.46 52.14, 51.3 21.7, 70.13 2.66 M2.95 86.04 C26.83 55.35, 52.3 25.98, 75.77 2.26 M2.95 86.04 C20.33 67.58, 33.61 49.79, 75.77 2.26 M2.68 92.43 C25.61 70.79, 48.73 37.45, 80.76 2.62 M2.68 92.43 C30.6 58.3, 55.57 29.04, 80.76 2.62 M1.77 99.59 C37.69 63.2, 70.26 24.28, 86.4 2.23 M1.77 99.59 C26.03 70.55, 50.08 39.07, 86.4 2.23 M4.13 102.97 C33.64 76.72, 54.45 40.56, 91.39 2.59 M4.13 102.97 C22.75 81.75, 42.86 56.49, 91.39 2.59 M5.84 107.1 C27.37 81.63, 55.1 48.14, 97.03 2.2 M5.84 107.1 C38.24 68.91, 68.86 33.07, 97.03 2.2 M7.54 111.23 C29.33 87.58, 51.37 65.3, 102.02 2.56 M7.54 111.23 C27.33 87.84, 46.95 66.92, 102.02 2.56 M9.25 115.37 C32.15 88.02, 59.54 58.78, 107.66 2.16 M9.25 115.37 C39.6 76.22, 72.28 44.33, 107.66 2.16 M12.93 117.24 C54.28 72.36, 91.51 36.85, 112.65 2.52 M12.93 117.24 C33.99 88.62, 58.72 61.67, 112.65 2.52 M16.6 119.11 C54.71 78.89, 91.12 34.79, 117.63 2.88 M16.6 119.11 C54.3 75.84, 95.4 29.35, 117.63 2.88 M19.62 121.73 C51.04 89, 77.34 55.99, 123.28 2.49 M19.62 121.73 C54.06 78.96, 88.93 37.96, 123.28 2.49 M24.61 122.09 C65.15 81.45, 94.86 43.56, 128.26 2.85 M24.61 122.09 C50.59 90.49, 77.63 62.4, 128.26 2.85 M30.91 120.94 C61.98 90.82, 92.36 57.07, 133.91 2.45 M30.91 120.94 C61.54 82.46, 93.53 47.2, 133.91 2.45 M35.89 121.3 C70.73 83.09, 113.59 38.22, 138.89 2.81 M35.89 121.3 C59.18 98.55, 81.56 71.66, 138.89 2.81 M40.88 121.66 C72.98 78.91, 104.71 47.31, 144.54 2.42 M40.88 121.66 C84.94 77.75, 126.77 28.4, 144.54 2.42 M46.52 121.27 C73.27 90.19, 99.9 55.71, 149.52 2.78 M46.52 121.27 C78.8 87.69, 107.98 56.52, 149.52 2.78 M51.51 121.63 C95.59 77.42, 133.95 30.64, 155.17 2.38 M51.51 121.63 C71.91 95.57, 90.94 74.02, 155.17 2.38 M57.15 121.23 C98.04 80.79, 132.57 35.77, 160.15 2.74 M57.15 121.23 C93.15 82.97, 123.03 44.47, 160.15 2.74 M62.14 121.59 C85.88 95.04, 102.08 73.23, 165.8 2.35 M62.14 121.59 C86.04 97.11, 107.67 69.97, 165.8 2.35 M67.78 121.2 C96.46 95.95, 119.78 64.56, 170.78 2.71 M67.78 121.2 C93.74 91.73, 117.61 62.48, 170.78 2.71 M72.77 121.56 C92.57 93.72, 114.12 69.88, 176.43 2.31 M72.77 121.56 C103.93 89.63, 130.47 55.32, 176.43 2.31 M78.41 121.16 C105.65 87.97, 136.92 53.35, 181.41 2.67 M78.41 121.16 C104.59 94.7, 126.18 68.63, 181.41 2.67 M83.4 121.52 C123.57 77.81, 162.74 36.14, 187.06 2.28 M83.4 121.52 C109.97 87.74, 140.28 51.84, 187.06 2.28 M89.04 121.13 C132.11 76.3, 168.44 24.57, 192.04 2.64 M89.04 121.13 C123.25 81.88, 160.83 39.41, 192.04 2.64 M94.03 121.49 C122.72 84.38, 155.4 54.75, 197.69 2.24 M94.03 121.49 C124.63 85.73, 156.11 48.4, 197.69 2.24 M99.67 121.09 C134.83 86.13, 161.75 46.73, 202.67 2.6 M99.67 121.09 C127.41 84.03, 159.1 48.82, 202.67 2.6 M104.66 121.45 C141.26 77.7, 183.84 30.87, 208.32 2.21 M104.66 121.45 C137.89 84.61, 169.43 51.84, 208.32 2.21 M110.3 121.06 C138.69 86.96, 172.79 50.17, 213.3 2.57 M110.3 121.06 C138.84 85.94, 168.52 54.97, 213.3 2.57 M115.29 121.42 C140.9 82.85, 171.66 52.62, 218.95 2.18 M115.29 121.42 C147.98 81.34, 185.93 40.35, 218.95 2.18 M120.93 121.03 C156.27 82.38, 191.74 39.67, 223.93 2.54 M120.93 121.03 C153.86 81.49, 185.03 46.08, 223.93 2.54 M125.92 121.39 C152.49 91.98, 175.74 62.3, 229.58 2.14 M125.92 121.39 C146.52 99.65, 166.88 73.97, 229.58 2.14 M131.56 120.99 C158.17 95.22, 183.03 67.53, 234.56 2.5 M131.56 120.99 C163.77 85.77, 195.69 48.8, 234.56 2.5 M136.55 121.35 C166.59 86.14, 196.07 57.9, 239.55 2.86 M136.55 121.35 C158.71 95.09, 178.45 68.44, 239.55 2.86 M142.19 120.96 C176.83 82.99, 209.83 34.33, 245.19 2.47 M142.19 120.96 C168.51 91.05, 194.66 64.24, 245.19 2.47 M147.18 121.32 C170.08 88.63, 202.76 61.54, 250.18 2.83 M147.18 121.32 C180.36 78.41, 219.95 37.4, 250.18 2.83 M152.82 120.92 C187.26 82.44, 220.93 43.54, 255.82 2.43 M152.82 120.92 C186.73 79.53, 224.17 37.28, 255.82 2.43 M157.81 121.28 C184.11 84.58, 216.62 52.69, 260.81 2.79 M157.81 121.28 C196.23 74.96, 240 28.42, 260.81 2.79 M162.8 121.64 C195.74 80.98, 228.91 46.37, 266.45 2.4 M162.8 121.64 C196.21 82.27, 230.41 41.79, 266.45 2.4 M168.44 121.25 C187.6 101.33, 213.77 75.23, 271.44 2.76 M168.44 121.25 C202.05 82.15, 234.53 40.64, 271.44 2.76 M173.43 121.61 C201.29 96.67, 227.28 61.96, 277.08 2.36 M173.43 121.61 C212.16 78.99, 246.33 35.17, 277.08 2.36 M179.07 121.21 C213.31 79.92, 245.65 42.1, 282.07 2.72 M179.07 121.21 C213.45 76.87, 253.27 36.29, 282.07 2.72 M184.06 121.57 C222.59 82.67, 257.72 36.65, 287.71 2.33 M184.06 121.57 C209.47 95.66, 234.36 65.15, 287.71 2.33 M189.7 121.18 C226.11 79.29, 259.99 37.87, 292.7 2.69 M189.7 121.18 C223.13 82.68, 257.4 43.05, 292.7 2.69 M194.69 121.54 C233.41 75.52, 280.11 28.72, 298.34 2.29 M194.69 121.54 C222.13 87.44, 250.02 54.65, 298.34 2.29 M200.33 121.14 C243.27 76.16, 278.37 36.28, 303.33 2.65 M200.33 121.14 C226.2 90.65, 252.44 59.68, 303.33 2.65 M205.32 121.5 C238.02 85.61, 264.67 55.15, 308.97 2.26 M205.32 121.5 C229.1 94.66, 250.12 68.63, 308.97 2.26 M210.96 121.11 C249.11 81.45, 278.84 43.57, 313.96 2.62 M210.96 121.11 C232.03 95.46, 249.75 71.96, 313.96 2.62 M215.95 121.47 C235.2 99.96, 262.39 74.48, 319.6 2.23 M215.95 121.47 C246.42 83.01, 278.83 47.09, 319.6 2.23 M221.59 121.08 C259.45 71.54, 303.79 26.54, 324.59 2.59 M221.59 121.08 C246.02 95.03, 266.02 68.14, 324.59 2.59 M226.58 121.44 C259.1 86.55, 289.99 50.75, 330.23 2.19 M226.58 121.44 C267.87 75.4, 307.01 28.29, 330.23 2.19 M232.22 121.04 C254.38 93.28, 280.66 60.49, 335.22 2.55 M232.22 121.04 C274.35 74.63, 314.32 27.27, 335.22 2.55 M237.21 121.4 C268.13 89.68, 296.54 52.79, 340.87 2.16 M237.21 121.4 C263.67 91.92, 290.1 64.9, 340.87 2.16 M242.85 121.01 C275.38 87.13, 304.39 46, 345.85 2.52 M242.85 121.01 C259.97 93.71, 279.99 72.92, 345.85 2.52 M247.84 121.37 C284.55 79.95, 319.26 36.98, 350.84 2.88 M247.84 121.37 C274.91 90.5, 302.86 57.44, 350.84 2.88 M253.48 120.97 C283.61 83.6, 313.74 51.44, 356.48 2.48 M253.48 120.97 C289.89 77.32, 331.63 31.45, 356.48 2.48 M258.47 121.33 C297.06 74.74, 338.59 26.2, 361.47 2.84 M258.47 121.33 C295.69 81.77, 328.17 39.49, 361.47 2.84 M264.11 120.94 C286.53 94.05, 310.97 64.73, 368.42 0.94 M264.11 120.94 C282.8 94.99, 306.89 70.58, 368.42 0.94 M269.1 121.3 C299.26 85.81, 330.75 54.62, 373.41 1.3 M269.1 121.3 C293 97.22, 311.54 70.71, 373.41 1.3 M274.08 121.66 C299.71 87.15, 327.96 47.28, 377.74 2.41 M274.08 121.66 C304.68 91.42, 332.97 59.45, 377.74 2.41 M279.73 121.26 C307.98 90.53, 331.99 64.63, 382.73 2.77 M279.73 121.26 C307.04 92.2, 333.3 58, 382.73 2.77 M284.72 121.62 C312.62 92.97, 342.18 63.39, 385.75 5.4 M284.72 121.62 C312.21 90.64, 339.12 60.11, 385.75 5.4 M290.36 121.23 C314.26 91.13, 348.08 54.96, 388.77 8.02 M290.36 121.23 C327.29 78.07, 363.6 36.91, 388.77 8.02 M295.35 121.59 C327.14 83.59, 370.18 39.13, 391.79 10.65 M295.35 121.59 C316.21 97.77, 337.66 78.52, 391.79 10.65 M300.99 121.19 C332.69 76.91, 373.74 39.3, 394.8 13.27 M300.99 121.19 C326.17 88.19, 354.84 58.45, 394.8 13.27 M305.98 121.55 C327.61 95.23, 356.5 67.1, 396.51 17.4 M305.98 121.55 C326.82 97.96, 345.12 77.44, 396.51 17.4 M311.62 121.16 C332.64 100.04, 347.4 75.86, 398.22 21.54 M311.62 121.16 C346.81 84.22, 380.74 46.75, 398.22 21.54 M316.61 121.52 C343.42 91.32, 369.13 53.8, 399.92 25.67 M316.61 121.52 C341.03 89, 370.53 56.88, 399.92 25.67 M322.25 121.12 C345.03 94.61, 364.43 71.54, 400.32 31.31 M322.25 121.12 C346.18 88.63, 374.76 62.27, 400.32 31.31 M327.24 121.48 C348.71 104.1, 366.87 78.78, 400.06 37.71 M327.24 121.48 C348.68 96.99, 373.35 70.53, 400.06 37.71 M332.88 121.09 C343.33 105.99, 358.39 87.48, 400.45 43.36 M332.88 121.09 C352.39 103.46, 369.14 83.63, 400.45 43.36 M337.87 121.45 C357.49 98.7, 371.58 83.77, 400.19 49.75 M337.87 121.45 C351.62 106.69, 368.96 90.79, 400.19 49.75 M343.51 121.06 C355.51 107.02, 366.37 96.74, 400.59 55.4 M343.51 121.06 C360.67 98.25, 380.03 75.55, 400.59 55.4 M348.5 121.42 C356.87 108.2, 372.11 96.86, 400.32 61.79 M348.5 121.42 C363.75 105.67, 375.76 88.98, 400.32 61.79 M354.14 121.02 C361.84 106.46, 375.22 97.39, 400.72 67.44 M354.14 121.02 C365.6 107.62, 374.93 97.41, 400.72 67.44 M359.13 121.38 C371.94 106.7, 380.44 100.33, 400.46 73.83 M359.13 121.38 C371.76 107.55, 383.35 91.49, 400.46 73.83 M364.77 120.99 C371.46 114.99, 379.89 102.56, 400.2 80.23 M364.77 120.99 C373.76 110.63, 383.62 100.57, 400.2 80.23 M369.1 122.1 C376.52 117.03, 380.87 110.57, 400.59 85.88 M369.1 122.1 C380.83 106.16, 395.46 91.6, 400.59 85.88 M375.4 120.95 C383.46 115.94, 389.45 104.34, 400.33 92.27 M375.4 120.95 C384.43 110.86, 393.76 99.29, 400.33 92.27 M382.35 119.05 C391.13 110.6, 395.29 108.27, 398.76 100.18 M382.35 119.05 C384.19 116.57, 390.74 110.6, 398.76 100.18" stroke="#fa5252" stroke-width="0.5" fill="none"></path><path d="M30.25 0 M30.25 0 C130.56 -3.07, 235.67 -2.71, 367.75 0 M30.25 0 C122.94 3.29, 213.83 2.27, 367.75 0 M367.75 0 C388.63 -3.14, 397.32 7.08, 398 30.25 M367.75 0 C385.9 -3.25, 399.17 6.77, 398 30.25 M398 30.25 C395.85 49.91, 397.38 62.34, 398 90.75 M398 30.25 C397.96 52.11, 397.75 73.75, 398 90.75 M398 90.75 C401.52 110.69, 386.2 121.22, 367.75 121 M398 90.75 C397.5 111.87, 388.3 117.78, 367.75 121 M367.75 121 C270.11 116.18, 172.51 117.65, 30.25 121 M367.75 121 C288.36 125.36, 208.25 126.7, 30.25 121 M30.25 121 C10.75 123.28, -1.79 111.18, 0 90.75 M30.25 121 C13.3 117.15, 3.39 114.16, 0 90.75 M0 90.75 C-2.56 73.54, 1.65 56.73, 0 30.25 M0 90.75 C-1.26 72.88, -2.62 54.91, 0 30.25 M0 30.25 C2.77 8.38, 10.08 3.58, 30.25 0 M0 30.25 C-1.74 12.69, 10.56 -3.02, 30.25 0" stroke="#000000" stroke-width="1" fill="none"></path></g><g transform="translate(479.8463639625852 81.11313407735429) rotate(0 156.5 39)"><text x="156.5" y="18" font-family="Virgil, Segoe UI Emoji" font-size="20px" fill="#000000" text-anchor="middle" style="white-space: pre;" direction="ltr">Add intents </text><text x="156.5" y="44" font-family="Virgil, Segoe UI Emoji" font-size="20px" fill="#000000" text-anchor="middle" style="white-space: pre;" direction="ltr">and </text><text x="156.5" y="70" font-family="Virgil, Segoe UI Emoji" font-size="20px" fill="#000000" text-anchor="middle" style="white-space: pre;" direction="ltr">intent phrases to your chatbot</text></g><g stroke-linecap="round"><g transform="translate(325.8925818162611 117.50392698419614) rotate(0 52.242924028246534 -2.5408509086748836)"><path d="M-0.12 0.7 C18.22 -0.33, 90.77 -5.11, 108.11 -5.78 M-3.62 -1.38 C14.69 -2.13, 88.07 -3.36, 106.92 -3.11" stroke="#000000" stroke-width="1" fill="none"></path></g><g transform="translate(325.8925818162611 117.50392698419614) rotate(0 52.242924028246534 -2.5408509086748836)"><path d="M79.78 10.03 C82.73 1.64, 92.69 4.07, 108.09 -1.97 M80.65 5.47 C90.06 1.53, 98.83 1.01, 107.92 -3.97" stroke="#000000" stroke-width="1" fill="none"></path></g><g transform="translate(325.8925818162611 117.50392698419614) rotate(0 52.242924028246534 -2.5408509086748836)"><path d="M79.69 -10.49 C82.73 -14.14, 92.7 -6.98, 108.09 -1.97 M80.56 -15.05 C90.27 -11.95, 99.08 -5.42, 107.92 -3.97" stroke="#000000" stroke-width="1" fill="none"></path></g></g><g stroke-linecap="round" transform="translate(452.39963897024245 286.14554186430905) rotate(0 206.73689798485748 58.865859335095934)"><path d="M4.11 11.53 C4.11 11.53, 4.11 11.53, 4.11 11.53 M4.11 11.53 C4.11 11.53, 4.11 11.53, 4.11 11.53 M0.57 21.7 C4.68 20.39, 6.93 12.66, 13.69 6.6 M0.57 21.7 C6.22 15.38, 8.14 11.52, 13.69 6.6 M2.93 25.08 C11.37 15.95, 11.04 9.69, 20.65 4.7 M2.93 25.08 C11.07 17.91, 15.35 9, 20.65 4.7 M3.33 30.72 C15.24 21.23, 19.93 9.93, 29.57 0.53 M3.33 30.72 C11.17 20.9, 20.48 7.99, 29.57 0.53 M3.07 37.12 C12.72 29.16, 22.66 13.56, 35.21 0.14 M3.07 37.12 C13.77 25.65, 26.01 10.85, 35.21 0.14 M2.81 43.52 C16.83 31.14, 28.7 14.35, 40.2 0.5 M2.81 43.52 C13.14 30.42, 29.93 15.22, 40.2 0.5 M3.2 49.16 C10.54 39.78, 27.94 22.52, 45.84 0.1 M3.2 49.16 C17.9 31.44, 34 14.32, 45.84 0.1 M2.94 55.56 C18.35 40.97, 30.17 25.05, 50.83 0.46 M2.94 55.56 C18.1 40.68, 30.5 23.98, 50.83 0.46 M3.33 61.2 C16.46 45.95, 28.75 32.56, 56.48 0.07 M3.33 61.2 C23.1 36.92, 43.89 14.04, 56.48 0.07 M3.07 67.6 C15.97 50.17, 31.02 35.75, 61.46 0.43 M3.07 67.6 C14.59 52.81, 29.5 38.23, 61.46 0.43 M2.81 73.99 C20.05 59.81, 33.39 42.02, 67.11 0.03 M2.81 73.99 C24.82 47.08, 49.75 22.51, 67.11 0.03 M3.21 79.64 C21.36 66.66, 33.19 43.45, 72.09 0.39 M3.21 79.64 C19.77 63.37, 32.42 47.36, 72.09 0.39 M2.94 86.04 C22.14 56.98, 52.32 35.85, 77.74 0 M2.94 86.04 C21.16 69.52, 34.23 49.62, 77.74 0 M3.34 91.68 C28.05 62.56, 49.25 37.33, 82.72 0.36 M3.34 91.68 C21.15 71.23, 41.61 53.22, 82.72 0.36 M3.08 98.08 C21.48 78.31, 37.39 54.01, 88.37 -0.04 M3.08 98.08 C28.44 64.73, 58.3 36.51, 88.37 -0.04 M4.78 102.21 C27.95 76.55, 46.54 56.04, 93.35 0.32 M4.78 102.21 C24.67 75.98, 44.31 52.06, 93.35 0.32 M5.84 107.1 C37.59 64.95, 74.09 26.38, 99 -0.07 M5.84 107.1 C30.47 79.37, 52.48 50.19, 99 -0.07 M8.85 109.72 C32.94 85.56, 50.88 56.44, 103.98 0.29 M8.85 109.72 C41.04 71.01, 73.36 31.59, 103.98 0.29 M11.87 112.35 C46.07 69.23, 84.29 28.82, 108.97 0.65 M11.87 112.35 C33.41 86.35, 52.65 61.06, 108.97 0.65 M14.89 114.97 C42.55 84.67, 68.85 46.97, 114.61 0.26 M14.89 114.97 C41.56 83.33, 68.46 56.37, 114.61 0.26 M17.91 117.6 C44.63 88.52, 73.46 55.41, 119.6 0.62 M17.91 117.6 C56.58 73.58, 93.38 28.66, 119.6 0.62 M22.9 117.96 C51.29 83.74, 72.92 58.25, 125.24 0.22 M22.9 117.96 C65.39 73.43, 104.56 26.82, 125.24 0.22 M27.88 118.32 C61.43 79.46, 102.22 38.18, 130.23 0.58 M27.88 118.32 C69.35 71.46, 109.14 25.73, 130.23 0.58 M31.56 120.19 C73.07 71.81, 109.86 31.59, 135.87 0.19 M31.56 120.19 C68.25 77.25, 106.74 36.82, 135.87 0.19 M37.2 119.79 C76.75 78.33, 113.37 35.16, 140.86 0.55 M37.2 119.79 C59.34 93.42, 85.59 65.38, 140.86 0.55 M42.19 120.15 C71.68 89.67, 98.53 54.23, 146.5 0.15 M42.19 120.15 C73.51 82.64, 109.06 43.31, 146.5 0.15 M47.83 119.76 C81.63 75.25, 123.89 38.35, 151.49 0.51 M47.83 119.76 C84.45 81.18, 120.05 40.72, 151.49 0.51 M52.82 120.12 C81.29 89.09, 105.72 61.9, 157.13 0.12 M52.82 120.12 C70.58 95.27, 92.75 70.6, 157.13 0.12 M58.46 119.72 C78.59 93.96, 98.26 68.06, 162.12 0.48 M58.46 119.72 C99.17 75.44, 135.66 31.42, 162.12 0.48 M63.45 120.08 C107.15 75.13, 148.64 26.48, 167.76 0.08 M63.45 120.08 C94.03 86.65, 122.87 53.38, 167.76 0.08 M69.09 119.69 C96.05 87.46, 129.74 51.07, 172.75 0.44 M69.09 119.69 C105.09 74.53, 140.98 33.4, 172.75 0.44 M74.08 120.05 C115.2 73.66, 145.69 31.03, 178.39 0.05 M74.08 120.05 C94.53 96.26, 118.16 70, 178.39 0.05 M79.72 119.65 C116.64 79.77, 159.03 37.06, 183.38 0.41 M79.72 119.65 C117.75 78.3, 157.48 33.77, 183.38 0.41 M84.71 120.01 C119.58 80.66, 153.9 46.95, 189.02 0.01 M84.71 120.01 C125.25 75.13, 164.98 30.07, 189.02 0.01 M90.35 119.62 C127.4 76.4, 169.04 33.59, 194.01 0.37 M90.35 119.62 C121.04 87.8, 151.52 50.4, 194.01 0.37 M95.34 119.98 C127.25 80.9, 165.34 36.83, 199.65 -0.02 M95.34 119.98 C135.41 73.91, 174.46 26.48, 199.65 -0.02 M100.98 119.58 C130.21 94.78, 153.03 64.45, 204.64 0.34 M100.98 119.58 C142.24 70.32, 181.31 21.37, 204.64 0.34 M105.97 119.94 C133.91 93.95, 151.79 68.29, 210.28 -0.06 M105.97 119.94 C139.04 79.16, 170.83 43.75, 210.28 -0.06 M111.61 119.55 C148.8 73.98, 189.36 27.81, 215.27 0.3 M111.61 119.55 C151.35 74.79, 194.86 27.7, 215.27 0.3 M116.6 119.91 C150.45 83.86, 176.92 52.03, 220.26 0.66 M116.6 119.91 C149.48 85.31, 177.58 50.13, 220.26 0.66 M122.24 119.51 C146.88 88.4, 172.19 56.68, 225.9 0.27 M122.24 119.51 C161.94 75.37, 200.2 33.57, 225.9 0.27 M127.23 119.87 C159.44 88.88, 190.63 50.58, 230.89 0.63 M127.23 119.87 C162.1 77.66, 198.47 39.86, 230.89 0.63 M132.87 119.48 C156.26 90.21, 184.51 58.92, 236.53 0.24 M132.87 119.48 C159.72 88.44, 186.07 58.98, 236.53 0.24 M137.86 119.84 C158.22 92.1, 184.3 58.23, 241.52 0.6 M137.86 119.84 C168.77 81.74, 200.6 47.56, 241.52 0.6 M142.85 120.2 C172.12 83.76, 202.88 46.3, 247.16 0.2 M142.85 120.2 C179.91 72.22, 219.35 27.45, 247.16 0.2 M148.49 119.81 C187.36 83.86, 222.02 42.8, 252.15 0.56 M148.49 119.81 C179 83.05, 212.16 47.56, 252.15 0.56 M153.48 120.17 C179.44 89.29, 210.18 47.4, 257.79 0.17 M153.48 120.17 C180.84 85.38, 207.69 52.99, 257.79 0.17 M159.12 119.77 C197.38 77.91, 234.64 37.55, 262.78 0.53 M159.12 119.77 C194.62 78.18, 229.03 36.78, 262.78 0.53 M164.11 120.13 C203.84 76.02, 238.74 35.59, 268.42 0.13 M164.11 120.13 C193.64 85.59, 222.29 49.78, 268.42 0.13 M169.75 119.74 C210.6 75.55, 246.23 29.77, 273.41 0.49 M169.75 119.74 C194.98 91.94, 222.4 63.98, 273.41 0.49 M174.74 120.1 C211.76 78.51, 241.69 34.03, 279.05 0.1 M174.74 120.1 C212.31 71.86, 256.71 27.26, 279.05 0.1 M180.38 119.7 C219.84 74.24, 257.58 29.22, 284.04 0.46 M180.38 119.7 C212.38 84.49, 242.03 49.31, 284.04 0.46 M185.37 120.06 C206.97 91.08, 233.85 69.99, 289.68 0.06 M185.37 120.06 C223.24 80.54, 258.96 37.87, 289.68 0.06 M191.01 119.67 C216.44 90.08, 239.93 62.49, 294.67 0.42 M191.01 119.67 C224.75 79.65, 255.55 43.86, 294.67 0.42 M196 120.03 C237.76 73.12, 277.3 24.09, 300.31 0.03 M196 120.03 C233.85 78.08, 273.17 33.84, 300.31 0.03 M201.64 119.63 C225.98 91.81, 254.51 55.42, 305.3 0.39 M201.64 119.63 C229.46 85.2, 254.94 54.54, 305.3 0.39 M206.63 119.99 C245.41 72.12, 279.14 29.4, 310.94 -0.01 M206.63 119.99 C229.52 96.29, 250.59 70.46, 310.94 -0.01 M212.27 119.6 C239.06 86.8, 270.73 50.5, 315.93 0.35 M212.27 119.6 C244.44 84.54, 271.26 51.65, 315.93 0.35 M217.26 119.96 C249.4 88.78, 280.3 52.48, 321.57 -0.04 M217.26 119.96 C247.88 85.06, 278.74 50.77, 321.57 -0.04 M222.9 119.56 C267.81 75.17, 306.53 29.46, 326.56 0.32 M222.9 119.56 C252.09 84.45, 283.39 52.42, 326.56 0.32 M227.89 119.92 C271.32 79.77, 308.11 28.2, 332.2 -0.07 M227.89 119.92 C249.22 95.63, 275.19 68.86, 332.2 -0.07 M233.53 119.53 C265.37 82.97, 304.07 37.97, 337.19 0.29 M233.53 119.53 C264.15 83.8, 298.09 45.92, 337.19 0.29 M238.52 119.89 C268 91.16, 295.46 53.3, 342.18 0.65 M238.52 119.89 C262.74 89.19, 290.26 58.65, 342.18 0.65 M244.16 119.5 C267.13 89.45, 287.46 69.51, 347.82 0.25 M244.16 119.5 C266.35 96.65, 287.48 71.99, 347.82 0.25 M249.15 119.86 C290.24 72.32, 324.56 27.66, 352.81 0.61 M249.15 119.86 C287.24 76.3, 326.3 28.64, 352.81 0.61 M254.14 120.22 C292.04 73.1, 334.03 27.03, 358.45 0.22 M254.14 120.22 C282.91 86.15, 318.35 47.38, 358.45 0.22 M259.78 119.82 C290.31 90.51, 312.46 57.59, 363.44 0.58 M259.78 119.82 C294.1 85.17, 325.72 46.87, 363.44 0.58 M264.77 120.18 C305.41 75.11, 342.03 30.73, 369.08 0.18 M264.77 120.18 C287.79 96.37, 307.79 69.62, 369.08 0.18 M270.41 119.79 C288.21 92.82, 314.57 61.87, 374.07 0.54 M270.41 119.79 C297.61 94.09, 323.15 61.41, 374.07 0.54 M275.4 120.15 C311.15 76.58, 351.91 34.64, 379.71 0.15 M275.4 120.15 C311.17 77.84, 347.41 34.03, 379.71 0.15 M281.04 119.75 C317.93 79.82, 356.64 36.87, 384.7 0.51 M281.04 119.75 C310.55 82.87, 340.24 47.42, 384.7 0.51 M286.03 120.11 C315.85 83.6, 351.88 44.47, 389.68 0.87 M286.03 120.11 C310.71 87.44, 339.83 54.33, 389.68 0.87 M291.67 119.72 C320.93 83.43, 357.5 46.79, 394.01 1.98 M291.67 119.72 C324.2 81.56, 355 44.28, 394.01 1.98 M296.66 120.08 C323.13 91.97, 344.03 61.78, 398.34 3.1 M296.66 120.08 C328.88 82.68, 362.36 40.73, 398.34 3.1 M302.3 119.68 C332.85 85.87, 361.74 58.46, 401.36 5.72 M302.3 119.68 C321.83 96.79, 343.35 69, 401.36 5.72 M307.29 120.04 C341.17 83.89, 368.98 46.12, 404.38 8.35 M307.29 120.04 C340.95 80.49, 374.51 42.71, 404.38 8.35 M312.93 119.65 C337.46 87.92, 369.21 53.01, 408.06 10.22 M312.93 119.65 C343.47 90.46, 369.47 56.79, 408.06 10.22 M317.92 120.01 C338.94 95.02, 362.31 68.15, 411.08 12.84 M317.92 120.01 C344.4 90.5, 367.34 62.94, 411.08 12.84 M323.56 119.61 C341.91 95.4, 364.44 72.61, 412.78 16.97 M323.56 119.61 C349.08 92.1, 374.26 61.96, 412.78 16.97 M328.55 119.97 C356.17 80.71, 387.3 42.6, 413.18 22.62 M328.55 119.97 C361.61 82.7, 394.76 45.3, 413.18 22.62 M334.19 119.58 C350.47 101.52, 366.69 82.25, 412.92 29.01 M334.19 119.58 C357.62 95.1, 375.93 70.96, 412.92 29.01 M339.18 119.94 C366.53 85.5, 400.55 48.03, 413.31 34.66 M339.18 119.94 C366.45 87.05, 392.32 56.56, 413.31 34.66 M344.82 119.54 C371.07 93.74, 391.57 65.88, 413.05 41.05 M344.82 119.54 C356.86 102.15, 373.8 84.94, 413.05 41.05 M349.81 119.9 C371.21 93.58, 391.99 67.46, 413.44 46.7 M349.81 119.9 C366.29 98.82, 384.27 79.65, 413.44 46.7 M355.45 119.51 C372.02 103.84, 383.6 87.07, 413.18 53.1 M355.45 119.51 C369.41 102.37, 382.55 85.46, 413.18 53.1 M360.44 119.87 C377.67 101.09, 401.13 76.34, 413.58 58.74 M360.44 119.87 C373.69 104.21, 386.12 89.81, 413.58 58.74 M366.08 119.48 C376.69 100.37, 392.46 88.88, 413.32 65.14 M366.08 119.48 C385.16 98.92, 399.44 78.6, 413.32 65.14 M371.07 119.84 C382.05 109.78, 395.77 94.31, 413.71 70.78 M371.07 119.84 C381.04 107.13, 393.22 94.24, 413.71 70.78 M376.05 120.2 C384.49 109.26, 392.83 96.26, 413.45 77.18 M376.05 120.2 C385.45 109.69, 396.32 95.22, 413.45 77.18 M381.7 119.8 C385.72 108.82, 396.98 102.24, 413.84 82.82 M381.7 119.8 C387.98 108.71, 397.34 100.58, 413.84 82.82 M386.68 120.16 C393.76 112.16, 401.2 100.54, 414.24 88.46 M386.68 120.16 C394.8 111.01, 401.59 103.9, 414.24 88.46 M393.64 118.26 C399.9 112.29, 406.7 103.99, 412.66 96.37 M393.64 118.26 C399.25 112.61, 402.86 106.04, 412.66 96.37" stroke="#228be6" stroke-width="0.5" fill="none"></path><path d="M29.43 0 M29.43 0 C108.65 2.88, 187.11 0.99, 384.04 0 M29.43 0 C165.3 -2.5, 302.12 -2.08, 384.04 0 M384.04 0 C401.28 -0.99, 415.35 11.85, 413.47 29.43 M384.04 0 C402.38 4.05, 411.97 12.12, 413.47 29.43 M413.47 29.43 C411.7 52.15, 414.44 71.03, 413.47 88.3 M413.47 29.43 C411.54 42.43, 412.36 55.81, 413.47 88.3 M413.47 88.3 C411.67 107.4, 407.08 114.46, 384.04 117.73 M413.47 88.3 C415.92 106.37, 400.06 118.87, 384.04 117.73 M384.04 117.73 C246.03 118.14, 102.66 118.58, 29.43 117.73 M384.04 117.73 C243.91 116.84, 106.3 115.93, 29.43 117.73 M29.43 117.73 C11.87 114.05, -1.49 104.69, 0 88.3 M29.43 117.73 C12.31 117.35, -0.01 103.39, 0 88.3 M0 88.3 C0.39 72.49, 0.82 65.06, 0 29.43 M0 88.3 C0.61 70.73, -0.75 56, 0 29.43 M0 29.43 C-3.36 12.4, 12.56 -0.76, 29.43 0 M0 29.43 C-2.96 13.31, 14.26 2.85, 29.43 0" stroke="#000000" stroke-width="1" fill="none"></path></g><g transform="translate(496.3633650880811 313.87783808940867) rotate(0 151 26)"><text x="151" y="18" font-family="Virgil, Segoe UI Emoji" font-size="20px" fill="#000000" text-anchor="middle" style="white-space: pre;" direction="ltr"> Add flow telling the bot </text><text x="151" y="44" font-family="Virgil, Segoe UI Emoji" font-size="20px" fill="#000000" text-anchor="middle" style="white-space: pre;" direction="ltr">how to respond to the intents</text></g><g stroke-linecap="round"><g transform="translate(628.2808808371428 177.77862491145902) rotate(0 0.8024564809775256 52.83885618385466)"><path d="M1.87 -1.9 C2.24 15.21, 2.22 86.46, 2.05 104.56 M-0.56 3.24 C-0.3 20.55, 1.19 91.17, 1.25 107.58" stroke="#000000" stroke-width="1" fill="none"></path></g><g transform="translate(628.2808808371428 177.77862491145902) rotate(0 0.8024564809775256 52.83885618385466)"><path d="M-12.11 83.33 C-7.5 89.66, -1.33 98.85, -1.66 105.66 M-9.61 81.5 C-4.25 91.02, -1.46 100.36, -0.33 107.14" stroke="#000000" stroke-width="1" fill="none"></path></g><g transform="translate(628.2808808371428 177.77862491145902) rotate(0 0.8024564809775256 52.83885618385466)"><path d="M8.41 83.04 C7 89.73, 7.16 99.01, -1.66 105.66 M10.91 81.22 C9.01 90.68, 4.53 100.12, -0.33 107.14" stroke="#000000" stroke-width="1" fill="none"></path></g></g><g stroke-linecap="round" transform="translate(60.85255224835055 269.84301701081085) rotate(0 120.51029800626384 77.95509902280207)"><path d="M5.41 15.3 C5.41 15.3, 5.41 15.3, 5.41 15.3 M5.41 15.3 C5.41 15.3, 5.41 15.3, 5.41 15.3 M1.87 25.48 C7.89 18.13, 16.99 11.18, 17.62 7.36 M1.87 25.48 C6.37 18.82, 12.23 12.12, 17.62 7.36 M2.27 31.12 C14.12 25.07, 20.08 11.64, 23.92 6.21 M2.27 31.12 C8.5 23.88, 16.14 15.36, 23.92 6.21 M2 37.52 C9.53 29.32, 13.31 24.58, 30.87 4.31 M2 37.52 C11.46 23.97, 21.46 14.92, 30.87 4.31 M2.4 43.16 C13.65 22.68, 26.38 12.17, 39.79 0.14 M2.4 43.16 C11.17 31.48, 22.43 19.36, 39.79 0.14 M2.14 49.56 C17.54 28.76, 35.21 11.96, 44.78 0.5 M2.14 49.56 C16.92 29.64, 32.39 12.57, 44.78 0.5 M1.88 55.96 C13.98 37.93, 26.3 30.68, 50.42 0.11 M1.88 55.96 C16.12 41.08, 27.23 26.2, 50.42 0.11 M2.27 61.6 C16.78 45.85, 31.95 28.74, 55.41 0.47 M2.27 61.6 C19.91 40.33, 40.26 22.64, 55.41 0.47 M2.01 68 C22.16 50.19, 40.2 26.59, 60.4 0.83 M2.01 68 C16.47 51.45, 34.87 33.99, 60.4 0.83 M2.4 73.64 C15 60.14, 30.2 37.11, 66.04 0.43 M2.4 73.64 C17.91 55.21, 33.05 35.91, 66.04 0.43 M2.14 80.04 C15.89 60.16, 28.13 47.96, 71.03 0.79 M2.14 80.04 C25.24 50.47, 54.47 19.15, 71.03 0.79 M1.88 86.44 C25.57 59.09, 55.23 30.94, 76.67 0.4 M1.88 86.44 C21.06 66.42, 37.64 45.03, 76.67 0.4 M2.27 92.08 C14.12 73.11, 32.94 53.7, 81.66 0.76 M2.27 92.08 C21.44 64.98, 45.36 41.83, 81.66 0.76 M2.01 98.48 C32.05 65, 58.29 31.07, 87.3 0.36 M2.01 98.48 C30.57 65.41, 61.76 28.11, 87.3 0.36 M2.41 104.12 C30.77 69.37, 58.81 36.58, 92.29 0.72 M2.41 104.12 C29.12 79.15, 50.43 50.77, 92.29 0.72 M2.15 110.52 C32.34 80.75, 58.93 45.43, 97.93 0.33 M2.15 110.52 C32.77 74.85, 66.2 34.86, 97.93 0.33 M1.89 116.91 C34.47 87.44, 59.03 49.3, 102.92 0.69 M1.89 116.91 C35.81 76.31, 72.47 39.91, 102.92 0.69 M2.28 122.56 C44.03 73.75, 80.75 28.45, 108.56 0.29 M2.28 122.56 C30.55 88.79, 56.46 58.18, 108.56 0.29 M2.67 128.2 C35.15 102.07, 60.12 67.78, 113.55 0.65 M2.67 128.2 C33.72 91.7, 66.33 54.94, 113.55 0.65 M4.38 132.33 C39.98 90.83, 79.36 44.12, 119.19 0.26 M4.38 132.33 C41.96 89.84, 76.92 50.2, 119.19 0.26 M6.09 136.47 C36.32 103.26, 67.92 66.08, 124.18 0.62 M6.09 136.47 C35.92 101.68, 67.48 66.38, 124.18 0.62 M6.48 142.11 C43.6 96.84, 83.17 52.94, 129.82 0.23 M6.48 142.11 C52.26 90.66, 97.69 37.92, 129.82 0.23 M9.5 144.74 C46.86 104.63, 70.52 68.17, 134.81 0.59 M9.5 144.74 C53.76 89.71, 101.73 34.62, 134.81 0.59 M12.52 147.36 C46.83 105.42, 84.08 65.28, 140.45 0.19 M12.52 147.36 C42.98 113.47, 71.88 78.57, 140.45 0.19 M15.54 149.98 C58.38 95.36, 104.69 50.24, 145.44 0.55 M15.54 149.98 C52.67 104.37, 91.96 59.56, 145.44 0.55 M17.9 153.36 C42.31 123.24, 73.69 84.52, 151.08 0.16 M17.9 153.36 C56.11 110.48, 91.66 69.63, 151.08 0.16 M22.89 153.72 C72.1 93.76, 119.09 42.21, 156.07 0.52 M22.89 153.72 C64.49 106.92, 105.51 60.11, 156.07 0.52 M27.22 154.84 C69.95 114.11, 109.66 64.49, 161.71 0.12 M27.22 154.84 C65.26 110.51, 100.38 68.39, 161.71 0.12 M31.55 155.95 C58.55 127.74, 88.94 97.28, 166.7 0.48 M31.55 155.95 C84.45 98.91, 134.58 39.68, 166.7 0.48 M35.88 157.07 C79.03 105.32, 127.92 51.98, 172.34 0.09 M35.88 157.07 C65.05 123.18, 97.01 89.71, 172.34 0.09 M40.87 157.43 C92 97.48, 144.92 36.7, 177.33 0.45 M40.87 157.43 C81.13 106.81, 123.72 61.96, 177.33 0.45 M45.86 157.79 C87.58 108.41, 129.15 58.09, 182.32 0.81 M45.86 157.79 C91.93 98.09, 143.27 44.43, 182.32 0.81 M51.5 157.39 C100.61 106.06, 143.74 56.96, 187.96 0.41 M51.5 157.39 C102.41 94.96, 152.72 37.35, 187.96 0.41 M56.49 157.75 C97.21 108.28, 134.17 64.83, 192.95 0.77 M56.49 157.75 C96.95 111.06, 137.92 67.14, 192.95 0.77 M62.13 157.36 C106.41 112.56, 144.62 63.9, 198.59 0.38 M62.13 157.36 C114.47 103.4, 162.82 45.46, 198.59 0.38 M67.12 157.72 C99.44 117.56, 138.91 76.28, 203.58 0.74 M67.12 157.72 C107.35 110.38, 146.87 63.95, 203.58 0.74 M72.76 157.32 C104.11 119.65, 130.63 90.16, 207.91 1.85 M72.76 157.32 C109.88 116.18, 143.3 74.93, 207.91 1.85 M77.75 157.68 C122.62 104.24, 160.74 59.04, 212.24 2.97 M77.75 157.68 C129.94 100.55, 183.59 41.24, 212.24 2.97 M83.39 157.29 C113.86 115.71, 151.9 79.87, 216.57 4.08 M83.39 157.29 C130.11 102.12, 176.87 50.18, 216.57 4.08 M88.38 157.65 C122.62 121.8, 161.46 81.41, 220.9 5.2 M88.38 157.65 C126.52 119.74, 159.22 78.04, 220.9 5.2 M94.02 157.26 C131.24 113.89, 171.59 77.08, 225.89 5.56 M94.02 157.26 C146.94 100.38, 194.06 44.05, 225.89 5.56 M99.01 157.62 C151.03 94.68, 200.09 36.11, 228.91 8.18 M99.01 157.62 C127.89 123.78, 155.24 94.35, 228.91 8.18 M104.65 157.22 C156.86 104.7, 203.77 45.71, 231.27 11.56 M104.65 157.22 C148.26 108.21, 187.56 62.26, 231.27 11.56 M109.64 157.58 C160.99 107.93, 201.25 53.9, 234.29 14.19 M109.64 157.58 C150.37 112.25, 190.37 64.88, 234.29 14.19 M115.28 157.19 C158.12 108.51, 201.15 57.79, 237.31 16.81 M115.28 157.19 C155.25 116.03, 192.13 74.59, 237.31 16.81 M120.27 157.55 C157.28 119.53, 188.47 83.48, 239.01 20.94 M120.27 157.55 C159.34 116.15, 197.48 72.86, 239.01 20.94 M125.91 157.15 C167.98 107.13, 206.48 62.26, 240.06 25.83 M125.91 157.15 C151.71 130.78, 175.23 104.16, 240.06 25.83 M130.9 157.51 C155.66 129.16, 178.24 101.96, 241.11 30.72 M130.9 157.51 C164.69 119.21, 197.68 78.25, 241.11 30.72 M135.88 157.87 C177.63 106.69, 224.23 64.87, 241.51 36.36 M135.88 157.87 C164.65 125.26, 190.88 95.08, 241.51 36.36 M141.53 157.48 C169.63 126.21, 203.46 88.82, 241.25 42.76 M141.53 157.48 C166.52 127.93, 191.72 98.41, 241.25 42.76 M146.51 157.84 C175.75 124.95, 208.86 90.22, 241.64 48.4 M146.51 157.84 C178.27 124.44, 204.84 88.02, 241.64 48.4 M152.16 157.44 C174.47 130.11, 195.81 107.36, 241.38 54.8 M152.16 157.44 C180.44 124.15, 208.22 93.62, 241.38 54.8 M157.14 157.8 C170.3 142.27, 193.97 119.5, 241.78 60.45 M157.14 157.8 C183.06 128.39, 206.96 98.47, 241.78 60.45 M162.79 157.41 C196.25 122.43, 224.1 86.94, 241.51 66.84 M162.79 157.41 C182.74 134.36, 202.93 112.73, 241.51 66.84 M167.77 157.77 C190.96 138.41, 206.05 112.18, 241.25 73.24 M167.77 157.77 C197.23 122.71, 225.07 90.58, 241.25 73.24 M173.42 157.37 C187.18 137.54, 201.13 118.8, 241.65 78.88 M173.42 157.37 C192.48 137.25, 209.72 119.08, 241.65 78.88 M178.4 157.73 C201.18 138.4, 218.36 114.2, 241.39 85.28 M178.4 157.73 C195.13 139.34, 211.13 120.4, 241.39 85.28 M184.05 157.34 C208.88 129.61, 228.67 106.09, 241.78 90.92 M184.05 157.34 C200.28 139.47, 216.63 116.73, 241.78 90.92 M189.03 157.7 C199.84 142.19, 218.44 124.35, 241.52 97.32 M189.03 157.7 C200.33 143.96, 212.47 132.81, 241.52 97.32 M194.68 157.3 C215.35 134.74, 225.58 120.24, 241.91 102.97 M194.68 157.3 C204.01 145.71, 214.62 132.91, 241.91 102.97 M199.66 157.66 C212.84 145.05, 216.91 139.83, 241.65 109.36 M199.66 157.66 C211.28 146.94, 220.18 132.1, 241.65 109.36 M204.65 158.03 C220.9 146.14, 228.93 125.27, 242.05 115.01 M204.65 158.03 C212.06 147.19, 222.54 136.95, 242.05 115.01 M210.95 156.88 C223.91 144, 233.55 132.65, 243.75 119.14 M210.95 156.88 C225.6 140.72, 238.17 126.87, 243.75 119.14 M217.91 154.97 C226.78 147.15, 236.21 136.36, 241.52 127.8 M217.91 154.97 C223.06 148.19, 227.97 143.54, 241.52 127.8" stroke="#12b886" stroke-width="0.5" fill="none"></path><path d="M38.98 0 M38.98 0 C80.73 0.19, 116.3 -0.22, 202.04 0 M38.98 0 C100.62 2.88, 164.28 1.38, 202.04 0 M202.04 0 C231.55 -1.31, 243.03 14.36, 241.02 38.98 M202.04 0 C226.98 4.48, 239.29 16.49, 241.02 38.98 M241.02 38.98 C240.35 62.66, 238.94 90.9, 241.02 116.93 M241.02 38.98 C241.32 61.51, 239.95 81.7, 241.02 116.93 M241.02 116.93 C239.68 139.78, 229.02 159.76, 202.04 155.91 M241.02 116.93 C237.41 142.72, 232.54 156.99, 202.04 155.91 M202.04 155.91 C152.69 157.33, 104.52 161.7, 38.98 155.91 M202.04 155.91 C150.08 156.84, 100.19 158.68, 38.98 155.91 M38.98 155.91 C12.66 155.9, -3.94 139.1, 0 116.93 M38.98 155.91 C9.25 159.5, -0.65 138.58, 0 116.93 M0 116.93 C-1.27 91.59, 0.33 67.7, 0 38.98 M0 116.93 C1.42 98.92, -0.26 76.88, 0 38.98 M0 38.98 C3.05 16.86, 15.47 -1.8, 38.98 0 M0 38.98 C0.17 13.34, 12.92 0.83, 38.98 0" stroke="#000000" stroke-width="1" fill="none"></path></g><g transform="translate(81.60966089207477 315.82584047616865) rotate(0 99 26)"><text x="99" y="18" font-family="Virgil, Segoe UI Emoji" font-size="20px" fill="#000000" text-anchor="middle" style="white-space: pre;" direction="ltr">Test your chatbot </text><text x="99" y="44" font-family="Virgil, Segoe UI Emoji" font-size="20px" fill="#000000" text-anchor="middle" style="white-space: pre;" direction="ltr">on the playground</text></g><g stroke-linecap="round"><g transform="translate(452.08211566635146 347.6649263787974) rotate(0 -76.65246773124431 -1.530532981001329)"><path d="M1.7 -0.46 C-24.55 -0.78, -129.4 -3.08, -155 -3.4 M-0.83 -3.18 C-26.42 -2.88, -124.38 0.95, -149.78 0.26" stroke="#000000" stroke-width="1" fill="none"></path></g><g transform="translate(452.08211566635146 347.6649263787974) rotate(0 -76.65246773124431 -1.530532981001329)"><path d="M-122.34 -13.38 C-132.59 -4.53, -142.03 -1.03, -152.32 2.01 M-119.78 -11.43 C-131.19 -7.84, -142.16 -2.36, -148.32 2.03" stroke="#000000" stroke-width="1" fill="none"></path></g><g transform="translate(452.08211566635146 347.6649263787974) rotate(0 -76.65246773124431 -1.530532981001329)"><path d="M-122.14 7.14 C-132.25 8.04, -141.77 3.59, -152.32 2.01 M-119.58 9.09 C-130.99 5.91, -142.03 4.63, -148.32 2.03" stroke="#000000" stroke-width="1" fill="none"></path></g></g><g stroke-linecap="round" transform="translate(10 10) rotate(0 453.06016461346144 235.3814748136507)"><path d="M117.69 0 M117.69 0 C334.28 -1.15, 547.9 -0.44, 788.43 0 M117.69 0 C336.7 0.35, 557.08 -0.5, 788.43 0 M788.43 0 C869.45 -0.41, 904.94 42.84, 906.12 117.69 M788.43 0 C866.22 0.84, 909.8 39.67, 906.12 117.69 M906.12 117.69 C906.42 204.16, 906.12 293.9, 906.12 353.07 M906.12 117.69 C905.75 189, 906.04 261.94, 906.12 353.07 M906.12 353.07 C905.4 434.09, 867 472.25, 788.43 470.76 M906.12 353.07 C908.34 434.08, 870.35 470.8, 788.43 470.76 M788.43 470.76 C626.41 474.96, 460.05 474.44, 117.69 470.76 M788.43 470.76 C536.41 474.88, 285.23 474.47, 117.69 470.76 M117.69 470.76 C38.29 469.51, -0.09 429.53, 0 353.07 M117.69 470.76 C37.75 470.61, -0.83 428.54, 0 353.07 M0 353.07 C0.9 281.4, 0.35 213.79, 0 117.69 M0 353.07 C-3.07 265.58, -0.58 175.9, 0 117.69 M0 117.69 C3.46 37.35, 39.29 -2.34, 117.69 0 M0 117.69 C-0.88 38.5, 35.21 2.24, 117.69 0" stroke="#000000" stroke-width="1" fill="none"></path></g></svg>