<?xml version='1.0' encoding='utf-8'?>
<svg xmlns="http://www.w3.org/2000/svg" width="341.7mm" height="195.95mm" version="1.1" viewBox="0 0 1210.7528 694.32323">
 <defs>
  <clipPath id="f">
   <circle cx="426.28" cy="230.1" r="141.42" fill="#fff"/>
  </clipPath>
  <clipPath id="g">
   <circle cx="289.31" cy="192.45" r="102.14" fill="#fff"/>
  </clipPath>
  <clipPath id="b">
   <circle cx="426.28" cy="230.1" r="141.42" fill="#fff"/>
  </clipPath>
  <filter id="a" color-interpolation-filters="sRGB">
   <feGaussianBlur result="blur" stdDeviation="5.3 6.5"/>
  </filter>
  <filter id="h" color-interpolation-filters="sRGB">
   <feGaussianBlur result="blur" stdDeviation="5.3 4.8"/>
  </filter>
 </defs>
 <g transform="translate(549.28 -9.5655)">
  <rect x="-549.28" y="9.5655" width="1210.8" height="694.32" fill="#fff"/>
  <rect transform="matrix(1.4236 0 0 1.4997 -280.22 -4.7797)" x="396.98" y="52.15" width="209.1" height="380.53" fill="#80cbc4" fill-rule="evenodd" filter="url(#a)"/>
  <rect transform="matrix(1.4236 0 0 1.4997 -280.22 -4.7797)" x="120.18" y="52.15" width="209.1" height="380.53" fill="#80cbc4" fill-rule="evenodd" filter="url(#a)"/>
  <rect transform="matrix(1.4236 0 0 1.4997 -280.22 -4.7797)" x="-153.53" y="52.15" width="209.1" height="380.53" fill="#80cbc4" fill-rule="evenodd" filter="url(#a)"/>
  <g transform="matrix(1.4236 0 0 1.4997 899.33 -237.97)">
   <rect x="-977.97" y="200.65" width="209.1" height="380.53" fill="#fff" fill-rule="evenodd"/>
   <rect x="-977.97" y="200.65" width="209.1" height="69.868" fill="#009688" fill-rule="evenodd"/>
   <rect x="-977.97" y="200.65" width="209.1" height="11.056" fill="#00796b" fill-rule="evenodd"/>
   <rect x="-977.97" y="257" width="209.1" height="19.748" fill="#00897b" fill-rule="evenodd"/>
   <rect x="-977.97" y="256.16" width="209.1" height="16.972" fill="#4db6ac" fill-rule="evenodd"/>
   <rect x="-977.97" y="257" width="209.1" height="18.133" fill="#009688" fill-rule="evenodd"/>
   <rect x="-914.61" y="272.48" width="78.452" height="2.5201" fill="#fff" fill-rule="evenodd"/>
   <g transform="translate(-342.86)" fill="#fff">
    <rect x="-442.68" y="203.38" width="2.4273" height="6.4377"/>
    <rect x="-446" y="204.84" width="2.4273" height="4.9825"/>
    <rect x="-449.32" y="206.1" width="2.4273" height="3.7139"/>
    <rect x="-452.57" y="207.45" width="2.4273" height="2.3706"/>
   </g>
   <g transform="translate(-342.86)">
    <path transform="matrix(-.62389 -.78152 .62389 -.78152 0 0)" d="m240.55-502.58a6.7621 6.7621 0 0 1 -6.762 6.762v-6.762z" fill="#f2f2f2"/>
    <path transform="matrix(-.62389 -.78152 .62389 -.78152 0 0)" d="m239.02-502.59a5.2197 5.2197 0 0 1 -5.2197 5.2197v-5.2197z" fill="#fff"/>
   </g>
   <g transform="translate(-342.86)" fill="#fff">
    <rect x="-436.88" y="203.03" width="4.2411" height="6.6964"/>
    <rect x="-435.83" y="202.27" width="2.1429" height="1.1607"/>
   </g>
   <path d="m-827.65 222.21c-2.1704 0-3.9299 1.7596-3.9299 3.9299s1.7596 3.9299 3.9299 3.9299c0.84875 0 1.634-0.26995 2.2763-0.72739l2.1868 2.1868c0.20461 0.20463 0.53647 0.20463 0.74093 0l0.18549-0.18524c0.20177-0.20304 0.20158-0.53582-4e-3 -0.74019v-2.5e-4l-2.187-2.1871c0.45849-0.64319 0.7284-1.4277 0.7284-2.2766 0-2.1704-1.7596-3.9299-3.9299-3.9299zm0 1.0485a2.8819 2.8819 0 0 1 2.882 2.882 2.8819 2.8819 0 0 1 -2.882 2.882 2.8819 2.8819 0 0 1 -2.8817 -2.882 2.8819 2.8819 0 0 1 2.8817 -2.882z" fill="#fff"/>
   <rect x="-970" y="223.08" width="54.286" height="11.429" ry="1.2627" fill="#fff"/>
   <ellipse cx="-777.01" cy="223.66" rx="1.3857" ry="1.3574" fill="#fff"/>
   <ellipse cx="-777.01" cy="227.19" rx="1.3857" ry="1.3574" fill="#fff"/>
   <ellipse cx="-777.01" cy="230.82" rx="1.3857" ry="1.3574" fill="#fff"/>
   <g transform="translate(-342.86)" fill="#fff">
    <rect x="-464.82" y="222.9" width="12.277" height="9.2176" ry="1.2627"/>
    <path d="m-457.69 222.91h8.3661l-6.1875 5.2717z" fill-rule="evenodd"/>
   </g>
   <rect x="-805.89" y="225.17" width="8.681" height="1.5784" ry=".34724" fill="#eee"/>
   <rect x="-805.89" y="227.92" width="8.681" height="1.5784" ry=".34724" fill="#eee"/>
   <rect x="-974.2" y="261.92" width="48.235" height="8.0812" ry="1.1607" fill="#80cbc4"/>
   <rect x="-899.92" y="261.92" width="48.235" height="8.0812" ry="1.1607" fill="#80cbc4"/>
   <rect x="-825.8" y="261.92" width="48.235" height="8.0812" ry="1.1607" fill="#80cbc4"/>
   <rect x="-928.47" y="323.61" width="159.6" height="3.4659" fill="#1de9b6" fill-rule="evenodd"/>
   <rect x="-928.47" y="371.85" width="159.6" height="3.4659" fill="#1de9b6" fill-rule="evenodd"/>
   <rect x="-928.47" y="420.48" width="159.6" height="3.4659" fill="#1de9b6" fill-rule="evenodd"/>
   <rect x="-928.47" y="468.34" width="159.6" height="3.4659" fill="#1de9b6" fill-rule="evenodd"/>
   <rect x="-928.47" y="516.97" width="159.6" height="3.4659" fill="#1de9b6" fill-rule="evenodd"/>
   <rect x="-928.47" y="564.45" width="159.6" height="3.4659" fill="#1de9b6" fill-rule="evenodd"/>
   <g transform="matrix(.045025 0 0 .045025 -962 291.88)" fill="#f06292" fill-rule="evenodd" stroke-width=".5">
    <path d="m260.86 433.97v-9l0.3-0.2 0.2-0.3 24.5-1.5q24.5-1.5 48-7.5t46-16 40-21.5 31.7-24.2q14.3-12.8 25.3-26.3t20-29.5 11.7-22.2q2.8-6.3 16.8-2.3t31.2 11.7q17.3 7.8 30.8 16.8t20.5 16.5 6.5 11-10.5 19.5-25.3 35.2q-15.2 19.3-25.7 31.6-10.5 12.2-12.7 13.7-2.3 1.5-2.6 2.5-0.2 1-17.2 15.2-17 14.3-33 24.3t-32 16.5-28.5 9.5-21 4-28 0.5-37-4-33-9.5-24.5-12.5-14.2-14.8q-5.3-8.2-6.8-13.2t-1.5-14z" stroke="#b4d881"/>
    <path d="m183.86 422.47 21.5 1 0.2 0.3 0.3 0.2v9q0 9-2 15.5t-6.7 13.3q-4.8 6.7-13 13-8.3 6.2-24 12.4-15.8 6.3-32.8 9.8t-43.5 3.5-43.5-4-32-10.5-29.5-15.5-33.5-25.3q-19-16.2-28.8-27.2-9.7-11-27.2-33t-27-37.5-10-19 1-5.5 11.2-10.8q9.8-8.7 26.8-18.2t36-16.5 24-7.5 5.8 1.2q0.7 1.8 8.2 16.8t18.2 30.5q10.8 15.5 11.8 15.5t1.2 1q0.3 1 10.6 10.8 10.2 9.7 23.7 20.2t30.5 20 37 17.5 42 13 43.5 6z" stroke="#b3d880"/>
    <path d="m370.36 276.97-1 0.5-0.2 0.3-0.3 0.2-0.3 0.2-0.2 0.3-1 0.5-1 0.5-0.2 0.3-0.3 0.2-0.3 0.2-0.2 0.3-1 0.3-1 0.2 0.2-1.5 0.3-1.5 0.5-1.5 0.5-1.5 4.5-16q4.5-16 5.5-25t0.5-26-4.5-34.5-5.5-22.5 17.8-12.8q19.2-7.7 46.2-14.7t48.5-9.5 24.7 9.2q3.3 11.8 5.3 26.8t1.5 37-4 39-4.8 19.8q-1.2 2.7-21.7 1.7t-36.5 1.5-31.8 8.2q-15.7 5.8-27.4 12.6-11.8 6.7-12.8 7.2z" stroke="#b3d881"/>
    <path d="m102.36 273.47 0.5 1.5 0.5 1.5 0.5 1.5v3l-0.3-0.2-0.2-0.3-1-0.5-1-0.5-1-0.5-1-0.5-0.2-0.3-0.3-0.2-0.3-0.2-0.2-0.3-16.5-9q-16.5-9-34-14.5t-24.5-6.5-31.8-0.7q-24.7 0.2-28.7-15.3t-5-24.5-0.5-31 4.5-42.5 4.7-21.7q0.8-1.3 21.3 1.2t46.5 9 48 14.8q22 8.2 16.8 28.2-5.3 20-6.3 36.5t1.5 35 5 27 3 10z" stroke="#b3d880"/>
    <g transform="translate(-165.64 -83.029)" stroke="#b4d881">
     <path d="m503.5 218.5v1.5l-0.3 0.2q-0.2 0.3-3.2 1.8t-17 10.5-26.8 20.3q-12.7 11.2-25 27-12.2 15.7-20.4 31.4l-8.3 15.8-0.5 1-0.5 1-0.5 1-0.5 1-0.5 1-0.5 1-0.3-0.2-0.2-0.3-0.2-0.3-0.3-0.2-0.3-0.2-0.2-0.3-0.2-0.3-0.3-0.2-0.5-1.5-0.5-1.5-0.5-1q-0.5-1-1.5-3.5t-9.5-17.5-19.5-29-21-23-28-21l-18-12 1-3q1-3 11.5-18t25.2-30.8q14.8-15.7 29.8-28.2t25-19.5 12.5-6.5 19.5 13.5 28 22.7q11 9.8 25.2 27.3 14.3 17.5 20.8 28t6.5 12z"/>
     <path d="m448.5 488.5h-15.5l-0.2-0.3-0.3-0.2-0.3-0.2-0.2-0.3 0.2-0.3 0.3-0.2 0.5-1.5 0.5-1.5 0.5-1 0.5-1 8-13.5q8-13.5 12.3-19.5 4.2-6 8-9.5 3.7-3.5 20.4-20.3 16.8-16.7 35.3-30.2t32.5-21 31.5-13 30-7 29-0.8q16.5 0.8 13.7 7.8-2.7 7-12 21.2-9.2 14.3-20.7 27.3t-25.5 25.5-31 23.5-36 19-37.5 12-23.5 4.5-20.5 0.5z"/>
     <path d="m364 481 0.5 1 0.5 1 0.5 1 0.3 2 0.2 2-17-0.2q-17-0.3-25-1.3t-25.5-5.5-33.5-11.5-32.5-17.5-30.3-22.2q-13.7-11.8-27.7-28.3t-23.5-32.5l-9.5-16-0.5-1-0.5-1-0.3-2q-0.2-2 25.3-1.8 25.5 0.3 42.5 4.8t35 13.5 35.8 22.3q17.7 13.2 34.2 28.7t28.5 31 17 24 5.5 9.5z"/>
     <path d="m387 475 0.5 4 0.3 3 0.2 3-1.5-0.2-1.5-0.3-0.2-0.3-0.3-0.2-0.5-1-0.5-1-0.3-0.2-0.2-0.3-0.2-0.3-0.3-0.2-0.5-1-0.5-1-9.3-13.2q-9.2-13.3-23.2-29.3t-30.5-31.5-19.7-18.8q-3.3-3.2-9.3-17.2t-9.5-28.5-3.5-35.5 4-38.5 6.3-22.3q2.2-4.7 9.4-1 7.3 3.8 22 15.6 14.8 11.7 26 24 11.3 12.2 21.8 28.7t17.5 33 4 34-3 46.5 1 37.5 1.5 12.5z"/>
     <path d="m417 479-0.5 1-0.3 0.2-0.2 0.3-0.2 0.3-0.3 0.2-0.5 1-0.5 1-0.5 1-0.5 1-0.3 0.2-0.2 0.3h-3l-0.2-0.3-0.3-0.2v-2l0.5-2.5 0.5-2.5 2-19.5q2-19.5 1.5-41t-3.5-40 4.5-34.5 16.8-30.2q9.2-14.3 13.2-20 4-5.8 7.8-9.3 3.7-3.5 11-10 7.2-6.5 7.2-7.5t17-12.8q17-11.7 19.5-13.2t4.3-1.2q1.7 0.2 6.2 14.2t6 24.5 1 28-3.5 31-10.5 30.5-27 34.5-36 36.5-23.5 29.5-7.5 11.5z"/>
    </g>
   </g>
   <rect x="-923.93" y="287.01" width="68.419" height="6.8216" fill="#616161"/>
   <rect x="-923.93" y="300.39" width="93.673" height="4.8013" fill="#9e9e9e"/>
   <rect x="-923.93" y="309.48" width="43.67" height="4.8013" fill="#9e9e9e"/>
   <circle cx="-781.01" cy="298.03" r="5.8084" fill="#1de9b6"/>
   <rect x="-923.93" y="333.43" width="52.762" height="6.8216" fill="#616161"/>
   <rect x="-923.93" y="346.82" width="91.653" height="4.8013" fill="#9e9e9e"/>
   <rect x="-923.93" y="355.91" width="109.58" height="4.8013" fill="#9e9e9e"/>
   <circle cx="-781.01" cy="344.46" r="5.8084" fill="#1de9b6"/>
   <rect x="-923.93" y="383.08" width="68.419" height="6.8216" fill="#616161"/>
   <rect x="-896.79" y="399.32" width="66.53" height="4.8013" fill="#9e9e9e"/>
   <rect x="-797.46" y="382.96" width="27.599" height="4.8013" fill="#9e9e9e"/>
   <rect x="-923.93" y="432.57" width="68.419" height="6.8216" fill="#616161"/>
   <rect x="-797.46" y="432.46" width="27.599" height="4.8013" fill="#9e9e9e"/>
   <rect x="-923.93" y="480.05" width="48.062" height="6.8216" fill="#616161"/>
   <rect x="-923.93" y="493.44" width="93.673" height="4.8013" fill="#9e9e9e"/>
   <rect x="-923.93" y="502.53" width="43.67" height="4.8013" fill="#9e9e9e"/>
   <rect x="-797.46" y="479.93" width="27.599" height="4.8013" fill="#9e9e9e"/>
   <rect x="-923.93" y="528.54" width="55.562" height="6.8216" fill="#616161"/>
   <rect x="-896.79" y="541.92" width="68.673" height="4.8013" fill="#9e9e9e"/>
   <rect x="-896.79" y="551.01" width="32.015" height="4.8013" fill="#9e9e9e"/>
   <rect x="-797.46" y="528.42" width="27.599" height="4.8013" fill="#9e9e9e"/>
   <rect x="-923.57" y="397.01" width="20.57" height="16.25" ry="1.6415" fill="#00bfa5"/>
   <path d="m-904.37 402.08-8.1445 4.2305-5.3672-3.9141s-3.3198 1.8569-5.6855 3.1309v6.0898c0 0.90939 0.73318 1.6426 1.6426 1.6426h17.287c0.90939 0 1.6406-0.73319 1.6406-1.6426v-8.0918l-1.373-1.4453z" fill="#00897b" fill-rule="evenodd"/>
   <rect x="-896.79" y="406.46" width="44.744" height="4.8013" fill="#9e9e9e"/>
   <g transform="matrix(.20572 0 0 .20572 -946.16 414.39)" fill="#1de9b6">
    <path d="m318 187c0-1.657-1.343-3-3-3s-3 1.343-3 3c0 12.15-9.85 22-22 22s-22-9.85-22-22c0-1.657-1.343-3-3-3s-3 1.343-3 3c0 14.45 10.947 26.341 25 27.838v5.16h-8c-1.657 0-3 1.343-3 3s1.343 3 3 3h22c1.657 0 3-1.343 3-3s-1.343-3-3-3h-8v-5.162c14.05-1.5 25-13.39 25-27.84z"/>
    <path d="m290 154c-9.941 0-18 8.059-18 18v14c0 9.941 8.059 18 18 18s18-8.059 18-18v-14c0-9.94-8.06-18-18-18z"/>
    <path d="m272 174h12v-4h-12v4zm0 7h12v-4h-12v4zm0 7h12v-4h-12v4zm24-18v4h12v-4h-12zm0 11h12v-4h-12v4zm0 7h12v-4h-12v4z"/>
   </g>
   <g transform="matrix(.95804 0 0 .95804 -366.95 15.455)" fill="#1de9b6">
    <rect transform="matrix(.70711 -.70711 .70711 .70711 0 0)" x="-729.6" y="-74.134" width="13.997" height="1.5389"/>
    <rect transform="matrix(-.70711 -.70711 -.70711 .70711 0 0)" x="72.616" y="728.08" width="5.8528" height="1.5389"/>
   </g>
   <g transform="matrix(.95804 0 0 .95804 -369.61 15.455)" fill="#1de9b6">
    <rect transform="matrix(.70711 -.70711 .70711 .70711 0 0)" x="-729.6" y="-74.134" width="13.997" height="1.5389"/>
    <rect transform="matrix(-.70711 -.70711 -.70711 .70711 0 0)" x="72.616" y="728.08" width="5.8528" height="1.5389"/>
   </g>
   <rect x="-871.79" y="448.25" width="59.03" height="4.8013" fill="#9e9e9e"/>
   <rect x="-871.79" y="455.39" width="44.744" height="4.8013" fill="#9e9e9e"/>
   <g transform="translate(-342.86)" fill-rule="evenodd">
    <circle cx="-608.74" cy="347.4" r="17.134" fill="#666"/>
    <circle cx="-608.74" cy="347.4" r="15.822" fill="#666"/>
    <path d="m-601.65 345.73c0.25369 0.36849 0.38052 0.47096 0.62356 0.72587-0.83322 3.8108-2.719 7.6539-5.5588 9.6732-0.83945 0.74027-1.8565 1.1928-3.1698 1.1652-1.5487-0.24332-3.9085-2.1172-4.1198-2.4303-1.8923-2.3934-3.8384-5.0188-3.5872-8.3472 1.1913-2.242 2.6498-5.6462 3.1693-7.7331 1.3011 2.3266 3.1386 3.7113 6.2494 3.7407 1.5079 1.3954 3.0647 2.7207 6.3933 3.2057z" fill="#fff"/>
    <path d="m-615.17 333.34c0.2765 5.3273 2.4573 8.7268 6.9828 8.8609-1.7615-2.2594-3.5786-6.8772-4.3158-9.7819-0.96575 0.22336-1.7651 0.42908-2.667 0.92105z" fill="#fff"/>
    <path d="m-612.22 332.34c2.2983 7.4045 4.379 12.017 10.192 13.004-3.3842-3.6512-3.7943-10.584-6.5612-13.473-1.2011 0.0277-2.404 0.0634-3.6307 0.46945z" fill="#fff"/>
    <path d="m-607.97 331.94c2.9214 3.159 2.8542 12.503 9.4614 15.79-2.0893-4.5852-1.8048-10.093-4.8703-14.928-1.4863-0.50833-3.1074-0.85163-4.5912-0.86242z" fill="#fff"/>
    <path d="m-615.3 335.32 0.64412 2.952c-0.8798 4.7258-3.5804 7.6154-4.758 12.435-0.86192-3.0216-0.13373-8.3323 0.77112-9.3918 1.4473-1.023 2.2681-3.8806 3.3428-5.995z" fill="#fff"/>
    <path d="m-615.45 334.89c-0.88648 1.796-2.5025 6.3623-4.8288 6.8115 0.55684-2.4377 1.0038-5.5172 3.121-7.1889l1.6428-1.0139c-0.0104 0.48303 0.0108 0.94714 0.065 1.3914z" fill="#fff"/>
    <path d="m-602.92 333.01c0.73904 0.32793 0.90068 0.47916 1.5683 0.93201 4.4097 4.1114 4.2926 12.098 5.5518 15.979-0.71908-0.61443-1.5244-1.2097-2.0714-1.8624-2.6662-5.4771-1.9401-10.166-5.0488-15.048z" fill="#fff"/>
    <path d="m-618.19 348.16c0.20175 2.0632 0.95587 4.0262 1.8183 5.9696-1.2479-0.63281-2.0966-1.6899-2.7609-2.943 0.22401-1.0418 0.54899-2.0467 0.94264-3.0265z" fill="#fff"/>
    <path d="m-619.22 341.68c-0.3403 0.27344-0.73212 0.424-1.1389 0.46215-0.39799 2.9152-1.4868 3.1321-1.9295 4.4705 0.39866 0.8827 1.5966 2.2029 2.2185 2.5655-0.25836-1.9236-0.0303-4.3643 0.84988-7.4982z" fill="#fff"/>
    <path d="m-613.59 356.33c1.4633 1.0725 2.1053 2.383 4.3109 2.8988 1.7417-0.7778 2.6949-1.6593 3.9205-3.1596-0.11483 1.5591 0.089 2.41-0.41781 4.0344-1.0848 0.94241-2.1835 1.871-3.4479 2.6338-1.4861-0.72355-2.6057-1.4902-3.471-2.2868-0.71045-1.49-0.65065-2.6306-0.89473-4.1206z" fill="#fff"/>
    <path d="m-608.29 362.81 4.264-2.2483-0.31011-0.93034 3.731 0.7559c-2.117 1.4363-4.6507 2.0975-7.685 2.4228z" fill="#fff"/>
    <path d="m-609.88 362.81-4.2641-2.2483 0.31012-0.93034-3.3531 0.63961c2.0008 1.3588 4.2728 2.2138 7.307 2.539z" fill="#fff"/>
   </g>
   <g transform="translate(-342.86)">
    <rect x="-628.19" y="426.25" width="35.086" height="35.086" ry="0" fill="#f44336" fill-rule="evenodd"/>
    <path d="m-606.44 451.13-4.1007 2.7693-4.2603-2.2367v2.8341s-5.6983 3.7696-5.6983 3.9826c0 0.0749 1.287 1.3041 2.9445 2.8563h16.043l2.7402-2.164-7.4025-2.716z" fill="#fad59d" fill-rule="evenodd"/>
    <path d="m-606.44 451.13-3.9729 2.6829v7.5226h7.7615l3.88-3.5289-7.4022-3.4237z" fill="#f9d194" fill-rule="evenodd"/>
    <path d="m-614.79 452.06v0.36982c0.2242 0.27952 0.41836 0.72699 0.68293 1.0392 1.2505 1.837 1.704 1.8921 3.6963 1.9044 2.1619 0.0921 2.3009-0.70004 3.1207-1.4791 0.30571-0.27017 0.61143-0.69757 0.91714-1.1982l-0.0444-0.63609-1.5384 1.6716s-1.1914 0.12452-1.4281 0.22807c-0.23668 0.10354-1.7073 0.37659-1.7813 0.33221-0.074-0.0444-1.2432-0.27922-1.4947-0.54548-0.25148-0.26627-0.94673-1.0207-1.0503-1.0651-0.10355-0.0444-1.0799-0.62129-1.0799-0.62129z" fill="#f5c57d" fill-rule="evenodd"/>
    <path d="m-604.7 454.97c-0.0913 2.9145-3.6049 3.2957-5.5963 4.6847-2.2807-1.3621-6.5735-1.5309-6.3379-4.6728-3.8926 2.1126-7.6269 2.296-10.785 4.7146l-0.54853 1.6427h34.357l-0.50014-1.4887c-3.0323-2.6539-7.384-3.6575-10.589-4.8805z" fill="#388e3c" fill-rule="evenodd"/>
    <path d="m-604.95 454.92c1.3842 1.0648-2.4252 5.0241-5.3436 4.9879-0.0612-7.6e-4 -0.27247 0.0134-0.27247 0.0134l4e-3 1.4183h16.954l-0.50015-1.4887c-2.9902-2.6508-6.6806-3.3508-10.842-4.9309z" fill="#2e7d32" fill-rule="evenodd"/>
    <path d="m-612.45 454.28c0.81598 0.28591 2.6266 0.31945 4.1396-0.16139 1.9567-1.2626 3.0738-3.2366 3.7819-5.3316l0.43604-1.8167c1.0586-0.38745 1.0969-1.5188 1.425-2.007 0.0671-0.35581 0.88744-1.6827 0.4594-2.6138-0.37438-0.39024-1.2944-0.20262-1.8055 0.31601l0.90836-4.2258s-1.8167-3.5149-2.2906-3.7914c-0.47393-0.27646-4.0284-2.6856-4.0284-2.6856l-3.6729 0.98734-3.278 1.4613s-1.4613 2.4881-1.5008 2.6856-0.27645 4.8577-0.27645 4.8577l0.0657 0.34695c-0.51014 0.041-0.99311 0.11603-0.9744 0.81813-0.0414 0.97907 0.76571 2.1422 0.79336 2.2234 0.3818 1.1208 1.0332 1.6919 1.0332 1.6919s0.48141 0.30767 0.66957 0.15849c0.0469 0.65813 0.22167 1.1232 0.30231 1.5593 0.77148 2.4399 2.1852 4.9016 3.8124 5.5272z" fill="#ffe0b2" fill-rule="evenodd"/>
    <path d="m-609.42 431.96-1.4435 0.30648v22.215c0.72392-0.0218 1.8265-0.13316 2.5572-0.36536 1.9567-1.2626 3.0738-3.2365 3.7819-5.3316l0.43614-1.8167c1.0586-0.38745 1.0968-1.519 1.425-2.0071 0.0671-0.3558 0.88754-1.6826 0.4595-2.6138-0.37438-0.39024-1.2944-0.20262-1.8055 0.31602l0.90836-4.2258s-1.8167-3.515-2.2906-3.7914c-0.47392-0.27646-4.0284-2.6856-4.0284-2.6856z" fill="#ffd596" fill-rule="evenodd"/>
    <path d="m-609.53 442.25c0.14917-0.29776 0.15047-0.65659 0.69573-0.79077 0.47838-0.20667 0.70804-0.1613 0.9249-0.10295 1.3722-0.34403 2.2172 0.22972 3.0478 0.56847-0.98998-0.13773-2.567-0.5468-3.5302 0.26349l0.0956-0.18265-0.30073 0.20338 0.015-0.0776-0.24697 0.13331-0.0276-0.0657-0.0575 0.0894-0.0969-0.0187-0.12008-3e-3 -0.0119-0.0425-0.11941 0.0976c-0.0853-6.4e-4 -0.15813 0.072-0.26769-0.0718z" fill="#333" fill-rule="evenodd"/>
    <path d="m-608.82 444.38c0.67329-1.3263 1.6355-1.3575 2.8914-0.43156-0.69457 0.2026-1.3964 0.70382-2.8914 0.43156z" fill="#fff" fill-rule="evenodd"/>
    <path d="m-608.08 443.58c0.019 0.26554 0.11682 0.54591 0.30424 0.79487 0.39288 0.0938 0.64351-0.0514 0.9472-0.17235 0.0455-0.19544 0.0792-0.40667 0.0559-0.69473-0.43114-0.12094-0.83998-0.32258-1.3073 0.0722z" fill="#333" fill-rule="evenodd"/>
    <path d="m-616.75 445.38c-0.22363-1.4471-9.7e-4 -2.3126-0.28368-3.7774 0.37035 0.38647 1.4599-1.3177 2.0717-1.6795-1.1116 0.5191-1.8612 2.0133-2.0327 1.2352 0.84593-0.23183 1.3968-0.92599 1.9683-1.5877l-0.46213 0.53519c0.96176-0.38802 1.9522-0.77267 2.5791-1.4955-0.36124 0.32549-0.78674 0.70231-1.3043 0.94691 0.29035 0.24202 0.436 0.21122 0.66125 0.20351l-0.29029 0.20357c1.4895-0.33016 2.3754-0.76607 3.148-1.3827-0.31744 0.50014-0.83134 0.69575-1.3584 1.0339-0.0831 0.0533-0.16031 0.22723-0.24368 0.28246 1.4272-0.39608 2.43-1.493 4.5244-0.70355-0.43035 0.34777-1.0202 9e-3 -1.5407-0.23349-0.0517-0.0241 0.0605 0.16455 8e-3 0.13649 1.0526 0.9624 1.8429 0.7787 2.6758 0.53245 0.44185 0.2062 0.90209 0.16883 1.3676 0.0623-0.30563 0.34854-0.76961 0.38054-1.2298 0.35672-0.0695-4e-3 -0.0787 0.052-0.15434 0.0405 0.49988 0.17433 1.0408 0.27946 1.5238-0.0226-0.14354 0.3783-0.49144 0.48894-0.78059 0.69783 0.47425-0.013 0.85217-0.0439 1.1368-0.22282-0.22116 0.31952-0.4279 0.44425-0.94345 0.79026l0.98331 0.16494-0.66432 0.11653 0.54712 0.32271 0.30699 0.0783-0.24659 0.23435 0.43265-0.0422-0.26507 0.41896 0.50618-0.0328-0.20568 0.50358 0.011 0.24524 0.27008 0.18974-0.11261 2.1543c0.18285-0.73649 0.22757-1.6337 0.86707-1.8389 0.0841-0.55847-0.0126-1.3656 0.61322-1.7314 0.24998 0.0443 0.32971 0.15062 0.44238 0.24065 0.0634-0.57229 0.0264-1.2772 0.25379-1.8372l0.0913-0.0895 0.16043-0.46188-0.0331-0.45504s0.36134-0.17839 0.40628-0.48356c0.38273-2.599-0.26784-4.9358-2.2535-6.1565l-0.90942-0.93688-0.1174-0.22955c-0.57629-0.24368-0.82769-0.0412-1.359-0.24606 0.27663-0.26895 0.89013 0.30701 1.2884 0.22054-0.58096-0.0597-1.2802-0.61186-1.7277-0.33774-0.53084-0.12513-1.7834-0.77035-2.3434-0.63505 0 0-0.48943 0.16683-0.80382 0.0678-0.25765-0.0812-0.76441-0.59935-1.5536-0.60001l0.14815 0.26324-0.87798 0.0225c-0.81775 0.26706-1.3871-0.28505-2.4149 0.93302l-0.35038-0.92266-0.0163 0.58689-0.47599-0.37203 0.0882 0.31473s-0.0431 0.25231 4e-3 0.3679c0.0473 0.1156-0.29475 0.14226-0.29475 0.14226-0.56742-0.10561-0.97779-0.0193-1.6828 0.24194 0.50967 0.12034 0.45024 0.4641 0.38808 0.58444-0.20843 0.12559-0.2747 0.1161-0.62569 0.57432 0 0 0.42603 0.54917 0.0971 0.99707-1.004 1.1448-1.7141 2.4348-1.8735 3.9043-0.13612 2.2111 4e-3 2.7797 0.27863 4.4306 0.68539-6e-3 0.96731 0.10117 1.2432 0.51488 0.31896 0.22425 0.0518 0.55449 0.36762 0.95635z" fill="#f9d194" fill-rule="evenodd"/>
    <path d="m-608.68 443.62c0.83275-0.79968 1.7732-0.59489 2.7267-0.26846" fill="none" stroke="#000" stroke-width=".086543px"/>
    <path d="m-613.25 450.16c0.59078-0.17762 1.0227-0.12592 1.6894-0.14253l0.62391 0.12389 0.57061-0.0855c0.63382-0.0124 1.4919-0.0168 2.2561 0.18102-0.81469 0.31656-1.2075 0.99788-1.807 1.1332-0.97465 0.14559-1.1133 0.13742-1.9321 0.0213-0.50593-0.30171-0.90405-0.97889-1.4009-1.2314z" fill="#e9afaf" fill-rule="evenodd"/>
    <path d="m-612.59 450.36 1.2421 0.0276 0.45748 0.1766 0.46482-0.18708 1.4063 0.0282c-1.2099 0.2926-2.4081 0.44246-3.5707-0.0453z" fill="#fff" fill-rule="evenodd"/>
    <path d="m-616.75 445.09c-0.22363-1.4471-9.7e-4 -2.3126-0.28368-3.7774 0.37035 0.38647 1.5863-1.1976 2.1981-1.5594-1.1116 0.5191-1.9875 1.8933-2.1591 1.1151 0.84593-0.23183 1.3968-0.92599 1.9683-1.5877l-0.35469 0.61734c0.96175-0.38801 1.8447-0.85482 2.4717-1.5776-0.36124 0.32549-0.61612 0.93613-1.2284 1.0733 0.29035 0.24201 0.61294 0.0659 0.98353-0.0556l-0.6568 0.5385c1.3884-0.41231 2.3438-0.9683 3.1163-1.5849-0.36747 0.57896-0.97709 0.98657-1.5895 1.3922 1.4272-0.39608 2.4174-1.5689 4.5118-0.77938-0.47313 0.38234-1.0169 0.30181-1.5957-9e-3 1.0526 0.9624 1.9061 0.69023 2.739 0.44398 0.44185 0.2062 0.90209 0.16883 1.3676 0.0623-0.35177 0.40114-0.75645 0.68739-1.3335 0.5994 0.49988 0.17433 0.99019 0.0772 1.4733-0.22477-0.14354 0.3783-0.36505 0.66588-0.6542 0.87477 0.47425-0.013 0.72578-0.22085 1.0104-0.39977-0.22116 0.31953-0.31415 0.62752-0.8297 0.97354l0.86956-0.0183-0.58849 0.37563 0.47129 0.0636-0.11089 0.3557 0.17129-0.0431-0.0231 0.30631 0.19072 0.0704 0.0861 0.34258 0.21436 0.12821 0.0199 0.47761 0.21646 0.10037-0.0679 2.0113c0.18285-0.73649 0.22757-1.6337 0.86707-1.8389 0.0841-0.55847-0.0126-1.0243 0.61322-1.3901 0.24998 0.0443 0.34235 0.0874 0.45502 0.17746 0.0634-0.5723 0.35333-1.5196 0.58075-2.0795l0.26214 0.60792-0.0593-1.0687 0.31733 0.24802s-2e-3 -1.0078 0.0432-1.313c0.38273-2.599-0.54589-4.9358-2.5315-6.1565l-0.90942-0.93688 0.32946-0.28318c-0.5763-0.24368-1.2746 0.0124-1.8058-0.19243 0.27663-0.26895 0.74714-0.24709 1.1454-0.33355-0.58096-0.0597-1.1372-0.0578-1.5847 0.21635-0.53084-0.12513-1.7834-0.77035-2.3434-0.63505 0 0-0.48943 0.16683-0.80382 0.0678-0.25765-0.0812-0.76441-0.59935-1.5536-0.60001l0.14815 0.26324-0.87798 0.0225c-0.81775 0.26706-1.3871-0.28505-2.4149 0.93302l-0.35038-0.92266-0.0163 0.58689-0.47599-0.37203 0.0882 0.31473s-0.91894-0.0694-0.87167 0.0462c0.0473 0.1156 0.58108 0.46398 0.58108 0.46398-0.56742-0.1056-1.2906 0.20413-1.9956 0.46538 0.50967 0.12033 0.76304 0.24067 0.70088 0.36101-0.20843 0.12559-0.46239 0.3574-0.81337 0.81562 0 0 0.61371 0.30787 0.28476 0.75577-1.004 1.1448-1.7141 2.4348-1.8735 3.9043-0.13612 2.2111-0.0214 3.2853 0.25336 4.9362 1.076-0.26217 1.2132 0.77055 1.5603 1.2184z" fill="#333" fill-rule="evenodd"/>
    <ellipse cx="-607.11" cy="443.6" rx=".17804" ry=".15826" fill="#fff" fill-rule="evenodd"/>
    <path d="m-611.62 442.19c-0.15607-0.29421-0.16573-0.65292-0.71396-0.77436-0.48307-0.19546-0.71162-0.14476-0.92706-0.0814-1.3798-0.31198-2.2113 0.28131-3.0337 0.6393 0.9865-0.16075 2.5535-0.60644 3.5354 0.1812l-0.0998-0.18038 0.30539 0.19631-0.0168-0.0772 0.25 0.12752 0.026-0.0663 0.0596 0.0881 0.0965-0.021 0.11997-6e-3 0.0109-0.0428 0.12165 0.0948c0.0852-3e-3 0.15977 0.0683 0.26595-0.078z" fill="#333" fill-rule="evenodd"/>
    <path d="m-612.18 444.38c-0.67329-1.3263-1.6355-1.3575-2.8914-0.43156 0.69458 0.2026 1.3964 0.70382 2.8914 0.43156z" fill="#fff" fill-rule="evenodd"/>
    <path d="m-612.93 443.58c-0.0189 0.26554-0.11681 0.54591-0.30423 0.79487-0.39288 0.0938-0.64351-0.0514-0.9472-0.17235-0.0455-0.19544-0.0792-0.40667-0.0559-0.69473 0.43114-0.12094 0.83999-0.32258 1.3073 0.0722z" fill="#333" fill-rule="evenodd"/>
    <path d="m-612.33 443.62c-0.83274-0.79968-1.7732-0.59489-2.7267-0.26846" fill="none" stroke="#000" stroke-width=".086543px"/>
    <ellipse transform="scale(-1,1)" cx="613.21" cy="443.65" rx=".17804" ry=".15826" fill="#fff" fill-rule="evenodd"/>
    <path d="m-608.82 444.35c0.76814-1.5909 1.9185-1.1448 2.9701-0.42972-1.1281-0.63381-2.3602-0.62576-2.9701 0.42972z" fill="#333" fill-rule="evenodd"/>
    <path d="m-612.18 444.35c-0.76814-1.5909-1.9185-1.1448-2.9701-0.42972 1.1281-0.63381 2.3602-0.62576 2.9701 0.42972z" fill="#333" fill-rule="evenodd"/>
    <path d="m-617.48 443.55c-0.28668-0.4937-0.88604-1.1188-1.145-0.53256 9e-3 0.33627 0.11105 1.1004 0.3861 1.4912 0.12774 0.34946 0.67054 1.4167 0.93195 2.0636 0 0 0.46368 0.20584 0.68557-0.0133-0.32401-0.90617-0.49905-1.5615-0.65642-2.6677z" fill="#ffd596" fill-rule="evenodd"/>
    <path d="m-603.54 443.46c0.28669-0.49369 0.88604-1.1188 1.145-0.53255-9e-3 0.33627-0.11106 1.1004-0.3861 1.4911-0.12775 0.34947-0.40513 0.87323-0.66655 1.5202 0 0-0.4763 0.52182-0.6982 0.30267 0.0586-0.99464 0.13253-1.3719 0.40365-2.4402z" fill="#f9d194" fill-rule="evenodd"/>
    <path d="m-614.85 454.23 0.0342 0.28598-1.1127 0.91973c0.32546 4.3855 9.791 5.2401 10.688-0.256l-0.92264-0.80889-0.0506-0.16431 2.8058 1.2133c-2.0513 5.6944-11.221 7.4407-14.434 0.0505z" fill="#2e7d32" fill-rule="evenodd"/>
    <path d="m-616.75 445.09c-0.22363-1.4471-9.7e-4 -2.3126-0.28368-3.7774 0.37035 0.38647 1.5863-1.1976 2.1981-1.5594-1.1116 0.5191-1.9875 1.8933-2.1591 1.1151 0.84593-0.23183 1.3968-0.92599 1.9683-1.5877l-0.35469 0.61734c0.96175-0.38801 1.8447-0.85482 2.4717-1.5776-0.36124 0.32549-0.61612 0.93613-1.2284 1.0733 0.29035 0.24201 0.61294 0.0659 0.98353-0.0556l-0.6568 0.5385c1.3884-0.41231 2.3438-0.9683 3.1163-1.5849-0.36747 0.57896-0.97709 0.98657-1.5895 1.3922 1.4272-0.39608 2.4174-1.5689 4.5118-0.77938-0.47313 0.38234-1.0169 0.30181-1.5957-9e-3 1.0526 0.9624 1.9061 0.69023 2.739 0.44398 0.44185 0.2062 0.90209 0.16883 1.3676 0.0623-0.35177 0.40114-0.75645 0.68739-1.3335 0.5994 0.49988 0.17433 0.99019 0.0772 1.4733-0.22477-0.14354 0.3783-0.36505 0.66588-0.6542 0.87477 0.47425-0.013 0.72578-0.22085 1.0104-0.39977-0.22116 0.31953-0.31415 0.62752-0.8297 0.97354l0.86956-0.0183-0.58849 0.37563 0.47129 0.0636-0.11089 0.3557 0.17129-0.0431-0.0231 0.30631 0.19072 0.0704 0.0861 0.34258 0.21436 0.12821 0.0199 0.47761 0.21646 0.10037-0.0679 2.0113c0.18285-0.73649 0.22757-1.6337 0.86707-1.8389 0.0841-0.55847-0.0126-1.0243 0.61322-1.3901 0.24998 0.0443 0.34235 0.0874 0.45502 0.17746 0.0634-0.5723 0.35333-1.5196 0.58075-2.0795l0.26214 0.60792-0.0593-1.0687 0.31733 0.24802s-2e-3 -1.0078 0.0432-1.313c0.38273-2.599-0.54589-4.9358-2.5315-6.1565l-0.90942-0.93688 0.32946-0.28318c-0.5763-0.24368-1.2746 0.0124-1.8058-0.19243 0.27663-0.26895 0.74714-0.24709 1.1454-0.33355-0.58096-0.0597-1.1372-0.0578-1.5847 0.21635-0.53084-0.12513-1.7834-0.77035-2.3434-0.63505 0 0-0.48943 0.16683-0.80382 0.0678-0.25765-0.0812-0.76441-0.59935-1.5536-0.60001l0.14815 0.26324-0.87798 0.0225c-0.81775 0.26706-1.3871-0.28505-2.4149 0.93302l-0.35038-0.92266-0.0163 0.58689-0.47599-0.37203 0.0882 0.31473s-0.91894-0.0694-0.87167 0.0462c0.0473 0.1156 0.58108 0.46398 0.58108 0.46398-0.56742-0.1056-1.2906 0.20413-1.9956 0.46538 0.50967 0.12033 0.76304 0.24067 0.70088 0.36101-0.20843 0.12559-0.46239 0.3574-0.81337 0.81562 0 0 0.61371 0.30787 0.28476 0.75577-1.004 1.1448-1.7141 2.4348-1.8735 3.9043-0.13612 2.2111-0.0214 3.2853 0.25336 4.9362 1.076-0.26217 1.2132 0.77055 1.5603 1.2184z" fill-opacity="0"/>
    <path d="m-610.56 429.98v8.9838c0.76139-0.31753 1.5959-0.50506 2.7891-0.0553-0.47313 0.38234-1.0169 0.3019-1.5957-8e-3 1.0526 0.9624 1.9061 0.69013 2.739 0.44388 0.44185 0.2062 0.90211 0.16887 1.3676 0.0623-0.35176 0.40114-0.75649 0.68738-1.3336 0.5994 0.49988 0.17432 0.99025 0.0772 1.4733-0.22478-0.14355 0.3783-0.365 0.66588-0.65414 0.87477 0.47424-0.013 0.72575-0.22087 1.0104-0.39978-0.22116 0.31952-0.31416 0.62759-0.82971 0.9736l0.86952-0.0184-0.58848 0.37559 0.47125 0.0636-0.11087 0.35568 0.17128-0.043-0.0231 0.30634 0.19062 0.0704 0.0863 0.34255 0.21426 0.12829 0.0199 0.47761 0.21648 0.10036-0.0679 2.0112c0.18284-0.73649 0.22753-1.6336 0.86702-1.8388 0.0841-0.55847-0.0126-1.0243 0.61322-1.3901 0.24998 0.0443 0.34241 0.0875 0.45508 0.1775 0.0634-0.57229 0.35331-1.5196 0.58074-2.0795l0.26209 0.60797-0.0593-1.0687 0.3174 0.24799s-2e-3 -1.0078 0.0431-1.313c0.38273-2.599-0.54592-4.9359-2.5316-6.1566l-0.90932-0.93683 0.32942-0.28325c-0.5763-0.24368-1.2745 0.0124-1.8058-0.19243 0.27662-0.26895 0.74714-0.24697 1.1454-0.33343-0.58096-0.0597-1.1373-0.0578-1.5848 0.21634-0.53085-0.12513-1.7834-0.77036-2.3434-0.63506 0 0-0.48932 0.16679-0.80371 0.0677-0.19012-0.0599-0.51651-0.35727-0.99131-0.50955z" fill-opacity="0"/>
    <path d="m-606.21 454.21 0.0506 0.31597 0.9226 0.65722c-0.4344 2.6618-2.8786 3.8339-5.3209 3.8369v1.3536c3.084-0.0897 6.0848-1.9837 7.1535-4.9504z" fill="#1b5e20" fill-rule="evenodd"/>
    <path d="m-610.69 447.48 0.0439 1.4498-1.5111-0.18637z" fill="#ffd596" fill-rule="evenodd"/>
   </g>
   <path d="m-973.08 423.7v38.276h40.158v-38.276h-40.158zm20.231 2.9757a16.785 16.785 0 0 1 16.785 16.785 16.785 16.785 0 0 1 -16.785 16.785 16.785 16.785 0 0 1 -16.785 -16.785 16.785 16.785 0 0 1 16.785 -16.785z" fill="#fff" fill-rule="evenodd"/>
   <g transform="translate(-342.86 -6.25)">
    <circle cx="-610.27" cy="498.29" r="16.92" fill="#26c6da"/>
    <path d="m-617.59 490.08v16.432l8.6465 8.6465a16.92 16.92 0 0 0 15.525 -15.543l-9.5371-9.5352h-3.0352l-2.7285 5.8906-5.8906-5.8906h-2.9805z" fill="#00acc1"/>
    <path d="m-602.95 506.51h-2.1852v-14.159l-4.5689 9.6345h-1.3022l-4.5358-9.6345v14.159h-2.0417v-16.433h2.9797l4.3813 9.1489 4.2378-9.1489h3.0349v16.433z" fill="#fff"/>
   </g>
   <g transform="matrix(.12807 0 0 .12807 -1007.7 507.17)" clip-path="url(#f)">
    <path d="m460.78 136c2.7287-1.16 24.104-1.9214 28.985 0.59987 17.432 51.831 18.173 72.272-15.789 152.96-1.1265-9.6332-1.7067-17.349-0.29905-32.878-3.0261 11.375-4.0859 25.552-12.407 36.423 0.74892-4.3936 0.2527-16.084-0.9544-24.669-2.2698 6.5629-3.9596 20.632-10.061 27.45 1.2837-3.799 0.32459-7.2708-0.0544-11.07l-20.217 18.155c-9.3752-11.153-26.396-22.372-29.589-36.335 2.2532 5.43 6.8032 21.659 9.7084 26.858-6.5933-6.6246-14.843-23.898-19.646-32.32 2.0396 6.992 3.3985 20.525 9.5166 28.537-11.046-6.7873-21.549-27.599-25.671-35.37 1.8685 7.2276 4.9022 22.416 8.6011 33.714-30.119-34.118-36.288-78.124-30.423-132.86 27.54-28.327 69.627-43.35 108.3-19.195z" fill="#333"/>
    <path d="m417.44 264.95 26.153-6.3659c-2.3481 21.011-1.2172 33.414 9.3027 43.311 6.7634 6.3633 58.534 15.628 69.569 18.302 5.4924 4.9171 7.2122 30.876 11.065 47.952h-165.73l-26.473-0.2323c0.69225-5.833 1.4431-12.058 2.2609-18.728 2.4678-14.57 4.4682-25.829 10.517-30.849 6.3089-1.8652 18.364-5.2356 29.961-7.4416 13.728-1.9856 22.764-3.7983 25.316-9.9751 4.0686-9.8477 1.2667-22.753 3.8357-33.163z" fill="#ffe680"/>
    <path d="m441.82 267.88 1.1314 13.427c-2.9669 2.4895-11.053 6.6212-15.251 6.7357-4.8279 0.13204-10.848-2.7598-15.129-5.8903l-1.0779-18.325z" fill="#806600" fill-opacity=".59896"/>
    <path d="m362.05 148.37h128.63c-3.7584 50.902-0.0493 110.6-65.733 132.32-54.583-17.251-64.306-78.273-62.9-132.32z" fill="#ffe680"/>
    <path d="m330.71 377.23 6.3189 6.7247-71.811 14.616-14.78-3.6679-30.854-119.6-9.0728-19.988 5.2165-9.1848 13.945-14.332 8.5906 30.679 38.426 98.149 37.082-16.753z" fill="#ffe680" fill-rule="evenodd"/>
    <path d="m534.69 327.3 48.023 105.4 3.7862 17.382-31.334 57.863-45.446 65.339-12.842-12.897 30.585-54.184 22.793-59.55-36.859-75.515z" fill="#ffe680" fill-rule="evenodd"/>
    <path d="m434.94 333.05c15.43-7.4332 16.868-19.585 17.952-31.157 6.7634 6.3633 71.725 15.628 82.76 18.302 5.4924 4.9171 22.921 41.136 26.773 58.211-8.3344 23.054-19.643 27.326-32.758 35.609l-17.495-40.006-1.1934 174.71c-47.492-16.405-94.785 34.221-145.79 0.7027l-12.041-165.52-23.003 6.8336c-7.133-5.833-32.764-39.434-28.404-46.103 9.7225-10.425 40.457-22.375 46.507-27.395 6.3089-1.8652 24.227-4.1363 35.824-6.3424 13.728-1.9856 22.516-3.5499 25.068-9.7267 3.6422 17.404 9.5274 25.4 25.804 31.88z" fill="#00aad4"/>
    <path d="m488.77 145.25c2.1575 9.9922-3.9518 9.9672-8.8048 15.101-7.0153 17.992-27.748 15.901-47.326 23.148 21.743-12.743 27.942-16.848 36.38-30.391-8.8315 27.418-86.159 19.709-115.44 42.194-2.068-70.33 60.824-67.246 135.19-50.052z" fill="#333" fill-opacity=".43017"/>
    <path d="m379.62 199.75c13.1-14.94 25.473-8.6528 33.239-0.56829v4.884c-9.1578-8.0456-19.156-12.508-33.265 0.63817z" fill="#333"/>
    <path d="m409.29 250.99c9.4386 6.5573 24.873 6.7301 33.317-1.6536" fill="none" stroke="#000" stroke-width="1.9673px"/>
    <path d="m481.63 208.54c1.4459-5.218 7.1495-5.4315 11.144-3.3095 2.5692 6.5448 2.2936 12.415 0.46009 17.916-2.3838 7.1516-7.5874 17-13.158 17.346-2.4174-0.75464-3.8643 1.0532-5.8756-3.5528 3.8574-7.3476 6.041-19.49 7.4291-28.399z" fill="#ffe680" fill-rule="evenodd"/>
    <path d="m368.86 208.54c-1.4457-5.218-7.1495-5.4315-11.144-3.3095-2.5689 6.5448-2.2935 12.415-0.45995 17.916 2.3836 7.1516 7.5874 17 13.158 17.346 2.4174-0.75464 3.8642 1.0532 5.8756-3.5528-3.8573-7.3476-6.0409-19.49-7.4293-28.399z" fill="#ffe680" fill-rule="evenodd"/>
    <path d="m469.08 199.75c-13.1-14.94-25.473-8.6528-33.239-0.56829v4.884c9.1578-8.0456 19.156-12.508 33.265 0.63817z" fill="#333"/>
    <path d="m239.94 249.35 2.5027-14.683 17.551-16.759c-2.1944-5.2274-0.64447-12.918-9.8468-14.447l-12.477 6.5338-13.939-39.104c-5.5936-2.7845-16.35-3.9159-18.887 0.11738l13.459 35.615-20.911-39.333c-8.62-6.9469-16.584-4.18-18.747 6.8884l22.136 37.251-24.326-33.819c-5.9218 0.32392-12.342 8.1015-11.49 13.558l25.194 32.659-22.405-25.238c-4.9898 2.1524-6.1503 7.826-5.828 12.572l19.95 29.042 23.223 22.823z" fill="#a05a2c" fill-rule="evenodd"/>
    <path d="m260.04 217.95-17.619 16.712-2.3319 13.732-4.1456 1.9432 5.182-18.007 18.266-15.416z" fill="#784421" fill-rule="evenodd"/>
    <path d="m213.16 277.11 30.028-11.643-2.2468-19.254-37.073 14.854z" fill="#1a1a1a" fill-rule="evenodd"/>
    <path d="m502.72 531.98-14.64 2.7433-21.804-10.652c-4.1423 3.8707-11.894 5.0834-10.137 14.245l10.455 9.438-31.845 26.632c-0.67244 6.212 1.9956 16.693 6.6584 17.675l28.739-24.972-29.643 33.251c-3.5274 10.494 1.8292 17.005 12.961 15.196l27.265-33.678-23.287 34.543c2.357 5.4421 11.878 8.768 16.7 6.0768l21.898-34.955-15.904 29.766c3.7489 3.934 9.473 3.0554 13.813 1.1076l20.323-28.782 13.356-29.695z" fill="#a05a2c" fill-rule="evenodd"/>
    <path d="m538.04 547.47-21.332-24.128-17.281 8.783 26.786 29.624z" fill="#1a1a1a" fill-rule="evenodd"/>
    <path d="m488.74 140.68c2.2871 10.592-4.1893 10.566-9.3338 16.008-7.4368 19.073-29.415 16.856-50.169 24.539 23.049-13.509 29.621-17.86 38.565-32.217-9.3621 29.066-91.335 20.893-122.38 44.729-2.1922-74.556 95.569-81.132 143.31-53.059z" fill="#333"/>
    <path d="m473.56 161.55c-0.3456 20.386 2.0542 41.594 7.1551 61.534l25.786-52.844-21.016-33.971z" fill="#333"/>
    <path d="m372.23 239.4-13.413-26.004-1.9895-3.8571-9.3991-15.475 26.878-26.84c-4.0751 26.757-3.5004 50.314-2.0762 72.176z" fill="#333"/>
    <path d="m482.6 570.17-6.4774-16.815 16.323-5.441 17.1 0.25909-0.7773 16.841-8.032 15.287z" fill="#1a1a1a" fill-rule="evenodd"/>
    <path d="m486.11 567.55-5.5086-12.522 13.189-4.3964 13.817 0.20935-1.0861 13.058-6.5815 11.619z" fill="#a05a2c" fill-rule="evenodd"/>
   </g>
   <g transform="matrix(.16958 0 0 .16958 -1001.1 363.65)" clip-path="url(#g)">
    <rect x="10.102" y="13.925" width="725.29" height="725.29" ry="0" fill="#37c837" fill-rule="evenodd"/>
    <path d="m14.647 739.21 47.477-1.0102c52.303-96.765 116.94-168.01 225.59-221.88l-12.948 5.7038c-100.33 44.883-205.43 114.56-260.11 217.18z" fill="#2ca05a"/>
    <ellipse transform="matrix(1.6767 0 0 1 -170.85 4.2857)" cx="360" cy="699.51" rx="132.86" ry="18.571" fill="#71c837" fill-rule="evenodd"/>
    <path d="m12.122 525.06 723.26 12.122v-193.95c-76.635-17.753-176.15-86.072-229.57-52.528-64.482 27.854-123.51 67.451-203.16 62.629-72.054-14.151-105.68-68.597-173.7-71.721-36.744 13.794-96.158 54.223-116.82 100.01z" fill="#2ca05a"/>
    <path d="m283.35 144.49c-0.75762-1.0102-11.364-13.637-11.364-13.637-3.6809-11.095 6.2763-25.828 11.869-39.396 4.9529 13.219 14.654 25.488 13.637 39.901z" fill="#fff"/>
    <path d="m248.01 132.66c-6.9657 18.336-5.4797 79.367-5.0508 125.51l22.728-8.0812c1.5529 10.987 5.0206-9.3058 10.859 0.25253l8.8388-3.7881 6.3135 13.132 6.0609-7.5762h10.354l10.354 2.7779 20.203 2.5254c3.8881-32.775 7.2689-88.622 4.4411-103.65-20.205-49.307-74.918-37.478-95.102-21.101z" fill="#1a1a1a"/>
    <path d="m257.57 177.22-1.0714 83.929s73.571-2.1429 73.571-3.5714 1.0714-90 1.0714-90z" fill-opacity=".79688"/>
    <path d="m325.37 144.15-73.979 6.9497c5.7924 33.796 7.0702 68.248 48.466 75.371 28.892-11.8 34.376-39.651 33.664-69.661-0.14082-5.9298-7.5255-6.8681-8.1511-12.659z" fill="#ffe680"/>
    <path d="m325.79 173.31c-7.6313-3.154-15.578-1.0854-20.41 1.5246l0.30055 2.7616c6.3112-2.546 12.873-4.073 20.39-1.711z" fill="#333"/>
    <path d="m293.78 175.71c-6.6479-4.8979-14.959-4.7262-20.278-3.356l-0.37293 2.7528c6.7385-0.95227 13.475-0.85516 20.203 3.2466z" fill="#333"/>
    <path d="m252.15 140.22 5.6821 11.869c4.6416 15.928-4.5998 27.122-3.2486 35.296 0 0-5.969-26.457-5.969-27.089 0-0.63134 3.5355-20.077 3.5355-20.077z" fill="#1a1a1a"/>
    <path d="m295.71 613.43-2.1429 85.357s-9.6428 2.8571-9.2857 1.4286-6.1073-89.913-6.1073-89.913z" fill="#ffe680"/>
    <path d="m332.14 614.15 2.1429 87.5s-9.6428 2.8571-9.2857 1.4286-10-95-10-95z" fill="#ffe680"/>
    <path d="m258.44 419.56 80.812 4.0406-2.6838 193.44s-14.968 4.2752-26.04 0.65301c0-5.0508-10.672-153.69-10.672-153.69l0.71429 152.39-28.948 0.65302z" fill="#b3b3b3"/>
    <path d="m245.33 436.04 8.6771-1.4106-0.55924 6.0139c-3.2314 3.0126-5.1556 2.7409-8.383 0.77578-0.63269-2.0692-0.75997-3.9717-0.23988-5.5054z" fill="#ffe680"/>
    <path d="m289.31 251.42-4.3037-13.44c-12.115 4.0476-54.72 18.304-55.974 22.352l5.9594 96.408 63.8 38.956c2.605 2.3006 9.6233-9.9497 6.9621-10.002 0 0-52.133-35.952-52.133-37.381 0-1.4286-1.0535-63.236-1.0535-63.236l7.4597 106.99-31.005 90.362 40.618-30.787 27.265 20.108 35.198-16.016 37.231 29.34-35.685-90.103 8.4997-112.35 5.5515 59.205-77.227 12.335s15.716 13.878 17.035 6.938l81.181-7.8861-11.786-104.77c-1.5126-6.6363-40.35-8.5644-52.791-10.469l-1.9949 13.636z" fill="#fff"/>
    <path d="m317.37 240.06c-7.8895-2.0541-32.281-4.0198-42.128 1.1671-2.7498 8.6678-13.083 14.813-11.175 29.555 3.3535 25.909 19.482 69.392 26.608 84.05 7.8776-17.93 32.997-58.157 37.6-83.677-1.5582-13.598-8.0652-24.208-10.905-31.094z" fill="#ffe680"/>
    <path d="m286.88 213.43-4.5457 32.83s19.698 3.5355 19.698 0.50508c0-3.0305-3.0305-29.8-3.0305-29.8z" fill="#ffe680"/>
    <path d="m279.54 239.83c-5.905 9.1106-11.42 17.886-11.681 30.759 16.156 65.685 52.149 101.07 64.894 185.66l-9.717 3.0518c-6.7532-68.876-48.531-113.42-62.403-189.13-1.1972-8.3532 4.8447-18.154 10.14-27.806z" fill="#ccc"/>
    <path d="m311.33 238.76c5.908 9.7439 3.8954 20.794 6.4724 31.251-6.9216 38.195-20.544 45.286-32.486 72.142l4.5511 15.467c13.267-30.736 35.541-58.113 37.785-86.435-0.81633-10.132-4.9716-22.345-9.9663-32.477z" fill="#ccc"/>
    <path d="m272.51 707.69 2.1429 2.8571 17.5-0.35714 9.6428-1.7857c-1.6248-9.3207-3.8003-11.797-15-12.857-7.6122-0.51284-11.391 5.1076-14.286 12.143z" fill="#1a1a1a"/>
    <path d="m315.86 708.58 2.1429 2.8571 17.5-0.35714 9.6428-1.7857c-0.24479-5.8708-3.3914-10.774-15-12.857-7.6122-0.51284-11.391 5.1076-14.286 12.143z" fill="#1a1a1a"/>
    <path d="m332.65 710.9 12.5-1.6072c-0.24479-5.8708-3.3914-10.774-15-12.857 1.448 5.0963 0.61552 13.042 2.5 14.464z" fill-opacity=".51042"/>
    <path d="m288.9 710.29 12.5-1.7262c-0.24479-6.3056-3.3914-11.572-15-13.81 1.448 5.4738 0.61552 14.008 2.5 15.536z" fill-opacity=".51042"/>
    <path d="m245.53 140.74c1.6415 0 89.328-2.0039 89.328-2.0039 2.7602 4.3396 9.0503 14.062 9.0354 19.871l-101.02 5.0508c-0.24626-7.2275 0.87813-15.017 2.6516-22.918z" fill="#fff"/>
    <path d="m278.8 259.9 8.0812-0.37881-0.3788 7.7024-7.4499 0.88388-0.25254 5.9346 8.46-0.75762-0.25254 2.5254-10.228-0.12627 0.63134-8.9651 7.5762-1.0102 0.63135-4.672-7.955 0.75762z" fill="#666"/>
    <path d="m292.19 259.39-0.12627 16.541 2.2728-0.37881-0.12627-16.668z" fill="#666"/>
    <path d="m299.51 258.76-0.50507 1.894 6.8185-0.50507-0.25254 6.1872-7.0711-0.12627-0.12627 9.9753 8.8388-0.50508 1.1364-2.9042s-7.4499 1.894-7.8287 1.389c-0.3788-0.50507-0.3788-5.8084-0.3788-5.8084l7.7024-0.37881-0.50508-10.354z" fill="#666"/>
    <path d="m257.5 351.29-0.35714-4.2857 51.25 35.179-1.6072 4.4643z" fill="#b3b3b3"/>
    <path d="m298.65 312.41c27.085 3.8415 49.724 17.466 68.556 39.462-6.7096-11.272-12.295-22.614-28.939-31.879-12.323-8.1621-27.541-9.0857-39.617-7.583z" fill="#999"/>
    <path d="m333.23 320.67-34.201 94.466c8.8229 3.3266 8.7748 8.723 6.3844 14.666l35.417-104.03c-0.61673-3.3656-4.4462-5.0814-7.6004-5.1023z" fill="#1a1a1a"/>
    <path d="m298.62 312.57c29.555-3.6866 52.263 9.8185 68.662 39.164 27.406-10.782 33.136-42.847 28.17-62.029-40.43 8.6961-56.091-3.7291-66.376-35.517-20.711 0.87071-37.131 34.159-30.457 58.382z" fill="#f2f2f2"/>
    <path d="m347.41 286.29 8.0978-19.179 0.87542 0.65658-5.5136 20.262c-1.8947 3.1016-3.3442 0.32134-3.4596-1.74z" fill="#1a1a1a"/>
    <path d="m310.39 312.02c20.551 0.7449 37.371 10.86 50.678 29.792 25.18-8.2108 31.256-38.681 22.263-50.042-26.816 3.1925-40.581-5.6503-49.75-25.762-22.201-0.66076-29.744 30.841-23.192 46.012z" fill="#4d4d4d"/>
    <path d="m299.01 415.1c-4.6917 5.1259-3.0845 10.313-1.7663 12.506 6.7814 4.0269 10.211 0.76515 9.4675-4.9457-0.54001-5.0094-4.1644-6.6928-7.7012-7.5599z"/>
    <path d="m295.83 421.1c1.963-8.1596 9.1378-23.268 13.707-34.903l-12.21 33.962z"/>
    <path d="m299.41 298.14-0.32549-4.1918 3.6236 0.0412 0.55113 3.8535 2.7913 0.0112-0.51028-4.381 1.1904 0.0803 0.12754 5.3175-4.2212-0.14683-0.61274-3.9166-2.2053-0.23365 0.50107 4.1186z" fill="#333"/>
    <path d="m302.97 279.37 6.701 3.4585 0.46726-1.2135-6.8215-3.3582z" fill="#333"/>
    <path d="m312.22 265.4 0.28463 0.80304 2.7545-2.4354 1.5215 2.159-3.0276 2.3076 2.572 3.3874 3.61-3.1068-0.28314-1.3516s-2.6562 3.111-2.9496 3.0675c-0.29336-0.0433-1.6891-1.8221-1.6891-1.8221l3.162-2.6868-2.939-3.3046z" fill="#333"/>
    <path d="m395.77 304.04 0.32363 4.4208-3.82-0.0604-0.56309-4.0652-2.9427-0.0247 0.51756 4.6211-1.2546-0.09-0.10967-5.6067 4.4495 0.17446 0.62773 4.132 2.3238 0.25659-0.50908-4.3444z" fill="#333"/>
    <path d="m391.64 325.23-7.0484-3.6774-0.49832 1.2772 7.176 3.5722z" fill="#333"/>
    <path d="m380.41 341.32-0.29632-0.84794-2.9153 2.5547-1.594-2.2832 3.2026-2.4187-2.6958-3.5832-3.8204 3.2585 0.29221 1.4263s2.8148-3.2674 3.1239-3.2202c0.30905 0.047 1.7723 1.9288 1.7723 1.9288l-3.3461 2.8178 3.0831 3.4976z" fill="#333"/>
    <path d="m307.87 387.76-5.1958 10.791c5.7378 0.44205 10.53 2.4184 10.991 7.7936l-1.199 3.3972 3.7969-1.5987c2.727-3.1754 3.718-7.2978 4.3964-11.591-2.5859-5.1673-7.0079-7.8865-12.79-8.7928z" fill="#ffe680"/>
    <path d="m282.11 203.35-0.82617 0.56446c4.0715 5.963 12.433 9.5246 21.943 9.1777l-0.0371-1c-9.2391 0.33697-17.265-3.1554-21.08-8.7422z" color="#000000" color-rendering="auto" fill="#333" image-rendering="auto" shape-rendering="auto" solid-color="#000000" style="block-progression:tb;isolation:auto;mix-blend-mode:normal;text-decoration-color:#000000;text-decoration-line:none;text-decoration-style:solid;text-indent:0;text-transform:none;white-space:normal"/>
    <ellipse transform="translate(-9.5714 1.6429)" cx="294.08" cy="175.99" rx="3.5355" ry="3.2199" fill="#333" fill-rule="evenodd"/>
    <ellipse transform="translate(21.534 2)" cx="294.08" cy="175.99" rx="3.5355" ry="3.2199" fill="#333" fill-rule="evenodd"/>
   </g>
   <rect x="-923.57" y="540.58" width="20.57" height="16.25" ry="1.6415" fill="#f55"/>
   <path d="m-909.47 549.18c-0.016 0.97482-6.2656 4.4477-7.1018 3.9464-0.83624-0.50125-0.71905-7.65 0.13317-8.1236 0.85221-0.47357 6.9846 3.2023 6.9686 4.1771z" fill="#fff"/>
  </g>
  <g transform="matrix(1.4236 0 0 1.4997 1236.9 -237.97)">
   <rect x="-941.81" y="200.65" width="209.1" height="380.53" fill="#fff" fill-rule="evenodd"/>
   <rect x="-941.81" y="200.65" width="209.1" height="38.169" fill="#009688" fill-rule="evenodd"/>
   <rect x="-941.81" y="200.65" width="209.1" height="11.056" fill="#00796b" fill-rule="evenodd"/>
   <g transform="translate(-306.69)" fill="#fff">
    <rect x="-442.68" y="203.38" width="2.4273" height="6.4377"/>
    <rect x="-446" y="204.84" width="2.4273" height="4.9825"/>
    <rect x="-449.32" y="206.1" width="2.4273" height="3.7139"/>
    <rect x="-452.57" y="207.45" width="2.4273" height="2.3706"/>
   </g>
   <g transform="translate(-306.69)">
    <path transform="matrix(-.62389 -.78152 .62389 -.78152 0 0)" d="m240.55-502.58a6.7621 6.7621 0 0 1 -6.762 6.762v-6.762z" fill="#f2f2f2"/>
    <path transform="matrix(-.62389 -.78152 .62389 -.78152 0 0)" d="m239.02-502.59a5.2197 5.2197 0 0 1 -5.2197 5.2197v-5.2197z" fill="#fff"/>
   </g>
   <g transform="translate(-306.69)" fill="#fff">
    <rect x="-436.88" y="203.03" width="4.2411" height="6.6964"/>
    <rect x="-435.83" y="202.27" width="2.1429" height="1.1607"/>
   </g>
   <path d="m-785.41 220.19c-2.1704 0-3.9299 1.7596-3.9299 3.9299s1.7596 3.9299 3.9299 3.9299c0.84875 0 1.634-0.26995 2.2763-0.72739l2.1868 2.1868c0.20461 0.20463 0.53647 0.20463 0.74093 0l0.18549-0.18524c0.20177-0.20304 0.20158-0.53582-4e-3 -0.74019v-2.5e-4l-2.187-2.1871c0.45849-0.64319 0.7284-1.4277 0.7284-2.2766 0-2.1704-1.7596-3.9299-3.9299-3.9299zm0 1.0485a2.8819 2.8819 0 0 1 2.882 2.882 2.8819 2.8819 0 0 1 -2.882 2.882 2.8819 2.8819 0 0 1 -2.8817 -2.882 2.8819 2.8819 0 0 1 2.8817 -2.882z" fill="#fff"/>
   <rect x="-907.57" y="218.79" width="54.286" height="11.429" ry="1.2627" fill="#fff"/>
   <ellipse cx="-740.84" cy="221.64" rx="1.3857" ry="1.3574" fill="#fff"/>
   <ellipse cx="-740.84" cy="225.17" rx="1.3857" ry="1.3574" fill="#fff"/>
   <ellipse cx="-740.84" cy="228.8" rx="1.3857" ry="1.3574" fill="#fff"/>
   <g transform="matrix(.030609 0 0 .030609 -933.25 215.26)" fill="#fff" fill-rule="evenodd" stroke-width=".5">
    <path d="m260.86 433.97v-9l0.3-0.2 0.2-0.3 24.5-1.5q24.5-1.5 48-7.5t46-16 40-21.5 31.7-24.2q14.3-12.8 25.3-26.3t20-29.5 11.7-22.2q2.8-6.3 16.8-2.3t31.2 11.7q17.3 7.8 30.8 16.8t20.5 16.5 6.5 11-10.5 19.5-25.3 35.2q-15.2 19.3-25.7 31.6-10.5 12.2-12.7 13.7-2.3 1.5-2.6 2.5-0.2 1-17.2 15.2-17 14.3-33 24.3t-32 16.5-28.5 9.5-21 4-28 0.5-37-4-33-9.5-24.5-12.5-14.2-14.8q-5.3-8.2-6.8-13.2t-1.5-14z" stroke="#b4d881"/>
    <path d="m183.86 422.47 21.5 1 0.2 0.3 0.3 0.2v9q0 9-2 15.5t-6.7 13.3q-4.8 6.7-13 13-8.3 6.2-24 12.4-15.8 6.3-32.8 9.8t-43.5 3.5-43.5-4-32-10.5-29.5-15.5-33.5-25.3q-19-16.2-28.8-27.2-9.7-11-27.2-33t-27-37.5-10-19 1-5.5 11.2-10.8q9.8-8.7 26.8-18.2t36-16.5 24-7.5 5.8 1.2q0.7 1.8 8.2 16.8t18.2 30.5q10.8 15.5 11.8 15.5t1.2 1q0.3 1 10.6 10.8 10.2 9.7 23.7 20.2t30.5 20 37 17.5 42 13 43.5 6z" stroke="#b3d880"/>
    <path d="m370.36 276.97-1 0.5-0.2 0.3-0.3 0.2-0.3 0.2-0.2 0.3-1 0.5-1 0.5-0.2 0.3-0.3 0.2-0.3 0.2-0.2 0.3-1 0.3-1 0.2 0.2-1.5 0.3-1.5 0.5-1.5 0.5-1.5 4.5-16q4.5-16 5.5-25t0.5-26-4.5-34.5-5.5-22.5 17.8-12.8q19.2-7.7 46.2-14.7t48.5-9.5 24.7 9.2q3.3 11.8 5.3 26.8t1.5 37-4 39-4.8 19.8q-1.2 2.7-21.7 1.7t-36.5 1.5-31.8 8.2q-15.7 5.8-27.4 12.6-11.8 6.7-12.8 7.2z" stroke="#b3d881"/>
    <path d="m102.36 273.47 0.5 1.5 0.5 1.5 0.5 1.5v3l-0.3-0.2-0.2-0.3-1-0.5-1-0.5-1-0.5-1-0.5-0.2-0.3-0.3-0.2-0.3-0.2-0.2-0.3-16.5-9q-16.5-9-34-14.5t-24.5-6.5-31.8-0.7q-24.7 0.2-28.7-15.3t-5-24.5-0.5-31 4.5-42.5 4.7-21.7q0.8-1.3 21.3 1.2t46.5 9 48 14.8q22 8.2 16.8 28.2-5.3 20-6.3 36.5t1.5 35 5 27 3 10z" stroke="#b3d880"/>
    <g transform="translate(-165.64 -83.029)" stroke="#b4d881">
     <path d="m503.5 218.5v1.5l-0.3 0.2q-0.2 0.3-3.2 1.8t-17 10.5-26.8 20.3q-12.7 11.2-25 27-12.2 15.7-20.4 31.4l-8.3 15.8-0.5 1-0.5 1-0.5 1-0.5 1-0.5 1-0.5 1-0.3-0.2-0.2-0.3-0.2-0.3-0.3-0.2-0.3-0.2-0.2-0.3-0.2-0.3-0.3-0.2-0.5-1.5-0.5-1.5-0.5-1q-0.5-1-1.5-3.5t-9.5-17.5-19.5-29-21-23-28-21l-18-12 1-3q1-3 11.5-18t25.2-30.8q14.8-15.7 29.8-28.2t25-19.5 12.5-6.5 19.5 13.5 28 22.7q11 9.8 25.2 27.3 14.3 17.5 20.8 28t6.5 12z"/>
     <path d="m448.5 488.5h-15.5l-0.2-0.3-0.3-0.2-0.3-0.2-0.2-0.3 0.2-0.3 0.3-0.2 0.5-1.5 0.5-1.5 0.5-1 0.5-1 8-13.5q8-13.5 12.3-19.5 4.2-6 8-9.5 3.7-3.5 20.4-20.3 16.8-16.7 35.3-30.2t32.5-21 31.5-13 30-7 29-0.8q16.5 0.8 13.7 7.8-2.7 7-12 21.2-9.2 14.3-20.7 27.3t-25.5 25.5-31 23.5-36 19-37.5 12-23.5 4.5-20.5 0.5z"/>
     <path d="m364 481 0.5 1 0.5 1 0.5 1 0.3 2 0.2 2-17-0.2q-17-0.3-25-1.3t-25.5-5.5-33.5-11.5-32.5-17.5-30.3-22.2q-13.7-11.8-27.7-28.3t-23.5-32.5l-9.5-16-0.5-1-0.5-1-0.3-2q-0.2-2 25.3-1.8 25.5 0.3 42.5 4.8t35 13.5 35.8 22.3q17.7 13.2 34.2 28.7t28.5 31 17 24 5.5 9.5z"/>
     <path d="m387 475 0.5 4 0.3 3 0.2 3-1.5-0.2-1.5-0.3-0.2-0.3-0.3-0.2-0.5-1-0.5-1-0.3-0.2-0.2-0.3-0.2-0.3-0.3-0.2-0.5-1-0.5-1-9.3-13.2q-9.2-13.3-23.2-29.3t-30.5-31.5-19.7-18.8q-3.3-3.2-9.3-17.2t-9.5-28.5-3.5-35.5 4-38.5 6.3-22.3q2.2-4.7 9.4-1 7.3 3.8 22 15.6 14.8 11.7 26 24 11.3 12.2 21.8 28.7t17.5 33 4 34-3 46.5 1 37.5 1.5 12.5z"/>
     <path d="m417 479-0.5 1-0.3 0.2-0.2 0.3-0.2 0.3-0.3 0.2-0.5 1-0.5 1-0.5 1-0.5 1-0.3 0.2-0.2 0.3h-3l-0.2-0.3-0.3-0.2v-2l0.5-2.5 0.5-2.5 2-19.5q2-19.5 1.5-41t-3.5-40 4.5-34.5 16.8-30.2q9.2-14.3 13.2-20 4-5.8 7.8-9.3 3.7-3.5 11-10 7.2-6.5 7.2-7.5t17-12.8q17-11.7 19.5-13.2t4.3-1.2q1.7 0.2 6.2 14.2t6 24.5 1 28-3.5 31-10.5 30.5-27 34.5-36 36.5-23.5 29.5-7.5 11.5z"/>
    </g>
   </g>
   <rect x="-931.11" y="250" width="135.63" height="38.383" ry="3.6572" fill="#e0f7fa"/>
   <path d="m-925.24 250-9.3094 0.14322c-0.96031 0.19551-0.72741 0.76781-0.42967 1.3606l5.0127 6.7314z" fill="#e0f7fa" fill-rule="evenodd"/>
   <rect x="-931.11" y="294.45" width="135.63" height="38.383" ry="3.6572" fill="#e0f7fa"/>
   <path d="m-925.24 294.45-9.3094 0.14322c-0.96031 0.19551-0.72741 0.76781-0.42967 1.3606l5.0127 6.7314z" fill="#e0f7fa" fill-rule="evenodd"/>
   <rect transform="scale(-1,1)" x="746.07" y="339.4" width="135.63" height="26.597" ry="2.5343" fill="#ede7f6"/>
   <path d="m-751.94 339.4 9.3094 0.14322c0.96031 0.19551 0.72741 0.76781 0.42967 1.3606l-5.0127 6.7314z" fill="#ede7f6" fill-rule="evenodd"/>
   <rect x="-931.11" y="372.21" width="135.63" height="38.383" ry="3.6572" fill="#e0f7fa"/>
   <path d="m-925.24 372.21-9.3094 0.14322c-0.96031 0.19551-0.72741 0.76781-0.42967 1.3606l5.0127 6.7314z" fill="#e0f7fa" fill-rule="evenodd"/>
   <rect x="-931.11" y="417.92" width="67.321" height="79.797" ry="4.0318" fill="#e0f7fa"/>
   <path d="m-925.24 417.92-9.3094 0.14322c-0.96031 0.19551-0.72741 0.76781-0.42967 1.3606l5.0127 6.7314z" fill="#e0f7fa" fill-rule="evenodd"/>
   <rect transform="scale(-1,1)" x="746.07" y="503" width="135.63" height="39.852" ry="3.7972" fill="#ede7f6"/>
   <path d="m-751.94 503 9.3094 0.14322c0.96031 0.19551 0.72741 0.76781 0.42967 1.3606l-5.0127 6.7314z" fill="#ede7f6" fill-rule="evenodd"/>
   <rect transform="scale(-1,1)" x="740.4" y="552" width="193.71" height="21.547" ry="2.053" fill="#f2f2f2"/>
   <path transform="translate(-321.43)" d="m-446.64 222.19c-0.22926 0.0384-0.46352 0.11939-0.69141 0.25391l-1.1621 0.58984c-0.0118 6e-3 -0.022 0.0124-0.0332 0.0195-0.26395 0.16753-0.50424 0.4049-0.50586 0.73828-2e-3 0.32696 0.22117 0.55248 0.42578 0.71485 0.41622 0.33027 1.0504 0.62365 1.8164 1.0332 6e-3 3e-3 0.0129 7e-3 0.0195 0.01 2.3987 1.1694 4.7194 2.3471 7.2402 3.5156 1.0339 0.51788 1.5881 0.70089 3.0195 0.55273a0.25256 0.25256 0 0 0 4e-3 -2e-3c0.80302-0.0933 1.2282-0.13648 1.5625-0.36914 0.18264-0.12709 0.28966-0.31102 0.3418-0.48828 0.0468-0.15922 0.0608-0.3057 0.084-0.46484l-6e-3 0.0234c0.10773-0.43321-0.0542-0.86334-0.30664-1.2207-0.25271-0.35785-0.61681-0.67388-1.0449-0.88672a0.25256 0.25256 0 0 0 -8e-3 -2e-3l-0.0156-8e-3a0.25256 0.25256 0 0 0 -2e-3 0l-7.7266-3.6738c-0.19889-0.10794-0.48069-0.0167-0.57813 0.1875-0.0319 0.0669-0.012 0.14181-4e-3 0.21484l-0.62305-0.30859-4e-3 -2e-3c-0.31437-0.16114-0.66073-0.30575-1.0371-0.38671a0.25256 0.25256 0 0 0 -0.0976 -0.0391c-0.21308-0.036-0.43871-0.0404-0.66797-2e-3zm0.13672 0.81836c0.12741-0.0212 0.25215-0.0153 0.38867 8e-3 0.26826 0.0454 0.57395 0.18215 0.90039 0.34961a0.25256 0.25256 0 0 0 6e-3 2e-3 0.25256 0.25256 0 0 0 0.0176 8e-3l5.6699 2.8027 6e-3 4e-3a0.25256 0.25256 0 0 0 0.0254 0.0156c0.50415 0.27084 0.70162 0.42653 0.73437 0.46875 0.0238 0.0307 0.0513 0.15334 0.0996 0.35742-3e-3 0.0142-0.0103 0.0471-8e-3 0.043 5e-3 -8e-3 0.0189-0.0135-0.0195 6e-3a0.25256 0.25256 0 0 0 0 2e-3c-0.0507 0.0255-0.27751 0.0799-0.56055 0.14648-9.2e-4 2.2e-4 -1e-3 -2.2e-4 -2e-3 0-0.32304 0.06-0.41481 0.0672-0.60547 0.0137-0.18296-0.0517-0.4936-0.20235-1.0449-0.46484a0.25256 0.25256 0 0 0 0 -2e-3l-5.1758-2.6914 0.0117 8e-3c-0.19445-0.11539-0.47862-0.036-0.58399 0.16406-0.0849 0.16125-0.0167 0.35226 0.11133 0.47852-0.70041-0.37166-1.3228-0.68597-1.5586-0.87305-0.0261-0.0207-0.0282-0.0287-0.0449-0.0449 0.0176-0.017 0.0193-0.0239 0.0547-0.0469 1e-3 -8.8e-4 5.7e-4 -1e-3 2e-3 -2e-3l1.1211-0.57031 0.0254-0.0117 4e-3 -2e-3a0.25256 0.25256 0 0 0 0.0234 -0.0117c0.14625-0.0863 0.27494-0.13501 0.40235-0.15625zm8.2383 2.9941 2.0215 0.96094c0.29544 0.1483 0.56352 0.38435 0.72657 0.61523 0.16258 0.23024 0.20194 0.45107 0.18164 0.53516-7e-5 2.7e-4 6e-5 2e-3 0 2e-3 -3e-3 9e-3 -6e-3 0.018-8e-3 0.0273a0.25256 0.25256 0 0 0 -2e-3 0.0117c-0.0271 0.18358-0.0463 0.32054-0.0606 0.36914-0.0203 0.0691 0.0159 0.0138-0.0176 0.0371-5e-3 3e-3 -0.11196 0.0526-0.30665 0.0937-0.19468 0.0411-0.4799 0.0853-0.87109 0.13086l4e-3 -2e-3c-1.3663 0.14141-1.548 0.0431-2.5723-0.4707l-2e-3 -2e-3c-2e-3 -1e-3 -5e-3 -7.3e-4 -8e-3 -2e-3a0.25256 0.25256 0 0 0 -4e-3 -2e-3c-0.1468-0.068-0.27828-0.13693-0.42383-0.20508 0.16321-1e-3 0.33297-0.0238 0.51953-0.0586a0.25256 0.25256 0 0 0 0.0195 -6e-3c0.0103-2e-3 0.0191-5e-3 0.0293-8e-3a0.25256 0.25256 0 0 0 4e-3 -2e-3c0.25403-0.0578 0.49049-0.0901 0.72656-0.20898 0.27451-0.13815 0.47204-0.42628 0.5-0.77735a0.25256 0.25256 0 0 0 0 -8e-3c2e-3 -0.0448-2e-3 -0.0896-0.0137-0.13281-0.0618-0.2536-0.0792-0.49579-0.27344-0.7461-0.0438-0.0565-0.11533-0.10226-0.16992-0.15234z" color="#000000" color-rendering="auto" fill="#fff" image-rendering="auto" shape-rendering="auto" solid-color="#000000" style="block-progression:tb;isolation:auto;mix-blend-mode:normal;text-decoration-color:#000000;text-decoration-line:none;text-decoration-style:solid;text-indent:0;text-transform:none;white-space:normal"/>
   <g transform="matrix(.14465 0 0 .14465 -965.21 535.08)" fill="#ff8a65">
    <path d="m318 187c0-1.657-1.343-3-3-3s-3 1.343-3 3c0 12.15-9.85 22-22 22s-22-9.85-22-22c0-1.657-1.343-3-3-3s-3 1.343-3 3c0 14.45 10.947 26.341 25 27.838v5.16h-8c-1.657 0-3 1.343-3 3s1.343 3 3 3h22c1.657 0 3-1.343 3-3s-1.343-3-3-3h-8v-5.162c14.05-1.5 25-13.39 25-27.84z"/>
    <path d="m290 154c-9.941 0-18 8.059-18 18v14c0 9.941 8.059 18 18 18s18-8.059 18-18v-14c0-9.94-8.06-18-18-18z"/>
    <path d="m272 174h12v-4h-12v4zm0 7h12v-4h-12v4zm0 7h12v-4h-12v4zm24-18v4h12v-4h-12zm0 11h12v-4h-12v4zm0 7h12v-4h-12v4z"/>
   </g>
   <text x="-913.39929" y="567.88416" fill="#b3b3b3" font-family="sans-serif" font-size="13.892px" letter-spacing="0px" stroke-width="1px" word-spacing="0px" style="line-height:125%"><tspan x="-913.39929" y="567.88416">00:15</tspan></text>
   <g transform="translate(-321.43)" fill="#b3b3b3">
    <rect transform="matrix(.70711 .70711 -.70711 .70711 0 0)" x="21.735" y="772.55" width="10.252" height="1.636"/>
    <rect transform="matrix(.70711 -.70711 -.70711 -.70711 0 0)" x="-774.09" y="-23.283" width="10.252" height="1.636"/>
   </g>
   <g transform="matrix(.14465 0 0 .14465 -794.85 535.08)" fill="#26c6da">
    <path d="m318 187c0-1.657-1.343-3-3-3s-3 1.343-3 3c0 12.15-9.85 22-22 22s-22-9.85-22-22c0-1.657-1.343-3-3-3s-3 1.343-3 3c0 14.45 10.947 26.341 25 27.838v5.16h-8c-1.657 0-3 1.343-3 3s1.343 3 3 3h22c1.657 0 3-1.343 3-3s-1.343-3-3-3h-8v-5.162c14.05-1.5 25-13.39 25-27.84z"/>
    <path d="m290 154c-9.941 0-18 8.059-18 18v14c0 9.941 8.059 18 18 18s18-8.059 18-18v-14c0-9.94-8.06-18-18-18z"/>
    <path d="m272 174h12v-4h-12v4zm0 7h12v-4h-12v4zm0 7h12v-4h-12v4zm24-18v4h12v-4h-12zm0 11h12v-4h-12v4zm0 7h12v-4h-12v4z"/>
   </g>
   <rect x="-924.61" y="254.65" width="68.419" height="6.8216" fill="#f06292"/>
   <rect x="-919.96" y="268.04" width="93.673" height="4.8013" fill="#9e9e9e"/>
   <rect x="-919.96" y="277.13" width="43.67" height="4.8013" fill="#9e9e9e"/>
   <rect x="-924.61" y="299.04" width="41.991" height="6.8216" fill="#4dd0e1"/>
   <rect x="-924.61" y="312.42" width="93.673" height="4.8013" fill="#9e9e9e"/>
   <rect x="-924.61" y="321.52" width="78.67" height="4.8013" fill="#9e9e9e"/>
   <rect x="-924.61" y="376.9" width="68.419" height="6.8216" fill="#d4e157"/>
   <rect x="-816.39" y="282.31" width="17.778" height="3.3727" fill="#b2ebf2"/>
   <rect x="-874.61" y="345.28" width="93.673" height="4.8013" fill="#9e9e9e"/>
   <rect x="-874.61" y="354.37" width="59.983" height="4.8013" fill="#9e9e9e"/>
   <rect x="-816.39" y="326.06" width="17.778" height="3.3727" fill="#b2ebf2"/>
   <rect x="-849.6" y="403.56" width="12.474" height="3.3727" fill="#b2ebf2"/>
   <rect x="-887.35" y="490.58" width="17.778" height="3.3727" fill="#b2ebf2"/>
   <rect x="-768.92" y="357.88" width="17.778" height="3.3727" fill="#d1c4e9"/>
   <path transform="matrix(.99961 -.02807 .02807 .99961 -332.81 -16.488)" d="m-584.09 397.2c-0.0285 1.7377-11.169 7.9284-12.659 7.0348s-1.2817-13.637 0.23739-14.481c1.5191-0.84418 12.451 5.7083 12.422 7.446z" fill="#b3b3b3"/>
   <rect x="-899.49" y="395.76" width="62.629" height="1.7678" fill="#b3b3b3"/>
   <circle cx="-898.2" cy="396.48" r="3.052" fill="#29b6f6"/>
   <g transform="matrix(.12807 0 0 .12807 -869.99 361.01)" clip-path="url(#b)">
    <path d="m460.78 136c2.7287-1.16 24.104-1.9214 28.985 0.59987 17.432 51.831 18.173 72.272-15.789 152.96-1.1265-9.6332-1.7067-17.349-0.29905-32.878-3.0261 11.375-4.0859 25.552-12.407 36.423 0.74892-4.3936 0.2527-16.084-0.9544-24.669-2.2698 6.5629-3.9596 20.632-10.061 27.45 1.2837-3.799 0.32459-7.2708-0.0544-11.07l-20.217 18.155c-9.3752-11.153-26.396-22.372-29.589-36.335 2.2532 5.43 6.8032 21.659 9.7084 26.858-6.5933-6.6246-14.843-23.898-19.646-32.32 2.0396 6.992 3.3985 20.525 9.5166 28.537-11.046-6.7873-21.549-27.599-25.671-35.37 1.8685 7.2276 4.9022 22.416 8.6011 33.714-30.119-34.118-36.288-78.124-30.423-132.86 27.54-28.327 69.627-43.35 108.3-19.195z" fill="#333"/>
    <path d="m417.44 264.95 26.153-6.3659c-2.3481 21.011-1.2172 33.414 9.3027 43.311 6.7634 6.3633 58.534 15.628 69.569 18.302 5.4924 4.9171 7.2122 30.876 11.065 47.952h-165.73l-26.473-0.2323c0.69225-5.833 1.4431-12.058 2.2609-18.728 2.4678-14.57 4.4682-25.829 10.517-30.849 6.3089-1.8652 18.364-5.2356 29.961-7.4416 13.728-1.9856 22.764-3.7983 25.316-9.9751 4.0686-9.8477 1.2667-22.753 3.8357-33.163z" fill="#ffe680"/>
    <path d="m441.82 267.88 1.1314 13.427c-2.9669 2.4895-11.053 6.6212-15.251 6.7357-4.8279 0.13204-10.848-2.7598-15.129-5.8903l-1.0779-18.325z" fill="#806600" fill-opacity=".59896"/>
    <path d="m362.05 148.37h128.63c-3.7584 50.902-0.0493 110.6-65.733 132.32-54.583-17.251-64.306-78.273-62.9-132.32z" fill="#ffe680"/>
    <path d="m330.71 377.23 6.3189 6.7247-71.811 14.616-14.78-3.6679-30.854-119.6-9.0728-19.988 5.2165-9.1848 13.945-14.332 8.5906 30.679 38.426 98.149 37.082-16.753z" fill="#ffe680" fill-rule="evenodd"/>
    <path d="m534.69 327.3 48.023 105.4 3.7862 17.382-31.334 57.863-45.446 65.339-12.842-12.897 30.585-54.184 22.793-59.55-36.859-75.515z" fill="#ffe680" fill-rule="evenodd"/>
    <path d="m434.94 333.05c15.43-7.4332 16.868-19.585 17.952-31.157 6.7634 6.3633 71.725 15.628 82.76 18.302 5.4924 4.9171 22.921 41.136 26.773 58.211-8.3344 23.054-19.643 27.326-32.758 35.609l-17.495-40.006-1.1934 174.71c-47.492-16.405-94.785 34.221-145.79 0.7027l-12.041-165.52-23.003 6.8336c-7.133-5.833-32.764-39.434-28.404-46.103 9.7225-10.425 40.457-22.375 46.507-27.395 6.3089-1.8652 24.227-4.1363 35.824-6.3424 13.728-1.9856 22.516-3.5499 25.068-9.7267 3.6422 17.404 9.5274 25.4 25.804 31.88z" fill="#00aad4"/>
    <path d="m488.77 145.25c2.1575 9.9922-3.9518 9.9672-8.8048 15.101-7.0153 17.992-27.748 15.901-47.326 23.148 21.743-12.743 27.942-16.848 36.38-30.391-8.8315 27.418-86.159 19.709-115.44 42.194-2.068-70.33 60.824-67.246 135.19-50.052z" fill="#333" fill-opacity=".43017"/>
    <path d="m379.62 199.75c13.1-14.94 25.473-8.6528 33.239-0.56829v4.884c-9.1578-8.0456-19.156-12.508-33.265 0.63817z" fill="#333"/>
    <path d="m409.29 250.99c9.4386 6.5573 24.873 6.7301 33.317-1.6536" fill="none" stroke="#000" stroke-width="1.9673px"/>
    <path d="m481.63 208.54c1.4459-5.218 7.1495-5.4315 11.144-3.3095 2.5692 6.5448 2.2936 12.415 0.46009 17.916-2.3838 7.1516-7.5874 17-13.158 17.346-2.4174-0.75464-3.8643 1.0532-5.8756-3.5528 3.8574-7.3476 6.041-19.49 7.4291-28.399z" fill="#ffe680" fill-rule="evenodd"/>
    <path d="m368.86 208.54c-1.4457-5.218-7.1495-5.4315-11.144-3.3095-2.5689 6.5448-2.2935 12.415-0.45995 17.916 2.3836 7.1516 7.5874 17 13.158 17.346 2.4174-0.75464 3.8642 1.0532 5.8756-3.5528-3.8573-7.3476-6.0409-19.49-7.4293-28.399z" fill="#ffe680" fill-rule="evenodd"/>
    <path d="m469.08 199.75c-13.1-14.94-25.473-8.6528-33.239-0.56829v4.884c9.1578-8.0456 19.156-12.508 33.265 0.63817z" fill="#333"/>
    <path d="m239.94 249.35 2.5027-14.683 17.551-16.759c-2.1944-5.2274-0.64447-12.918-9.8468-14.447l-12.477 6.5338-13.939-39.104c-5.5936-2.7845-16.35-3.9159-18.887 0.11738l13.459 35.615-20.911-39.333c-8.62-6.9469-16.584-4.18-18.747 6.8884l22.136 37.251-24.326-33.819c-5.9218 0.32392-12.342 8.1015-11.49 13.558l25.194 32.659-22.405-25.238c-4.9898 2.1524-6.1503 7.826-5.828 12.572l19.95 29.042 23.223 22.823z" fill="#a05a2c" fill-rule="evenodd"/>
    <path d="m260.04 217.95-17.619 16.712-2.3319 13.732-4.1456 1.9432 5.182-18.007 18.266-15.416z" fill="#784421" fill-rule="evenodd"/>
    <path d="m213.16 277.11 30.028-11.643-2.2468-19.254-37.073 14.854z" fill="#1a1a1a" fill-rule="evenodd"/>
    <path d="m502.72 531.98-14.64 2.7433-21.804-10.652c-4.1423 3.8707-11.894 5.0834-10.137 14.245l10.455 9.438-31.845 26.632c-0.67244 6.212 1.9956 16.693 6.6584 17.675l28.739-24.972-29.643 33.251c-3.5274 10.494 1.8292 17.005 12.961 15.196l27.265-33.678-23.287 34.543c2.357 5.4421 11.878 8.768 16.7 6.0768l21.898-34.955-15.904 29.766c3.7489 3.934 9.473 3.0554 13.813 1.1076l20.323-28.782 13.356-29.695z" fill="#a05a2c" fill-rule="evenodd"/>
    <path d="m538.04 547.47-21.332-24.128-17.281 8.783 26.786 29.624z" fill="#1a1a1a" fill-rule="evenodd"/>
    <path d="m488.74 140.68c2.2871 10.592-4.1893 10.566-9.3338 16.008-7.4368 19.073-29.415 16.856-50.169 24.539 23.049-13.509 29.621-17.86 38.565-32.217-9.3621 29.066-91.335 20.893-122.38 44.729-2.1922-74.556 95.569-81.132 143.31-53.059z" fill="#333"/>
    <path d="m473.56 161.55c-0.3456 20.386 2.0542 41.594 7.1551 61.534l25.786-52.844-21.016-33.971z" fill="#333"/>
    <path d="m372.23 239.4-13.413-26.004-1.9895-3.8571-9.3991-15.475 26.878-26.84c-4.0751 26.757-3.5004 50.314-2.0762 72.176z" fill="#333"/>
    <path d="m482.6 570.17-6.4774-16.815 16.323-5.441 17.1 0.25909-0.7773 16.841-8.032 15.287z" fill="#1a1a1a" fill-rule="evenodd"/>
    <path d="m486.11 567.55-5.5086-12.522 13.189-4.3964 13.817 0.20935-1.0861 13.058-6.5815 11.619z" fill="#a05a2c" fill-rule="evenodd"/>
   </g>
   <g transform="matrix(.14832 0 0 .14832 -868.91 375.18)" fill="#673ab7">
    <path d="m318 187c0-1.657-1.343-3-3-3s-3 1.343-3 3c0 12.15-9.85 22-22 22s-22-9.85-22-22c0-1.657-1.343-3-3-3s-3 1.343-3 3c0 14.45 10.947 26.341 25 27.838v5.16h-8c-1.657 0-3 1.343-3 3s1.343 3 3 3h22c1.657 0 3-1.343 3-3s-1.343-3-3-3h-8v-5.162c14.05-1.5 25-13.39 25-27.84z"/>
    <path d="m290 154c-9.941 0-18 8.059-18 18v14c0 9.941 8.059 18 18 18s18-8.059 18-18v-14c0-9.94-8.06-18-18-18z"/>
    <path d="m272 174h12v-4h-12v4zm0 7h12v-4h-12v4zm0 7h12v-4h-12v4zm24-18v4h12v-4h-12zm0 11h12v-4h-12v4zm0 7h12v-4h-12v4z"/>
   </g>
   <rect x="-924.07" y="421.18" width="38.062" height="6.8216" fill="#ffca28"/>
   <rect x="-766.91" y="530.99" width="11.843" height="3.3727" fill="#d1c4e9"/>
   <path d="m-873.98 445.51-19.951 15.152-19.445-12.123s-9.7733 6.102-17.736 11.012v34.131c0 2.2336 1.7976 4.0312 4.0312 4.0312h59.258c2.2336 0 4.0312-1.7976 4.0312-4.0312v-39.586l-10.188-8.5859z" fill="#80deea" fill-rule="evenodd"/>
   <path transform="matrix(.99961 -.02807 .02807 .99961 -252.13 109.78)" d="m-584.09 397.2c-0.0285 1.7377-11.169 7.9284-12.659 7.0348s-1.2817-13.637 0.23739-14.481c1.5191-0.84418 12.451 5.7083 12.422 7.446z" fill="#b3b3b3"/>
   <rect x="-818.81" y="522.03" width="62.629" height="1.7678" fill="#b3b3b3"/>
   <circle cx="-817.52" cy="522.75" r="3.052" fill="#29b6f6"/>
   <g transform="matrix(.90502 0 0 .90502 -580.23 77.323)">
    <circle cx="-309.82" cy="492.04" r="16.92" fill="#ff8a65"/>
    <path d="m-315.88 482.85v18.395l7.6348 7.6348a16.92 16.92 0 0 0 15.268 -15.246l-10.783-10.783h-12.119z" fill="#f4511e"/>
    <path d="m-303.76 501.24h-12.119v-18.394h12.119v2.1742h-9.6728v5.0402h9.6728v2.1742h-9.6728v6.8315h9.6728v2.1742z" fill="#fff"/>
   </g>
  </g>
  <path transform="matrix(1.4236 0 0 1.4997 779.33 -237.97)" d="m-446.64 222.19c-0.22926 0.0384-0.46352 0.11939-0.69141 0.25391l-1.1621 0.58984c-0.0118 6e-3 -0.022 0.0124-0.0332 0.0195-0.26395 0.16753-0.50424 0.4049-0.50586 0.73828-2e-3 0.32696 0.22117 0.55248 0.42578 0.71485 0.41622 0.33027 1.0504 0.62365 1.8164 1.0332 6e-3 3e-3 0.0129 7e-3 0.0195 0.01 2.3987 1.1694 4.7194 2.3471 7.2402 3.5156 1.0339 0.51788 1.5881 0.70089 3.0195 0.55273a0.25256 0.25256 0 0 0 4e-3 -2e-3c0.80302-0.0933 1.2282-0.13648 1.5625-0.36914 0.18264-0.12709 0.28966-0.31102 0.3418-0.48828 0.0468-0.15922 0.0608-0.3057 0.084-0.46484l-6e-3 0.0234c0.10773-0.43321-0.0542-0.86334-0.30664-1.2207-0.25271-0.35785-0.61681-0.67388-1.0449-0.88672a0.25256 0.25256 0 0 0 -8e-3 -2e-3l-0.0156-8e-3a0.25256 0.25256 0 0 0 -2e-3 0l-7.7266-3.6738c-0.19889-0.10794-0.48069-0.0167-0.57813 0.1875-0.0319 0.0669-0.012 0.14181-4e-3 0.21484l-0.62305-0.30859-4e-3 -2e-3c-0.31437-0.16114-0.66073-0.30575-1.0371-0.38671a0.25256 0.25256 0 0 0 -0.0976 -0.0391c-0.21308-0.036-0.43871-0.0404-0.66797-2e-3zm0.13672 0.81836c0.12741-0.0212 0.25215-0.0153 0.38867 8e-3 0.26826 0.0454 0.57395 0.18215 0.90039 0.34961a0.25256 0.25256 0 0 0 6e-3 2e-3 0.25256 0.25256 0 0 0 0.0176 8e-3l5.6699 2.8027 6e-3 4e-3a0.25256 0.25256 0 0 0 0.0254 0.0156c0.50415 0.27084 0.70162 0.42653 0.73437 0.46875 0.0238 0.0307 0.0513 0.15334 0.0996 0.35742-3e-3 0.0142-0.0103 0.0471-8e-3 0.043 5e-3 -8e-3 0.0189-0.0135-0.0195 6e-3a0.25256 0.25256 0 0 0 0 2e-3c-0.0507 0.0255-0.27751 0.0799-0.56055 0.14648-9.2e-4 2.2e-4 -1e-3 -2.2e-4 -2e-3 0-0.32304 0.06-0.41481 0.0672-0.60547 0.0137-0.18296-0.0517-0.4936-0.20235-1.0449-0.46484a0.25256 0.25256 0 0 0 0 -2e-3l-5.1758-2.6914 0.0117 8e-3c-0.19445-0.11539-0.47862-0.036-0.58399 0.16406-0.0849 0.16125-0.0167 0.35226 0.11133 0.47852-0.70041-0.37166-1.3228-0.68597-1.5586-0.87305-0.0261-0.0207-0.0282-0.0287-0.0449-0.0449 0.0176-0.017 0.0193-0.0239 0.0547-0.0469 1e-3 -8.8e-4 5.7e-4 -1e-3 2e-3 -2e-3l1.1211-0.57031 0.0254-0.0117 4e-3 -2e-3a0.25256 0.25256 0 0 0 0.0234 -0.0117c0.14625-0.0863 0.27494-0.13501 0.40235-0.15625zm8.2383 2.9941 2.0215 0.96094c0.29544 0.1483 0.56352 0.38435 0.72657 0.61523 0.16258 0.23024 0.20194 0.45107 0.18164 0.53516-7e-5 2.7e-4 6e-5 2e-3 0 2e-3 -3e-3 9e-3 -6e-3 0.018-8e-3 0.0273a0.25256 0.25256 0 0 0 -2e-3 0.0117c-0.0271 0.18358-0.0463 0.32054-0.0606 0.36914-0.0203 0.0691 0.0159 0.0138-0.0176 0.0371-5e-3 3e-3 -0.11196 0.0526-0.30665 0.0937-0.19468 0.0411-0.4799 0.0853-0.87109 0.13086l4e-3 -2e-3c-1.3663 0.14141-1.548 0.0431-2.5723-0.4707l-2e-3 -2e-3c-2e-3 -1e-3 -5e-3 -7.3e-4 -8e-3 -2e-3a0.25256 0.25256 0 0 0 -4e-3 -2e-3c-0.1468-0.068-0.27828-0.13693-0.42383-0.20508 0.16321-1e-3 0.33297-0.0238 0.51953-0.0586a0.25256 0.25256 0 0 0 0.0195 -6e-3c0.0103-2e-3 0.0191-5e-3 0.0293-8e-3a0.25256 0.25256 0 0 0 4e-3 -2e-3c0.25403-0.0578 0.49049-0.0901 0.72656-0.20898 0.27451-0.13815 0.47204-0.42628 0.5-0.77735a0.25256 0.25256 0 0 0 0 -8e-3c2e-3 -0.0448-2e-3 -0.0896-0.0137-0.13281-0.0618-0.2536-0.0792-0.49579-0.27344-0.7461-0.0438-0.0565-0.11533-0.10226-0.16992-0.15234z" color="#000000" color-rendering="auto" fill="#fff" image-rendering="auto" shape-rendering="auto" solid-color="#000000" style="block-progression:tb;isolation:auto;mix-blend-mode:normal;text-decoration-color:#000000;text-decoration-line:none;text-decoration-style:solid;text-indent:0;text-transform:none;white-space:normal"/>
  <g transform="matrix(1.4236 0 0 1.4997 1236.9 -237.97)">
   <rect x="-666.09" y="200.65" width="209.1" height="380.53" fill="#fff" fill-rule="evenodd"/>
   <rect transform="matrix(.95462 0 0 .95462 -24.518 14.108)" x="-654.07" y="242.72" width="184.35" height="102.03" ry="0" fill="#00bcd4" filter="url(#h)"/>
   <rect x="-666.09" y="200.65" width="209.1" height="38.169" fill="#009688" fill-rule="evenodd"/>
   <rect x="-666.09" y="200.65" width="209.1" height="11.056" fill="#00796b" fill-rule="evenodd"/>
   <g transform="translate(-30.977)" fill="#fff">
    <rect x="-442.68" y="203.38" width="2.4273" height="6.4377"/>
    <rect x="-446" y="204.84" width="2.4273" height="4.9825"/>
    <rect x="-449.32" y="206.1" width="2.4273" height="3.7139"/>
    <rect x="-452.57" y="207.45" width="2.4273" height="2.3706"/>
   </g>
   <g transform="translate(-30.977)">
    <path transform="matrix(-.62389 -.78152 .62389 -.78152 0 0)" d="m240.55-502.58a6.7621 6.7621 0 0 1 -6.762 6.762v-6.762z" fill="#f2f2f2"/>
    <path transform="matrix(-.62389 -.78152 .62389 -.78152 0 0)" d="m239.02-502.59a5.2197 5.2197 0 0 1 -5.2197 5.2197v-5.2197z" fill="#fff"/>
   </g>
   <g transform="translate(-30.977)" fill="#fff">
    <rect x="-436.88" y="203.03" width="4.2411" height="6.6964"/>
    <rect x="-435.83" y="202.27" width="2.1429" height="1.1607"/>
   </g>
   <path d="m-509.7 220.19c-2.1704 0-3.9299 1.7596-3.9299 3.9299s1.7596 3.9299 3.9299 3.9299c0.84875 0 1.634-0.26995 2.2763-0.72739l2.1868 2.1868c0.20461 0.20463 0.53647 0.20463 0.74093 0l0.18549-0.18524c0.20177-0.20304 0.20158-0.53582-4e-3 -0.74019v-2.5e-4l-2.187-2.1871c0.45849-0.64319 0.7284-1.4277 0.7284-2.2766 0-2.1704-1.7596-3.9299-3.9299-3.9299zm0 1.0485a2.8819 2.8819 0 0 1 2.882 2.882 2.8819 2.8819 0 0 1 -2.882 2.882 2.8819 2.8819 0 0 1 -2.8817 -2.882 2.8819 2.8819 0 0 1 2.8817 -2.882z" fill="#fff"/>
   <rect x="-631.86" y="218.79" width="54.286" height="11.429" ry="1.2627" fill="#fff"/>
   <ellipse cx="-465.13" cy="221.64" rx="1.3857" ry="1.3574" fill="#fff"/>
   <ellipse cx="-465.13" cy="225.17" rx="1.3857" ry="1.3574" fill="#fff"/>
   <ellipse cx="-465.13" cy="228.8" rx="1.3857" ry="1.3574" fill="#fff"/>
   <g transform="matrix(.030609 0 0 .030609 -657.54 215.26)" fill="#fff" fill-rule="evenodd" stroke-width=".5">
    <path d="m260.86 433.97v-9l0.3-0.2 0.2-0.3 24.5-1.5q24.5-1.5 48-7.5t46-16 40-21.5 31.7-24.2q14.3-12.8 25.3-26.3t20-29.5 11.7-22.2q2.8-6.3 16.8-2.3t31.2 11.7q17.3 7.8 30.8 16.8t20.5 16.5 6.5 11-10.5 19.5-25.3 35.2q-15.2 19.3-25.7 31.6-10.5 12.2-12.7 13.7-2.3 1.5-2.6 2.5-0.2 1-17.2 15.2-17 14.3-33 24.3t-32 16.5-28.5 9.5-21 4-28 0.5-37-4-33-9.5-24.5-12.5-14.2-14.8q-5.3-8.2-6.8-13.2t-1.5-14z" stroke="#b4d881"/>
    <path d="m183.86 422.47 21.5 1 0.2 0.3 0.3 0.2v9q0 9-2 15.5t-6.7 13.3q-4.8 6.7-13 13-8.3 6.2-24 12.4-15.8 6.3-32.8 9.8t-43.5 3.5-43.5-4-32-10.5-29.5-15.5-33.5-25.3q-19-16.2-28.8-27.2-9.7-11-27.2-33t-27-37.5-10-19 1-5.5 11.2-10.8q9.8-8.7 26.8-18.2t36-16.5 24-7.5 5.8 1.2q0.7 1.8 8.2 16.8t18.2 30.5q10.8 15.5 11.8 15.5t1.2 1q0.3 1 10.6 10.8 10.2 9.7 23.7 20.2t30.5 20 37 17.5 42 13 43.5 6z" stroke="#b3d880"/>
    <path d="m370.36 276.97-1 0.5-0.2 0.3-0.3 0.2-0.3 0.2-0.2 0.3-1 0.5-1 0.5-0.2 0.3-0.3 0.2-0.3 0.2-0.2 0.3-1 0.3-1 0.2 0.2-1.5 0.3-1.5 0.5-1.5 0.5-1.5 4.5-16q4.5-16 5.5-25t0.5-26-4.5-34.5-5.5-22.5 17.8-12.8q19.2-7.7 46.2-14.7t48.5-9.5 24.7 9.2q3.3 11.8 5.3 26.8t1.5 37-4 39-4.8 19.8q-1.2 2.7-21.7 1.7t-36.5 1.5-31.8 8.2q-15.7 5.8-27.4 12.6-11.8 6.7-12.8 7.2z" stroke="#b3d881"/>
    <path d="m102.36 273.47 0.5 1.5 0.5 1.5 0.5 1.5v3l-0.3-0.2-0.2-0.3-1-0.5-1-0.5-1-0.5-1-0.5-0.2-0.3-0.3-0.2-0.3-0.2-0.2-0.3-16.5-9q-16.5-9-34-14.5t-24.5-6.5-31.8-0.7q-24.7 0.2-28.7-15.3t-5-24.5-0.5-31 4.5-42.5 4.7-21.7q0.8-1.3 21.3 1.2t46.5 9 48 14.8q22 8.2 16.8 28.2-5.3 20-6.3 36.5t1.5 35 5 27 3 10z" stroke="#b3d880"/>
    <g transform="translate(-165.64 -83.029)" stroke="#b4d881">
     <path d="m503.5 218.5v1.5l-0.3 0.2q-0.2 0.3-3.2 1.8t-17 10.5-26.8 20.3q-12.7 11.2-25 27-12.2 15.7-20.4 31.4l-8.3 15.8-0.5 1-0.5 1-0.5 1-0.5 1-0.5 1-0.5 1-0.3-0.2-0.2-0.3-0.2-0.3-0.3-0.2-0.3-0.2-0.2-0.3-0.2-0.3-0.3-0.2-0.5-1.5-0.5-1.5-0.5-1q-0.5-1-1.5-3.5t-9.5-17.5-19.5-29-21-23-28-21l-18-12 1-3q1-3 11.5-18t25.2-30.8q14.8-15.7 29.8-28.2t25-19.5 12.5-6.5 19.5 13.5 28 22.7q11 9.8 25.2 27.3 14.3 17.5 20.8 28t6.5 12z"/>
     <path d="m448.5 488.5h-15.5l-0.2-0.3-0.3-0.2-0.3-0.2-0.2-0.3 0.2-0.3 0.3-0.2 0.5-1.5 0.5-1.5 0.5-1 0.5-1 8-13.5q8-13.5 12.3-19.5 4.2-6 8-9.5 3.7-3.5 20.4-20.3 16.8-16.7 35.3-30.2t32.5-21 31.5-13 30-7 29-0.8q16.5 0.8 13.7 7.8-2.7 7-12 21.2-9.2 14.3-20.7 27.3t-25.5 25.5-31 23.5-36 19-37.5 12-23.5 4.5-20.5 0.5z"/>
     <path d="m364 481 0.5 1 0.5 1 0.5 1 0.3 2 0.2 2-17-0.2q-17-0.3-25-1.3t-25.5-5.5-33.5-11.5-32.5-17.5-30.3-22.2q-13.7-11.8-27.7-28.3t-23.5-32.5l-9.5-16-0.5-1-0.5-1-0.3-2q-0.2-2 25.3-1.8 25.5 0.3 42.5 4.8t35 13.5 35.8 22.3q17.7 13.2 34.2 28.7t28.5 31 17 24 5.5 9.5z"/>
     <path d="m387 475 0.5 4 0.3 3 0.2 3-1.5-0.2-1.5-0.3-0.2-0.3-0.3-0.2-0.5-1-0.5-1-0.3-0.2-0.2-0.3-0.2-0.3-0.3-0.2-0.5-1-0.5-1-9.3-13.2q-9.2-13.3-23.2-29.3t-30.5-31.5-19.7-18.8q-3.3-3.2-9.3-17.2t-9.5-28.5-3.5-35.5 4-38.5 6.3-22.3q2.2-4.7 9.4-1 7.3 3.8 22 15.6 14.8 11.7 26 24 11.3 12.2 21.8 28.7t17.5 33 4 34-3 46.5 1 37.5 1.5 12.5z"/>
     <path d="m417 479-0.5 1-0.3 0.2-0.2 0.3-0.2 0.3-0.3 0.2-0.5 1-0.5 1-0.5 1-0.5 1-0.3 0.2-0.2 0.3h-3l-0.2-0.3-0.3-0.2v-2l0.5-2.5 0.5-2.5 2-19.5q2-19.5 1.5-41t-3.5-40 4.5-34.5 16.8-30.2q9.2-14.3 13.2-20 4-5.8 7.8-9.3 3.7-3.5 11-10 7.2-6.5 7.2-7.5t17-12.8q17-11.7 19.5-13.2t4.3-1.2q1.7 0.2 6.2 14.2t6 24.5 1 28-3.5 31-10.5 30.5-27 34.5-36 36.5-23.5 29.5-7.5 11.5z"/>
    </g>
   </g>
   <rect x="-655.4" y="360.06" width="135.63" height="38.383" ry="3.6572" fill="#e0f7fa"/>
   <path d="m-649.53 360.06-9.3094 0.14322c-0.96031 0.19551-0.72741 0.76781-0.42967 1.3606l5.0127 6.7314z" fill="#e0f7fa" fill-rule="evenodd"/>
   <rect x="-655.4" y="405.78" width="67.321" height="79.797" ry="4.0318" fill="#e0f7fa"/>
   <path d="m-649.53 405.78-9.3094 0.14322c-0.96031 0.19551-0.72741 0.76781-0.42967 1.3606l5.0127 6.7314z" fill="#e0f7fa" fill-rule="evenodd"/>
   <rect transform="scale(-1,1)" x="470.36" y="490.86" width="135.63" height="39.852" ry="3.7972" fill="#ede7f6"/>
   <path d="m-476.23 490.86 9.3094 0.14322c0.96031 0.19551 0.72741 0.76781 0.42967 1.3606l-5.0127 6.7314z" fill="#ede7f6" fill-rule="evenodd"/>
   <rect transform="scale(-1,1)" x="495.76" y="552" width="162.64" height="21.547" ry="2.053" fill="#f2f2f2"/>
   <g transform="matrix(.14465 0 0 .14465 -689.49 535.08)" fill="#ff8a65">
    <path d="m318 187c0-1.657-1.343-3-3-3s-3 1.343-3 3c0 12.15-9.85 22-22 22s-22-9.85-22-22c0-1.657-1.343-3-3-3s-3 1.343-3 3c0 14.45 10.947 26.341 25 27.838v5.16h-8c-1.657 0-3 1.343-3 3s1.343 3 3 3h22c1.657 0 3-1.343 3-3s-1.343-3-3-3h-8v-5.162c14.05-1.5 25-13.39 25-27.84z"/>
    <path d="m290 154c-9.941 0-18 8.059-18 18v14c0 9.941 8.059 18 18 18s18-8.059 18-18v-14c0-9.94-8.06-18-18-18z"/>
    <path d="m272 174h12v-4h-12v4zm0 7h12v-4h-12v4zm0 7h12v-4h-12v4zm24-18v4h12v-4h-12zm0 11h12v-4h-12v4zm0 7h12v-4h-12v4z"/>
   </g>
   <text x="-637.685" y="567.88416" fill="#b3b3b3" font-family="sans-serif" font-size="13.892px" letter-spacing="0px" stroke-width="1px" word-spacing="0px" style="line-height:125%"><tspan x="-637.685" y="567.88416">00:15</tspan></text>
   <g transform="translate(-45.714)" fill="#b3b3b3">
    <rect transform="matrix(.70711 .70711 -.70711 .70711 0 0)" x="21.735" y="772.55" width="10.252" height="1.636"/>
    <rect transform="matrix(.70711 -.70711 -.70711 -.70711 0 0)" x="-774.09" y="-23.283" width="10.252" height="1.636"/>
   </g>
   <circle cx="-477.19" cy="562.81" r="10.804" fill="#42a5f5"/>
   <g transform="matrix(.14465 0 0 .14465 -519.14 535.08)" fill="#fff">
    <path d="m318 187c0-1.657-1.343-3-3-3s-3 1.343-3 3c0 12.15-9.85 22-22 22s-22-9.85-22-22c0-1.657-1.343-3-3-3s-3 1.343-3 3c0 14.45 10.947 26.341 25 27.838v5.16h-8c-1.657 0-3 1.343-3 3s1.343 3 3 3h22c1.657 0 3-1.343 3-3s-1.343-3-3-3h-8v-5.162c14.05-1.5 25-13.39 25-27.84z"/>
    <path d="m290 154c-9.941 0-18 8.059-18 18v14c0 9.941 8.059 18 18 18s18-8.059 18-18v-14c0-9.94-8.06-18-18-18z"/>
    <path d="m272 174h12v-4h-12v4zm0 7h12v-4h-12v4zm0 7h12v-4h-12v4zm24-18v4h12v-4h-12zm0 11h12v-4h-12v4zm0 7h12v-4h-12v4z"/>
   </g>
   <rect x="-648.89" y="364.75" width="68.419" height="6.8216" fill="#d4e157"/>
   <rect x="-573.89" y="391.42" width="12.474" height="3.3727" fill="#b2ebf2"/>
   <rect x="-611.64" y="478.43" width="17.778" height="3.3727" fill="#b2ebf2"/>
   <path transform="matrix(.99961 -.02807 .02807 .99961 -57.094 -28.63)" d="m-584.09 397.2c-0.0285 1.7377-11.169 7.9284-12.659 7.0348s-1.2817-13.637 0.23739-14.481c1.5191-0.84418 12.451 5.7083 12.422 7.446z" fill="#b3b3b3"/>
   <rect x="-623.77" y="383.62" width="62.629" height="1.7678" fill="#b3b3b3"/>
   <circle cx="-622.48" cy="384.34" r="3.052" fill="#29b6f6"/>
   <g transform="matrix(.12807 0 0 .12807 -594.27 348.86)" clip-path="url(#b)">
    <path d="m460.78 136c2.7287-1.16 24.104-1.9214 28.985 0.59987 17.432 51.831 18.173 72.272-15.789 152.96-1.1265-9.6332-1.7067-17.349-0.29905-32.878-3.0261 11.375-4.0859 25.552-12.407 36.423 0.74892-4.3936 0.2527-16.084-0.9544-24.669-2.2698 6.5629-3.9596 20.632-10.061 27.45 1.2837-3.799 0.32459-7.2708-0.0544-11.07l-20.217 18.155c-9.3752-11.153-26.396-22.372-29.589-36.335 2.2532 5.43 6.8032 21.659 9.7084 26.858-6.5933-6.6246-14.843-23.898-19.646-32.32 2.0396 6.992 3.3985 20.525 9.5166 28.537-11.046-6.7873-21.549-27.599-25.671-35.37 1.8685 7.2276 4.9022 22.416 8.6011 33.714-30.119-34.118-36.288-78.124-30.423-132.86 27.54-28.327 69.627-43.35 108.3-19.195z" fill="#333"/>
    <path d="m417.44 264.95 26.153-6.3659c-2.3481 21.011-1.2172 33.414 9.3027 43.311 6.7634 6.3633 58.534 15.628 69.569 18.302 5.4924 4.9171 7.2122 30.876 11.065 47.952h-165.73l-26.473-0.2323c0.69225-5.833 1.4431-12.058 2.2609-18.728 2.4678-14.57 4.4682-25.829 10.517-30.849 6.3089-1.8652 18.364-5.2356 29.961-7.4416 13.728-1.9856 22.764-3.7983 25.316-9.9751 4.0686-9.8477 1.2667-22.753 3.8357-33.163z" fill="#ffe680"/>
    <path d="m441.82 267.88 1.1314 13.427c-2.9669 2.4895-11.053 6.6212-15.251 6.7357-4.8279 0.13204-10.848-2.7598-15.129-5.8903l-1.0779-18.325z" fill="#806600" fill-opacity=".59896"/>
    <path d="m362.05 148.37h128.63c-3.7584 50.902-0.0493 110.6-65.733 132.32-54.583-17.251-64.306-78.273-62.9-132.32z" fill="#ffe680"/>
    <path d="m330.71 377.23 6.3189 6.7247-71.811 14.616-14.78-3.6679-30.854-119.6-9.0728-19.988 5.2165-9.1848 13.945-14.332 8.5906 30.679 38.426 98.149 37.082-16.753z" fill="#ffe680" fill-rule="evenodd"/>
    <path d="m534.69 327.3 48.023 105.4 3.7862 17.382-31.334 57.863-45.446 65.339-12.842-12.897 30.585-54.184 22.793-59.55-36.859-75.515z" fill="#ffe680" fill-rule="evenodd"/>
    <path d="m434.94 333.05c15.43-7.4332 16.868-19.585 17.952-31.157 6.7634 6.3633 71.725 15.628 82.76 18.302 5.4924 4.9171 22.921 41.136 26.773 58.211-8.3344 23.054-19.643 27.326-32.758 35.609l-17.495-40.006-1.1934 174.71c-47.492-16.405-94.785 34.221-145.79 0.7027l-12.041-165.52-23.003 6.8336c-7.133-5.833-32.764-39.434-28.404-46.103 9.7225-10.425 40.457-22.375 46.507-27.395 6.3089-1.8652 24.227-4.1363 35.824-6.3424 13.728-1.9856 22.516-3.5499 25.068-9.7267 3.6422 17.404 9.5274 25.4 25.804 31.88z" fill="#00aad4"/>
    <path d="m488.77 145.25c2.1575 9.9922-3.9518 9.9672-8.8048 15.101-7.0153 17.992-27.748 15.901-47.326 23.148 21.743-12.743 27.942-16.848 36.38-30.391-8.8315 27.418-86.159 19.709-115.44 42.194-2.068-70.33 60.824-67.246 135.19-50.052z" fill="#333" fill-opacity=".43017"/>
    <path d="m379.62 199.75c13.1-14.94 25.473-8.6528 33.239-0.56829v4.884c-9.1578-8.0456-19.156-12.508-33.265 0.63817z" fill="#333"/>
    <path d="m409.29 250.99c9.4386 6.5573 24.873 6.7301 33.317-1.6536" fill="none" stroke="#000" stroke-width="1.9673px"/>
    <path d="m481.63 208.54c1.4459-5.218 7.1495-5.4315 11.144-3.3095 2.5692 6.5448 2.2936 12.415 0.46009 17.916-2.3838 7.1516-7.5874 17-13.158 17.346-2.4174-0.75464-3.8643 1.0532-5.8756-3.5528 3.8574-7.3476 6.041-19.49 7.4291-28.399z" fill="#ffe680" fill-rule="evenodd"/>
    <path d="m368.86 208.54c-1.4457-5.218-7.1495-5.4315-11.144-3.3095-2.5689 6.5448-2.2935 12.415-0.45995 17.916 2.3836 7.1516 7.5874 17 13.158 17.346 2.4174-0.75464 3.8642 1.0532 5.8756-3.5528-3.8573-7.3476-6.0409-19.49-7.4293-28.399z" fill="#ffe680" fill-rule="evenodd"/>
    <path d="m469.08 199.75c-13.1-14.94-25.473-8.6528-33.239-0.56829v4.884c9.1578-8.0456 19.156-12.508 33.265 0.63817z" fill="#333"/>
    <path d="m239.94 249.35 2.5027-14.683 17.551-16.759c-2.1944-5.2274-0.64447-12.918-9.8468-14.447l-12.477 6.5338-13.939-39.104c-5.5936-2.7845-16.35-3.9159-18.887 0.11738l13.459 35.615-20.911-39.333c-8.62-6.9469-16.584-4.18-18.747 6.8884l22.136 37.251-24.326-33.819c-5.9218 0.32392-12.342 8.1015-11.49 13.558l25.194 32.659-22.405-25.238c-4.9898 2.1524-6.1503 7.826-5.828 12.572l19.95 29.042 23.223 22.823z" fill="#a05a2c" fill-rule="evenodd"/>
    <path d="m260.04 217.95-17.619 16.712-2.3319 13.732-4.1456 1.9432 5.182-18.007 18.266-15.416z" fill="#784421" fill-rule="evenodd"/>
    <path d="m213.16 277.11 30.028-11.643-2.2468-19.254-37.073 14.854z" fill="#1a1a1a" fill-rule="evenodd"/>
    <path d="m502.72 531.98-14.64 2.7433-21.804-10.652c-4.1423 3.8707-11.894 5.0834-10.137 14.245l10.455 9.438-31.845 26.632c-0.67244 6.212 1.9956 16.693 6.6584 17.675l28.739-24.972-29.643 33.251c-3.5274 10.494 1.8292 17.005 12.961 15.196l27.265-33.678-23.287 34.543c2.357 5.4421 11.878 8.768 16.7 6.0768l21.898-34.955-15.904 29.766c3.7489 3.934 9.473 3.0554 13.813 1.1076l20.323-28.782 13.356-29.695z" fill="#a05a2c" fill-rule="evenodd"/>
    <path d="m538.04 547.47-21.332-24.128-17.281 8.783 26.786 29.624z" fill="#1a1a1a" fill-rule="evenodd"/>
    <path d="m488.74 140.68c2.2871 10.592-4.1893 10.566-9.3338 16.008-7.4368 19.073-29.415 16.856-50.169 24.539 23.049-13.509 29.621-17.86 38.565-32.217-9.3621 29.066-91.335 20.893-122.38 44.729-2.1922-74.556 95.569-81.132 143.31-53.059z" fill="#333"/>
    <path d="m473.56 161.55c-0.3456 20.386 2.0542 41.594 7.1551 61.534l25.786-52.844-21.016-33.971z" fill="#333"/>
    <path d="m372.23 239.4-13.413-26.004-1.9895-3.8571-9.3991-15.475 26.878-26.84c-4.0751 26.757-3.5004 50.314-2.0762 72.176z" fill="#333"/>
    <path d="m482.6 570.17-6.4774-16.815 16.323-5.441 17.1 0.25909-0.7773 16.841-8.032 15.287z" fill="#1a1a1a" fill-rule="evenodd"/>
    <path d="m486.11 567.55-5.5086-12.522 13.189-4.3964 13.817 0.20935-1.0861 13.058-6.5815 11.619z" fill="#a05a2c" fill-rule="evenodd"/>
   </g>
   <g transform="matrix(.14832 0 0 .14832 -593.19 363.03)" fill="#673ab7">
    <path d="m318 187c0-1.657-1.343-3-3-3s-3 1.343-3 3c0 12.15-9.85 22-22 22s-22-9.85-22-22c0-1.657-1.343-3-3-3s-3 1.343-3 3c0 14.45 10.947 26.341 25 27.838v5.16h-8c-1.657 0-3 1.343-3 3s1.343 3 3 3h22c1.657 0 3-1.343 3-3s-1.343-3-3-3h-8v-5.162c14.05-1.5 25-13.39 25-27.84z"/>
    <path d="m290 154c-9.941 0-18 8.059-18 18v14c0 9.941 8.059 18 18 18s18-8.059 18-18v-14c0-9.94-8.06-18-18-18z"/>
    <path d="m272 174h12v-4h-12v4zm0 7h12v-4h-12v4zm0 7h12v-4h-12v4zm24-18v4h12v-4h-12zm0 11h12v-4h-12v4zm0 7h12v-4h-12v4z"/>
   </g>
   <rect x="-648.36" y="409.04" width="38.062" height="6.8216" fill="#ffca28"/>
   <rect x="-491.19" y="518.84" width="11.843" height="3.3727" fill="#d1c4e9"/>
   <path d="m-598.27 433.37-19.951 15.152-19.445-12.123s-9.7733 6.102-17.736 11.012v34.131c0 2.2336 1.7976 4.0312 4.0312 4.0312h59.258c2.2336 0 4.0312-1.7976 4.0312-4.0312v-39.586l-10.188-8.5859z" fill="#80deea" fill-rule="evenodd"/>
   <path transform="matrix(.99961 -.02807 .02807 .99961 23.581 97.639)" d="m-584.09 397.2c-0.0285 1.7377-11.169 7.9284-12.659 7.0348s-1.2817-13.637 0.23739-14.481c1.5191-0.84418 12.451 5.7083 12.422 7.446z" fill="#b3b3b3"/>
   <rect x="-543.1" y="509.89" width="62.629" height="1.7678" fill="#b3b3b3"/>
   <circle cx="-541.81" cy="510.61" r="3.052" fill="#29b6f6"/>
   <g transform="matrix(.90502 0 0 .90502 -304.52 65.18)">
    <circle cx="-309.82" cy="492.04" r="16.92" fill="#ff8a65"/>
    <path d="m-315.88 482.85v18.395l7.6348 7.6348a16.92 16.92 0 0 0 15.268 -15.246l-10.783-10.783h-12.119z" fill="#f4511e"/>
    <path d="m-303.76 501.24h-12.119v-18.394h12.119v2.1742h-9.6728v5.0402h9.6728v2.1742h-9.6728v6.8315h9.6728v2.1742z" fill="#fff"/>
   </g>
   <path transform="translate(-43.725 -1.4968)" d="m-446.64 222.19c-0.22926 0.0384-0.46352 0.11939-0.69141 0.25391l-1.1621 0.58984c-0.0118 6e-3 -0.022 0.0124-0.0332 0.0195-0.26395 0.16753-0.50424 0.4049-0.50586 0.73828-2e-3 0.32696 0.22117 0.55248 0.42578 0.71485 0.41622 0.33027 1.0504 0.62365 1.8164 1.0332 6e-3 3e-3 0.0129 7e-3 0.0195 0.01 2.3987 1.1694 4.7194 2.3471 7.2402 3.5156 1.0339 0.51788 1.5881 0.70089 3.0195 0.55273a0.25256 0.25256 0 0 0 4e-3 -2e-3c0.80302-0.0933 1.2282-0.13648 1.5625-0.36914 0.18264-0.12709 0.28966-0.31102 0.3418-0.48828 0.0468-0.15922 0.0608-0.3057 0.084-0.46484l-6e-3 0.0234c0.10773-0.43321-0.0542-0.86334-0.30664-1.2207-0.25271-0.35785-0.61681-0.67388-1.0449-0.88672a0.25256 0.25256 0 0 0 -8e-3 -2e-3l-0.0156-8e-3a0.25256 0.25256 0 0 0 -2e-3 0l-7.7266-3.6738c-0.19889-0.10794-0.48069-0.0167-0.57813 0.1875-0.0319 0.0669-0.012 0.14181-4e-3 0.21484l-0.62305-0.30859-4e-3 -2e-3c-0.31437-0.16114-0.66073-0.30575-1.0371-0.38671a0.25256 0.25256 0 0 0 -0.0976 -0.0391c-0.21308-0.036-0.43871-0.0404-0.66797-2e-3zm0.13672 0.81836c0.12741-0.0212 0.25215-0.0153 0.38867 8e-3 0.26826 0.0454 0.57395 0.18215 0.90039 0.34961a0.25256 0.25256 0 0 0 6e-3 2e-3 0.25256 0.25256 0 0 0 0.0176 8e-3l5.6699 2.8027 6e-3 4e-3a0.25256 0.25256 0 0 0 0.0254 0.0156c0.50415 0.27084 0.70162 0.42653 0.73437 0.46875 0.0238 0.0307 0.0513 0.15334 0.0996 0.35742-3e-3 0.0142-0.0103 0.0471-8e-3 0.043 5e-3 -8e-3 0.0189-0.0135-0.0195 6e-3a0.25256 0.25256 0 0 0 0 2e-3c-0.0507 0.0255-0.27751 0.0799-0.56055 0.14648-9.2e-4 2.2e-4 -1e-3 -2.2e-4 -2e-3 0-0.32304 0.06-0.41481 0.0672-0.60547 0.0137-0.18296-0.0517-0.4936-0.20235-1.0449-0.46484a0.25256 0.25256 0 0 0 0 -2e-3l-5.1758-2.6914 0.0117 8e-3c-0.19445-0.11539-0.47862-0.036-0.58399 0.16406-0.0849 0.16125-0.0167 0.35226 0.11133 0.47852-0.70041-0.37166-1.3228-0.68597-1.5586-0.87305-0.0261-0.0207-0.0282-0.0287-0.0449-0.0449 0.0176-0.017 0.0193-0.0239 0.0547-0.0469 1e-3 -8.8e-4 5.7e-4 -1e-3 2e-3 -2e-3l1.1211-0.57031 0.0254-0.0117 4e-3 -2e-3a0.25256 0.25256 0 0 0 0.0234 -0.0117c0.14625-0.0863 0.27494-0.13501 0.40235-0.15625zm8.2383 2.9941 2.0215 0.96094c0.29544 0.1483 0.56352 0.38435 0.72657 0.61523 0.16258 0.23024 0.20194 0.45107 0.18164 0.53516-7e-5 2.7e-4 6e-5 2e-3 0 2e-3 -3e-3 9e-3 -6e-3 0.018-8e-3 0.0273a0.25256 0.25256 0 0 0 -2e-3 0.0117c-0.0271 0.18358-0.0463 0.32054-0.0606 0.36914-0.0203 0.0691 0.0159 0.0138-0.0176 0.0371-5e-3 3e-3 -0.11196 0.0526-0.30665 0.0937-0.19468 0.0411-0.4799 0.0853-0.87109 0.13086l4e-3 -2e-3c-1.3663 0.14141-1.548 0.0431-2.5723-0.4707l-2e-3 -2e-3c-2e-3 -1e-3 -5e-3 -7.3e-4 -8e-3 -2e-3a0.25256 0.25256 0 0 0 -4e-3 -2e-3c-0.1468-0.068-0.27828-0.13693-0.42383-0.20508 0.16321-1e-3 0.33297-0.0238 0.51953-0.0586a0.25256 0.25256 0 0 0 0.0195 -6e-3c0.0103-2e-3 0.0191-5e-3 0.0293-8e-3a0.25256 0.25256 0 0 0 4e-3 -2e-3c0.25403-0.0578 0.49049-0.0901 0.72656-0.20898 0.27451-0.13815 0.47204-0.42628 0.5-0.77735a0.25256 0.25256 0 0 0 0 -8e-3c2e-3 -0.0448-2e-3 -0.0896-0.0137-0.13281-0.0618-0.2536-0.0792-0.49579-0.27344-0.7461-0.0438-0.0565-0.11533-0.10226-0.16992-0.15234z" color="#000000" color-rendering="auto" fill="#fff" image-rendering="auto" shape-rendering="auto" solid-color="#000000" style="block-progression:tb;isolation:auto;mix-blend-mode:normal;text-decoration-color:#000000;text-decoration-line:none;text-decoration-style:solid;text-indent:0;text-transform:none;white-space:normal"/>
   <rect x="-654.07" y="242.72" width="184.35" height="102.03" ry="3.9286" fill="#fff"/>
   <path d="m-483.86 233.63 9.4702 11.743h-19.572z" fill="#fff" fill-rule="evenodd"/>
   <circle cx="-621.58" cy="269.12" r="19.328" fill="#b39ddb"/>
   <rect x="-632.47" y="262.07" width="22.114" height="15.388" ry="1.9106" fill="#fff"/>
   <path d="m-615.34 267.49-7.0196 3.064-2.8095-2.1522-5.4285 3.2452v2.8426c0 0.86581 0.69659 1.5624 1.5624 1.5624h14.963c0.86581 0 1.5624-0.69659 1.5624-1.5624v-4.9271z" fill="#b39ddb"/>
   <circle cx="-628.44" cy="266.53" r="1.2169" fill="#b39ddb"/>
   <circle cx="-558.84" cy="269.12" r="19.328" fill="#ffc107"/>
   <rect x="-569.73" y="262.07" width="22.114" height="15.388" ry="1.9106" fill="#fff"/>
   <circle cx="-558.33" cy="270.01" r="5.4469" fill="#ffc107"/>
   <circle cx="-558.3" cy="269.98" r="4.2553" fill="#fff"/>
   <rect x="-567.26" y="260.53" width="5.6821" height="3.1567" ry="1.0102" fill="#fff"/>
   <circle cx="-498.73" cy="269.12" r="19.328" fill="#ff7043"/>
   <rect x="-509.62" y="263.43" width="16.042" height="11.163" ry=".94411" fill="#fff"/>
   <path transform="matrix(-.51717 -.014522 -.014522 .51717 -792.17 54.901)" d="m-584.09 397.2c-2e-3 0.1448-12.535 7.1093-12.659 7.0348-0.12422-0.0745 0.1108-14.41 0.23739-14.481 0.1266-0.0704 12.424 7.3012 12.422 7.446z" fill="#fff"/>
   <rect x="-489.73" y="264.76" width="1.1996" height="8.2075" ry=".59978" fill="#fff"/>
   <circle cx="-621.58" cy="316.6" r="19.328" fill="#ec407a"/>
   <g transform="matrix(.085215 0 0 .085215 -657.51 281.97)" fill="#fff">
    <path d="m357.08 299.52c18.004-11.895 39.692-17.242 61.112-17.601 17.711-0.284 35.745 1.5822 52.379 7.9782 14.955 5.661 28.253 15.326 38.745 27.353 8.5239 9.7946 15.662 20.803 21.274 32.511 4.6119 9.9366 8.0828 20.733 7.7389 31.803 0.0424 3.4484-1.2658 6.6975-1.4501 10.124 0.15198 1.6171 0.47833 3.2117 0.72754 4.8188 3.3862 2.6087 5.4217 6.5854 6.5754 10.622 0.75507 2.5913 0.80231 5.3271 0.18445 7.9533-0.5058 7.0314 0.77722 14.008 1.2532 21.009-0.0623 2.4617 2.5115 3.7449 3.2864 5.8828 2.1329 18.371-0.71258 37.1-7.0537 54.41-1.7891 4.9782-3.8171 9.8668-5.9799 14.696-0.76746 1.9061-2.2201 3.426-3.6104 4.9011-1.7466 1.0814-3.7051 1.784-5.504 2.7856-0.65772 1.8662-1.176 3.7848-1.9135 5.6262-1.6918 1.6918-3.9268 2.7856-6.2989 3.117-1.2582 1.5746-2.7981 3.1918-4.9084 3.4309-2.7981 0.2467-5.7108-1.1984-7.2108-3.5754-2.9153 0.15448-6.0048-0.0225-8.5613-1.5772-3.3438-1.9086-5.0082-5.6735-5.8528-9.2714-4.2681-22.265-3.1643-45.325 1.774-67.384 1.5822-7.2332 3.4584-14.404 5.5389-21.513 0.86212-2.8155 2.4319-5.5239 4.8762-7.2432 2.5115-1.7566 5.626-2.3446 8.631-2.529 2.093-0.30396 3.8096 1.186 5.7432 1.6918 1.0663-0.11963 2.093-0.42609 3.137-0.68024 2.3545 1.1337 4.8137 2.7408 5.4815 5.4517h2.9401c0.68774-2.7233 1.3406-5.4517 1.8738-8.2074-1.176-0.59552-2.5689-1.0565-3.2465-2.2824-1.682-2.8479-3.7325-5.7158-3.9593-9.1243-0.16937-1.8114 0.47089-3.5606 1.1586-5.195-3.1369-3.0149-5.043-6.999-6.9914-10.829-3.6802-10.071-7.9833-19.95-13.392-29.224-7.3653-12.675-16.931-24.281-29.018-32.708-14.698-10.445-32.723-15.448-50.617-16.046-17.13-0.82477-34.629 2.4891-49.808 10.624-15.7 8.342-28.554 21.468-37.676 36.637-5.8578 9.5978-10.253 20.035-13.44 30.799-1.8862 3.8221-3.8546 7.739-6.9293 10.771 1.6495 3.1295 1.4327 6.9117-0.28162 9.964-1.5397 2.5041-2.6012 5.818-5.798 6.6103 0.25415 2.2376 0.7002 4.4401 1.2234 6.6278 0.99664 0 1.9934-5e-3 2.99-5e-3 0.64777-2.7084 3.0896-4.2682 5.4068-5.4517 1.0963 0.23419 2.1877 0.48084 3.284 0.71759 1.4252-0.60547 2.8206-1.2956 4.3005-1.7815 3.558 0.0374 7.3379 0.59796 10.276 2.7632 2.4468 1.8238 3.9318 4.632 4.7565 7.5247 5.0556 17.499 9.0821 35.441 9.705 53.702 0.45593 10.918-0.36133 21.882-2.1229 32.668-0.64282 3.7449-1.8587 7.6841-4.7939 10.288-2.7308 2.3546-6.5306 2.8828-10.016 2.5938-1.3555 2.1976-3.9667 3.5082-6.5106 3.6303-2.3995 0.0797-4.2159-1.7018-5.6112-3.4384-2.4119-0.37378-4.602-1.5374-6.3985-3.1693-0.58057-1.9037-1.2409-3.7748-1.8588-5.6685-1.8164-0.92194-3.7374-1.6719-5.4816-2.7283-1.1337-1.1686-2.22-2.4094-3.0721-3.7897-6.2166-13.507-11.235-27.717-13.218-42.505-1.2283-8.8926-1.3405-17.935-0.46838-26.865 0.0922-2.3671 2.7159-3.5655 3.2839-5.7308 0.53314-4.7191 0.74994-9.4731 1.5124-14.167 0.27161-2.4992 0.88708-5.058 0.27661-7.5472-0.61292-3.2366 0.16193-6.5804 1.3878-9.5828 1.3007-2.8753 2.9477-5.7606 5.5764-7.6194 0.24915-1.6694 0.61792-3.3263 0.74994-5.0131-0.23914-2.0681-0.56061-4.1312-1.1138-6.1394-1.333-9.984 0.9444-20.092 4.6519-29.344 4.0688-10.071 9.832-19.385 16.365-28.038 8.3544-11.04 18.346-20.952 29.992-28.512z" fill="#fff"/>
   </g>
   <circle cx="-557.94" cy="316.6" r="19.328" fill="#8bc34a"/>
   <path d="m-542.36 305.2-12.734 12.734 11.545 11.545a19.328 19.328 0 0 0 4.9414 -12.877 19.328 19.328 0 0 0 -3.752 -11.402z" fill="#d7ccc8"/>
   <path d="m-555.14 317.98-14.199 14.197a19.328 19.328 0 0 0 11.404 3.75 19.328 19.328 0 0 0 14.34 -6.4024l-11.545-11.545z" fill="#26c6da"/>
   <path d="m-554.43 316.73-2.2715 2.2715 11.82 11.822a19.328 19.328 0 0 0 2.1777 -2.3672l-11.727-11.727z" fill="#efebe9"/>
   <path d="m-543.34 303.97-27.24 27.24a19.328 19.328 0 0 0 2.6426 1.9043l26.516-26.518a19.328 19.328 0 0 0 -1.918 -2.627z" fill="#ffee58"/>
   <circle cx="-559.41" cy="309.71" r="4.2553" fill="#fff"/>
   <path d="m-563.33 311.31 4.2147 6.6074 3.4724-6.3155z" fill="#fff" fill-rule="evenodd"/>
   <circle cx="-559.47" cy="309.65" r="1.7898" fill="#8bc34a"/>
   <circle cx="-498.34" cy="316.6" r="19.328" fill="#ec407a"/>
   <g transform="matrix(.29112 0 0 .19658 -742.76 282.51)" fill="#fff">
    <path d="m840 187c-18 0-33 5.908-33 28 0 3.313 2.687 6 6 6h54c3.313 0 6-2.687 6-6 0-22.09-15-28-33-28z" fill="#fff"/>
   </g>
   <g transform="matrix(.29112 0 0 .29112 -742.76 260.61)" fill="#fff">
    <circle cx="840" cy="177" r="18" fill="#fff"/>
   </g>
   <g transform="matrix(.29112 0 0 .29112 -742.76 260.61)" fill="#fff">
    <path d="m858.61 173.17c-0.127-0.618-0.283-1.226-0.469-1.821-2.4-7.73-9.61-13.35-18.14-13.35-0.564 0-1.12 0.036-1.672 0.084-0.42 0.04-0.837 0.096-1.249 0.163-0.062 0.01-0.123 0.019-0.184 0.028-0.976 0.172-1.927 0.417-2.849 0.725h-0.096c-7.209 2.423-12.47 9.043-12.898 16.962 1.836-0.44 3.753-1.189 5.624-2.27 3.179-1.835 5.6-4.254 6.995-6.692h0.628c3.091 6.405 11.406 11 21.2 11 1.18 0 2.329-0.087 3.46-0.215 0.011-0.263 0.04-0.521 0.04-0.785 0.01-1.31-0.12-2.59-0.38-3.83z" fill="#fff"/>
   </g>
   <rect x="-518.68" y="556.9" width="16.505" height="11.485" ry="1.426" fill="#fff"/>
   <circle cx="-510.18" cy="562.82" r="4.0654" fill="#f2f2f2"/>
   <circle cx="-510.16" cy="562.8" r="3.176" fill="#fff"/>
   <rect x="-516.84" y="555.75" width="4.2409" height="2.356" ry=".75393" fill="#fff"/>
  </g>
 </g>
</svg>